<?xml version="1.0" encoding="UTF-8"?>
<!DOCTYPE svg PUBLIC "-//W3C//DTD SVG 1.1//EN" "http://www.w3.org/Graphics/SVG/1.1/DTD/svg11.dtd">
<!-- Creator: CorelDRAW -->
<svg xmlns="http://www.w3.org/2000/svg" xml:space="preserve" width="800px" height="719px" version="1.1" style="shape-rendering:geometricPrecision; text-rendering:geometricPrecision; image-rendering:optimizeQuality; fill-rule:evenodd; clip-rule:evenodd"
viewBox="0 0 800 719.29"
 xmlns:xlink="http://www.w3.org/1999/xlink"
 xmlns:xodm="http://www.corel.com/coreldraw/odm/2003">
 <defs>
  <style type="text/css">
   <![CDATA[
    .fil6 {fill:#263238;fill-rule:nonzero}
    .fil2 {fill:#27DEBF;fill-rule:nonzero}
    .fil5 {fill:#37474F;fill-rule:nonzero}
    .fil7 {fill:#455A64;fill-rule:nonzero}
    .fil11 {fill:#6281E6;fill-rule:nonzero}
    .fil18 {fill:#9A4A4D;fill-rule:nonzero}
    .fil19 {fill:#A6EFE3;fill-rule:nonzero}
    .fil13 {fill:#B16668;fill-rule:nonzero}
    .fil1 {fill:#E0E0E0;fill-rule:nonzero}
    .fil17 {fill:#EBEBEB;fill-rule:nonzero}
    .fil0 {fill:whitesmoke;fill-rule:nonzero}
    .fil8 {fill:#FAFAFA;fill-rule:nonzero}
    .fil4 {fill:white;fill-rule:nonzero}
    .fil3 {fill:black;fill-rule:nonzero;fill-opacity:0.101961}
    .fil20 {fill:black;fill-rule:nonzero;fill-opacity:0.149020}
    .fil15 {fill:#021F16;fill-rule:nonzero;fill-opacity:0.301961}
    .fil9 {fill:#6FA6E7;fill-rule:nonzero;fill-opacity:0.400000}
    .fil10 {fill:#D3E8FB;fill-rule:nonzero;fill-opacity:0.400000}
    .fil12 {fill:white;fill-rule:nonzero;fill-opacity:0.400000}
    .fil16 {fill:#139474;fill-rule:nonzero;fill-opacity:0.600000}
    .fil14 {fill:#13B886;fill-rule:nonzero;fill-opacity:0.600000}
   ]]>
  </style>
 </defs>
 <g id="Camada_x0020_1">
  <metadata id="CorelCorpID_0Corel-Layer"/>
  <g id="_2705105888016">
   <g id="Floor">
    <path id="Floor_3_" class="fil0" d="M116.32 658.15c156.2,81.6 409.47,81.6 565.68,0 156.21,-81.61 156.21,-213.92 0,-295.52 -156.21,-81.61 -409.48,-81.61 -565.69,0 -156.2,81.6 -156.2,213.91 0.01,295.52z"/>
   </g>
   <g id="Shadows">
    <ellipse id="Shadow" class="fil1" cx="583.52" cy="541.2" rx="74.22" ry="42.85"/>
   </g>
   <g id="Plants">
    <g id="Plants_3_">
     <g id="XMLID_2129_">
      <g id="XMLID_2124_">
       <g id="XMLID_2127_">
        <path id="XMLID_2131_" class="fil2" d="M131.45 518.83c-1.1,-12.59 -12.49,-37.88 -26.99,-53.09 -14.49,-15.21 -36.08,-25.37 -50.24,-19.1 -13.19,5.83 -10.16,23.54 7.37,33.91 17.53,10.38 43.61,23.06 52.65,42.85l17.41 23.74 -0.2 -28.31z"/>
        <path id="XMLID_2130_" class="fil3" d="M131.45 518.83c-1.1,-12.59 -12.49,-37.88 -26.99,-53.09 -14.49,-15.21 -36.08,-25.37 -50.24,-19.1 -13.19,5.83 -10.16,23.54 7.37,33.91 17.53,10.38 43.61,23.06 52.65,42.85l17.41 23.74 -0.2 -28.31z"/>
       </g>
       <g id="XMLID_2125_">
        <path id="XMLID_1153_" class="fil4" d="M133.89 535.98c-0.41,0 -0.78,-0.26 -0.9,-0.67 -12.18,-42.25 -50.02,-74.15 -71.51,-80.06 -0.49,-0.13 -0.78,-0.64 -0.64,-1.13 0.13,-0.49 0.63,-0.79 1.14,-0.65 21.89,6.02 60.41,38.44 72.79,81.33 0.14,0.49 -0.14,1 -0.63,1.14 -0.09,0.03 -0.17,0.04 -0.25,0.04l0 0z"/>
       </g>
      </g>
      <g id="XMLID_2122_">
       <g id="XMLID_2123_">
        <path id="XMLID_2126_" class="fil2" d="M129.88 564.06c-2.64,-6.9 -12.31,-17.83 -27.14,-26.25 -16.4,-9.33 -36.41,-12.52 -41.65,-20.44 -6.3,-9.51 1.3,-19.68 17.36,-19.1 16.06,0.59 45.9,19.83 53.22,52.08l-1.79 13.71z"/>
       </g>
       <g id="XMLID_2128_">
        <path id="XMLID_1151_" class="fil4" d="M132.3 556.36c-0.35,0 -0.68,-0.2 -0.84,-0.54 -16.4,-35.68 -45.63,-46.15 -58.79,-46.7 -0.52,-0.02 -0.91,-0.45 -0.89,-0.96 0.02,-0.51 0.43,-0.9 0.96,-0.89 14.56,0.61 43.66,11.36 60.4,47.78 0.21,0.46 0.01,1.01 -0.46,1.23 -0.12,0.05 -0.25,0.08 -0.38,0.08l0 0z"/>
       </g>
      </g>
     </g>
    </g>
    <g id="Plants_4_">
     <g id="XMLID_1160_">
      <g id="XMLID_1221_">
       <path id="XMLID_1222_" class="fil2" d="M624.38 502.5c-0.28,-10.13 2.54,-27.13 12.52,-44.09 10.69,-18.15 24.79,-30.31 36.65,-26.61 11.03,3.44 8.61,18.42 -7.99,34.74 -11.65,11.44 -23.43,25.98 -28.82,42.57l-9.34 21.38 -3.02 -27.99 0 0z"/>
      </g>
      <g id="XMLID_1218_">
       <path id="XMLID_1220_" class="fil2" d="M624.38 502.5c-0.28,-10.13 2.54,-27.13 12.52,-44.09 10.69,-18.15 24.79,-30.31 36.65,-26.61 11.03,3.44 8.61,18.42 -7.99,34.74 -11.65,11.44 -23.43,25.98 -28.82,42.57l-9.34 21.38 -3.02 -27.99 0 0z"/>
      </g>
      <g id="XMLID_1223_">
       <path id="XMLID_1224_" class="fil3" d="M624.38 502.5c-0.28,-10.13 2.54,-27.13 12.52,-44.09 10.69,-18.15 24.79,-30.31 36.65,-26.61 11.03,3.44 8.61,18.42 -7.99,34.74 -11.65,11.44 -23.43,25.98 -28.82,42.57l-9.34 21.38 -3.02 -27.99 0 0z"/>
      </g>
      <g id="XMLID_1161_">
       <path id="XMLID_1217_" class="fil4" d="M626.22 510.05c0.29,-0.03 0.55,-0.24 0.63,-0.55 7.1,-28.93 25.12,-59.39 41.92,-70.83 0.32,-0.23 0.4,-0.67 0.18,-1 -0.23,-0.33 -0.67,-0.41 -0.99,-0.19 -17.05,11.63 -35.33,42.44 -42.51,71.68 -0.09,0.39 0.14,0.77 0.52,0.87 0.09,0.02 0.17,0.03 0.25,0.02l0 0z"/>
      </g>
     </g>
     <g id="XMLID_1154_">
      <path id="XMLID_1159_" class="fil2" d="M624.28 535.32c0,0 7.09,7.09 19.72,9.87 12.62,2.78 18.61,-2.98 18.61,-2.98 0,0 -4.3,-12.26 -11.35,-16.04 0,0 12.13,3.23 21.59,10.39 0,0 7.78,0.58 11.58,-11.11 0,0 -4.18,-7.43 -19.42,-12.22 0,0 9.55,-1.8 22.91,2.47 0.99,0.46 6.25,-14.64 7.98,-21.65 1.74,-7.01 -1.11,-7.1 -6.55,-8.91 -5.44,-1.8 -24.2,-3.85 -27.84,-1.02 -3.64,2.84 -6.02,13.12 -6.02,13.12 0,0 -2.95,-6.08 -1.85,-11.28 0,0 -5.43,-2.21 -11.77,-0.41 -6.34,1.78 -6.12,4.84 -6.39,9.36 -0.29,4.82 0,8.06 1.06,13.56 0,0 -4.07,-3.97 -3.4,-17.65 0,0 -8.82,6.68 -12.56,12.65 -3.73,5.96 -3.84,22.16 3.7,31.85l0 0z"/>
      <g id="XMLID_1157_">
       <path id="XMLID_1158_" class="fil4" d="M624.23 536.03c0.27,0.02 0.54,-0.11 0.68,-0.36 11.56,-20.76 51.29,-43.32 65.14,-45.17 0.4,-0.05 0.68,-0.41 0.62,-0.81 -0.05,-0.39 -0.41,-0.66 -0.8,-0.61 -14.09,1.87 -54.47,24.79 -66.22,45.88 -0.19,0.35 -0.07,0.79 0.28,0.98 0.1,0.06 0.2,0.09 0.3,0.09l0 0z"/>
      </g>
     </g>
    </g>
   </g>
   <g id="Device">
    <g id="Device_1_">
     <path id="XMLID_304_" class="fil5" d="M141.26 577.97l-4.94 -2.85c-4.01,-2.31 -7.26,-7.95 -7.26,-12.59l0 -432.88c0,-4.63 3.25,-10.26 7.26,-12.58l199.65 -115.27c4.01,-2.31 10.52,-2.31 14.53,0l4.94 2.86c4.02,2.31 7.27,7.94 7.27,12.58l0 432.88c0,4.63 -3.25,10.27 -7.26,12.58l-199.66 115.27c-4.01,2.32 -10.52,2.32 -14.53,0l0 0z"/>
     <path id="XMLID_301_" class="fil6" d="M158.26 138.13l-27.08 -15.64c-1.31,2.28 -2.12,4.84 -2.12,7.16l0 432.89c0,4.63 3.25,10.27 7.26,12.58l4.94 2.85c4.01,2.32 10.51,2.32 14.53,0l2.47 -1.42 0 -438.42 0 0z"/>
     <path id="XMLID_298_" class="fil7" d="M148.53 140.89l0 432.89c0,4.63 3.24,6.51 7.26,4.2l199.65 -115.27c4.01,-2.32 7.26,-7.96 7.26,-12.59l0 -432.88c0,-4.63 -3.24,-6.51 -7.26,-4.19l-199.65 115.26c-4.01,2.32 -7.26,7.95 -7.26,12.58z"/>
     <path id="XMLID_294_" class="fil8" d="M164.49 168.26l181.54 -104.81c3.44,-1.98 6.23,-0.37 6.23,3.6l0 345.35c0,3.97 -2.79,8.79 -6.23,10.78l-181.54 104.81c-3.44,1.98 -6.23,0.37 -6.23,-3.6l0 -345.35c0,-3.97 2.79,-8.8 6.23,-10.78z"/>
     <g id="XMLID_1334_">
      <path id="XMLID_1336_" class="fil9" d="M256.27 195.48c20.35,-11.75 36.85,-2.23 36.85,21.28 0,23.5 -16.5,52.07 -36.85,63.82 -20.36,11.75 -36.86,2.23 -36.86,-21.27 0,-23.5 16.5,-52.08 36.86,-63.83z"/>
      <path id="XMLID_1335_" class="fil10" d="M328.89 321.16c0,-38.61 -27.11,-55.75 -60.54,-36.44l-20.91 12.07c-33.43,19.3 -60.54,66.25 -60.54,104.86l0 10.39 141.99 -81.92 0 -8.96 0 0z"/>
     </g>
     <path id="XMLID_271_" class="fil6" d="M255.61 81.92c2.69,-1.55 4.87,-0.29 4.87,2.81 0,3.1 -2.18,6.88 -4.87,8.43 -2.68,1.55 -4.86,0.3 -4.86,-2.81 0,-3.1 2.18,-6.88 4.86,-8.43z"/>
     <g id="XMLID_233_">
      <path id="XMLID_241_" class="fil6" d="M241.55 106.23c9.9,-5.46 27.54,-15.96 37.29,-21.7 1.66,-0.97 3,-0.31 3,1.5 0,1.8 -1.35,4.04 -3.01,5l-37.35 21.57c-1.66,0.96 -3.01,0.28 -3.01,-1.53 0,-1.79 1.41,-3.91 3.08,-4.84z"/>
      <path id="XMLID_238_" class="fil6" d="M232.12 111.69c1.51,-0.87 2.74,-0.16 2.74,1.58 0,1.74 -1.23,3.86 -2.74,4.73 -1.51,0.87 -2.73,0.17 -2.73,-1.58 0,-1.74 1.23,-3.86 2.73,-4.73z"/>
     </g>
     <path id="XMLID_198_" class="fil6" d="M255.61 486.61c5.38,-3.1 9.74,-0.58 9.74,5.62 0,6.21 -4.36,13.76 -9.74,16.87 -5.38,3.1 -9.73,0.59 -9.73,-5.63 0,-6.2 4.35,-13.75 9.73,-16.86z"/>
    </g>
   </g>
   <g>
    <g id="XMLID_859_">
     <g id="XMLID_872_">
      <path id="XMLID_956_" class="fil11" d="M421.17 365.36l-21.89 -12.65c0,0 -0.03,0 -0.05,0l-0.23 -0.13 -0.02 0.05c-10.89,-6.15 -25.81,-5.24 -42.35,4.31 -15.46,8.91 -29.58,23.79 -40.21,41 -12.3,19.83 -20.03,42.78 -20.03,63.35 0,19.19 6.72,32.66 17.58,38.97l0 0.03 0.07 0.02 22.23 12.69c10.97,7 26.47,6.38 43.67,-3.55 33.28,-19.21 60.26,-65.93 60.26,-104.37 0,-20 -7.32,-33.79 -19.03,-39.72l0 0z"/>
      <g id="XMLID_873_">
       <path id="XMLID_955_" class="fil3" d="M335.83 512.75l-21.8 -12.45 -0.07 -0.03 0 -0.02c-10.87,-6.29 -17.57,-19.78 -17.57,-38.96 0,-20.57 7.73,-43.51 20.03,-63.34l23.25 13.41c-12.29,19.83 -20,42.74 -20,63.29 0,18.35 6.14,31.47 16.16,38.1l0 0z"/>
       <path id="XMLID_954_" class="fil12" d="M420.72 365.11c-10.73,-5.21 -25.06,-3.89 -40.78,5.18 -15.49,8.96 -29.61,23.85 -40.27,41.08l-23.25 -13.42c10.64,-17.23 24.76,-32.1 40.21,-41 16.53,-9.55 31.47,-10.46 42.36,-4.32l0.01 -0.05 0.23 0.14c0.02,0 0.05,0 0.05,0l21.44 12.39 0 0z"/>
      </g>
     </g>
    </g>
    <g>
     <polygon id="XMLID_1085_" class="fil4" points="411.31,389.59 402.97,384.77 371.82,458.17 363.87,444.61 355.53,439.8 346.57,458.77 369.66,482.86 378,487.62 424.46,402.41 "/>
     <g id="XMLID_1082_">
      <polygon id="XMLID_1083_" class="fil0" points="378,487.62 354.91,463.58 363.87,444.61 375.85,465.04 411.31,389.59 424.46,402.41 "/>
     </g>
     <polygon id="XMLID_1081_" class="fil1" points="346.57,458.77 354.91,463.58 378,487.62 369.66,482.86 "/>
    </g>
   </g>
   <path id="XMLID_1150_" class="fil6" d="M591.32 176.18l0 0c19.69,0 35.65,-15.96 35.65,-35.65l0 -2.1c0,-16.7 -13.53,-30.23 -30.22,-30.23l-10.87 0c-16.69,0 -30.22,13.53 -30.22,30.23l0 2.1c0,19.69 15.96,35.65 35.66,35.65z"/>
   <g id="XMLID_1235_">
    <path id="XMLID_1149_" class="fil6" d="M554.62 528.78c-4.14,4.53 -8.71,8.17 -13.6,11.84 -0.74,0.54 -1.5,1.12 -1.9,1.96 -0.64,1.33 -1.64,4.63 4.45,6.75 5.95,2.08 13.36,1.59 18.77,-1.8 5,-3.12 5.22,-9.63 9.93,-13.34 3.5,-2.75 7.86,-3.46 10.68,-7.05 1.97,-2.5 1.46,-5.83 0.43,-9.95 -1.11,-4.49 -1.63,-7.9 -3.12,-7.56l0.25 2.07c-1.86,2.97 -11.49,3.84 -15.78,1.8 0,0 -7.41,12.33 -10.11,15.28l0 0z"/>
    <path id="XMLID_1148_" class="fil13" d="M550.4 532.99c0,0 0,-0.02 0,-0.03 1.45,-1.32 2.86,-2.7 4.22,-4.18 1.74,-1.9 5.44,-7.7 7.86,-11.58 1.46,-2.36 2.53,-5.18 2.19,-8.29 -0.33,-3.11 -1.19,-11.09 -1.19,-11.09l15.25 -1.07 1.78 14.95 0 0c0.36,3.39 -2.44,6.4 -7.4,10.67 -4.96,4.28 -11.27,14.26 -15.76,16.77 -4.49,2.51 -7.71,2.41 -9.62,1.13 -1.98,-1.32 -2.17,-2.33 2.67,-7.28l0 0z"/>
    <path id="XMLID_1147_" class="fil6" d="M612.62 530.15l0 -2.3c-0.9,2.69 -5.1,14.27 -11.45,20.07 -5.06,4.61 -11.96,9.94 -13.72,15.08 -1.82,5.35 9.61,7.15 14.33,6.31 5.49,-0.97 12.59,-4.09 16.46,-8.83 2.71,-3.34 4.44,-7.3 6.38,-9.93 1.94,-2.62 6.41,-5.56 7.47,-8.6 0.57,-1.66 -0.11,-5.32 -0.92,-8.41 -0.74,-2.83 -1.55,-5.95 -2.52,-5.69 0,0.35 0,1.75 0,1.75 -1.16,1.29 -4.38,2.58 -8.01,2.72 -2.35,0.08 -8.03,-0.38 -8.02,-2.17l0 0z"/>
    <path id="XMLID_1146_" class="fil13" d="M596.59 551.98c1.57,-1.4 3.15,-2.77 4.58,-4.07 4.44,-4.06 7.83,-10.93 9.77,-15.62 1.11,-2.68 1.68,-5.54 1.68,-8.44l0 -9.13 16.04 -0.01 0 14.87 0 0 0 0.01 0 0.4 -0.08 0.04c-0.78,3.32 -8.13,12.19 -12.31,17.97 -2.8,3.87 -8.13,8.8 -14.49,9.65 -6.03,0.8 -9.11,-1.1 -5.19,-5.67l0 0z"/>
    <path id="XMLID_1145_" class="fil2" d="M625.46 281.02c12.43,27.14 -0.44,122.76 -0.44,122.76 0.37,4.4 5.41,13.07 7.28,32.46 2.22,22.9 -3.48,80.42 -3.48,80.42 0,0 -7.42,4.85 -16.2,0.64 0,0 -15.28,-86.62 -18.15,-109.4 -2.51,-19.87 -7.32,-66.59 -7.32,-66.59l-12.49 67.02c0,0 4.06,10.91 4.88,19.39 1.3,13.4 0.33,75.36 0.33,75.36 0,0 -5.49,4.17 -15.99,2.63 0,0 -18.18,-84.84 -19.59,-100.96 -0.83,-9.63 10.14,-127.71 10.14,-127.71l71.03 3.98 0 0z"/>
    <path id="XMLID_1_" class="fil14" d="M625.46 281.02c12.43,27.14 -0.44,122.76 -0.44,122.76 0.37,4.4 5.41,13.07 7.28,32.46 2.22,22.9 -3.48,80.42 -3.48,80.42 0,0 -7.42,4.85 -16.2,0.64 0,0 -15.28,-86.62 -18.15,-109.4 -2.51,-19.87 -7.32,-66.59 -7.32,-66.59l-12.49 67.02c0,0 4.06,10.91 4.88,19.39 1.3,13.4 0.33,75.36 0.33,75.36 0,0 -5.49,4.17 -15.99,2.63 0,0 -18.18,-84.84 -19.59,-100.96 -0.83,-9.63 10.14,-127.71 10.14,-127.71l71.03 3.98 0 0z"/>
    <path id="XMLID_1144_" class="fil15" d="M587.15 341.31l-4.04 -22.2c0,0 -17.06,-3.53 -24.8,-10.81 0,0 8.12,10.1 20.18,13.41l4.54 19.41 -7.14 60.62 11.26 -60.43 0 0z"/>
   </g>
   <path id="XMLID_1143_" class="fil13" d="M645.72 269.22c-0.13,-1.78 -3.46,-20.79 -5.75,-31.42l-22.35 6.85 3.97 19.55 18.83 15.12c5.89,-1.18 5.43,-8.32 5.3,-10.1z"/>
   <polygon id="XMLID_1142_" class="fil13" points="537.66,229.15 527.1,248.51 543.53,262.59 558.57,238.73 "/>
   <path id="XMLID_1141_" class="fil2" d="M577.29 185.99c-10.48,0.11 -22.01,3.92 -25.98,12.13 -3.97,8.22 -14.96,30.87 -14.96,30.87 0,0 9.78,13.29 24.46,12.33l16.48 -55.33 0 0z"/>
   <path id="XMLID_3_" class="fil16" d="M577.29 185.99c-10.48,0.11 -22.01,3.92 -25.98,12.13 -3.97,8.22 -14.96,30.87 -14.96,30.87 0,0 9.78,13.29 24.46,12.33l16.48 -55.33 0 0z"/>
   <path id="XMLID_1140_" class="fil0" d="M598.97 186.36l8.72 0.36c9.49,2.28 12.9,8.79 16.89,17.21 3.04,6.4 3.07,13.83 0.76,20.53l-11.11 32.12c0,0 5.2,12.57 11.23,24.44 -27.86,15.55 -62.65,7.38 -71.03,-3.97 -0.35,-2.41 0.13,-13.26 -0.55,-25.6 -0.72,-13.17 -2.52,-28.03 -0.45,-36.17 3.84,-15.11 11.04,-29.29 25.36,-29.29l20.18 0.37z"/>
   <path id="XMLID_1139_" class="fil2" d="M607.68 186.72c9.52,1.34 23.48,3.26 28.29,25.86 4.88,22.91 5.82,28.36 5.82,28.36 0,0 -8.32,8.29 -24.09,8.22 0,0 -13.91,-44.98 -10.02,-62.44z"/>
   <path id="XMLID_2_" class="fil16" d="M607.68 186.72c9.52,1.34 23.48,3.26 28.29,25.86 4.88,22.91 5.82,28.36 5.82,28.36 0,0 -8.32,8.29 -24.09,8.22 0,0 -13.91,-44.98 -10.02,-62.44z"/>
   <path id="XMLID_1138_" class="fil17" d="M617.28 247.76c-1.75,-6 -3.61,-12.85 -5.36,-20.23 0,0 0.08,16.06 2.81,27.59l2.55 -7.36 0 0z"/>
   <g id="XMLID_1219_">
    <path id="XMLID_1136_" class="fil13" d="M567.38 122.62c-3.77,2.23 -8.43,11.7 -7.97,31.56 0.39,16.83 5.85,20.99 8.58,22.19 2.74,1.2 8.02,0.47 13.16,-0.38l0 10.09c0,0 -7.09,8.25 -6.65,12.88 0.45,4.64 10.25,5.73 16.89,1.2 6.65,-4.52 10.91,-11.41 10.91,-11.41l0 -24.41c0,0 3.46,4.63 9.14,0.86 5.67,-3.77 5.88,-13.09 2.59,-16.43 -3.3,-3.35 -10.41,-2.29 -11.73,2.33 0,0 -8.19,0.3 -19.1,-5.69 -10.91,-6 -15.11,-16.26 -15.82,-22.79l0 0z"/>
    <path id="XMLID_1121_" class="fil6" d="M578.2 149.95c-0.06,1.22 0.84,2.24 2,2.3 1.17,0.06 2.17,-0.88 2.23,-2.09 0.06,-1.22 -0.84,-2.25 -2.01,-2.31 -1.16,-0.05 -2.16,0.89 -2.22,2.1z"/>
    <path id="XMLID_1120_" class="fil18" d="M577.64 164.22l-4.92 1.57c0.41,1.41 1.84,2.2 3.2,1.77 1.36,-0.44 2.13,-1.93 1.72,-3.34l0 0z"/>
    <path id="XMLID_1119_" class="fil6" d="M560.85 143.46l4.28 -2.97c-0.78,-1.22 -2.37,-1.55 -3.55,-0.73 -1.19,0.82 -1.51,2.47 -0.73,3.7z"/>
    <path id="XMLID_1116_" class="fil6" d="M561.84 148.42c-0.07,1.22 0.84,2.24 2,2.3 1.17,0.06 2.16,-0.88 2.22,-2.1 0.06,-1.21 -0.83,-2.24 -2,-2.29 -1.16,-0.05 -2.16,0.88 -2.22,2.09z"/>
    <polygon id="XMLID_1115_" class="fil18" points="571.82,147.22 571.48,159.95 564.78,157.88 "/>
    <path id="XMLID_1112_" class="fil18" d="M581.15 175.99c5.42,-0.72 16.55,-3.91 18.29,-8.32 0,0 -0.58,2.77 -3.9,5.62 -3.33,2.85 -14.38,6.06 -14.38,6.06l0 -3.36 -0.01 0 0 0z"/>
   </g>
   <g id="XMLID_1155_">
    <polygon id="XMLID_1107_" class="fil19" points="492.57,227.96 554.01,244.14 572.15,320.4 513.73,303.43 "/>
    <path id="XMLID_1106_" class="fil20" d="M519.36 278.42c-0.57,1.55 -3.94,5.88 -11.09,5.54l-0.88 -3.16 11.97 -2.38 0 0z"/>
    <path id="XMLID_1105_" class="fil20" d="M533.09 280.8c0.27,2.03 4.45,5.8 11.52,8.15 8.03,2.68 20.37,1.27 20.37,1.27l-1.11 -3.8 -30.78 -5.62 0 0z"/>
    <path id="XMLID_1104_" class="fil20" d="M510.55 239c0,0 -0.22,-1.05 -0.5,-2.35 -0.28,-1.29 3.33,-1.34 8.06,-0.12l9.05 2.35c4.73,1.23 8.79,3.27 9.07,4.57l0.5 2.34 -26.18 -6.79z"/>
    <g id="XMLID_1156_">
     <path id="XMLID_1103_" class="fil5" d="M506.3 230.16c-0.18,-0.81 1.28,-1.02 3.26,-0.48l3.59 1c0,0 -1.07,-5.07 6.88,-3.3 7.96,1.77 9.7,7.53 9.7,7.53 0,0 1.71,0.48 3.83,1.08 2.11,0.61 4.02,1.74 4.28,2.55l0.44 1.45 -31.65 -8.33c0,0 -0.15,-0.69 -0.33,-1.5l0 0z"/>
     <path id="XMLID_1099_" class="fil5" d="M510.65 232.69c2.91,0.7 4.11,1.09 4.55,3.08 0.49,2.28 0.69,3.95 0.69,3.95l14.01 3.7c0,0 -0.67,-2.88 -0.89,-4.01 -0.22,-1.12 0.26,-1.8 2.49,-1.2l0.19 -0.9 -21.95 -5.59 0.91 0.97 0 0z"/>
     <path id="XMLID_845_" class="fil5" d="M510.18 239.22c0,0 -0.23,-1.05 -0.51,-2.34 -0.28,-1.3 3.33,-1.35 8.05,-0.13l9.06 2.36c4.73,1.22 8.79,3.26 9.06,4.56l0.51 2.34 -26.17 -6.79 0 0z"/>
    </g>
   </g>
   <path id="XMLID_730_" class="fil13" d="M640.42 279.32l-0.32 -0.91 -17.93 -14.1 -0.58 -0.11c0,0 -41.6,7.42 -46.49,7.8 -4.89,0.39 -10.32,-3.07 -12.18,-7.86 -1.87,-4.8 -5.15,-4.21 -5.15,-4.21 0,0 1.45,6.09 1.91,8.03 0.46,1.94 -11.25,3.54 -17.75,1.33 -6.5,-2.19 -15.9,1 -10.08,9.85 5.83,8.84 17.16,9.87 25.03,9.87 2.18,0.01 6.05,-0.16 9.84,-0.65 2.56,-0.33 5.09,-0.59 7.65,-0.77 16.11,-1.16 58.72,-5.98 66.05,-8.27l0 0z"/>
   <path id="XMLID_728_" class="fil13" d="M498.82 250.25c0,0 2.2,7.85 2.72,9.73 0.53,1.87 7.67,5.27 12.19,6.51 4.52,1.25 9.46,2.72 7.32,9.03 -1.97,5.82 -9.4,7.15 -13.19,6.99 -3.78,-0.17 -8.96,-3.78 -11,-9.61 -2.61,-7.44 -1.2,-15.38 -2.24,-19.73 -1.03,-4.34 1.93,-5.51 4.2,-2.92l0 0z"/>
   <path id="XMLID_1137_" class="fil6" d="M622.5 215.28l0 0c-11.16,0 -20.21,-9.05 -20.21,-20.21l0 -28.36 0 0c11.16,0 20.21,9.05 20.21,20.2l0 28.37 0 0z"/>
  </g>
 </g>
</svg>
