<?xml version="1.0" encoding="utf-8"?>
<!-- Generator: Adobe Illustrator 25.0.0, SVG Export Plug-In . SVG Version: 6.00 Build 0)  -->
<svg version="1.1" id="Camada_1" xmlns="http://www.w3.org/2000/svg" xmlns:xlink="http://www.w3.org/1999/xlink" x="0px" y="0px"
	 viewBox="0 0 389.5 382.2" style="enable-background:new 0 0 389.5 382.2;" xml:space="preserve">
<style type="text/css">
	.st0{fill:#F5F5F5;}
	.st1{fill:#E0E0E0;}
	.st2{opacity:0.3;enable-background:new    ;}
	.st3{fill:#27DEBF;}
	.st4{opacity:0.4;fill:#FFFFFF;enable-background:new    ;}
	.st5{opacity:0.4;enable-background:new    ;}
	.st6{fill:none;}
	.st7{opacity:0.2;enable-background:new    ;}
	.st8{opacity:0.1;enable-background:new    ;}
	.st9{opacity:0.5;fill:#FFFFFF;enable-background:new    ;}
	.st10{fill:#37474F;}
	.st11{fill:#455A64;}
	.st12{fill:#263238;}
	.st13{fill:none;stroke:#E6E6E6;stroke-miterlimit:10;}
	.st14{fill:#EBEBEB;}
	.st15{fill:#FAFAFA;}
	.st16{fill:#FFFFFF;}
	.st17{opacity:0.2;fill:#27DEBF;enable-background:new    ;}
	.st18{fill:#FFA8A7;}
	.st19{fill:#F28F8F;}
	.st20{opacity:0.5;enable-background:new    ;}
	.st21{opacity:0.7;enable-background:new    ;}
	.st22{opacity:0.7;fill:#FFFFFF;enable-background:new    ;}
</style>
<g id="Floor">
	<ellipse id="Floor_18_" class="st0" cx="192.9" cy="253.7" rx="176.4" ry="112.1"/>
</g>
<g id="Shadow">
	<ellipse id="XMLID_5454_" class="st1" cx="254.3" cy="318.7" rx="39" ry="22.6"/>
</g>
<g id="Mesh">
	<g id="XMLID_5374_">
		<path id="XMLID_5965_" class="st2" d="M36.1,155l0.2,0.1C36.2,155.1,36.1,155,36.1,155c-0.2-0.1-0.3-0.2-0.4-0.3L36.1,155z"/>
		<path id="XMLID_5948_" class="st3" d="M33.4,152.9c0,0.1,0,0.2,0,0.3C33.4,153.1,33.4,153,33.4,152.9L34,151L33.4,152.9z"/>
		<path id="XMLID_5939_" class="st4" d="M33.4,152.9c0,0.1,0,0.2,0,0.3C33.4,153.1,33.4,153,33.4,152.9L34,151L33.4,152.9z"/>
		<g id="XMLID_5886_">
			<path id="XMLID_5887_" class="st3" d="M88,126.2l-10.3-6c-0.1-0.1-0.1-0.1-0.1-0.1c-0.1,0-0.2,0-0.2,0c-0.3-0.2-0.5-0.3-0.8-0.4
				c-0.3-0.2-0.8-0.4-1.1-0.7c-1.5-0.9-3.2-1.9-4.4-2.6c-0.3-0.2-0.5-0.3-0.7-0.4c-0.8-0.5-1.3-0.8-1.4-0.8
				c-0.2-0.1-0.3-0.1-0.5-0.1l-5.2,0.5c-0.3,0-0.7,0.2-0.8,0.4c-0.2,0.1-0.3,0.3-0.3,0.3l-2.8,7.6c0,0,0,0,0,0.1
				c0,0.1-0.1,0.1-0.1,0.2c0,0.1-0.1,0.1-0.1,0.2c-0.1,0.1-0.2,0.2-0.2,0.3c-0.2,0.2-0.3,0.3-0.5,0.4c-0.1,0.1-0.2,0.1-0.2,0.1
				c-0.6,0.3-1.1,0.5-1.7,0.8l-5.4-3.2c-0.1-0.1-0.2-0.1-0.3-0.1c-0.2,0-0.4,0.1-0.6,0.3l0,0l-3.4,3.6l-2.3,2.4
				c-0.2,0.2-0.3,0.5-0.4,0.8c-0.1,0.2-0.1,0.4-0.1,0.5l1.6,5.4c0,0.1,0,0.1,0,0.2s0,0.3,0,0.3c0,0.1,0,0.2-0.1,0.3v0.1v0.1
				c0,0.1,0,0.1-0.1,0.2c0,0.1-0.1,0.2-0.2,0.3c-1,1.5-1.8,3-2.6,4.5c0,0.1-0.1,0.1-0.2,0.2c-0.1,0.1-0.1,0.1-0.2,0.2
				c-0.3,0.3-0.6,0.5-0.9,0.6l-4.8,1.2c-0.3,0.1-0.7,0.3-0.9,0.6c-0.1,0.1-0.2,0.3-0.2,0.3l-0.3,1L34,151l-0.6,1.9
				c0,0.1,0,0.2,0,0.3c0,0.1,0,0.1,0.1,0.2s0.1,0.1,0.2,0.2c0,0,0,0,0.1,0.1l0.8,0.5l0.3,0.1l0,0l0.7,0.3l0.3,0.2l0.4,0.3l0.2,0.1
				l0.4,0.3l2.3,1.3l0,0c0,0.8,0,1.5,0.1,2.2c0,0.2,0,0.3-0.1,0.6c-0.1,0.3-0.3,0.5-0.3,0.7l-4.9,6.1c-0.2,0.2-0.3,0.4-0.3,0.6
				c0,0.1,0,0.1,0,0.2c0,0.2,0,0.3,0,0.4l2.3,5.2c0,0,0,0.1,0.1,0.1l0.1,0.1l0,0c0.2,0.1,1.7,1,3.5,2c0.3,0.2,0.6,0.3,0.9,0.5
				c1.2,0.7,2.4,1.3,3.4,2c0.2,0.1,0.3,0.2,0.4,0.3c1.1,0.7,1.9,1.2,2.2,1.3c-0.1-0.1-0.1-0.1-0.2-0.2l-2.3-5.2
				c-0.1-0.2-0.1-0.4,0-0.7c0.1-0.2,0.2-0.4,0.3-0.6l4.9-6.1c0.2-0.2,0.3-0.5,0.4-0.8c0.1-0.3,0.1-0.4,0.1-0.6
				c-0.2-1.3-0.2-2.8,0-4.3c0-0.3-0.3-0.7-0.8-0.8l-4.4-0.3c-0.2,0-0.3-0.1-0.3-0.1l0,0c-0.2-0.2-0.3-0.3-0.3-0.6l2.2-7.2l0.3-1
				c0-0.1,0.1-0.3,0.2-0.3c0.2-0.3,0.6-0.5,0.9-0.6l4.8-1.2c0.3-0.1,0.7-0.3,1-0.6c0.1-0.1,0.2-0.3,0.3-0.3c0.8-1.6,1.7-3.1,2.6-4.5
				c0.2-0.3,0.3-0.8,0.3-1.1l0,0c0-0.1,0-0.1,0-0.2l-1.6-5.4c-0.1-0.2,0-0.3,0.1-0.6c0.1-0.3,0.3-0.5,0.4-0.7l0.1-0.1l5.6-6
				c0.3-0.3,0.6-0.3,0.8-0.3h0.1c0.1,0,0.1,0.1,0.2,0.1l2.7,4c0.2,0.3,0.7,0.3,1.1,0c1.1-0.8,2.2-1.3,3.2-1.9c0.5-0.3,1-0.7,1.1-1.1
				l0,0l2.8-7.6c0.1-0.2,0.2-0.3,0.3-0.4c0.3-0.2,0.6-0.3,0.8-0.4l5.2-0.5c0.2,0,0.3,0,0.4,0.1l0,0c0.2,0.1,0.3,0.3,0.3,0.5
				l-1.6,7.5c-0.1,0.4,0.2,0.8,0.5,0.9c0.8,0.3,1.6,0.8,2.3,1.3c0.3,0.3,0.8,0.2,1.2-0.2l5.3-4.9C87.5,126.2,87.8,126.1,88,126.2z"
				/>
			<path id="XMLID_5934_" class="st3" d="M84.9,142.4c0,0.7-0.1,1.3-0.1,2.1c0,0.3,0.3,0.7,0.8,0.8l4.4,0.3c0.2,0,0.3,0,0.3,0.1
				C90,145.4,87.4,143.9,84.9,142.4z"/>
			<path id="XMLID_5936_" class="st3" d="M69.9,172.2c-0.2-0.3-0.7-0.3-1.1,0c-0.5,0.3-1,0.7-1.6,1l5.4,3.2l0,0
				c-0.1,0-0.1-0.1-0.2-0.1L69.9,172.2z"/>
			<path id="XMLID_5937_" class="st3" d="M55.8,175.1c-0.8-0.3-1.6-0.8-2.3-1.3c-0.3-0.3-0.8-0.2-1.2,0.2l-5.3,4.9
				c-0.2,0.2-0.4,0.3-0.6,0.3c2.9,1.8,8.1,4.7,8.3,4.9c-0.2-0.1-0.3-0.3-0.3-0.5l1.6-7.5C56.4,175.6,56.1,175.2,55.8,175.1z"/>
		</g>
		<g id="XMLID_5908_">
			<path id="XMLID_5979_" class="st3" d="M71.2,161.5c-2.3,2.4-4.6,3.9-6.8,4.4c-0.1,0-0.2,0.1-0.3,0.1c-0.1,0-0.2,0-0.2,0.1
				c-0.2,0-0.3,0.1-0.5,0.1c-0.2,0-0.3,0.1-0.5,0.1c-0.1,0-0.3,0-0.3,0c-0.1,0-0.1,0-0.2,0c-2.1,0-3.9-1.1-4.8-3.3
				c-0.3-0.8-0.6-1.8-0.7-2.7c0.4-0.2,0.8-0.4,1.3-0.7c5.8-3.4,10.3-11.4,10.3-18.1c0-0.5,0-1-0.1-1.4c1.3-0.6,2.5-0.8,3.7-0.8h0.1
				c0.1,0,0.1,0,0.2,0c0.1,0,0.2,0,0.2,0c0.1,0,0.2,0,0.2,0c1.8,0.3,3.2,1.3,4.1,3.2C78.9,147.3,76.4,155.8,71.2,161.5z"/>
			<path id="XMLID_5885_" class="st5" d="M71.2,161.5c-2.3,2.4-4.6,3.9-6.8,4.4c-0.1,0-0.2,0.1-0.3,0.1c-0.1,0-0.2,0-0.2,0.1
				c-0.2,0-0.3,0.1-0.5,0.1c-0.2,0-0.3,0.1-0.5,0.1c-0.1,0-0.3,0-0.3,0c-0.1,0-0.1,0-0.2,0c-2.1,0-3.9-1.1-4.8-3.3
				c-0.3-0.8-0.6-1.8-0.7-2.7c0.4-0.2,0.8-0.4,1.3-0.7c5.8-3.4,10.3-11.4,10.3-18.1c0-0.5,0-1-0.1-1.4c1.3-0.6,2.5-0.8,3.7-0.8h0.1
				c0.1,0,0.1,0,0.2,0c0.1,0,0.2,0,0.2,0c0.1,0,0.2,0,0.2,0c1.8,0.3,3.2,1.3,4.1,3.2C78.9,147.3,76.4,155.8,71.2,161.5z"/>
			<g id="XMLID_5931_">
				<path id="XMLID_5935_" class="st3" d="M90.3,145.6C90.3,145.6,90.3,145.6,90.3,145.6c-0.1-0.1-0.3-0.1-0.3-0.1l-4.4-0.3
					c-0.4,0-0.8-0.3-0.8-0.8c0.1-0.7,0.1-1.4,0.1-2.1c0-0.8,0-1.5-0.1-2.2c0-0.3,0.2-0.9,0.5-1.3l4.9-6.1c0.3-0.3,0.4-0.9,0.3-1.3
					l-2.3-5.2c0-0.1-0.1-0.2-0.2-0.2l0,0c-0.2-0.1-0.5,0-0.8,0.3l-5.3,4.9c-0.3,0.3-0.9,0.4-1.2,0.2c-0.7-0.6-1.4-1-2.3-1.3
					c-0.3-0.2-0.6-0.5-0.5-0.9l1.7-7.5c0.1-0.3,0-0.4-0.3-0.5c-0.2-0.1-0.3-0.1-0.5-0.1l-5.2,0.5c-0.5,0.1-1,0.4-1.2,0.8l-2.8,7.6
					c-0.2,0.4-0.7,0.8-1.2,1.1c-1.1,0.5-2.1,1.1-3.2,1.9c-0.4,0.3-0.9,0.3-1.1,0l-2.7-4c-0.2-0.3-0.6-0.3-0.9,0.2l-5.7,6.1
					c-0.3,0.3-0.5,0.9-0.4,1.3l1.6,5.4c0.1,0.3,0,0.9-0.3,1.3c-1,1.5-1.8,3-2.6,4.5c-0.2,0.4-0.8,0.8-1.3,0.9l-4.8,1.2
					c-0.5,0.1-1,0.5-1.1,0.9l-2.4,8.3c-0.1,0.4,0.2,0.8,0.6,0.8L49,160c0.4,0,0.8,0.3,0.8,0.8c-0.2,1.5-0.2,2.9,0,4.3
					c0,0.3-0.2,0.9-0.5,1.3l-4.9,6.1c-0.3,0.3-0.4,0.9-0.3,1.3l2.3,5.2c0,0.1,0.1,0.2,0.2,0.2l0,0l0,0c0.1,0,0.1,0.1,0.2,0.1l0,0
					c0.2,0,0.4-0.1,0.6-0.3l5.3-4.9c0.3-0.3,0.9-0.4,1.2-0.2c0.7,0.6,1.4,1,2.3,1.3c0.3,0.2,0.6,0.6,0.5,0.9l-1.7,7.5
					c-0.1,0.3,0,0.4,0.3,0.5l0,0c0.1,0.1,0.3,0.1,0.5,0.1l5.2-0.5c0.5-0.1,1-0.4,1.2-0.8l2.8-7.6c0.2-0.4,0.7-0.8,1.2-1.1
					s1.1-0.6,1.7-0.8c0.5-0.3,1-0.7,1.6-1c0.4-0.3,0.9-0.3,1.1,0l2.7,4c0,0.1,0.1,0.1,0.2,0.1c0.3,0.2,0.6,0,0.8-0.3l5.7-6.1
					c0.3-0.3,0.5-0.9,0.4-1.3l-1.6-5.4c-0.1-0.3,0-0.9,0.3-1.3c1-1.5,1.8-3,2.6-4.5c0.2-0.4,0.8-0.8,1.3-0.9l4.8-1.2
					c0.5-0.1,1-0.5,1.1-0.9l2.4-8.3C90.7,146,90.5,145.7,90.3,145.6z M64.5,165.9c-0.1,0-0.2,0.1-0.3,0.1c-0.1,0-0.2,0-0.2,0.1
					c-0.2,0-0.3,0.1-0.5,0.1c-0.2,0-0.3,0-0.5,0.1c-0.1,0-0.3,0-0.3,0s-0.1,0-0.2,0c-2.1,0-3.9-1.1-4.8-3.3
					c-0.3-0.8-0.6-1.8-0.8-2.7c-0.1-0.5-0.1-1-0.1-1.5c0-4.7,2.4-10.6,6.4-14.8c1.3-1.3,2.6-2.4,3.9-3.2c0.4-0.3,0.8-0.5,1.3-0.7
					c1.3-0.6,2.5-0.8,3.7-0.8l0,0c0.1,0,0.1,0,0.2,0s0.2,0,0.2,0c0.1,0,0.2,0,0.2,0c1.8,0.3,3.2,1.3,4.1,3.2
					c2.2,4.9-0.3,13.4-5.6,19C68.9,163.8,66.6,165.3,64.5,165.9z"/>
			</g>
			<line id="XMLID_5929_" class="st6" x1="77.6" y1="120.1" x2="88" y2="126.2"/>
		</g>
		<path id="XMLID_5910_" class="st7" d="M53.1,148c-0.3,0.3-0.7,0.5-1,0.6l-4.8,1.2c-0.3,0.1-0.7,0.3-0.9,0.6L36,144.3
			c0.3-0.3,0.6-0.5,0.9-0.6l4.8-1.2c0.3-0.1,0.7-0.3,0.9-0.6l0,0L53.1,148z"/>
		<path id="XMLID_5959_" class="st2" d="M56.3,141.9l-10.4-6.1c0-0.1,0-0.2,0-0.2l-1.6-5.4c-0.1-0.2,0-0.3,0.1-0.5l8,4.6l2.5,1.4
			c-0.1,0.3-0.1,0.4-0.1,0.6L56.3,141.9C56.3,141.9,56.3,141.9,56.3,141.9z"/>
		<path id="XMLID_5940_" class="st2" d="M72.9,122.1c-0.2,0.1-0.3,0.3-0.3,0.4l-2.8,7.6l0,0L59.4,124c0,0,0,0,0-0.1l2.8-7.6
			c0.1-0.2,0.2-0.3,0.3-0.3L72.9,122.1z"/>
		<path id="XMLID_5906_" class="st2" d="M88,126.2c-0.2-0.1-0.5,0-0.8,0.3l-5.3,4.9c-0.3,0.3-0.9,0.4-1.2,0.2
			c-0.7-0.6-1.4-1-2.3-1.3c-0.3-0.2-0.6-0.5-0.5-0.9l1.6-7.5c0.1-0.3-0.1-0.4-0.3-0.5l0,0c-0.2-0.1-0.9-0.5-2-1.2c0.1,0,0.2,0,0.2,0
			s0.1,0,0.1,0.1L88,126.2z"/>
		<path id="XMLID_5905_" class="st2" d="M90.3,145.6c-0.1-0.1-0.2-0.1-0.3-0.1l-4.4-0.3c-0.4,0-0.8-0.3-0.8-0.8
			c0.1-0.7,0.1-1.4,0.1-2.1C87.4,143.9,90,145.4,90.3,145.6z"/>
		<path id="XMLID_5933_" class="st5" d="M72.7,176.4L72.7,176.4l-5.4-3.2c0.5-0.3,1-0.7,1.6-1c0.4-0.3,0.9-0.3,1.1,0l2.7,4
			C72.7,176.3,72.7,176.4,72.7,176.4z"/>
		<path id="XMLID_5930_" class="st5" d="M56.3,176l-1.6,7.5c-0.1,0.3,0.1,0.4,0.3,0.5c-0.3-0.2-5.4-3.2-8.3-4.9
			c0.2,0,0.3-0.1,0.6-0.3l5.3-4.9c0.3-0.3,0.9-0.4,1.2-0.2c0.7,0.6,1.4,1,2.3,1.3C56.1,175.2,56.4,175.6,56.3,176z"/>
		<path id="XMLID_5938_" class="st7" d="M49.5,165.6c-0.1,0.3-0.3,0.5-0.4,0.8l-4.9,6.1c-0.2,0.2-0.3,0.4-0.3,0.6l-10.4-6.1
			c0.1-0.3,0.2-0.4,0.3-0.6l4.9-6.1c0.2-0.2,0.3-0.4,0.3-0.7L49.5,165.6z"/>
		<path id="XMLID_5953_" class="st8" d="M69.8,130.1c-0.2,0.3-0.7,0.8-1.1,1.1c-1.1,0.5-2.2,1.1-3.2,1.9c-0.4,0.3-0.9,0.3-1.1,0
			l-2.7-4c0-0.1-0.1-0.1-0.2-0.1h-0.1l-4.9-2.9c0.6-0.3,1.1-0.6,1.7-0.8c0.1,0,0.2-0.1,0.2-0.1c0.2-0.1,0.3-0.3,0.5-0.4
			c0.1-0.1,0.2-0.2,0.2-0.3c0.1-0.1,0.1-0.1,0.1-0.2s0.1-0.1,0.1-0.2L69.8,130.1z"/>
		<path id="XMLID_5949_" class="st5" d="M49.6,165c0,0.2,0,0.3-0.1,0.6L39,159.5c0.1-0.3,0.1-0.4,0.1-0.6c-0.1-0.8-0.1-1.4-0.1-2.2
			l5,2.9l0,0c0.1,0.1,0.3,0.1,0.3,0.1l4.4,0.3c0.4,0,0.8,0.3,0.8,0.8C49.5,162.2,49.5,163.7,49.6,165z"/>
		<path id="XMLID_5942_" class="st8" d="M56.3,141.9L56.3,141.9c0,0.3-0.1,0.8-0.3,1.1c-1,1.5-1.8,3-2.6,4.5
			c-0.1,0.1-0.2,0.3-0.3,0.3l-10.4-6c0.1-0.1,0.1-0.1,0.2-0.2c0.1-0.1,0.1-0.1,0.2-0.2c0.8-1.6,1.7-3.1,2.6-4.5
			c0.1-0.1,0.1-0.2,0.2-0.3c0-0.1,0.1-0.1,0.1-0.2v-0.1c0,0,0,0,0-0.1c0-0.1,0.1-0.2,0.1-0.3c0-0.1,0.1-0.3,0-0.3L56.3,141.9z"/>
		<path id="XMLID_5925_" class="st2" d="M42.9,141.8c0,0.1-0.1,0.1-0.2,0.2l0,0C42.8,141.9,42.8,141.9,42.9,141.8z"/>
		<path id="XMLID_5932_" class="st5" d="M46.3,179c-0.2-0.1-1-0.6-2.2-1.3c-0.2-0.1-0.3-0.2-0.4-0.3c-1-0.6-2.3-1.3-3.4-2
			c-0.3-0.2-0.7-0.3-0.9-0.5c-1.8-1.1-3.3-1.9-3.5-2l0,0l-0.1-0.1l-0.1-0.1l-2.3-5.2c-0.1-0.1-0.1-0.3,0-0.4c0-0.1,0-0.1,0-0.2
			l10.4,6.1c-0.1,0.3-0.1,0.5,0,0.7l2.3,5.2C46.2,178.9,46.3,179,46.3,179z"/>
		<path id="XMLID_5379_" class="st2" d="M36,144.3c-0.1,0.1-0.2,0.3-0.2,0.3l-0.3,1l-1.6,5.4l-0.6,1.9c0,0.1,0,0.2,0,0.3
			c0,0.1,0,0.1,0.1,0.2s0.1,0.1,0.2,0.2c0,0,0,0,0.1,0.1l0.8,0.5l0.3,0.1l0,0l0.7,0.3l0.3,0.2l0.4,0.3l0.2,0.1l0.4,0.3l2.3,1.3l0,0
			l5,2.9c-0.2-0.2-0.3-0.3-0.3-0.6l2.2-7.2l0.3-1c0-0.1,0.1-0.3,0.2-0.3L36,144.3z"/>
		<path id="XMLID_5378_" class="st9" d="M56.6,125.9l-5.4-3.2c-0.1-0.1-0.2-0.1-0.3-0.1c-0.2,0-0.4,0.1-0.6,0.3l0,0l-3.4,3.6
			l-2.3,2.4c-0.2,0.2-0.3,0.5-0.4,0.8l8,4.6l2.5,1.4c0.1-0.3,0.3-0.5,0.4-0.7l0.1-0.1l5.6-6c0.3-0.3,0.6-0.3,0.8-0.3L56.6,125.9z"/>
		<path id="XMLID_5941_" class="st9" d="M79.4,121.2c-0.1-0.1-0.3-0.1-0.4-0.1l-5.2,0.5c-0.3,0-0.7,0.2-0.8,0.4L62.6,116
			c0.3-0.3,0.6-0.3,0.8-0.4l5.2-0.5c0.2,0,0.4,0,0.5,0.1c0,0,0.6,0.3,1.4,0.8c0.2,0.1,0.4,0.3,0.7,0.4c1.3,0.8,2.9,1.7,4.4,2.6
			c0.3,0.3,0.8,0.4,1.1,0.7c0.3,0.2,0.6,0.3,0.8,0.4C78.5,120.7,79.3,121.1,79.4,121.2z"/>
		<line id="XMLID_5926_" class="st6" x1="77.8" y1="120.2" x2="77.6" y2="120.1"/>
	</g>
</g>
<g id="Device">
	<g id="Device_1_">
		<path id="XMLID_5657_" class="st10" d="M205.3,53.9c-0.3-1.7-1.6-2.3-3.2-1.3l-88.8,51.8c-1.8,1-3.3,3.5-3.3,5.6v197.8
			c0,1.9,1.3,2.8,2.8,2.1c-1.8,0.8-4.4,0.8-6.1-0.2l-3.7-2.2c-1.8-1-3.3-3.5-3.3-5.6V104.1c0-2.1,1.4-4.6,3.3-5.6l88.8-51.8
			c1.8-1,4.7-1,6.4,0l3.7,2.2C203.7,49.7,205,51.9,205.3,53.9z"/>
		<path id="XMLID_5667_" class="st11" d="M202.1,52.5l-88.8,51.8c-1.8,1-3.3,3.5-3.3,5.6v197.8c0,2.1,1.4,2.9,3.3,1.9l88.8-51.8
			c1.8-1,3.3-3.5,3.3-5.6V54.4C205.3,52.3,203.9,51.4,202.1,52.5z M200.7,233.5c0,1.8-1.3,2.9-2.8,3.8l-80.7,47.1
			c-1.5,0.9-2.8,0.2-2.8-1.6v-154c0-1.8,1.3-4,2.8-4.9L198,76.9c1.5-0.9,2.8-0.2,2.8,1.6V233.5z"/>
		<path id="XMLID_5659_" class="st12" d="M112.9,309.8c-1.8,0.8-4.4,0.8-6.1-0.2l-3.7-2.2c-1.8-1-3.3-3.5-3.3-5.6V104
			c0-1,0.3-2.2,0.9-3.2l10.2,5.9c-0.6,1-0.9,2.2-0.9,3.2v197.8C110,309.6,111.3,310.5,112.9,309.8z"/>
		<path id="XMLID_5598_" class="st12" d="M157.7,83.6c1.2-0.7,2.2-0.2,2.2,1.3s-1,3.1-2.2,3.8c-1.2,0.7-2.2,0.2-2.2-1.3
			C155.5,86,156.5,84.3,157.7,83.6z"/>
		<g id="XMLID_5595_">
			<path id="XMLID_5597_" class="st12" d="M151.4,94.5c4.4-2.4,12.3-7.2,16.6-9.8c0.8-0.4,1.3-0.2,1.3,0.7s-0.6,1.9-1.3,2.3
				l-16.6,9.7c-0.8,0.4-1.3,0.1-1.3-0.7C150.1,95.9,150.7,95,151.4,94.5z"/>
			<path id="XMLID_5596_" class="st12" d="M147.2,97c0.7-0.4,1.3-0.1,1.3,0.7c0,0.8-0.6,1.8-1.3,2.1s-1.3,0.1-1.3-0.7
				C146,98.3,146.6,97.4,147.2,97z"/>
		</g>
		<path id="XMLID_5594_" class="st13" d="M158.4,266c2.8-1.6,5.1-0.3,5.1,2.9s-2.3,7.2-5.1,8.9c-2.8,1.7-5.1,0.3-5.1-2.9
			S155.7,267.6,158.4,266z"/>
		<path id="XMLID_5723_" class="st10" d="M200.7,78.5v155.1c0,1.8-1.3,4-2.8,4.8l-80.7,47.1c-1.5,0.8-2.8,0.2-2.8-1.6v-9.7
			l73.3-42.8c1.5-0.9,2.8-2,2.8-3.8V81.2l7.4-4.3C199.5,76,200.7,76.8,200.7,78.5z"/>
		<path id="XMLID_5718_" class="st12" d="M197.9,76.9l-7.4,4.3v146.4c0,1.4-0.8,2.4-1.9,3.2l10.8,6.2c0.8-1,1.3-2.4,1.3-3.5v-155
			C200.7,76.8,199.5,76,197.9,76.9z"/>
	</g>
</g>
<g id="Speach_Bubbles">
	<g id="XMLID_5904_">
		<g id="XMLID_5754_">
			<g id="XMLID_5758_">
				<g id="XMLID_5805_">
					<path id="XMLID_5806_" class="st1" d="M121.8,235.7l-4.6-2.7c-0.1,0-0.2-0.1-0.3-0.2l-0.8-1.5l2.8-1.6l-0.1,0.3L121.8,235.7z"
						/>
				</g>
				<path id="XMLID_5775_" class="st14" d="M118.4,230l3.2,5.6c0.2,0.3,0.8,0.3,0.8-0.1l3.4-9.9L118.4,230z"/>
				<path id="XMLID_5769_" class="st14" d="M133.5,200.1c0-1.4-1-3.2-2.3-3.9l-1.8-1.1c-1.3-0.8-3.3-0.8-4.5,0l-36.2,21
					c-1.3,0.8-2.3,2.4-2.3,3.9v18.5c0,1.4,1,3.2,2.3,3.9l1.8,1.1c1.3,0.8,3.3,0.8,4.5,0l36.4-21.2c2-1.2,2-2.4,2-3.8L133.5,200.1z"
					/>
				<path id="XMLID_5768_" class="st1" d="M86.5,238.7c0,1.4,1,3.2,2.3,3.9l1.8,1.1c1.1,0.7,2.8,0.7,4.1,0.2
					c-1.1,0.4-1.8-0.2-1.8-1.5v-18.5c0-0.8,0.3-1.5,0.7-2.2l-6.3-3.7c-0.4,0.7-0.7,1.5-0.7,2.2L86.5,238.7L86.5,238.7z"/>
				<path id="XMLID_5759_" class="st15" d="M133.4,199.5c-0.3-0.9-1.2-1.3-2.2-0.7l-36.2,21c-0.6,0.3-1.2,0.9-1.6,1.7l-6.3-3.7
					c0.4-0.8,1-1.3,1.6-1.7l36.2-21c1.3-0.8,3.3-0.8,4.5,0l1.8,1.1C132.3,196.8,133.2,198.3,133.4,199.5z"/>
			</g>
			<g id="XMLID_5755_">
				<path id="XMLID_5757_" class="st11" d="M98.9,225.2l25.9-15.2c0.8-0.4,1.3-0.3,1.3,0.4c0,0.7-0.6,1.6-1.3,2l-25.9,15.2
					c-0.8,0.4-1.3,0.3-1.3-0.4C97.5,226.5,98.1,225.6,98.9,225.2z"/>
				<path id="XMLID_5756_" class="st11" d="M98.9,231.4l25.9-15.2c0.8-0.4,1.3-0.3,1.3,0.4c0,0.7-0.6,1.6-1.3,2l-25.9,15.2
					c-0.8,0.4-1.3,0.3-1.3-0.4C97.5,232.7,98.1,231.8,98.9,231.4z"/>
			</g>
		</g>
		<g id="XMLID_5807_">
			<g id="XMLID_5812_">
				<g id="XMLID_5817_">
					<path id="XMLID_5851_" class="st3" d="M62.6,242.5l-4.6-2.7c-0.1,0-0.2-0.1-0.3-0.2l-0.8-1.5l2.8-1.6l-0.1,0.3L62.6,242.5z"/>
					<path id="XMLID_5850_" class="st7" d="M62.6,242.5l-4.6-2.7c-0.1,0-0.2-0.1-0.3-0.2l-0.8-1.5l2.8-1.6l-0.1,0.3L62.6,242.5z"/>
				</g>
				<path id="XMLID_5816_" class="st3" d="M59.2,236.8l3.2,5.6c0.2,0.3,0.8,0.3,0.8-0.1l3.4-9.9L59.2,236.8z"/>
				<path id="XMLID_5815_" class="st3" d="M97.2,190.8c0-1.4-1-3.2-2.3-3.9l-1.8-1.1c-1.3-0.8-3.3-0.8-4.5,0l-43,25.1
					c-1.3,0.8-2.3,2.4-2.3,3.9v21.3c0,1.4,1,3.2,2.3,3.9l1.8,1.1c1.3,0.8,3.3,0.8,4.5,0l43.2-25.2c2-1.2,2-2.4,2-3.8V190.8z"/>
				<path id="XMLID_5814_" class="st7" d="M43.5,236.1c0,1.4,1,3.2,2.3,3.9l1.8,1.1c1.1,0.7,2.8,0.7,4.1,0.2
					c-1.1,0.4-1.8-0.2-1.8-1.5v-21.3c0-0.8,0.3-1.5,0.7-2.2l-6.3-3.7c-0.4,0.7-0.7,1.5-0.7,2.2L43.5,236.1L43.5,236.1z"/>
				<path id="XMLID_5813_" class="st4" d="M97.1,190.2c-0.3-0.9-1.2-1.3-2.2-0.7l-43,25.1c-0.6,0.3-1.2,0.9-1.6,1.7l-6.3-3.7
					c0.4-0.8,1-1.3,1.6-1.7l43-25.1c1.3-0.8,3.3-0.8,4.5,0l1.8,1.1C96,187.5,96.9,188.9,97.1,190.2z"/>
			</g>
			<g id="XMLID_5808_">
				<path id="XMLID_5811_" class="st16" d="M55.7,224.4L79,210.9c0.8-0.4,1.3-0.3,1.3,0.4c0,0.7-0.6,1.6-1.3,2l-23.3,13.6
					c-0.8,0.4-1.3,0.3-1.3-0.4C54.4,225.8,55,224.9,55.7,224.4z"/>
				<path id="XMLID_5810_" class="st16" d="M55.7,230.7l32.6-19.1c0.8-0.4,1.3-0.3,1.3,0.4s-0.6,1.6-1.3,2l-32.6,19.1
					c-0.8,0.4-1.3,0.3-1.3-0.4C54.4,231.9,55,231.1,55.7,230.7z"/>
				<path id="XMLID_5809_" class="st16" d="M55.7,218l32.6-19.1c0.8-0.4,1.3-0.3,1.3,0.4c0,0.7-0.6,1.6-1.3,2l-32.6,19.1
					c-0.8,0.4-1.3,0.3-1.3-0.4C54.4,219.3,55,218.4,55.7,218z"/>
			</g>
		</g>
	</g>
	<g id="XMLID_6023_">
		<path id="XMLID_5920_" class="st1" d="M352,81.2l-3.4-1.9l0,0c-0.4-0.3-0.9-0.2-1.5,0.2l-73.6,42.9c-1.2,0.7-2.2,2.4-2.2,3.8v38.4
			c0,0.7,0.3,1.2,0.7,1.4l0,0l3.3,1.9v-3.2l71.7-41.8c1.2-0.7,2.2-2.4,2.2-3.8V82.7L352,81.2z"/>
		<path id="XMLID_5918_" class="st15" d="M278.1,127.5L349.3,86v-3.4l2.8-1.4l-3.4-1.9l0,0c-0.4-0.3-0.9-0.2-1.5,0.2l-73.6,42.9
			c-0.6,0.3-1.2,0.9-1.5,1.6L278.1,127.5z"/>
		<path id="XMLID_5914_" class="st0" d="M276.9,124.3l73.6-42.9c1.2-0.7,2.2-0.2,2.2,1.3v38.4c0,1.4-1,3.1-2.2,3.8l-73.6,42.9
			c-1.2,0.7-2.2,0.2-2.2-1.3v-38.4C274.7,126.6,275.7,124.9,276.9,124.3z"/>
		<g id="XMLID_5750_">
			<g id="XMLID_5915_">
				<path id="XMLID_5884_" class="st3" d="M280.6,128l22-12.9c1.4-0.8,2.5-0.2,2.5,1.5v25.7c0,1.6-1.2,3.6-2.5,4.4l-22,13
					c-1.4,0.8-2.5,0.2-2.5-1.5v-25.7C278.1,130.8,279.2,128.8,280.6,128z"/>
				<g id="XMLID_5751_">
					<path id="XMLID_5753_" class="st15" d="M291.5,127c2.3-1.3,4.3-0.3,4.3,2.4c0,2.7-1.9,6.1-4.3,7.4c-2.3,1.3-4.3,0.3-4.3-2.4
						C287.2,131.8,289.1,128.4,291.5,127z"/>
					<path id="XMLID_5752_" class="st15" d="M299.8,141.6c0-4.5-3.1-6.5-6.9-4.2l-2.4,1.4c-3.8,2.3-6.9,7.7-6.9,12.1v1.2l16.3-9.5
						L299.8,141.6L299.8,141.6z"/>
				</g>
			</g>
		</g>
		<path id="XMLID_5883_" class="st1" d="M313.8,110.6l30.3-17.7c1-0.6,1.8-0.2,1.8,0.9s-0.8,2.4-1.8,3l-30.3,17.7
			c-1,0.6-1.8,0.2-1.8-0.9C312,112.6,312.8,111.2,313.8,110.6z"/>
		<path id="XMLID_5917_" class="st1" d="M313.8,118.5l30.3-17.7c1-0.6,1.8-0.2,1.8,0.9c0,1.1-0.8,2.4-1.8,3l-30.3,17.7
			c-1,0.6-1.8,0.2-1.8-0.9C312,120.5,312.8,119.1,313.8,118.5z"/>
		<path id="XMLID_5919_" class="st1" d="M313.8,126.5l30.3-17.7c1-0.6,1.8-0.2,1.8,0.9c0,1.1-0.8,2.4-1.8,3l-30.3,17.7
			c-1,0.6-1.8,0.2-1.8-0.9C312,128.4,312.8,127,313.8,126.5z"/>
		<path id="XMLID_5921_" class="st1" d="M313.8,134.4l30.3-17.7c1-0.6,1.8-0.2,1.8,0.9s-0.8,2.4-1.8,3l-30.3,17.7
			c-1,0.6-1.8,0.2-1.8-0.9C312,136.3,312.8,135,313.8,134.4z"/>
	</g>
</g>
<g id="Window">
	<g id="XMLID_5528_">
		<path id="XMLID_5380_" class="st17" d="M228.7,228.2c0,1.8-1.3,2.9-2.8,3.8L145.2,279c-1.5,0.9-2.8,0.2-2.8-1.6v-154
			c0-1.8,1.3-4,2.8-4.9l80.7-47.1c1.5-0.9,2.8-0.2,2.8,1.6V228.2z"/>
		<path id="XMLID_5628_" class="st3" d="M143.9,279.8c-0.3,0-0.7-0.1-0.9-0.3c-0.7-0.4-1-1.2-1-2.2v-154c0-1.9,1.3-4.2,3-5.2
			l80.7-47.1c0.8-0.5,1.8-0.6,2.3-0.2c0.7,0.4,1,1.2,1,2.2v155.1c0,2.2-1.7,3.5-3,4.1l-80.7,47.1
			C144.8,279.7,144.3,279.8,143.9,279.8z M227.2,71.6c-0.3,0-0.7,0.1-1,0.3L145.4,119c-1.4,0.8-2.6,2.9-2.6,4.5v154
			c0,0.7,0.3,1.2,0.6,1.4c0.4,0.3,0.9,0.2,1.5-0.2l80.7-47.1c1.8-1,2.6-2.1,2.6-3.5V73.1c0-0.7-0.3-1.2-0.6-1.4
			C227.5,71.6,227.3,71.6,227.2,71.6z"/>
	</g>
</g>
<g id="Character">
	<g id="Character_12_">
		<g id="XMLID_6008_">
			<path id="XMLID_6009_" class="st18" d="M272.6,220.1c0.6-21.9-1.2-27.2-6.9-31.2l-2.3,12.7c0,0,2.7,15,2.3,20
				c-0.3,4.4-0.7,9.9-1.7,13.4c-0.2,0.6-0.6,1.2-1.2,1.5c-1.5,0.9-2.1,1.9-3.2,3c-0.8,0.9-1.6,1.2-1.5,1.4c0.2,0.3,0.8,1,1.8,0.7
				c0.5-0.2,1.3-0.6,2.1-1.2c0,0-0.6,1.9-2.2,3.7c-2.1,2.5-2.2,4.1,2,4.1c2.6,0,4.7-1.6,6.7-7.4c0.6-1.7,1.4-4.3,1.8-6.6
				C271.5,228.7,272.5,223.6,272.6,220.1z"/>
		</g>
		<path id="XMLID_6007_" class="st10" d="M260.8,187.2c2.8-0.4,6.5,0.2,8.9,4.5c2.4,4.4,3,11.9,3.3,19.4c0,0-4.8,4-10.6,2.1
			L260.8,187.2z"/>
		<g id="XMLID_5972_">
			<g id="XMLID_5994_">
				<g id="XMLID_6005_">
					<path id="XMLID_6006_" class="st12" d="M268.9,307.8c0.4,0.2,0.6,1,0.6,2.7c0.1,1.3,0.3,3.5-1.2,4c-1.5,0.5-3.6,0.3-4.6-1
						c-1.2-1.5-2-2.8-3.7-4.6c-1.4-1.6-3-3-3.6-5.3c-0.5-2-0.1-2.9,1.3-3.5c1.8-0.8,4.8,1.9,6.3,2.2
						C265.3,302.7,268.4,307.6,268.9,307.8z"/>
				</g>
				<g id="XMLID_6003_">
					<path id="XMLID_6004_" class="st18" d="M268.9,306.3v2c0,0-2.1,1.7-5.2,0.2c-0.1-0.2-0.5-2.9-0.5-2.9L268.9,306.3z"/>
				</g>
				<g id="XMLID_6001_">
					<path id="XMLID_6002_" class="st12" d="M252.4,319.7c0,0,0.6,1.8,0.9,3.4c0.3,1.3,0.6,3.3,0.2,4.3c-0.4,0.9-2.1,1.5-4.8,1.5
						c-1.7,0-4.3,1.2-6.1,2.2c-1.8,1-5.8,1.4-7.7,1.3c-2.3-0.3-4.8-1.6-5.1-2.6c-0.4-1,0.1-2,5.6-4.3c0.1,0,7.6-2.5,10.3-5.5
						L252.4,319.7z"/>
				</g>
				<g id="XMLID_5999_">
					<path id="XMLID_6000_" class="st18" d="M252.4,317.5c0,0,0,1.5,0,2.4s-1,2.2-3.7,2.1c-1.8-0.1-3.2-0.6-3.1-2.1v-2.2
						L252.4,317.5z"/>
				</g>
				<g id="XMLID_5997_">
					<path id="XMLID_5998_" class="st10" d="M270.2,278.9c-0.9-6.7-2.4-10.7-2.4-10.7s0.8-9.3,1.1-18c0.4-9.4,0-21.4,0.2-23.7
						c0,0-30.3-6.1-30.8,4.8c-0.5,10.9,1.2,38.8,1.6,43.6c0.3,4.8,1.2,9.1,2.2,16.8c1,7.7,3.7,25.8,3.7,25.8
						c3.4,1.9,6.8-0.2,6.8-0.2s2.2-21.9,1.9-27.4c-0.3-6.7-2.1-12.1-2.1-12.1s0.6-9,1.1-16.8c0.5-7.8,1.1-11.6,1.2-15.1l0.7-0.3
						c0,0,0.7,13.6,1,18.4c0.3,4.8,1.1,9.4,2.5,18.4c1.2,7.7,4.8,24.2,4.8,24.2c3.4,1.9,5.5-0.3,5.5-0.3S271.2,285.7,270.2,278.9z"
						/>
				</g>
				<g id="XMLID_5995_">
					<path id="XMLID_5996_" class="st12" d="M254.4,246c0,0,7.3-3.6,11-7c0,0-3.4,4.9-7.9,7c0,0-1.6,16.8-1.6,16.5l-0.9-16.6
						L254.4,246z"/>
				</g>
			</g>
			<g id="XMLID_5991_">
				<g id="XMLID_5992_">
					<polygon id="XMLID_5993_" class="st18" points="247.9,183.7 249.7,193.7 258.6,193 256.8,181.8 					"/>
				</g>
			</g>
			<g id="XMLID_5988_">
				<g id="XMLID_5989_">
					<path id="XMLID_5990_" class="st3" d="M268,192.3c-0.9-2.7-4.3-5.6-7.7-5.1c-6.3,1.2-11.2,2.4-14.9,3.8
						c-3.1,1.1-5.9,3.9-6.2,14.1c0,0-1.1,24.1-1.1,28.8c7.8,3.1,15.9,3,20.4,2c9.3-2.1,10.5-6,10.5-6s0.1-17.3-0.2-24.8
						C268.7,198.9,268.6,194.1,268,192.3z"/>
				</g>
			</g>
			<g id="XMLID_5983_">
				<g id="XMLID_5986_">
					<path id="XMLID_5987_" class="st19" d="M241.1,171.7c0,0-2.3,3.6-2,4c0.3,0.3,2,0.6,2,0.6V171.7z"/>
				</g>
				<g id="XMLID_5984_">
					<path id="XMLID_5985_" class="st18" d="M247.3,161.6c-4.7,1.1-6,3.3-6.3,10.9c-0.3,7.9,0.6,10.4,1.6,11.4
						c0.8,0.7,4.6,0.8,6.5,0.2c2.4-0.8,7.9-2.9,10.4-6.9c2.9-4.8,3.6-11.1,0.3-13.6C255.2,160,249.3,161.1,247.3,161.6z"/>
				</g>
			</g>
			<g id="XMLID_5974_">
				<g id="XMLID_5980_">
					<g id="XMLID_5981_">
						<path id="XMLID_5982_" class="st12" d="M241.1,163.6c1.4,2.4,4.4,3.5,4.4,3.5c0.9,1,0.4,5.1,2,5.7c0,0,0.7-2.9,3.2-2.6
							c2.5,0.3,2.8,3.5,1.3,5.5c-1.5,1.9-3,1.3-3,1.3s0.2,4.2,2.1,6.5c0,0,2.1,0.7,5.9-0.3c2.3-0.6,5.7-3.6,7-6.8
							c2.8-6.7,2.9-12.8-1.3-14.5c-0.5-3-2.9-4.4-5.7-5c-5.9-1.3-9.8,2.5-14.3,2.2C239.9,158.9,239.4,160.8,241.1,163.6z"/>
					</g>
				</g>
				<g id="XMLID_5976_">
					<g id="XMLID_5977_">
						<path id="XMLID_5978_" class="st12" d="M262.7,162.8l2.8-1.8c-0.5-0.8-1.5-1-2.3-0.5C262.4,161.1,262.2,162.1,262.7,162.8z"/>
					</g>
				</g>
			</g>
		</g>
		<path id="XMLID_5964_" class="st18" d="M207.8,209c1.5,0.7,18.7,13.6,21.4,12c2.7-1.5,16.5-17.8,16.5-17.8c4-6.7,0-12.2,0-12.2
			s-4.4,0.8-6.8,4.4c-2.3,3.5-12.3,16.2-12.3,16.2c-2.5-1.3-4.9-2.5-7.4-3.8c-2-1.1-4.1-2.1-6-3.3c-0.5-0.3-1.2-0.6-1.6-0.9
			c-1-1-0.8-3.4-0.8-4.6c0-0.6,0-1.2,0.1-1.8c0.1-0.8,0.3-2.5-1.1-1.9c-0.3,0.1-0.4,0.3-0.6,0.5c-0.2,0.3-0.3,0.6-0.5,0.9
			c-0.3,0.8-0.2,1.6-0.4,2.4c0,0.1-0.1,0.3-0.2,0.3c-0.1,0.1-0.3,0.2-0.4,0.2c-1.9-0.1-3.7-2.8-4.6-4.2c-0.4-0.7-0.8-1.3-1.4-1.7
			c-1-0.5-2.3,0.3-2.9,1.2c-0.8,1.2-1.1,2.8-0.9,4.2c0.3,2,1,4,2.5,5.3C202.6,206.4,205,207.7,207.8,209z"/>
		<path id="XMLID_5963_" class="st10" d="M247.1,190.5c-1.9,0.3-5.1,0.3-8.2,3.9c-3.6,4.1-8.4,10.9-8.4,10.9s1.3,6.6,8.3,7.9
			c0,0,6.5-6.7,8.3-10.4C249,199,249.3,193,247.1,190.5z"/>
	</g>
</g>
<g id="Chart">
	<g id="XMLID_5627_">
		<g id="XMLID_5633_">
			<path id="XMLID_15747_" class="st11" d="M280.4,104.7V78.2l15.5,10.4C291.4,95.7,286.3,101,280.4,104.7z"/>
			<polygon id="XMLID_5634_" class="st10" points="280.4,78.2 274.1,74.6 274.1,101.1 280.4,104.7 			"/>
		</g>
		<g id="XMLID_1331_">
			<polygon id="XMLID_15744_" class="st3" points="304.9,58.1 281.6,75 275.4,71.4 298.7,54.5 			"/>
			<polygon id="XMLID_1328_" class="st20" points="304.9,58.1 281.6,75 275.4,71.4 298.7,54.5 			"/>
			<path id="XMLID_15743_" class="st3" d="M304.9,58.1c0.7,8.6-1.8,18-7.3,27.6l-9.7-6.5l-6.3-4.2L304.9,58.1z"/>
			<path id="XMLID_1327_" class="st2" d="M304.9,58.1c0.7,8.6-1.8,18-7.3,27.6l-9.7-6.5l-6.3-4.2L304.9,58.1z"/>
			<polygon id="XMLID_15742_" class="st3" points="297.6,85.6 291.4,82 275.4,71.4 281.6,75 			"/>
			<polygon id="XMLID_1329_" class="st21" points="297.6,85.6 291.4,82 275.4,71.4 281.6,75 			"/>
		</g>
		<g id="XMLID_1330_">
			<path id="XMLID_15741_" class="st3" d="M272.3,63.4l-4.4-18.2c0.6-0.5,1.3-1,1.9-1.5c8.2-6,16-7,21.4-3.9
				c1.3,0.8,6.2,3.6,6.2,3.6c1.8,2.3,0.4,4.7,1,8.4l-24.3,17.7l-0.3,0.2L272.3,63.4z"/>
			<path id="XMLID_5636_" class="st22" d="M272.3,63.4l-4.4-18.2c0.6-0.5,1.3-1,1.9-1.5c8.2-6,16-7,21.4-3.9
				c1.3,0.8,6.2,3.6,6.2,3.6c1.8,2.3,0.4,4.7,1,8.4l-24.3,17.7l-0.3,0.2L272.3,63.4z"/>
			<path id="XMLID_15740_" class="st3" d="M278.5,67l-4.4-18.2c0.6-0.5,1.3-1,1.9-1.5c13.8-9.9,26.3-6.2,28.6,8.2l-24.3,17.7
				l-0.3,0.2L278.5,67z"/>
			<path id="XMLID_5635_" class="st9" d="M278.5,67l-4.4-18.2c0.6-0.5,1.3-1,1.9-1.5c13.8-9.9,26.3-6.2,28.6,8.2l-24.3,17.7
				l-0.3,0.2L278.5,67z"/>
			<polygon id="XMLID_5632_" class="st3" points="267.9,45.2 274.1,48.8 280.1,73.3 273.9,69.7 			"/>
			<polygon id="XMLID_5637_" class="st8" points="267.9,45.2 274.1,48.8 280.1,73.3 273.9,69.7 			"/>
		</g>
		<g id="XMLID_15736_">
			<path id="XMLID_15738_" class="st3" d="M271.8,102.5c-4,2.1-7.5,5.1-10.8,5l-6.2-3.6c-3.3-1.9-5.7-5.3-6.8-10.2
				c-1.7-6.8-0.7-15.5,2.9-24.5c3.3-8.4,8.5-16.2,14.8-21.9l6.2,3.6l-2.3,12.4l2.3,9.3L271.8,102.5z"/>
			<path id="XMLID_5638_" class="st7" d="M271.8,102.5c-4,2.1-7.5,5.1-10.8,5l-6.2-3.6c-3.3-1.9-5.7-5.3-6.8-10.2
				c-1.7-6.8-0.7-15.5,2.9-24.5c3.3-8.4,8.5-16.2,14.8-21.9l6.2,3.6l-2.3,12.4l2.3,9.3L271.8,102.5z"/>
			<path id="XMLID_5631_" class="st3" d="M278,106.1c-11.5,6.1-21,2.7-23.9-8.8c-1.7-6.8-0.7-15.5,2.9-24.5
				c3.3-8.4,8.5-16.2,14.8-21.9l3.9,16l2.3,9.3L278,106.1L278,106.1z"/>
		</g>
	</g>
</g>
<g id="Envelope">
	<g id="XMLID_16503_">
		<g id="XMLID_16505_">
			<path id="XMLID_16727_" class="st3" d="M292,176.2c0-0.7,0.5-1.5,1.1-1.9l55.1-32.2c0.6-0.3,1.6-0.3,2.2,0l1.3,0.7
				c0.6,0.3,1.1,1.2,1.1,1.9v42.7c0,0.7-0.5,1.5-1.1,1.9l-55.2,32.2c-0.6,0.3-1.6,0.3-2.2,0l-1.3-0.7c-0.6-0.3-1.1-1.2-1.1-1.9
				L292,176.2L292,176.2z"/>
			<path id="XMLID_5927_" class="st4" d="M292,176.2c0-0.7,0.5-1.5,1.1-1.9l55.1-32.2c0.6-0.3,1.6-0.3,2.2,0l1.3,0.7
				c0.6,0.3,1.1,1.2,1.1,1.9v42.7c0,0.7-0.5,1.5-1.1,1.9l-55.2,32.2c-0.6,0.3-1.6,0.3-2.2,0l-1.3-0.7c-0.6-0.3-1.1-1.2-1.1-1.9
				L292,176.2L292,176.2z"/>
			<path id="XMLID_16531_" class="st3" d="M297,177.9l-4.8-2.8c-0.2,0.3-0.3,0.8-0.3,1.1v42.7c0,0.7,0.5,1.5,1.1,1.9l1.3,0.7
				c0.6,0.3,1.6,0.3,2.2,0l0.6-0.3V177.9z"/>
			<path id="XMLID_5928_" class="st2" d="M297,177.9l-4.8-2.8c-0.2,0.3-0.3,0.8-0.3,1.1v42.7c0,0.7,0.5,1.5,1.1,1.9l1.3,0.7
				c0.6,0.3,1.6,0.3,2.2,0l0.6-0.3V177.9z"/>
			<path id="XMLID_5916_" class="st3" d="M352.6,144.8v42.7c0,0.3-0.2,0.8-0.3,1.1c-0.2,0.3-0.4,0.5-0.7,0.7l0,0c0,0-0.1,0-0.1,0.1
				l-55.1,32.2l0,0c-0.3,0.2-0.6,0.2-0.8,0.1c-0.2-0.1-0.3-0.3-0.3-0.8v-42.7c0-0.7,0.5-1.1,1.3-0.9l23.2,5.6l3,0.8
				c0.7,0.2,1.5-0.2,1.9-0.8l3.5-5l23.7-33.3C352.3,144,352.6,144,352.6,144.8z"/>
			<path id="XMLID_16549_" class="st3" d="M351.5,189.3C351.6,189.3,351.6,189.3,351.5,189.3L351.5,189.3c0.3-0.3,0.6-0.5,0.8-0.8
				c0.2-0.3,0.3-0.8,0.3-1.1l-24.4-9.7l16.3,15.6L351.5,189.3z"/>
			<path id="XMLID_5924_" class="st7" d="M351.5,189.3C351.6,189.3,351.6,189.3,351.5,189.3L351.5,189.3c0.3-0.3,0.6-0.5,0.8-0.8
				c0.2-0.3,0.3-0.8,0.3-1.1l-24.4-9.7l16.3,15.6L351.5,189.3z"/>
			<path id="XMLID_16548_" class="st3" d="M295.3,220.8c0,0.3,0.2,0.6,0.3,0.8c0.2,0.1,0.4,0.1,0.8-0.1l0,0l19-11l4.3-27.6
				l-24.4,37.4V220.8L295.3,220.8z"/>
			<path id="XMLID_5923_" class="st7" d="M295.3,220.8c0,0.3,0.2,0.6,0.3,0.8c0.2,0.1,0.4,0.1,0.8-0.1l0,0l19-11l4.3-27.6
				l-24.4,37.4V220.8L295.3,220.8z"/>
			<path id="XMLID_16533_" class="st3" d="M352.3,188.6c-0.2,0.3-0.4,0.5-0.7,0.7l0,0l-55.2,32.2l0,0c-0.3,0.2-0.6,0.2-0.8,0.1
				l26.4-42.6c1.1-1.8,3.3-2.4,5.2-1.6L352.3,188.6z"/>
		</g>
		<path id="XMLID_16530_" class="st3" d="M295.3,176.9l25.4,11.3c1.9,0.8,4.1,0.2,5.2-1.6l26.6-43L295.3,176.9z"/>
		<path id="XMLID_5922_" class="st2" d="M295.3,176.9l25.4,11.3c1.9,0.8,4.1,0.2,5.2-1.6l26.6-43L295.3,176.9z"/>
		<path id="XMLID_16506_" class="st3" d="M295.3,176.9l25.5,9.6c1.8,0.7,3.8,0,4.9-1.6l26.7-41.3L295.3,176.9z"/>
	</g>
</g>
</svg>
