<?xml version="1.0" encoding="UTF-8"?>
<!DOCTYPE svg PUBLIC "-//W3C//DTD SVG 1.1//EN" "http://www.w3.org/Graphics/SVG/1.1/DTD/svg11.dtd">
<!-- Creator: CorelDRAW -->
<svg xmlns="http://www.w3.org/2000/svg" xml:space="preserve" width="800px" height="656px" version="1.1" style="shape-rendering:geometricPrecision; text-rendering:geometricPrecision; image-rendering:optimizeQuality; fill-rule:evenodd; clip-rule:evenodd"
viewBox="0 0 800 655.79"
 xmlns:xlink="http://www.w3.org/1999/xlink"
 xmlns:xodm="http://www.corel.com/coreldraw/odm/2003">
 <defs>
  <style type="text/css">
   <![CDATA[
    .fil6 {fill:#13B886;fill-rule:nonzero}
    .fil5 {fill:#34D6A0;fill-rule:nonzero}
    .fil3 {fill:#6281E6;fill-rule:nonzero}
    .fil12 {fill:#6FA6E7;fill-rule:nonzero}
    .fil0 {fill:#D3E8FB;fill-rule:nonzero}
    .fil9 {fill:#D8DEE8;fill-rule:nonzero}
    .fil4 {fill:white;fill-rule:nonzero}
    .fil8 {fill:#13B886;fill-rule:nonzero;fill-opacity:0.090196}
    .fil11 {fill:#D8DEE8;fill-rule:nonzero;fill-opacity:0.301961}
    .fil7 {fill:url(#id0);fill-rule:nonzero}
    .fil2 {fill:url(#id1);fill-rule:nonzero}
    .fil1 {fill:url(#id2);fill-rule:nonzero}
    .fil10 {fill:url(#id3);fill-rule:nonzero}
   ]]>
  </style>
  <linearGradient id="id0" gradientUnits="userSpaceOnUse" x1="150.89" y1="406.15" x2="746.02" y2="406.15">
   <stop offset="0" style="stop-opacity:1; stop-color:#EBEFF2"/>
   <stop offset="1" style="stop-opacity:1; stop-color:white"/>
  </linearGradient>
  <linearGradient id="id1" gradientUnits="userSpaceOnUse" x1="1705.97" y1="231.67" x2="1340.27" y2="231.67">
   <stop offset="0" style="stop-opacity:1; stop-color:#FF9085"/>
   <stop offset="1" style="stop-opacity:1; stop-color:#FB6FBB"/>
  </linearGradient>
  <linearGradient id="id2" gradientUnits="userSpaceOnUse" x1="-2661.06" y1="-625.17" x2="-2871.21" y2="-270.84">
   <stop offset="0" style="stop-opacity:1; stop-color:#AA80F9"/>
   <stop offset="1" style="stop-opacity:1; stop-color:#6165D7"/>
  </linearGradient>
  <linearGradient id="id3" gradientUnits="userSpaceOnUse" xlink:href="#id0" x1="960.67" y1="679.87" x2="919.11" y2="101.14">
  </linearGradient>
 </defs>
 <g id="Camada_x0020_1">
  <metadata id="CorelCorpID_0Corel-Layer"/>
  <g id="_2705834262432">
   <g>
    <path class="fil0" d="M417.6 57.78c0,0 -358.89,-150.54 -326.99,117.78 31.9,268.32 -228.55,411.85 72.52,454.95 301.06,43.1 574.21,-22.37 602.13,-160.82 27.91,-138.46 110.36,-235.51 -347.66,-411.91z"/>
    <g>
     <g>
      <path class="fil1" d="M399.92 422.75c-3.82,-27.87 -5.86,-71.36 14.01,-110.09 34.67,-67.56 96.99,-44.57 157.2,-116.77 48.57,-58.23 33.64,-103.91 87.3,-142.44 8.98,-6.45 56.44,-41.96 91.46,-20.07 19.73,12.33 26.75,37.38 28.07,42.09 19.94,71.09 -43.34,181.65 -125.26,231.8 -47.07,28.81 -62.15,19.16 -144.88,52.55 -48.61,19.61 -85.17,45.08 -107.9,62.93z"/>
     </g>
     <g>
      <g>
       <path class="fil2" d="M399.92 422.75c-3.82,-27.87 -5.86,-71.36 14.01,-110.09 34.67,-67.56 96.99,-44.57 157.2,-116.77 48.57,-58.23 33.64,-103.91 87.3,-142.44 8.98,-6.45 56.44,-41.96 91.46,-20.07 19.73,12.33 26.75,37.38 28.07,42.09 19.94,71.09 -43.34,181.65 -125.26,231.8 -47.07,28.81 -62.15,19.16 -144.88,52.55 -48.61,19.61 -85.17,45.08 -107.9,62.93z"/>
      </g>
      <g>
       <path class="fil3" d="M399.92 422.75c-3.82,-27.87 -5.86,-71.36 14.01,-110.09 34.67,-67.56 96.99,-44.57 157.2,-116.77 48.57,-58.23 33.64,-103.91 87.3,-142.44 8.98,-6.45 56.44,-41.96 91.46,-20.07 19.73,12.33 26.75,37.38 28.07,42.09 19.94,71.09 -43.34,181.65 -125.26,231.8 -47.07,28.81 -62.15,19.16 -144.88,52.55 -48.61,19.61 -85.17,45.08 -107.9,62.93z"/>
      </g>
      <g>
       <path class="fil4" d="M392.73 456.19l-0.97 -0.24c12.4,-66.47 35.45,-111 68.5,-132.39 16.18,-10.46 29.02,-12.04 42.62,-13.71 14.61,-1.79 29.72,-3.64 49.72,-17.38 19.44,-13.36 26.46,-26.31 35.35,-42.71 8,-14.76 17.95,-33.13 40.19,-57.53 19.5,-21.38 33.66,-31.35 46.16,-40.15 13.53,-9.52 24.21,-17.04 36.64,-35.57 20.31,-30.26 31.06,-69.19 31.95,-115.71l0.99 0.03c-0.9,46.76 -11.71,85.92 -32.15,116.38 -12.54,18.7 -23.3,26.27 -36.91,35.85 -12.46,8.77 -26.57,18.7 -45.99,40 -22.15,24.3 -32.07,42.6 -40.04,57.31 -8.96,16.53 -16.03,29.58 -35.68,43.08 -20.19,13.87 -35.41,15.74 -50.12,17.54 -13.5,1.66 -26.24,3.22 -42.24,13.57 -32.8,21.22 -55.68,65.5 -68.02,131.63z"/>
       <path class="fil4" d="M675.25 157.12c-2.02,0 -4.07,-0.04 -6.14,-0.13l-0.67 -0.03 0.21 -0.72c0.27,-0.93 26.7,-93.05 -2.55,-131.43l0.75 -0.75c28.23,37.04 5.4,122.99 2.95,131.81 43.81,1.69 76.52,-17.2 96.28,-33.38 21.5,-17.63 32.7,-35.92 32.81,-36.1l0.81 0.66c-0.11,0.18 -11.41,18.63 -33.05,36.37 -19.04,15.61 -50.05,33.7 -91.4,33.7z"/>
       <path class="fil4" d="M678.22 235.84c-7.26,0 -14.01,-0.47 -20.08,-1.19 -30.67,-3.65 -51.42,-14.39 -51.63,-14.5l-0.38 -0.21 0.11 -0.47c11.81,-48.05 2.05,-116.64 1.95,-117.32l0.97 -0.19c0.1,0.68 9.84,69.07 -1.85,117.34 2.98,1.48 22.75,10.86 50.97,14.21 28.15,3.35 70.7,1.2 113.58,-28l0.51 0.98c-33.88,23.07 -67.54,29.35 -94.15,29.35z"/>
       <path class="fil4" d="M641.81 347.91c-79.88,0 -125.58,-38.53 -126.04,-38.92l-0.42 -0.36 0.34 -0.47c31.93,-44.35 20.03,-118.17 19.9,-118.91l0.98 -0.22c0.12,0.74 12.03,74.56 -19.78,119.39 4.88,3.94 51.24,39.62 129.26,38.3l0.01 1.15c-1.42,0.02 -2.85,0.04 -4.25,0.04z"/>
      </g>
     </g>
    </g>
    <g>
     <path class="fil5" d="M482.55 366.6c13.49,-11.02 35.55,-26.95 65.16,-38.8 52.68,-21.08 76.68,-8.21 99.08,-33.67 23.19,-26.35 8.42,-52.59 36.17,-82 2.33,-2.48 32.12,-33.23 58.83,-21.48 18.68,8.21 25.83,32.82 29.19,44.37 13.02,44.81 4.89,112.88 -36.65,146.15 -39.38,31.55 -88.92,15.98 -104.65,10.91 -27.59,-8.9 -34.07,-21.38 -62.12,-29.46 -34.12,-9.83 -64.87,-2.99 -85.01,3.98z"/>
    </g>
    <g>
     <g>
      <g>
       <path class="fil6" d="M223.8 548.79c8.85,-31.12 5.2,-78.02 -5.35,-130.76 -12.11,-60.57 -38.94,-72.69 -63.02,-137.43 -34.39,-92.41 4.53,-159.35 -31.07,-187.6 -17.36,-13.77 -44.66,-13.78 -61.49,0.04 -48.01,39.46 -34.85,211.31 41.33,278.37 34.46,30.33 64.52,26.73 90.38,65.98 22.84,34.68 33.72,79.83 29.22,111.4z"/>
      </g>
      <g>
       <path class="fil4" d="M216.49 471.12c-2.89,-13.08 -6.77,-25.94 -11.53,-38.22 -10.96,-28.2 -23.05,-43.72 -38.35,-63.36 -10,-12.83 -21.32,-27.36 -34.41,-48.21 -24.49,-38.99 -32.1,-52.69 -38.91,-74.78 -13.48,-43.71 -11.41,-82.89 -8.97,-102.36 3.45,-27.62 11.48,-53.9 23.87,-78.12l0.86 0.58c-12.33,24.09 -20.32,50.23 -23.75,77.7 -2.42,19.36 -4.48,58.34 8.93,101.81 6.77,21.96 14.35,35.61 38.77,74.5 13.06,20.8 24.37,35.31 34.34,48.11 15.37,19.72 27.51,35.3 38.52,63.66 4.79,12.34 8.69,25.26 11.59,38.4l-0.96 0.29z"/>
       <path class="fil4" d="M86.84 215.79l-0.72 -0.45c-0.14,-0.09 -14.37,-9.12 -27.02,-27.48 -11.67,-16.96 -24.35,-45.57 -18.49,-85.61l0.98 0.19c-5.8,39.62 6.74,67.93 18.29,84.71 10.91,15.84 22.98,24.64 26,26.71 0.84,-31.93 18.59,-52.62 33.41,-64.39 16.19,-12.86 32.49,-18.13 32.65,-18.18l0.27 1.1c-0.17,0.05 -16.32,5.29 -32.38,18.04 -14.77,11.74 -32.48,32.44 -32.98,64.41l-0.01 0.95z"/>
       <path class="fil4" d="M90.83 318.53c-14.4,0 -31.31,-4.08 -46.93,-18.11l0.61 -0.9c34.86,31.3 76.29,12.41 80.69,10.26 -7.05,-31.55 -0.79,-54.83 5.72,-68.83 7.1,-15.26 16.05,-23.1 16.14,-23.18l0.6 0.92c-0.35,0.3 -35.05,31.18 -21.39,91.27l0.11 0.47 -0.38 0.2c-0.26,0.13 -15.32,7.9 -35.17,7.9z"/>
       <path class="fil4" d="M122.91 378.72c-10.79,0 -23.71,-2.26 -38.74,-8.59l0.34 -1.08c48.94,20.63 75.21,-2.29 78.11,-5.04 -11.95,-32.35 4.9,-84.61 5.08,-85.13l0.93 0.4c-0.18,0.53 -17.03,52.77 -4.96,84.67l0.14 0.37 -0.26 0.28c-0.19,0.2 -13.86,14.12 -40.64,14.12z"/>
      </g>
     </g>
    </g>
    <g>
     <g>
      <g>
       <path class="fil3" d="M298.51 575.18c3,-20.9 4.72,-53.55 -10.03,-82.75 -25.73,-50.93 -72.63,-34.04 -117.52,-88.61 -36.21,-44.01 -24.8,-78.22 -64.93,-107.47 -6.71,-4.9 -42.2,-31.84 -68.58,-15.61 -14.87,9.14 -20.26,27.92 -21.27,31.44 -15.29,53.27 31.74,136.66 93.04,174.8 35.21,21.92 46.58,14.75 108.55,40.31 36.42,15.02 63.76,34.36 80.74,47.89z"/>
      </g>
      <g>
       <path class="fil4" d="M303.65 600.36c-8.97,-49.68 -25.94,-83.04 -50.43,-99.14 -11.95,-7.85 -21.5,-9.1 -31.62,-10.42 -11.05,-1.44 -22.48,-2.94 -37.61,-13.49 -14.72,-10.27 -19.98,-20.12 -26.64,-32.61 -5.91,-11.08 -13.28,-24.87 -29.79,-43.24 -14.48,-16.1 -25.03,-23.63 -34.34,-30.29 -10.19,-7.28 -18.24,-13.03 -27.59,-27.17 -15.23,-23.02 -23.19,-52.51 -23.65,-87.66l0.99 -0.02c0.46,34.9 8.35,64.17 23.45,86.99 9.24,13.96 17.22,19.67 27.32,26.89 9.35,6.68 19.95,14.26 34.51,30.44 16.6,18.46 24,32.32 29.94,43.46 6.6,12.35 11.8,22.11 26.32,32.23 14.93,10.42 26.26,11.9 37.21,13.33 10.21,1.34 19.86,2.59 31.99,10.57 24.75,16.27 41.88,49.88 50.91,99.9l-0.97 0.23z"/>
       <path class="fil4" d="M93.76 374.25c-61.47,0 -93.74,-52.88 -94.06,-53.42l0.82 -0.65c0.33,0.55 33.45,54.72 96.36,52.88 -2.04,-7.57 -18.35,-71.45 2.87,-98.93l0.74 0.77c-22.08,28.58 -2.67,97.83 -2.47,98.53l0.21 0.73 -0.67 0.02c-1.27,0.05 -2.55,0.07 -3.8,0.07z"/>
       <path class="fil4" d="M91.36 433.34c-20.15,0 -45.84,-4.78 -71.63,-22.62l0.51 -0.98c32.06,22.17 63.99,24.03 85.13,21.68 20.89,-2.32 35.62,-9.08 38.16,-10.31 -8.52,-36.34 -0.92,-87.55 -0.84,-88.07l0.98 0.2c-0.08,0.51 -7.71,51.93 0.94,88.05l0.11 0.47 -0.39 0.2c-0.15,0.08 -15.81,8.04 -38.87,10.6 -4.29,0.48 -9.02,0.78 -14.1,0.78z"/>
       <path class="fil4" d="M141.39 466.02l0.02 -1.14c30.39,0.76 43.85,44.26 69.68,23.73 -23.63,-33.9 -14.37,-89.21 -14.27,-89.76l0.97 0.22c-0.09,0.56 -9.35,55.85 14.4,89.3l0.33 0.46 -0.42 0.36c-24.35,20.66 -41.46,-22.44 -70.71,-23.17z"/>
      </g>
     </g>
    </g>
   </g>
   <g>
    <g>
     <path class="fil7" d="M662.82 174.4l-501.99 -17.91c-7.32,-0.26 -12.12,6.2 -10.7,14.44l81.43 471.79c1.42,8.24 8.41,14.44 15.58,13.84l491.82 -41c5.56,-0.47 9.05,-6.7 7.8,-13.93l-71.41 -413.78c-1.25,-7.22 -6.85,-13.25 -12.53,-13.45z"/>
     <path class="fil6" d="M665.53 174.4l-501.99 -17.91c-7.32,-0.26 -12.12,6.2 -10.7,14.44l81.43 471.79c1.42,8.24 8.41,14.44 15.58,13.84l491.82 -41c5.56,-0.47 9.05,-6.7 7.8,-13.93l-71.41 -413.78c-1.25,-7.22 -6.85,-13.25 -12.53,-13.45z"/>
     <g>
      <path class="fil8" d="M534.52 424.39c-98.8,-61.93 -192.43,-13.79 -259.85,-93.23 -41.51,-48.92 -49.13,-118.17 -47.88,-172.41l-63.25 -2.26c-7.32,-0.26 -12.12,6.2 -10.7,14.44l81.43 471.79c1.42,8.24 8.41,14.44 15.58,13.84l426.73 -35.58c-46.64,-116.79 -99.23,-169.74 -142.06,-196.59z"/>
     </g>
     <path class="fil9" d="M724.87 599.84l-465.89 36.69c-7.74,0.61 -15.28,-6.12 -16.82,-15.03l-72.54 -420.3c-1.54,-8.92 3.63,-15.96 11.52,-15.73l474.59 13.77c6.2,0.18 12.31,6.7 13.66,14.56l64.03 370.93c1.35,7.87 -2.47,14.63 -8.55,15.11z"/>
     <path class="fil10" d="M726.96 599.68l-465.33 36.64c-7.73,0.61 -15.26,-6.12 -16.8,-15.02l-72.5 -420.04c-1.53,-8.9 3.63,-15.94 11.5,-15.71l474.03 13.75c6.19,0.18 12.29,6.7 13.65,14.56l63.98 370.72c1.36,7.86 -2.45,14.62 -8.53,15.1z"/>
     <g>
      <path class="fil9" d="M419.97 337.12l-50.79 0.36c-1.52,0.01 -3.01,-1.44 -3.32,-3.24l-8.41 -48.68c-0.31,-1.8 0.68,-3.25 2.21,-3.24l50.91 0.33c1.49,0.01 2.94,1.45 3.25,3.23l8.29 48.01c0.3,1.77 -0.65,3.22 -2.14,3.23zm-49.16 -6.17l45.36 -0.25 -7.19 -41.64 -45.44 -0.22 7.27 42.11z"/>
      <path class="fil9" d="M484.16 336.66l-49.17 0.35c-1.47,0.01 -2.92,-1.42 -3.22,-3.19l-8.27 -47.89c-0.3,-1.77 0.65,-3.2 2.13,-3.19l49.28 0.32c1.44,0.01 2.85,1.43 3.15,3.18l8.16 47.24c0.3,1.75 -0.62,3.17 -2.06,3.18zm-47.61 -6.07l43.91 -0.24 -7.07 -40.97 -43.99 -0.22 7.15 41.43z"/>
      <path class="fil9" d="M546.32 336.22l-47.62 0.34c-1.42,0.01 -2.83,-1.4 -3.13,-3.14l-8.13 -47.13c-0.3,-1.74 0.62,-3.14 2.05,-3.14l47.73 0.31c1.4,0.01 2.77,1.41 3.06,3.13l8.03 46.5c0.3,1.71 -0.59,3.12 -1.99,3.13zm-46.12 -5.98l42.53 -0.24 -6.96 -40.32 -42.61 -0.21 7.04 40.77z"/>
      <path class="fil9" d="M606.56 335.79l-46.15 0.33c-1.38,0.01 -2.74,-1.38 -3.04,-3.09l-8 -46.39c-0.3,-1.71 0.59,-3.1 1.97,-3.09l46.25 0.3c1.36,0.01 2.69,1.39 2.98,3.08l7.9 45.77c0.29,1.7 -0.56,3.08 -1.91,3.09zm-44.71 -5.89l41.2 -0.23 -6.85 -39.7 -41.28 -0.2 6.93 40.13z"/>
      <path class="fil9" d="M664.95 335.37l-44.74 0.32c-1.34,0.01 -2.66,-1.35 -2.95,-3.04l-7.89 -45.67c-0.29,-1.69 0.57,-3.05 1.91,-3.04l44.84 0.29c1.31,0.01 2.61,1.37 2.9,3.03l7.78 45.07c0.28,1.67 -0.54,3.03 -1.85,3.04zm-43.37 -5.81l39.95 -0.22 -6.74 -39.08 -40.02 -0.2 6.81 39.5z"/>
      <path class="fil9" d="M296.56 404.44l-54.14 1.25c-1.63,0.04 -3.21,-1.44 -3.53,-3.3l-8.69 -50.34c-0.32,-1.86 0.74,-3.39 2.37,-3.4l54.27 -0.52c1.59,-0.02 3.13,1.46 3.45,3.29l8.56 49.63c0.32,1.83 -0.7,3.35 -2.29,3.39zm-52.37 -5.55l48.36 -1.04 -7.43 -43.04 -48.44 0.54 7.51 43.54z"/>
      <path class="fil9" d="M364.92 402.85l-52.35 1.21c-1.58,0.04 -3.11,-1.41 -3.42,-3.24l-8.55 -49.5c-0.31,-1.83 0.71,-3.33 2.28,-3.34l52.48 -0.51c1.54,-0.01 3.03,1.44 3.34,3.24l8.43 48.81c0.31,1.8 -0.68,3.29 -2.21,3.33zm-50.66 -5.47l46.76 -1.01 -7.31 -42.33 -46.84 0.53 7.39 42.81z"/>
      <path class="fil9" d="M431.05 401.31l-50.65 1.18c-1.52,0.03 -3.01,-1.4 -3.32,-3.2l-8.4 -48.68c-0.31,-1.8 0.68,-3.27 2.2,-3.28l50.77 -0.49c1.48,-0.02 2.93,1.41 3.24,3.19l8.29 48c0.3,1.78 -0.65,3.25 -2.13,3.28zm-49.03 -5.39l45.24 -0.98 -7.19 -41.64 -45.31 0.51 7.26 42.11z"/>
      <path class="fil9" d="M495.06 399.82l-49.03 1.14c-1.47,0.04 -2.91,-1.37 -3.22,-3.14l-8.26 -47.89c-0.31,-1.77 0.64,-3.22 2.11,-3.24l49.15 -0.47c1.44,-0.01 2.85,1.4 3.15,3.14l8.15 47.24c0.3,1.75 -0.61,3.19 -2.05,3.22zm-47.48 -5.32l43.79 -0.95 -7.07 -40.97 -43.86 0.49 7.14 41.43z"/>
      <path class="fil9" d="M557.06 398.38l-47.49 1.11c-1.43,0.03 -2.83,-1.35 -3.13,-3.1l-8.13 -47.12c-0.3,-1.75 0.61,-3.17 2.04,-3.18l47.6 -0.46c1.39,-0.01 2.76,1.37 3.06,3.09l8.02 46.49c0.3,1.72 -0.59,3.14 -1.97,3.17zm-46.01 -5.25l42.41 -0.92 -6.96 -40.32 -42.48 0.47 7.03 40.77z"/>
      <path class="fil9" d="M617.12 396.99l-46.02 1.07c-1.38,0.03 -2.73,-1.34 -3.03,-3.05l-8.01 -46.39c-0.29,-1.71 0.59,-3.11 1.97,-3.12l46.13 -0.45c1.35,-0.01 2.68,1.35 2.97,3.04l7.9 45.78c0.29,1.69 -0.56,3.09 -1.91,3.12zm-44.59 -5.19l41.09 -0.89 -6.85 -39.7 -41.17 0.46 6.93 40.13z"/>
      <path class="fil9" d="M675.35 395.63l-44.61 1.04c-1.34,0.03 -2.66,-1.31 -2.95,-3l-7.88 -45.67c-0.29,-1.68 0.56,-3.06 1.9,-3.08l44.71 -0.42c1.31,-0.02 2.6,1.32 2.89,2.99l7.78 45.07c0.29,1.67 -0.54,3.05 -1.84,3.07zm-43.25 -5.12l39.84 -0.86 -6.75 -39.09 -39.9 0.45 6.81 39.5z"/>
      <path class="fil9" d="M308.01 470.79l-53.99 2.13c-1.62,0.06 -3.2,-1.39 -3.52,-3.26l-8.69 -50.34c-0.32,-1.86 0.74,-3.4 2.36,-3.45l54.13 -1.39c1.58,-0.04 3.12,1.42 3.43,3.25l8.57 49.63c0.31,1.83 -0.71,3.37 -2.29,3.43zm-52.22 -4.72l48.22 -1.82 -7.43 -43.04 -48.31 1.32 7.52 43.54z"/>
      <path class="fil9" d="M376.18 468.1l-52.21 2.06c-1.56,0.06 -3.09,-1.37 -3.41,-3.2l-8.54 -49.5c-0.32,-1.83 0.7,-3.35 2.27,-3.39l52.34 -1.34c1.53,-0.04 3.02,1.39 3.33,3.19l8.42 48.81c0.31,1.8 -0.67,3.31 -2.2,3.37zm-50.52 -4.67l46.63 -1.76 -7.31 -42.33 -46.71 1.28 7.39 42.81z"/>
      <path class="fil9" d="M442.13 465.5l-50.51 2c-1.52,0.05 -3,-1.36 -3.31,-3.16l-8.4 -48.68c-0.31,-1.8 0.67,-3.29 2.19,-3.33l50.63 -1.3c1.48,-0.04 2.93,1.37 3.23,3.15l8.29 48.01c0.3,1.77 -0.64,3.26 -2.12,3.31zm-48.89 -4.62l45.1 -1.71 -7.18 -41.63 -45.19 1.23 7.27 42.11z"/>
      <path class="fil9" d="M505.97 462.99l-48.9 1.92c-1.47,0.06 -2.91,-1.33 -3.21,-3.1l-8.27 -47.89c-0.3,-1.77 0.64,-3.24 2.11,-3.27l49.01 -1.26c1.44,-0.04 2.84,1.35 3.14,3.09l8.16 47.24c0.3,1.75 -0.62,3.21 -2.04,3.27zm-47.36 -4.58l43.67 -1.65 -7.07 -40.97 -43.74 1.19 7.14 41.43z"/>
      <path class="fil9" d="M567.78 460.55l-47.35 1.87c-1.42,0.05 -2.82,-1.31 -3.12,-3.06l-8.13 -47.12c-0.3,-1.74 0.61,-3.19 2.03,-3.22l47.47 -1.22c1.39,-0.04 2.75,1.33 3.05,3.04l8.02 46.5c0.3,1.72 -0.58,3.16 -1.97,3.21zm-45.87 -4.53l42.29 -1.6 -6.96 -40.33 -42.37 1.16 7.04 40.77z"/>
      <path class="fil9" d="M627.68 458.19l-45.89 1.81c-1.37,0.05 -2.73,-1.29 -3.02,-3.01l-8.01 -46.38c-0.29,-1.72 0.58,-3.14 1.96,-3.17l46 -1.18c1.35,-0.04 2.67,1.3 2.96,3l7.9 45.77c0.3,1.69 -0.55,3.11 -1.9,3.16zm-44.47 -4.49l40.98 -1.55 -6.85 -39.7 -41.05 1.12 6.92 40.13z"/>
      <path class="fil9" d="M685.75 455.9l-44.49 1.75c-1.33,0.06 -2.65,-1.27 -2.94,-2.96l-7.88 -45.66c-0.29,-1.69 0.55,-3.09 1.89,-3.12l44.59 -1.15c1.31,-0.03 2.6,1.29 2.89,2.96l7.77 45.07c0.29,1.67 -0.53,3.06 -1.83,3.11zm-43.13 -4.45l39.73 -1.5 -6.75 -39.09 -39.8 1.09 6.82 39.5z"/>
      <path class="fil9" d="M319.47 537.15l-53.85 2.99c-1.61,0.09 -3.19,-1.34 -3.51,-3.2l-8.69 -50.35c-0.32,-1.86 0.74,-3.42 2.36,-3.49l53.97 -2.26c1.58,-0.07 3.11,1.37 3.43,3.2l8.56 49.63c0.32,1.83 -0.7,3.39 -2.27,3.48zm-52.09 -3.9l48.09 -2.6 -7.43 -43.04 -48.17 2.1 7.51 43.54z"/>
      <path class="fil9" d="M387.45 533.36l-52.07 2.9c-1.56,0.09 -3.08,-1.33 -3.4,-3.16l-8.54 -49.5c-0.32,-1.83 0.69,-3.36 2.26,-3.43l52.19 -2.18c1.52,-0.07 3.01,1.34 3.32,3.15l8.43 48.8c0.31,1.8 -0.67,3.33 -2.19,3.42zm-50.39 -3.88l46.5 -2.51 -7.31 -42.33 -46.58 2.03 7.39 42.81z"/>
      <path class="fil9" d="M453.21 529.7l-50.37 2.8c-1.51,0.09 -2.99,-1.3 -3.3,-3.1l-8.4 -48.69c-0.31,-1.8 0.66,-3.31 2.18,-3.37l50.49 -2.12c1.47,-0.06 2.92,1.33 3.23,3.11l8.28 48c0.31,1.78 -0.64,3.28 -2.11,3.37zm-48.76 -3.86l44.98 -2.43 -7.19 -41.64 -45.06 1.96 7.27 42.11z"/>
      <path class="fil9" d="M516.87 526.15l-48.77 2.72c-1.46,0.08 -2.89,-1.29 -3.2,-3.06l-8.26 -47.89c-0.31,-1.77 0.63,-3.26 2.1,-3.32l48.88 -2.05c1.42,-0.06 2.83,1.31 3.13,3.06l8.15 47.24c0.3,1.74 -0.61,3.22 -2.03,3.3zm-47.22 -3.83l43.54 -2.36 -7.07 -40.97 -43.62 1.9 7.15 41.43z"/>
      <path class="fil9" d="M578.51 522.72l-47.22 2.63c-1.42,0.08 -2.81,-1.27 -3.11,-3.01l-8.13 -47.13c-0.3,-1.74 0.6,-3.2 2.02,-3.26l47.34 -1.98c1.38,-0.06 2.75,1.28 3.04,3l8.03 46.5c0.29,1.72 -0.59,3.17 -1.97,3.25zm-45.75 -3.81l42.18 -2.28 -6.96 -40.33 -42.25 1.84 7.03 40.77z"/>
      <path class="fil9" d="M638.25 519.39l-45.77 2.55c-1.37,0.08 -2.72,-1.25 -3.02,-2.97l-8 -46.38c-0.3,-1.72 0.58,-3.15 1.95,-3.21l45.87 -1.92c1.34,-0.06 2.67,1.27 2.96,2.96l7.9 45.77c0.29,1.69 -0.56,3.13 -1.89,3.2zm-44.35 -3.79l40.86 -2.21 -6.85 -39.69 -40.94 1.78 6.93 40.12z"/>
      <path class="fil9" d="M696.15 516.17l-44.36 2.47c-1.33,0.07 -2.65,-1.24 -2.94,-2.92l-7.88 -45.67c-0.29,-1.69 0.55,-3.1 1.89,-3.16l44.46 -1.86c1.31,-0.06 2.59,1.25 2.88,2.92l7.78 45.07c0.29,1.67 -0.53,3.07 -1.83,3.15zm-43.01 -3.77l39.62 -2.14 -6.75 -39.09 -39.69 1.72 6.82 39.51z"/>
      <path class="fil9" d="M330.92 603.5l-53.7 3.87c-1.61,0.11 -3.18,-1.3 -3.5,-3.16l-8.69 -50.35c-0.32,-1.86 0.73,-3.44 2.35,-3.54l53.82 -3.13c1.57,-0.09 3.1,1.33 3.42,3.16l8.56 49.62c0.32,1.84 -0.69,3.42 -2.26,3.53zm-51.94 -3.07l47.95 -3.38 -7.43 -43.04 -48.04 2.87 7.52 43.55z"/>
      <path class="fil9" d="M398.71 598.61l-51.92 3.75c-1.56,0.11 -3.08,-1.28 -3.39,-3.11l-8.55 -49.5c-0.31,-1.83 0.7,-3.39 2.26,-3.48l52.04 -3.03c1.52,-0.09 3.01,1.3 3.32,3.11l8.42 48.8c0.31,1.81 -0.66,3.36 -2.18,3.46zm-50.25 -3.07l46.37 -3.27 -7.31 -42.33 -46.45 2.78 7.39 42.82z"/>
      <path class="fil9" d="M464.29 593.89l-50.23 3.62c-1.51,0.11 -2.98,-1.26 -3.29,-3.06l-8.41 -48.69c-0.31,-1.8 0.67,-3.33 2.18,-3.41l50.35 -2.93c1.47,-0.09 2.91,1.28 3.22,3.06l8.28 48.01c0.31,1.77 -0.63,3.29 -2.1,3.4zm-48.63 -3.08l44.86 -3.16 -7.19 -41.64 -44.94 2.69 7.27 42.11z"/>
      <path class="fil9" d="M527.77 589.32l-48.63 3.5c-1.46,0.1 -2.89,-1.25 -3.19,-3.02l-8.27 -47.89c-0.3,-1.77 0.64,-3.27 2.1,-3.36l48.74 -2.83c1.42,-0.09 2.82,1.26 3.12,3.01l8.16 47.24c0.3,1.74 -0.61,3.24 -2.03,3.35zm-47.09 -3.09l43.42 -3.06 -7.07 -40.97 -43.5 2.6 7.15 41.43z"/>
      <polygon class="fil0" points="271.76,273.62 216.59,273.15 214.23,259.52 269.44,260.16 "/>
      <polygon class="fil0" points="341.39,274.2 288.06,273.76 285.75,260.35 339.11,260.97 "/>
      <polygon class="fil0" points="408.72,274.77 357.15,274.34 354.88,261.16 406.48,261.76 "/>
      <polygon class="fil0" points="473.87,275.32 423.97,274.9 421.73,261.93 471.66,262.52 "/>
      <polygon class="fil0" points="536.94,275.85 488.63,275.44 486.43,262.69 534.76,263.25 "/>
      <polygon class="fil0" points="598.03,276.36 551.23,275.97 549.06,263.42 595.89,263.96 "/>
      <polygon class="fil0" points="657.22,276.86 611.87,276.48 609.74,264.12 655.11,264.65 "/>
     </g>
     <polygon class="fil9" points="652.25,248.06 211.04,240.99 206.59,215.22 648.27,224.99 "/>
     <g>
      <path class="fil11" d="M534.52 424.39c-98.8,-61.93 -192.43,-13.79 -259.85,-93.23 -34.57,-40.74 -45.65,-95.73 -47.65,-144.36l-43.46 -1.26c-7.72,-0.22 -12.79,6.68 -11.28,15.42l72.6 420.64c1.51,8.74 8.9,15.34 16.48,14.74l408.29 -32.15c-44.85,-105.14 -94.4,-154.27 -135.13,-179.8z"/>
     </g>
    </g>
    <path class="fil12" d="M484.04 251.41c-1.14,-3.01 -5.02,-4.97 -7.42,-2.4 -6.86,7.34 -8.23,19.54 -11.75,29.31 -2.69,7.47 -5.68,14.77 -8.58,22.13 -6.19,-10.17 -11.49,-21.1 -17.88,-31.11 -2.21,-3.47 -7.5,-0.29 -5.82,3.78 6.61,16.1 11,32.83 19.81,47.72 3.08,5.21 9.74,3.6 11.95,-1.57 5.1,-11.94 10.31,-23.85 14.74,-36.15 3.46,-9.6 8.84,-21.5 4.95,-31.71z"/>
   </g>
  </g>
 </g>
</svg>
