<svg width="523" height="470" viewBox="0 0 523 470" fill="none" xmlns="http://www.w3.org/2000/svg">
<g clip-path="url(#clip0_9_103)">
<path d="M76.4894 430.316C178.604 483.64 344.168 483.64 446.287 430.316C548.405 376.992 548.405 290.537 446.287 237.213C344.168 183.889 178.604 183.889 76.4856 237.213C-25.6288 290.537 -25.6288 376.992 76.4894 430.316Z" fill="#F5F7F8"/>
<path d="M381.91 381.905C408.706 381.905 430.43 369.368 430.43 353.903C430.43 338.438 408.706 325.901 381.91 325.901C355.113 325.901 333.389 338.438 333.389 353.903C333.389 369.368 355.113 381.905 381.91 381.905Z" fill="#E0E0E0"/>
<path d="M86.3833 339.283C85.6655 331.056 78.2175 314.53 68.7413 304.592C59.2652 294.653 45.1516 288.013 35.8958 292.109C27.2742 295.921 29.253 307.492 40.7117 314.272C52.1704 321.053 69.2237 329.336 75.1297 342.271L86.5124 357.779L86.3833 339.283Z" fill="#27DEBF"/>
<path d="M86.3833 339.283C85.6655 331.056 78.2175 314.53 68.7413 304.592C59.2652 294.653 45.1516 288.013 35.8958 292.109C27.2742 295.921 29.253 307.492 40.7117 314.272C52.1704 321.053 69.2237 329.336 75.1297 342.271L86.5124 357.779L86.3833 339.283Z" fill="black" fill-opacity="0.101961"/>
<path d="M87.9747 350.49C87.7088 350.49 87.4657 350.319 87.3898 350.053C79.4253 322.442 54.6923 301.596 40.6434 297.739C40.3243 297.652 40.1344 297.318 40.2218 296.999C40.3091 296.68 40.6358 296.482 40.9662 296.577C55.281 300.507 80.4621 321.69 88.552 349.719C88.6431 350.038 88.4608 350.372 88.138 350.463C88.0848 350.482 88.0278 350.49 87.9747 350.49Z" fill="white"/>
<path d="M85.354 368.838C83.6297 364.328 77.3097 357.187 67.6133 351.682C56.8914 345.589 43.8147 343.501 40.3889 338.326C36.2718 332.115 41.2359 325.472 51.7375 325.851C62.2353 326.231 81.7421 338.805 86.5238 359.882L85.354 368.838Z" fill="#27DEBF"/>
<path d="M86.9416 363.808C86.7099 363.808 86.4934 363.678 86.3871 363.454C75.6652 340.141 56.561 333.3 47.9546 332.939C47.6204 332.924 47.3621 332.643 47.3773 332.309C47.3887 331.975 47.6584 331.72 48.004 331.732C57.5219 332.13 76.5425 339.154 87.4847 362.95C87.6253 363.253 87.4923 363.61 87.1885 363.751C87.1087 363.789 87.0252 363.808 86.9416 363.808Z" fill="white"/>
<path d="M408.618 328.615C408.439 321.994 410.281 310.886 416.806 299.804C423.795 287.944 433.012 279.995 440.76 282.413C447.977 284.661 446.389 294.451 435.542 305.112C427.927 312.59 420.221 322.089 416.7 332.932L410.596 346.902L408.618 328.615Z" fill="#27DEBF"/>
<path d="M408.618 328.615C408.439 321.994 410.281 310.886 416.806 299.804C423.795 287.944 433.012 279.995 440.76 282.413C447.977 284.661 446.389 294.451 435.542 305.112C427.927 312.59 420.221 322.089 416.7 332.932L410.596 346.902L408.618 328.615Z" fill="#27DEBF"/>
<path d="M408.618 328.615C408.439 321.994 410.281 310.886 416.806 299.804C423.795 287.944 433.012 279.995 440.76 282.413C447.977 284.661 446.389 294.451 435.542 305.112C427.927 312.59 420.221 322.089 416.7 332.932L410.596 346.902L408.618 328.615Z" fill="black" fill-opacity="0.101961"/>
<path d="M409.825 333.547C410.015 333.524 410.182 333.387 410.232 333.19C414.877 314.28 426.658 294.379 437.635 286.904C437.847 286.756 437.9 286.468 437.756 286.251C437.608 286.035 437.319 285.982 437.107 286.126C425.959 293.722 414.014 313.855 409.32 332.966C409.259 333.216 409.411 333.471 409.662 333.531C409.715 333.547 409.772 333.55 409.825 333.547Z" fill="white"/>
<path d="M408.553 350.057C408.553 350.057 413.187 354.692 421.443 356.507C429.697 358.322 433.612 354.56 433.612 354.56C433.612 354.56 430.798 346.549 426.195 344.078C426.195 344.078 434.121 346.189 440.305 350.869C440.305 350.869 445.39 351.249 447.878 343.607C447.878 343.607 445.143 338.755 435.177 335.627C435.177 335.627 441.425 334.446 450.157 337.237C450.806 337.54 454.24 327.67 455.375 323.091C456.511 318.513 454.646 318.448 451.091 317.271C447.536 316.091 435.272 314.754 432.895 316.603C430.513 318.456 428.96 325.176 428.96 325.176C428.96 325.176 427.027 321.205 427.748 317.807C427.748 317.807 424.197 316.36 420.053 317.533C415.91 318.703 416.05 320.696 415.876 323.649C415.686 326.804 415.876 328.919 416.567 332.51C416.567 332.51 413.908 329.917 414.345 320.981C414.345 320.981 408.579 325.343 406.137 329.245C403.695 333.14 403.623 343.725 408.553 350.057Z" fill="#27DEBF"/>
<path d="M408.523 350.524C408.697 350.535 408.872 350.448 408.963 350.285C416.521 336.72 442.492 321.979 451.551 320.772C451.809 320.738 451.991 320.502 451.957 320.244C451.923 319.986 451.684 319.811 451.429 319.842C442.219 321.068 415.822 336.045 408.143 349.825C408.017 350.053 408.097 350.338 408.325 350.463C408.39 350.501 408.458 350.52 408.523 350.524Z" fill="white"/>
<path d="M92.7944 377.926L89.566 376.062C86.9454 374.551 84.8185 370.869 84.8185 367.839V84.9821C84.8185 81.9564 86.9454 78.2739 89.566 76.7591L220.082 1.43882C222.703 -0.0721372 226.957 -0.0721372 229.577 1.43882L232.81 3.30665C235.434 4.81761 237.561 8.5001 237.561 11.5258V294.387C237.561 297.413 235.434 301.095 232.813 302.606L102.297 377.926C99.6727 379.441 95.4188 379.441 92.7944 377.926Z" fill="#37474F"/>
<path d="M103.907 90.521L86.2086 80.3049C85.3502 81.7931 84.8185 83.4673 84.8185 84.9821V367.843C84.8185 370.869 86.9454 374.551 89.566 376.066L92.7944 377.926C95.4188 379.441 99.6689 379.441 102.293 377.926L103.907 376.996V90.521Z" fill="#263238"/>
<path d="M97.5457 92.3281V375.189C97.5457 378.215 99.6689 379.441 102.293 377.93L232.81 302.61C235.43 301.095 237.557 297.413 237.557 294.387V11.5296C237.557 8.5001 235.434 7.27387 232.81 8.78863L102.293 84.1051C99.6727 85.6199 97.5457 89.3023 97.5457 92.3281Z" fill="#455A64"/>
<path d="M107.979 110.209L226.657 41.7261C228.905 40.4277 230.728 41.4793 230.728 44.076V269.737C230.728 272.33 228.905 275.485 226.657 276.783L107.979 345.266C105.731 346.564 103.907 345.513 103.907 342.916V117.255C103.907 114.658 105.731 111.504 107.979 110.209Z" fill="#FAFAFA"/>
<path d="M167.977 127.995C181.281 120.315 192.068 126.541 192.068 141.897C192.068 157.254 181.281 175.928 167.977 183.605C154.672 191.281 143.882 185.059 143.882 169.702C143.882 154.346 154.672 135.671 167.977 127.995Z" fill="#6FA6E7" fill-opacity="0.4"/>
<path d="M215.452 210.122C215.452 184.891 197.731 173.692 175.877 186.308L162.208 194.193C140.354 206.808 122.632 237.483 122.632 262.714V269.502L215.452 215.973V210.122Z" fill="#D3E8FB" fill-opacity="0.4"/>
<path d="M167.551 53.791C169.306 52.7773 170.734 53.6012 170.734 55.6285C170.734 57.6558 169.306 60.1235 167.551 61.1371C165.793 62.1508 164.369 61.3307 164.369 59.3034C164.369 57.2723 165.793 54.8046 167.551 53.791Z" fill="#263238"/>
<path d="M158.36 69.6788C164.828 66.1064 176.363 59.2464 182.736 55.4955C183.818 54.8615 184.696 55.2981 184.696 56.475C184.696 57.6557 183.815 59.1173 182.728 59.7437L158.311 73.8397C157.225 74.4661 156.343 74.0219 156.343 72.8412C156.343 71.6681 157.263 70.2862 158.36 69.6788Z" fill="#263238"/>
<path d="M152.192 73.2436C153.18 72.6742 153.981 73.1373 153.981 74.2763C153.981 75.4114 153.18 76.7971 152.192 77.3666C151.205 77.936 150.407 77.4767 150.407 76.3339C150.407 75.1988 151.208 73.8131 152.192 73.2436Z" fill="#263238"/>
<path d="M167.552 318.232C171.065 316.205 173.917 317.848 173.917 321.903C173.917 325.961 171.065 330.893 167.552 332.924C164.034 334.951 161.186 333.308 161.186 329.249C161.186 325.195 164.034 320.259 167.552 318.232Z" fill="#263238"/>
<path d="M275.777 238.998L261.466 230.737C261.466 230.737 261.451 230.737 261.435 230.737L261.287 230.649L261.272 230.68C254.155 226.663 244.397 227.255 233.588 233.497C223.478 239.32 214.252 249.043 207.298 260.292C199.261 273.245 194.206 288.244 194.206 301.687C194.206 314.223 198.597 323.027 205.699 327.15V327.165L205.745 327.18L220.276 335.475C227.45 340.046 237.584 339.644 248.822 333.156C270.577 320.601 288.215 290.07 288.215 264.957C288.215 251.886 283.43 242.874 275.777 238.998Z" fill="#6281E6"/>
<path d="M219.991 335.312L205.741 327.172L205.695 327.157V327.142C198.589 323.031 194.206 314.219 194.206 301.683C194.206 288.24 199.261 273.252 207.298 260.299L222.502 269.061C214.465 282.014 209.425 296.987 209.425 310.415C209.425 322.404 213.436 330.976 219.991 335.312Z" fill="black" fill-opacity="0.101961"/>
<path d="M275.481 238.834C268.466 235.433 259.103 236.295 248.822 242.221C238.7 248.075 229.471 257.805 222.502 269.065L207.302 260.299C214.256 249.039 223.485 239.324 233.588 233.504C244.394 227.263 254.158 226.671 261.276 230.68L261.287 230.649L261.435 230.74C261.451 230.74 261.466 230.74 261.466 230.74L275.481 238.834Z" fill="white" fill-opacity="0.4"/>
<path d="M269.335 254.832L263.881 251.685L242.506 302.029L246.152 304.132L269.335 254.832Z" fill="white"/>
<path d="M238.321 290.788L232.867 287.641L227.01 300.036L232.464 303.183L238.321 290.788Z" fill="white"/>
<path d="M247.557 318.892L232.464 303.183L238.32 290.788L246.152 304.132L269.335 254.832L277.927 263.211L247.557 318.892Z" fill="#F5F5F5"/>
<path d="M227.01 300.036L232.464 303.183L247.558 318.893L242.107 315.78L227.01 300.036Z" fill="#E0E0E0"/>
<path d="M387.007 115.387C399.878 115.387 410.315 104.955 410.315 92.0889V90.7146C410.315 79.8076 401.47 70.9658 390.558 70.9658H383.452C372.54 70.9658 363.694 79.8076 363.694 90.7146V92.0889C363.694 104.959 374.131 115.387 387.007 115.387Z" fill="#263238"/>
<path d="M363.014 345.786C360.31 348.747 357.325 351.12 354.123 353.519C353.641 353.876 353.147 354.256 352.885 354.799C352.467 355.668 351.814 357.828 355.794 359.214C359.68 360.569 364.526 360.25 368.062 358.037C371.328 355.995 371.476 351.743 374.557 349.317C376.843 347.521 379.692 347.058 381.537 344.715C382.825 343.079 382.491 340.904 381.818 338.212C381.089 335.274 380.751 333.049 379.779 333.273L379.938 334.625C378.723 336.565 372.43 337.134 369.627 335.798C369.627 335.798 364.78 343.854 363.014 345.786Z" fill="#263238"/>
<path d="M360.257 348.535C360.257 348.535 360.257 348.519 360.257 348.516C361.203 347.65 362.129 346.754 363.018 345.786C364.154 344.541 366.573 340.752 368.153 338.216C369.11 336.675 369.809 334.834 369.589 332.802C369.372 330.768 368.806 325.555 368.806 325.555L378.78 324.853L379.938 334.625C380.178 336.838 378.347 338.805 375.104 341.599C371.86 344.393 367.735 350.911 364.799 352.551C361.864 354.191 359.763 354.131 358.51 353.292C357.219 352.43 357.093 351.769 360.257 348.535Z" fill="#B16668"/>
<path d="M400.934 346.678V345.179C400.342 346.936 397.599 354.503 393.444 358.291C390.136 361.306 385.628 364.787 384.481 368.147C383.288 371.639 390.759 372.816 393.843 372.27C397.432 371.632 402.077 369.597 404.603 366.495C406.377 364.312 407.508 361.727 408.777 360.011C410.046 358.295 412.97 356.378 413.658 354.392C414.034 353.303 413.585 350.915 413.057 348.895C412.571 347.043 412.043 345.008 411.413 345.179C411.409 345.406 411.413 346.321 411.413 346.321C410.653 347.164 408.545 348.003 406.172 348.094C404.641 348.151 400.923 347.848 400.934 346.678Z" fill="#263238"/>
<path d="M390.451 360.945C391.477 360.03 392.51 359.134 393.444 358.284C396.35 355.634 398.564 351.139 399.836 348.075C400.562 346.325 400.934 344.457 400.934 342.563V336.595L411.417 336.591V346.31V346.314V346.572L411.363 346.598C410.858 348.774 406.05 354.563 403.315 358.341C401.485 360.869 398.006 364.092 393.847 364.647C389.904 365.174 387.892 363.929 390.451 360.945Z" fill="#B16668"/>
<path d="M409.328 183.889C417.452 201.622 409.035 264.103 409.035 264.103C409.278 266.981 412.571 272.645 413.798 285.313C415.249 300.279 411.523 337.863 411.523 337.863C411.523 337.863 406.673 341.033 400.934 338.284C400.934 338.284 390.945 281.68 389.069 266.798C387.428 253.811 384.283 223.284 384.283 223.284L376.118 267.076C376.118 267.076 378.772 274.205 379.308 279.748C380.155 288.502 379.521 328.991 379.521 328.991C379.521 328.991 375.935 331.717 369.072 330.707C369.072 330.707 357.184 275.276 356.265 264.741C355.718 258.45 362.893 181.293 362.893 181.293L409.328 183.889Z" fill="#27DEBF"/>
<path d="M409.328 183.889C417.452 201.622 409.035 264.103 409.035 264.103C409.278 266.981 412.571 272.645 413.798 285.313C415.249 300.279 411.523 337.863 411.523 337.863C411.523 337.863 406.673 341.033 400.934 338.284C400.934 338.284 390.945 281.68 389.069 266.798C387.428 253.811 384.283 223.284 384.283 223.284L376.118 267.076C376.118 267.076 378.772 274.205 379.308 279.748C380.155 288.502 379.521 328.991 379.521 328.991C379.521 328.991 375.935 331.717 369.072 330.707C369.072 330.707 357.184 275.276 356.265 264.741C355.718 258.45 362.893 181.293 362.893 181.293L409.328 183.889Z" fill="#13B886" fill-opacity="0.6"/>
<path d="M384.283 223.284L381.644 208.782C381.644 208.782 370.489 206.47 365.426 201.713C365.426 201.713 370.736 208.315 378.621 210.479L381.587 223.163L376.919 262.774L384.283 223.284Z" fill="#021F16" fill-opacity="0.301961"/>
<path d="M422.572 176.179C422.488 175.013 420.308 162.595 418.808 155.648L404.2 160.124L406.794 172.903L419.104 182.777C422.955 182.01 422.655 177.341 422.572 176.179Z" fill="#B16668"/>
<path d="M351.928 149.995L345.023 162.645L355.764 171.847L365.601 156.255L351.928 149.995Z" fill="#B16668"/>
<path d="M377.834 121.796C370.986 121.868 363.447 124.354 360.853 129.722C358.259 135.091 351.073 149.893 351.073 149.893C351.073 149.893 357.465 158.575 367.063 157.952L377.834 121.796Z" fill="#27DEBF"/>
<path d="M377.834 121.796C370.986 121.868 363.447 124.354 360.853 129.722C358.259 135.091 351.073 149.893 351.073 149.893C351.073 149.893 357.465 158.575 367.063 157.952L377.834 121.796Z" fill="#139474" fill-opacity="0.6"/>
<path d="M392.009 122.039L397.71 122.27C403.912 123.762 406.145 128.014 408.75 133.515C410.737 137.702 410.756 142.554 409.244 146.931L401.986 167.922C401.986 167.922 405.385 176.133 409.328 183.889C391.116 194.052 368.37 188.711 362.893 181.296C362.661 179.721 362.976 172.633 362.536 164.566C362.065 155.963 360.884 146.252 362.236 140.933C364.746 131.063 369.452 121.796 378.818 121.796L392.009 122.039Z" fill="#F5F5F5"/>
<path d="M397.706 122.27C403.923 123.147 413.05 124.4 416.195 139.168C419.385 154.137 420 157.698 420 157.698C420 157.698 414.565 163.119 404.25 163.07C404.254 163.07 395.157 133.678 397.706 122.27Z" fill="#27DEBF"/>
<path d="M397.706 122.27C403.923 123.147 413.05 124.4 416.195 139.168C419.385 154.137 420 157.698 420 157.698C420 157.698 414.565 163.119 404.25 163.07C404.254 163.07 395.157 133.678 397.706 122.27Z" fill="#139474" fill-opacity="0.6"/>
<path d="M403.976 162.159C402.833 158.237 401.618 153.757 400.474 148.94C400.474 148.94 400.524 159.429 402.313 166.965L403.976 162.159Z" fill="#EBEBEB"/>
<path d="M371.355 80.3884C368.89 81.8424 365.848 88.0343 366.148 101.01C366.402 112.009 369.969 114.727 371.757 115.509C373.55 116.291 377.003 115.816 380.36 115.258V121.856C380.36 121.856 375.723 127.243 376.015 130.273C376.307 133.299 382.715 134.012 387.056 131.055C391.401 128.101 394.185 123.599 394.185 123.599V107.646C394.185 107.646 396.449 110.672 400.159 108.208C403.866 105.748 404.007 99.6589 401.853 97.4722C399.696 95.2854 395.051 95.9764 394.185 98.9983C394.185 98.9983 388.83 99.1957 381.701 95.2778C374.568 91.36 371.826 84.6556 371.355 80.3884Z" fill="#B16668"/>
<path d="M378.431 98.2467C378.393 99.0401 378.978 99.7121 379.741 99.7462C380.504 99.7842 381.158 99.173 381.196 98.3795C381.237 97.5861 380.649 96.9141 379.885 96.8761C379.122 96.842 378.472 97.457 378.431 98.2467Z" fill="#263238"/>
<path d="M378.062 107.571L374.849 108.596C375.119 109.514 376.053 110.031 376.938 109.75C377.827 109.465 378.332 108.489 378.062 107.571Z" fill="#9A4A4D"/>
<path d="M367.086 94.0023L369.889 92.0623C369.376 91.2651 368.335 91.0487 367.564 91.584C366.79 92.1193 366.577 93.2013 367.086 94.0023Z" fill="#263238"/>
<path d="M367.735 97.2482C367.694 98.0417 368.282 98.7098 369.042 98.7478C369.805 98.7857 370.459 98.1707 370.497 97.3773C370.535 96.5876 369.95 95.9156 369.186 95.8777C368.427 95.8435 367.773 96.4547 367.735 97.2482Z" fill="#263238"/>
<path d="M374.26 96.4585L374.04 104.78L369.657 103.425L374.26 96.4585Z" fill="#9A4A4D"/>
<path d="M380.36 115.258C383.9 114.791 391.181 112.703 392.316 109.826C392.316 109.826 391.937 111.633 389.764 113.497C387.588 115.361 380.364 117.456 380.364 117.456V115.258H380.36Z" fill="#9A4A4D"/>
<path d="M322.451 149.217L362.619 159.79L374.477 209.621L336.287 198.536L322.451 149.217Z" fill="#A6EFE3"/>
<path d="M339.964 182.188C339.592 183.206 337.393 186.034 332.717 185.81L332.14 183.749L339.964 182.188Z" fill="black" fill-opacity="0.14902"/>
<path d="M348.943 183.749C349.117 185.074 351.852 187.538 356.47 189.075C361.723 190.825 369.787 189.899 369.787 189.899L369.061 187.42L348.943 183.749Z" fill="black" fill-opacity="0.14902"/>
<path d="M334.21 156.434C334.21 156.434 334.062 155.747 333.879 154.9C333.697 154.057 336.056 154.019 339.147 154.82L345.065 156.354C348.157 157.159 350.811 158.492 350.994 159.338L351.324 160.868L334.21 156.434Z" fill="black" fill-opacity="0.14902"/>
<path d="M331.426 150.656C331.312 150.128 332.265 149.988 333.56 150.344L335.904 150.994C335.904 150.994 335.205 147.683 340.405 148.841C345.608 149.999 346.744 153.757 346.744 153.757C346.744 153.757 347.864 154.076 349.247 154.467C350.629 154.862 351.879 155.606 352.046 156.13L352.338 157.083L331.646 151.639C331.646 151.639 331.544 151.183 331.426 150.656Z" fill="#37474F"/>
<path d="M334.274 152.311C336.174 152.767 336.96 153.021 337.245 154.323C337.567 155.811 337.7 156.905 337.7 156.905L346.858 159.323C346.858 159.323 346.417 157.44 346.273 156.703C346.132 155.971 346.444 155.527 347.902 155.914L348.027 155.329L333.674 151.677L334.274 152.311Z" fill="#37474F"/>
<path d="M333.963 156.578C333.963 156.578 333.815 155.891 333.633 155.048C333.447 154.202 335.805 154.164 338.897 154.965L344.814 156.502C347.906 157.299 350.561 158.636 350.743 159.482L351.074 161.016L333.963 156.578Z" fill="#37474F"/>
<path d="M419.104 182.777L406.794 172.903C406.794 172.903 379.6 177.747 376.406 177.997C373.208 178.248 369.661 175.993 368.442 172.857C367.223 169.721 365.077 170.112 365.077 170.112C365.077 170.112 366.022 174.087 366.326 175.355C366.626 176.623 358.969 177.667 354.723 176.228C350.473 174.793 344.324 176.877 348.134 182.659C351.943 188.441 359.349 189.109 364.496 189.113C365.92 189.117 368.446 189.007 370.929 188.684C372.597 188.468 374.253 188.301 375.928 188.183C386.456 187.427 414.315 184.276 419.104 182.777Z" fill="#B16668"/>
<path d="M326.538 163.784C326.538 163.784 327.977 168.913 328.319 170.139C328.665 171.365 333.333 173.586 336.288 174.399C339.239 175.211 342.467 176.171 341.073 180.298C339.782 184.102 334.924 184.972 332.452 184.862C329.975 184.755 326.591 182.394 325.254 178.582C323.553 173.723 324.472 168.533 323.796 165.693C323.12 162.857 325.057 162.094 326.538 163.784Z" fill="#B16668"/>
<path d="M407.391 140.933C400.095 140.933 394.181 135.018 394.181 127.729V109.199C401.477 109.199 407.391 115.11 407.391 122.399V140.933Z" fill="#263238"/>
</g>
<defs>
<clipPath id="clip0_9_103">
<rect width="523" height="470" fill="white"/>
</clipPath>
</defs>
</svg>
