<?xml version="1.0" encoding="utf-8"?>
<!-- Generator: Adobe Illustrator 27.5.0, SVG Export Plug-In . SVG Version: 6.00 Build 0)  -->
<svg version="1.1" xmlns="http://www.w3.org/2000/svg" xmlns:xlink="http://www.w3.org/1999/xlink" x="0px" y="0px"
	 viewBox="0 0 500 500" style="enable-background:new 0 0 500 500;" xml:space="preserve">
<g id="Background_Simple">
	<g>
		<g>
			<path style="fill:#92E3A9;" d="M245.024,46.679c-33.305,20.576-55.939,51.927-75.735,83.365s-37.998,64.256-65.515,90.726
				c-20.726,19.938-46.57,36.107-62.432,59.296c-21.969,32.117-20.834,74.429-1.616,107.906
				c19.218,33.477,54.734,58.294,94.285,71.695c39.551,13.4,82.919,16.094,125.09,12.78c45.89-3.606,92.17-14.655,129.212-38.965
				c51.372-33.716,79.703-90.178,85.38-146.658c5.677-56.479-9.145-113.179-30.795-166.528
				c-7.494-18.468-15.931-36.863-28.71-52.885C376.959,20.734,296.526,14.861,245.024,46.679z"/>
		</g>
		<g style="opacity:0.7;">
			<path style="fill:#FFFFFF;" d="M245.024,46.679c-33.305,20.576-55.939,51.927-75.735,83.365s-37.998,64.256-65.515,90.726
				c-20.726,19.938-46.57,36.107-62.432,59.296c-21.969,32.117-20.834,74.429-1.616,107.906
				c19.218,33.477,54.734,58.294,94.285,71.695c39.551,13.4,82.919,16.094,125.09,12.78c45.89-3.606,92.17-14.655,129.212-38.965
				c51.372-33.716,79.703-90.178,85.38-146.658c5.677-56.479-9.145-113.179-30.795-166.528
				c-7.494-18.468-15.931-36.863-28.71-52.885C376.959,20.734,296.526,14.861,245.024,46.679z"/>
		</g>
	</g>
</g>
<g id="Roam">
	<g>
		<g>
			<line style="fill:#263238;stroke:#263238;stroke-miterlimit:10;" x1="88.238" y1="437.447" x2="237.11" y2="437.447"/>
			<line style="fill:none;stroke:#263238;stroke-miterlimit:10;" x1="380.679" y1="437.45" x2="282.057" y2="437.45"/>
			<line style="fill:#263238;stroke:#263238;stroke-miterlimit:10;" x1="243.546" y1="437.447" x2="275.518" y2="437.447"/>
		</g>
		<g>
			
				<line style="fill:none;stroke:#263238;stroke-linecap:round;stroke-linejoin:round;stroke-miterlimit:10;" x1="357.7" y1="324.484" x2="379.159" y2="286.536"/>
			
				<line style="fill:none;stroke:#263238;stroke-linecap:round;stroke-linejoin:round;stroke-miterlimit:10;" x1="384.136" y1="308.965" x2="400.076" y2="280.777"/>
			
				<line style="fill:none;stroke:#263238;stroke-linecap:round;stroke-linejoin:round;stroke-miterlimit:10;" x1="378.617" y1="318.725" x2="381.737" y2="313.206"/>
			<g>
				
					<rect x="264.359" y="299.751" style="fill:none;stroke:#263238;stroke-linecap:round;stroke-linejoin:round;stroke-miterlimit:10;" width="63.48" height="55.06"/>
				
					<rect x="264.359" y="299.751" style="fill:none;stroke:#263238;stroke-linecap:round;stroke-linejoin:round;stroke-miterlimit:10;" width="20.9" height="55.06"/>
				<path style="fill:none;stroke:#263238;stroke-linecap:round;stroke-linejoin:round;stroke-miterlimit:10;" d="M272.076,344.067
					c0,1.51,1.224,2.733,2.733,2.733c1.51,0,2.733-1.224,2.733-2.733c0-1.51-1.224-2.733-2.733-2.733
					C273.3,341.334,272.076,342.558,272.076,344.067z"/>
				<path style="fill:none;stroke:#263238;stroke-miterlimit:10;" d="M273.443,333.385c0,0.755,0.612,1.367,1.367,1.367
					c0.755,0,1.367-0.612,1.367-1.367c0-0.755-0.612-1.367-1.367-1.367C274.055,332.018,273.443,332.63,273.443,333.385z"/>
			</g>
			<g>
				<defs>
					<path id="XMLID_15_" d="M319.197,354.808h-14.253v-1.267c0-2.486,2.087-4.463,4.569-4.329l5.583,0.302
						c2.3,0.124,4.101,2.026,4.101,4.329V354.808z"/>
				</defs>
				<clipPath id="XMLID_00000016068763305983027200000013359945898815435439_">
					<use xlink:href="#XMLID_15_"  style="overflow:visible;"/>
				</clipPath>
				
					<path style="opacity:0.8;clip-path:url(#XMLID_00000016068763305983027200000013359945898815435439_);fill:none;stroke:#263238;stroke-miterlimit:10;" d="
					M319.197,354.808h-14.253v-1.267c0-2.486,2.087-4.463,4.569-4.329l5.583,0.302c2.3,0.124,4.101,2.026,4.101,4.329V354.808z"/>
				
					<use xlink:href="#XMLID_15_"  style="overflow:visible;fill:none;stroke:#263238;stroke-linecap:round;stroke-linejoin:round;stroke-miterlimit:10;"/>
			</g>
			<g>
				<path style="fill:none;stroke:#263238;stroke-linecap:round;stroke-linejoin:round;stroke-miterlimit:10;" d="M361.219,335.337
					l1.84,16.13h10.33v1.01h11.06l-3.6-17.14H361.219z"/>
				<path style="fill:none;stroke:#263238;stroke-linecap:round;stroke-linejoin:round;stroke-miterlimit:10;" d="M409.451,335.338
					h2.27c0.89,0,1.69-0.72,1.78-1.61l5.69-53.47c0.09-0.89-0.55-1.61-1.44-1.61h-2.27c0.89,0,1.54,0.72,1.44,1.61l-5.69,53.47
					C411.141,334.618,410.341,335.338,409.451,335.338z"/>
				<path style="fill:none;stroke:#263238;stroke-linecap:round;stroke-linejoin:round;stroke-miterlimit:10;" d="M329.021,335.338
					h80.43c0.89,0,1.69-0.72,1.78-1.61l5.69-53.47c0.1-0.89-0.55-1.61-1.44-1.61h-80.43c-0.89,0-1.69,0.72-1.78,1.61l-5.69,53.47
					C327.482,334.618,328.132,335.338,329.021,335.338z"/>
				<path style="fill:none;stroke:#263238;stroke-linecap:round;stroke-linejoin:round;stroke-miterlimit:10;" d="M373.389,352.477
					v2.33h12.36c0.64,0,1.16-0.52,1.16-1.16c0-0.64-0.52-1.17-1.16-1.17H373.389z"/>
				<path style="fill:none;stroke:#263238;stroke-linecap:round;stroke-linejoin:round;stroke-miterlimit:10;" d="M330.846,328.697
					l4.963-46.649c0.083-0.776,0.779-1.405,1.554-1.405h75.848c0.776,0,1.338,0.629,1.255,1.405l-4.963,46.649
					c-0.083,0.776-0.778,1.405-1.555,1.405h-75.848C331.325,330.102,330.763,329.473,330.846,328.697z"/>
			</g>
			<g>
				
					<rect x="237.11" y="362.914" style="fill:none;stroke:#263238;stroke-linecap:round;stroke-linejoin:round;stroke-miterlimit:10;" width="6.199" height="109.499"/>
			</g>
			<g>
				
					<rect x="375.289" y="354.807" style="fill:none;stroke:#263238;stroke-linecap:round;stroke-linejoin:round;stroke-miterlimit:10;" width="53.73" height="8.11"/>
			</g>
			<g>
				
					<rect x="275.518" y="362.914" style="fill:none;stroke:#263238;stroke-linecap:round;stroke-linejoin:round;stroke-miterlimit:10;" width="6.199" height="109.499"/>
			</g>
			
				<rect x="419.239" y="362.914" style="fill:none;stroke:#263238;stroke-linecap:round;stroke-linejoin:round;stroke-miterlimit:10;" width="6.199" height="109.499"/>
			<g>
				
					<rect x="233.529" y="354.807" style="opacity:0.7;fill:none;stroke:#263238;stroke-miterlimit:10;" width="141.76" height="8.11"/>
				
					<rect x="233.529" y="354.807" style="fill:none;stroke:#263238;stroke-linecap:round;stroke-linejoin:round;stroke-miterlimit:10;" width="141.76" height="8.11"/>
			</g>
			
				<rect x="380.831" y="362.914" style="fill:none;stroke:#263238;stroke-linecap:round;stroke-linejoin:round;stroke-miterlimit:10;" width="6.199" height="109.499"/>
			
				<rect x="328.539" y="351.467" style="fill:none;stroke:#263238;stroke-linecap:round;stroke-linejoin:round;stroke-miterlimit:10;" width="44.85" height="3.34"/>
		</g>
	</g>
</g>
<g id="Character">
	<g>
		<g>
			<g>
				<path style="fill:#FFFFFF;stroke:#263238;stroke-linecap:round;stroke-linejoin:round;stroke-miterlimit:10;" d="
					M381.962,217.84c2.114-0.043,5.742,1.15,6.761-0.824c1.399-2.711,4.086-5.446,4.086-3.116c-0.149,3.751-1.797,6.625-4.273,9.296
					c-1.001,1.08-3.026,2.349-4.343,2.929c-2.584,1.138-9.933,0.779-11.18-2.636C371.197,218.517,379.317,217.893,381.962,217.84z"
					/>
				<path style="fill:#FFFFFF;stroke:#263238;stroke-linecap:round;stroke-linejoin:round;stroke-miterlimit:10;" d="
					M379.159,220.334c0.805,0.333,1.735,0.01,2.428-0.539c0.693-0.549,1.216-1.3,1.81-1.967c0.999-1.121,1.932-2.278,3.335-1.18
					c0.53,0.415,0.466,1.224,0.173,1.851c-1.251,2.669-2.207,3.341-4.702,4.697"/>
			</g>
			<g>
				<path style="fill:#FFFFFF;stroke:#263238;stroke-linecap:round;stroke-linejoin:round;stroke-miterlimit:10;" d="
					M337.68,240.157c-0.311,2.821,0.707,5.636,2.735,7.515c3.984,3.691,17.723,13.256,20.725,13.627
					c1.171,0.145,2.347,0.049,3.5-0.211c4.121-0.931,18.14-34.015,18.14-34.015c-0.754-2.096-3.878-3.816-6.011-3.859
					c-2.134-0.042-3.263,0.658-4.535,2.457c-0.099,0.14-11.28,15.509-11.28,15.509c-1.743-0.017-9.022-9.675-9.615-11.396
					c-1.763-5.113-4.746-9.814-7.395-11.459C343.943,218.325,340.027,218.895,337.68,240.157z"/>
				<path style="fill:none;stroke:#263238;stroke-linecap:round;stroke-linejoin:round;" d="M361.883,242.392
					c0,0,3.969,2.812,5.35,4.776"/>
				<path style="fill:none;stroke:#263238;stroke-linecap:round;stroke-linejoin:round;" d="M361.93,244.18
					c1.019,1.23,1.56,2.885,1.475,4.513"/>
				<path style="fill:none;stroke:#263238;stroke-linecap:round;stroke-linejoin:round;" d="M350.943,228.728
					c1.081,2.711,1.491,5.713,1.177,8.633"/>
			</g>
			<g>
				<g>
					<g>
						<g>
							<g>
								<path style="fill:#FFFFFF;stroke:#263238;stroke-linecap:round;stroke-linejoin:round;stroke-miterlimit:10;" d="
									M356.001,472.069l-12.321,0.239l-0.449,0.017h-7.407c-2.725,0-2.384-2.111-2.694-4.98c-0.379-3.496,1.393-7.124,1.393-7.124
									h12.47c0.488,0.858,5.076,1.665,5.34,2.441C359.036,467.758,356.001,472.069,356.001,472.069z"/>
								<path style="fill:#FFFFFF;stroke:#263238;stroke-linecap:round;stroke-linejoin:round;stroke-miterlimit:10;" d="
									M280.332,472.069l11.973,0.231h0.024l1.394,0.025l10.74,0.001c5.053,0,5.28-2.763,5.171-6.185
									c-0.085-3.075-2.375-5.92-2.375-5.92l-14.003-1.518c-0.897,0.957-7.979,3.39-8.428,4.239
									C274.398,469.717,280.332,472.069,280.332,472.069z"/>
								<path style="fill:#263238;stroke:#263238;stroke-linecap:round;stroke-linejoin:round;stroke-miterlimit:10;" d="
									M298.586,472.3c0.178,0.016,0.356,0.025,0.534,0.025h0.356L298.586,472.3z"/>
								<g>
									<defs>
										<path id="XMLID_7_" d="M282.057,325.811c0,0,3.806,72.181,6.001,84.77c0.674,3.868,3.889,30.849,4.353,36.568
											c0,0-0.992,5.114-0.07,9.324l0.914,2.23c1.551,3.455,15.206,3.611,15.663,2.674c0.45-0.929,2.235-1.158,0.164-14.276
											c-0.229-1.453-0.596-16.898-1.175-37.583c-0.19-6.792-1.078-12.113-0.359-29.213c0.03-0.746,3.589-45.089,3.657-45.852
											l0.739,0.307c0.082,0.862,0.161,1.699,0.235,2.487c0.357,3.815,1.004,7.592,1.936,11.296l13.087,52.006l-0.028,9.446
											c-0.204,11.509,0.754,25.178,3.713,36.254l-0.289,2.884c-0.546,5.448-1.724,11.704,3.989,12.747l11.664,0.601
											c1.943,0,4.142-0.208,4.013-2.262l-1.078-8.405c-2.387-9.692-1.56-40.68-1.971-50.688l-4.874-74.612l-2.839-22.108
											l-55.515-1.207L282.057,325.811z"/>
									</defs>
									<use xlink:href="#XMLID_7_"  style="overflow:visible;fill:#92E3A9;"/>
									<clipPath id="XMLID_00000181052494732153595150000011217237089043854753_">
										<use xlink:href="#XMLID_7_"  style="overflow:visible;"/>
									</clipPath>
									<g style="clip-path:url(#XMLID_00000181052494732153595150000011217237089043854753_);">
										<path style="opacity:0.2;" d="M311.845,314.76c11.274-0.278,17.531-0.863,27.975-4.539
											c0.153-0.054,0.268-0.193,0.403-0.292c0,0-30.865-0.261-58.166-2.105c0,0,8.672,4.409,18.326,6.026L311.845,314.76z"/>
									</g>
									<g style="clip-path:url(#XMLID_00000181052494732153595150000011217237089043854753_);">
										<g>
											<path style="opacity:0.2;" d="M331.641,334.795c-2.459,4.59-9.32,4.589-11.85,9.135
												c-2.41,4.329-3.645,12.028-1.882,19.686l-2.23-8.862c-2.558-4.649-1.962-7.817-2.941-13.011
												c-0.149-0.792-0.547-5.949-0.793-6.982c0,0,6.544,1.806,7.1,1.828C324.471,336.809,326.663,336.119,331.641,334.795z"/>
										</g>
										<path style="opacity:0.2;" d="M306.585,378.773c-0.194,2.508-0.549,5.107-1.871,7.193
											c-1.322,2.086-3.869,3.489-6.095,2.646c-1.075-0.407-1.98-1.285-3.15-1.376c-0.701-0.055-1.42,0.27-1.707,0.954
											c-0.265,0.634,0.023,1.173,0.35,1.631c0.885,1.239,2.146,2.174,2.83,3.55c0.685,1.376,0.417,3.51-0.991,3.928
											c1.408-0.052,3.346,0.431,3.257,1.929c-0.101,1.705-2.947,2.295-2.664,3.977c2.878,3.828,4.757,8.5,5.373,13.36
											c1.331,10.494-3.29,20.579-1.699,30.751c0.258,1.646-0.603,3.344-2.109,3.803c-0.102,0.031-0.205,0.055-0.311,0.07
											c2.669,0.942,5.48,1.427,8.292,1.429c1.228,1.504-6.088,9.1-6.075,8.196c0.002-0.11,3.319,1.686,3.421,1.668
											c4.139-0.72,5.633,1.226,8.801-3.142c0.685-0.945,1.134-2.064,1.326-3.24c6.512-39.747-4.169-87.823-2.73-121.049
											c-0.054,0.309-8.703,3.596-15.018,0.54c-1.739-0.842,4.928,6.353,7.251,14.288
											C305.801,359.216,307.337,369.02,306.585,378.773z"/>
										<path style="opacity:0.2;" d="M329.355,390.024c0.64,0.984,1.368,1.988,2.413,2.431c1.855,0.786,9.156-8.921,11.043-9.614
											c-2.339,7.724-6.74,10.905-9.005,14.943c-0.327,0.582-0.657,1.237-0.538,1.903c0.418,2.336,7.928,0.238,8.597,2.507
											c-1.648,1.628-7.466,2.603-9.358,1.31c-1.728,16.806,2.11,35.216,11.217,49.063c-2.227,1.035-4.646-0.424-6.462-2.145
											c-0.057,3.866,2.693,9.8,5.51,12.06c-3.365,0.783-9.688-0.477-11.888-3.3c-2.926-3.755-0.659-9.36-0.936-14.231
											c-0.141-2.472-0.975-4.828-1.671-7.191c-2.626-8.922-3.334-18.479-2.054-27.729c0.437-3.156,1.103-6.319,0.887-9.501
											c-0.221-3.264-1.359-6.366-2.408-9.443c-0.846-2.48-7.647-20.487-5.026-20.449
											C319.675,370.637,327.659,387.415,329.355,390.024z"/>
									</g>
									
										<use xlink:href="#XMLID_7_"  style="overflow:visible;fill:none;stroke:#263238;stroke-linecap:round;stroke-linejoin:round;"/>
								</g>
								<g>
									<g>
										<g>
											<g>
												<g>
													<g>
														<g>
															<defs>
																<path id="XMLID_6_" d="M319.684,211.126l-5.131-13.579l1.732-11.966l-1.738-13.063l-10.643-4.276l-8.802-0.077
																	l-3.127,2.846l-0.851,3.965c0,0-0.988,6.454-1.817,12.209c-0.284,1.972,1.756,3.415,1.756,3.415
																	s-1.79,4.734-2.602,5.185c-2.156,1.198,1.567,2.704,2.469,5.508c0.907,2.82,3.116,8.822,6.396,8.599
																	c3.28-0.223,5.034-0.457,5.82,2.498c0.785,2.955,2.78,11.014,2.78,11.014L319.684,211.126z"/>
															</defs>
															<use xlink:href="#XMLID_6_"  style="overflow:visible;fill:#FFFFFF;"/>
															<clipPath id="XMLID_00000135657207694837749120000017084149908624560260_">
																<use xlink:href="#XMLID_6_"  style="overflow:visible;"/>
															</clipPath>
															
																<path style="clip-path:url(#XMLID_00000135657207694837749120000017084149908624560260_);fill:#263238;stroke:#263238;stroke-linecap:round;stroke-linejoin:round;stroke-miterlimit:10;" d="
																M306.326,180.607c0.179,2.994-0.962,5.418,0.837,10.839c0,0,1.334-3.516,3.04-3.551
																c1.429-0.03,2.328,0.937,2.296,2.437c-0.032,1.501-0.593,3.358-1.843,4.088c0,0,1.409,3.539,1.723,4.887
																c0.831,0,2.173-1.758,2.173-1.758l5.131-11.437C316.416,183.688,310.03,182.197,306.326,180.607z"/>
															
																<use xlink:href="#XMLID_6_"  style="overflow:visible;fill:none;stroke:#263238;stroke-linecap:round;stroke-linejoin:round;stroke-miterlimit:10;"/>
														</g>
														<path style="fill:#263238;" d="M293.699,189.64c0.095,0.716,0.504,1.247,0.913,1.187
															c0.409-0.06,0.663-0.688,0.568-1.404c-0.095-0.715-0.504-1.247-0.913-1.187
															C293.858,188.296,293.603,188.925,293.699,189.64z"/>
														<path style="fill:#263238;" d="M292.938,201.652c0.095,0.716,0.504,1.247,0.913,1.187
															c0.409-0.06,0.663-0.688,0.568-1.404c-0.095-0.715-0.504-1.247-0.913-1.187
															C293.097,200.308,292.843,200.936,292.938,201.652z"/>
														<path style="fill:none;stroke:#263238;stroke-linecap:round;stroke-linejoin:round;stroke-miterlimit:10;" d="
															M296.656,187.37c0,0-0.775-3.676-4.433-2.61"/>
													</g>
													<path style="fill:#263238;stroke:#263238;stroke-linecap:round;stroke-linejoin:round;stroke-miterlimit:10;" d="
														M298.27,209.754c0,0,6.967-3.714,8.774-6.183l-3.897,8.819C303.146,212.39,302.67,208.264,298.27,209.754z"/>
												</g>
												<path style="fill:#FFFFFF;stroke:#263238;stroke-linecap:round;stroke-linejoin:round;" d="M323.157,212.494
													c0,0-3.924-0.143-10.145,0.143c-4.762,0.302-9.506,0.863-14.213,1.681c0,0,1.618-5.405,6.094-5.825
													c4.476-0.42,14.886-0.42,14.886-0.42L323.157,212.494z"/>
												<g>
													<defs>
														<path id="XMLID_5_" d="M284.079,257.542l0.362,2.911c1.509,12.007,1.104,24.183-1.214,36.039l-1.899,11.914
															l30.109,1.355l32.245,0.313c0.101-4.637-0.228-9.282-1.13-13.821c-6.406-32.429,5.487-72.134,2.368-77.213
															c-2.327-3.787-21.722-6.652-21.722-6.652s-17.87-0.54-24.403,1.885l-0.801,0.531
															c-8.695,3.166-15.594,6.574-19.345,9.423l1.374,3.652C280.097,229.671,284.079,257.542,284.079,257.542z"/>
													</defs>
													<use xlink:href="#XMLID_5_"  style="overflow:visible;fill:#FFFFFF;"/>
													<clipPath id="XMLID_00000003785767332304618310000015633296766494131643_">
														<use xlink:href="#XMLID_5_"  style="overflow:visible;"/>
													</clipPath>
													<g style="clip-path:url(#XMLID_00000003785767332304618310000015633296766494131643_);">
														<g>
															<path style="fill:#92E3A9;" d="M346.434,267.698c0,0-2.861,10.199,0.102,17.305l-4.737,1.532
																c0,0-1.082-8.587-0.421-15.537L346.434,267.698z"/>
															<path style="opacity:0.6;fill:#FFFFFF;" d="M346.434,267.698c0,0-2.861,10.199,0.102,17.305l-4.737,1.532
																c0,0-1.082-8.587-0.421-15.537L346.434,267.698z"/>
														</g>
													</g>
													<g style="clip-path:url(#XMLID_00000003785767332304618310000015633296766494131643_);">
														<path style="fill:#92E3A9;" d="M325.258,271.029c-0.896,1.997-1.811,4.086-1.769,6.293
															c0.094,4.972,4.744,8.301,8.866,10.751c-9.138-3.244-18.951-4.374-28.541-3.285c2.457-0.279,6.808-5.328,8.67-6.997
															c2.941-2.637,5.747-5.441,8.4-8.395c4.97-5.534,9.582-11.624,13.254-18.193
															C331.236,257.838,328.22,264.422,325.258,271.029z"/>
													</g>
													<g style="opacity:0.5;clip-path:url(#XMLID_00000003785767332304618310000015633296766494131643_);">
														<path style="fill:#FFFFFF;" d="M325.258,271.029c-0.896,1.997-1.811,4.086-1.769,6.293
															c0.094,4.972,4.744,8.301,8.866,10.751c-9.138-3.244-18.951-4.374-28.541-3.285c2.457-0.279,6.808-5.328,8.67-6.997
															c2.941-2.637,5.747-5.441,8.4-8.395c4.97-5.534,9.582-11.624,13.254-18.193
															C331.236,257.838,328.22,264.422,325.258,271.029z"/>
													</g>
													<g style="clip-path:url(#XMLID_00000003785767332304618310000015633296766494131643_);">
														<path style="fill:#92E3A9;" d="M305.804,277.071c-4.427,0.94-9.707-1.688-12.952-4.987
															c2.13-1.436,4.9-0.507,7.414-0.187c2.852,0.363,5.802-0.182,8.384-1.495c1.094-0.557,9.888-8.104,9.826-6.723
															C318.157,270.831,307.391,276.734,305.804,277.071z"/>
														<g>
															<path style="opacity:0.5;fill:#FFFFFF;" d="M305.804,277.071c-4.427,0.94-9.707-1.688-12.952-4.987
																c2.13-1.436,4.9-0.507,7.414-0.187c2.852,0.363,5.802-0.182,8.384-1.495c1.094-0.557,9.888-8.104,9.826-6.723
																C318.157,270.831,307.391,276.734,305.804,277.071z"/>
														</g>
													</g>
													<g style="clip-path:url(#XMLID_00000003785767332304618310000015633296766494131643_);">
														<path style="fill:#92E3A9;" d="M297.21,292.482c1.923,0.115,5.107-1.891,7.131-2.323
															c2.555-0.546,5.163-0.811,7.77-0.806c4.492,0.009,13.107,1.916,18.81,4.096c-1.855,3.134-14.046,0.204-17.102,0.022
															C308.283,293.141,302.746,292.812,297.21,292.482z"/>
														<path style="opacity:0.5;fill:#FFFFFF;" d="M297.21,292.482c1.923,0.115,5.107-1.891,7.131-2.323
															c2.555-0.546,5.163-0.811,7.77-0.806c4.492,0.009,13.107,1.916,18.81,4.096c-1.855,3.134-14.046,0.204-17.102,0.022
															C308.283,293.141,302.746,292.812,297.21,292.482z"/>
														<path style="fill:#FFFFFF;" d="M313.819,293.471c-5.536-0.33-11.073-0.659-16.609-0.989"/>
														<path style="fill:#FFFFFF;" d="M330.921,293.449"/>
													</g>
													
														<use xlink:href="#XMLID_5_"  style="overflow:visible;fill:none;stroke:#263238;stroke-linecap:round;stroke-linejoin:round;stroke-miterlimit:10;"/>
												</g>
												<g>
													<g>
														<path style="fill:none;stroke:#263238;stroke-linecap:round;stroke-linejoin:round;" d="M336.365,246.781
															c-6.645,15.296-17.594,28.53-31.172,37.46"/>
														<path style="fill:none;stroke:#263238;stroke-linecap:round;stroke-linejoin:round;" d="M337.625,243.733
															c-0.247,0.65-0.255,0.646-0.518,1.29"/>
														<path style="fill:none;stroke:#263238;stroke-linecap:round;stroke-linejoin:round;" d="M339.486,238.459
															c-0.329,1.036-0.677,2.065-1.044,3.086"/>
														<path style="fill:none;stroke:#263238;stroke-linecap:round;stroke-linejoin:round;" d="M313.958,271.842
															c-2.277,2.457-5.01,4.409-8.154,5.229c-4.557,1.189-10.004-0.583-12.19-4.946"/>
														<path style="fill:none;stroke:#263238;stroke-linecap:round;stroke-linejoin:round;" d="M316.751,268.276
															c-0.451,0.676-0.93,1.339-1.436,1.98"/>
														<path style="fill:none;stroke:#263238;stroke-linecap:round;stroke-linejoin:round;" d="M330.921,293.449
															c-11.206-4.62-24.005-4.835-35.346-0.593"/>
														<path style="fill:none;stroke:#263238;stroke-linecap:round;stroke-linejoin:round;" d="M320.264,286.138
															c-4.021-1.298-8.413-1.296-12.433,0.005"/>
													</g>
												</g>
												<path style="fill:none;stroke:#263238;stroke-linecap:round;stroke-linejoin:round;" d="M312.499,190.332
													c-0.228,1.203-0.889,2.87-1.286,3.422c-1.102,1.531-2.17,1.764-3.305,1.472"/>
											</g>
										</g>
										<g>
											<path style="fill:#263238;stroke:#263238;stroke-linecap:round;stroke-linejoin:round;stroke-miterlimit:10;" d="
												M319.682,186.107c-3.118,2.372-13.549-0.611-13.549-0.611c-1.015-0.252-1.141-1.429-1.078-2.821
												c-0.449-0.081-0.889-0.162-1.339-0.251c-1.887-0.359-3.926-0.8-5.157-2.264c-1.231-1.447-1.33-3.486-1.366-5.418
												c-4.178-0.44-5.795,1.635-6.19,0.773c-0.566-1.231-2.35-7.349,3.585-8.383c6.868-1.196,18.176,1.006,21.267,4.223
												C319.071,174.697,326.672,180.815,319.682,186.107z"/>
										</g>
									</g>
									<g>
										<g>
											<path style="fill:#FFFFFF;stroke:#263238;stroke-linecap:round;stroke-linejoin:round;stroke-miterlimit:10;" d="
												M239.81,224.218c-2.114-0.043-5.742,1.15-6.761-0.824c-1.399-2.711-4.085-5.446-4.085-3.116
												c0.149,3.75,1.797,6.625,4.273,9.296c1.001,1.08,3.026,2.349,4.343,2.929c2.584,1.138,9.933,0.779,11.18-2.636
												C250.576,224.895,242.455,224.271,239.81,224.218z"/>
											<path style="fill:#FFFFFF;stroke:#263238;stroke-linecap:round;stroke-linejoin:round;stroke-miterlimit:10;" d="
												M242.613,226.712c-0.805,0.333-1.735,0.01-2.428-0.539c-0.693-0.549-1.216-1.3-1.81-1.967
												c-0.999-1.121-1.932-2.278-3.335-1.18c-0.53,0.415-0.466,1.224-0.173,1.851c1.251,2.669,2.207,3.341,4.702,4.697"/>
										</g>
										<path style="fill:#FFFFFF;stroke:#263238;stroke-linecap:round;stroke-linejoin:round;stroke-miterlimit:10;" d="
											M284.914,246.06c0.311,2.821-0.707,5.636-2.735,7.515c-3.984,3.691-17.723,13.256-20.725,13.627
											c-1.17,0.145-2.347,0.049-3.499-0.211c-4.121-0.931-18.14-34.015-18.14-34.015c0.754-2.096,3.878-3.816,6.011-3.859
											c2.134-0.042,3.263,0.658,4.535,2.457c0.099,0.14,11.28,15.509,11.28,15.509c1.743-0.017,9.022-9.675,9.615-11.396
											c1.763-5.113,4.747-9.814,7.395-11.459C278.651,224.228,282.567,224.798,284.914,246.06z"/>
										<path style="fill:none;stroke:#263238;stroke-linecap:round;stroke-linejoin:round;" d="M260.711,248.295
											c0,0-3.969,2.812-5.35,4.776"/>
										<path style="fill:none;stroke:#263238;stroke-linecap:round;stroke-linejoin:round;" d="M260.664,250.083
											c-1.019,1.23-1.56,2.885-1.475,4.513"/>
										<path style="fill:none;stroke:#263238;stroke-linecap:round;stroke-linejoin:round;" d="M271.651,234.631
											c-1.081,2.711-1.491,5.713-1.177,8.633"/>
									</g>
								</g>
								<g>
									<g>
										<path style="fill:none;stroke:#263238;stroke-linecap:round;stroke-linejoin:round;" d="M293.839,393.421
											c2.679,1.683,5.751,2.656,8.861,2.807c-2.775-0.183-5.847,0.266-8.307,1.641"/>
										<path style="fill:none;stroke:#263238;stroke-linecap:round;stroke-linejoin:round;" d="M303.437,401.179
											c-3.128,0.56-6.227,1.306-9.276,2.233"/>
									</g>
									<path style="fill:none;stroke:#263238;stroke-linecap:round;stroke-linejoin:round;" d="M288.653,331.107
										c6.271,5.814,14.99,7.628,22.553,3.347c7.438,3.378,18.247,2.989,24.744-2.124"/>
									<path style="fill:none;stroke:#263238;stroke-linecap:round;stroke-linejoin:round;" d="M285.671,327.788
										c0.479,0.639,0.982,1.25,1.508,1.829"/>
									<path style="fill:none;stroke:#263238;stroke-linecap:round;stroke-linejoin:round;" d="M345.944,452.118
										c-4.268,1.407-9.289-0.309-11.977-4.096"/>
									<path style="fill:#92E3A9;stroke:#263238;stroke-linecap:round;stroke-linejoin:round;" d="M306.336,452.235
										c-3.269,1.097-7.051,0.265-9.638-2.12"/>
									<g>
										<path style="fill:none;stroke:#263238;stroke-linecap:round;stroke-linejoin:round;" d="M329.92,401.297
											c0.106,0,0.211,0,0.317,0c2.66,3.307,8.322,3.468,11.628,0.897c-2.291-0.523-4.581-1.046-6.872-1.569"/>
										<path style="fill:none;stroke:#263238;stroke-linecap:round;stroke-linejoin:round;" d="M340.473,388.103
											c-2.287,4.408-5.716,8.157-9.849,10.636"/>
										<path style="fill:none;stroke:#263238;stroke-linecap:round;stroke-linejoin:round;" d="M342.811,381.863
											c-0.253,1.046-0.568,2.075-0.94,3.079"/>
									</g>
								</g>
							</g>
						</g>
					</g>
				</g>
				
					<line style="fill:none;stroke:#263238;stroke-linecap:round;stroke-linejoin:round;" x1="311.845" y1="318.091" x2="311.438" y2="330.877"/>
				
					<line style="fill:none;stroke:#263238;stroke-linecap:round;stroke-linejoin:round;" x1="312.001" y1="313.206" x2="311.912" y2="315.983"/>
			</g>
			<path style="fill:none;stroke:#263238;stroke-linecap:round;stroke-linejoin:round;stroke-miterlimit:10;" d="M297.27,186.666
				c0.367,0.334,0.411,0.912,0.427,1.426c0.039,1.195,0.077,2.39,0.116,3.586c0.04,1.232,0.002,2.656-0.902,3.425
				c-0.909,0.774-2.34,0.446-3.161-0.432c-1.213-1.297-2.108-4.967-1.399-6.733C292.984,186.365,295.95,185.463,297.27,186.666z"/>
			<path style="fill:none;stroke:#263238;stroke-linecap:round;stroke-linejoin:round;stroke-miterlimit:10;" d="M309.296,188.231
				c-0.407,0.354-11.599-0.139-11.599-0.139"/>
			<path style="fill:none;stroke:#263238;stroke-linecap:round;stroke-linejoin:round;stroke-miterlimit:10;" d="M292.291,190.646
				c0.117-0.765-0.655-1.517-1.36-1.325c-0.705,0.193-1.042,1.248-0.593,1.859"/>
		</g>
		<path style="fill:#263238;" d="M317.305,194.826c1.334-3.248,2.518-6.558,3.548-9.916c-2.082,0.43-4.193,0.721-6.314,0.872
			c-0.387,3.442-1.618,7.736-1.247,11.168C313.755,201.223,316.554,196.655,317.305,194.826z"/>
	</g>
</g>
<g id="Floor">
	
		<line style="fill:none;stroke:#263238;stroke-linecap:round;stroke-linejoin:round;stroke-miterlimit:10;" x1="34.474" y1="472.733" x2="465.526" y2="472.733"/>
</g>
<g id="Button_2">
	<g>
		<defs>
			<path id="XMLID_2_" d="M435.459,189.22v21.936c0,3.434-2.782,6.216-6.216,6.216h-84.228c-3.434,0-6.216-2.782-6.216-6.216V189.22
				c0-3.434,2.782-6.216,6.216-6.216h84.228C432.676,183.004,435.459,185.786,435.459,189.22z"/>
		</defs>
		<use xlink:href="#XMLID_2_"  style="overflow:visible;fill:#FFFFFF;"/>
		<clipPath id="XMLID_00000140009275078238510020000013288605597194074269_">
			<use xlink:href="#XMLID_2_"  style="overflow:visible;"/>
		</clipPath>
		<g style="clip-path:url(#XMLID_00000140009275078238510020000013288605597194074269_);">
			<defs>
				<path id="XMLID_8_" d="M435.459,191.185v19.971c0,3.434-2.782,6.216-6.216,6.216h-84.228c-3.434,0-6.216-2.782-6.216-6.216
					v-19.971c0-3.434,2.782-6.216,6.216-6.216h84.228C432.676,184.969,435.459,187.751,435.459,191.185z"/>
			</defs>
			<use xlink:href="#XMLID_8_"  style="overflow:visible;fill:#BFBFBF;"/>
			<clipPath id="XMLID_00000062169527470229955530000004842040947905521306_">
				<use xlink:href="#XMLID_8_"  style="overflow:visible;"/>
			</clipPath>
			<path style="clip-path:url(#XMLID_00000062169527470229955530000004842040947905521306_);fill:#999999;" d="M435.459,209.187
				v1.965c0,3.43-2.779,6.221-6.22,6.221h-84.231c-3.431,0-6.21-2.79-6.21-6.221v-1.965c0,3.43,2.779,6.221,6.21,6.221h84.231
				C432.68,215.408,435.459,212.617,435.459,209.187z"/>
		</g>
		<use xlink:href="#XMLID_2_"  style="overflow:visible;fill:none;stroke:#263238;stroke-linecap:round;stroke-linejoin:round;"/>
	</g>
</g>
<g id="Button_1">
	<g>
		<g>
			
				<ellipse transform="matrix(0.2282 -0.9736 0.9736 0.2282 -18.0357 393.2095)" style="fill:#92E3A9;stroke:#263238;stroke-linecap:round;stroke-linejoin:round;" cx="238.993" cy="207.981" rx="16.021" ry="16.021"/>
			<path style="opacity:0.5;fill:#FFFFFF;" d="M251.03,201.281c0,3.421-5.345,0.403-11.938,0.403
				c-6.593,0-11.938,3.018-11.938-0.403c0-3.421,5.345-7.405,11.938-7.405C245.686,193.876,251.03,197.86,251.03,201.281z"/>
		</g>
		<path style="opacity:0.1;" d="M252.528,214.398c0,4.729-7.258,9.517-13.177,9.517c-5.472,0-13.177-4.788-13.177-9.517
			c0-4.729,5.9-8.563,13.177-8.563C246.628,205.835,252.528,209.668,252.528,214.398z"/>
	</g>
</g>
<g id="Lamp">
	<g>
		<circle style="fill:#FFFFFF;" cx="314.165" cy="92.406" r="7.539"/>
		<g>
			<g>
				<g>
					
						<rect x="311.005" y="49.693" style="fill:#263238;stroke:#263238;stroke-linecap:round;stroke-linejoin:round;stroke-miterlimit:10;" width="6.018" height="25.901"/>
					<polygon style="fill:#263238;stroke:#263238;stroke-linecap:round;stroke-linejoin:round;stroke-miterlimit:10;" points="
						340.78,94.366 287.314,94.366 310.992,69.059 317.102,69.059 					"/>
				</g>
				
					<line style="fill:none;stroke:#263238;stroke-linecap:round;stroke-linejoin:round;stroke-miterlimit:10;" x1="314.014" y1="27.329" x2="314.014" y2="49.693"/>
			</g>
			
				<line style="fill:none;stroke:#FFFFFF;stroke-linecap:round;stroke-linejoin:round;stroke-miterlimit:10;" x1="310.992" y1="69.059" x2="317.102" y2="69.059"/>
		</g>
	</g>
</g>
<g id="Buttons">
	<g>
		<g>
			<g>
				<path style="fill:none;stroke:#263238;stroke-linecap:round;stroke-linejoin:round;" d="M137.323,345.131l-2.951,0.049
					c-0.374-0.803-0.817-1.566-1.321-2.283l1.518-2.531c-0.781-0.964-1.66-1.844-2.624-2.624l-2.531,1.518
					c-0.717-0.504-1.48-0.948-2.283-1.321l0.049-2.951c-1.142-0.44-2.34-0.766-3.583-0.961l-1.435,2.584
					c-0.435-0.038-0.874-0.061-1.318-0.061c-0.444,0-0.883,0.023-1.318,0.061l-1.435-2.584c-1.243,0.195-2.44,0.521-3.583,0.961
					l0.049,2.951c-0.803,0.374-1.566,0.817-2.283,1.321l-2.531-1.518c-0.964,0.781-1.843,1.66-2.624,2.624l1.518,2.531
					c-0.504,0.717-0.948,1.48-1.321,2.283l-2.951-0.049c-0.439,1.142-0.766,2.34-0.961,3.583l2.584,1.435
					c-0.038,0.435-0.061,0.873-0.061,1.318c0,0.445,0.023,0.883,0.061,1.318l-2.584,1.435c0.195,1.242,0.522,2.44,0.961,3.583
					l2.951-0.049c0.374,0.803,0.817,1.566,1.321,2.283l-1.518,2.531c0.781,0.964,1.66,1.844,2.624,2.624l2.531-1.518
					c0.717,0.505,1.48,0.948,2.283,1.321l-0.049,2.951c1.142,0.44,2.34,0.767,3.583,0.961l1.435-2.584
					c0.435,0.038,0.873,0.061,1.318,0.061c0.445,0,0.883-0.023,1.318-0.061l1.435,2.584c1.242-0.195,2.441-0.522,3.583-0.961
					l-0.049-2.951c0.803-0.374,1.565-0.817,2.283-1.321l2.531,1.518c0.964-0.781,1.844-1.66,2.624-2.624l-1.518-2.531
					c0.504-0.717,0.948-1.48,1.321-2.283l2.951,0.049c0.439-1.142,0.767-2.34,0.961-3.583l-2.584-1.435
					c0.038-0.435,0.061-0.874,0.061-1.318c0-0.444-0.023-0.883-0.061-1.318l2.584-1.435
					C138.089,347.472,137.762,346.274,137.323,345.131z"/>
				<path style="opacity:0.3;fill:none;stroke:#263238;stroke-linecap:round;stroke-linejoin:round;" d="M137.323,345.131
					l-2.951,0.049c-0.374-0.803-0.817-1.566-1.321-2.283l1.518-2.531c-0.781-0.964-1.66-1.844-2.624-2.624l-2.531,1.518
					c-0.717-0.504-1.48-0.948-2.283-1.321l0.049-2.951c-1.142-0.44-2.34-0.766-3.583-0.961l-1.435,2.584
					c-0.435-0.038-0.874-0.061-1.318-0.061c-0.444,0-0.883,0.023-1.318,0.061l-1.435-2.584c-1.243,0.195-2.44,0.521-3.583,0.961
					l0.049,2.951c-0.803,0.374-1.566,0.817-2.283,1.321l-2.531-1.518c-0.964,0.781-1.843,1.66-2.624,2.624l1.518,2.531
					c-0.504,0.717-0.948,1.48-1.321,2.283l-2.951-0.049c-0.439,1.142-0.766,2.34-0.961,3.583l2.584,1.435
					c-0.038,0.435-0.061,0.873-0.061,1.318c0,0.445,0.023,0.883,0.061,1.318l-2.584,1.435c0.195,1.242,0.522,2.44,0.961,3.583
					l2.951-0.049c0.374,0.803,0.817,1.566,1.321,2.283l-1.518,2.531c0.781,0.964,1.66,1.844,2.624,2.624l2.531-1.518
					c0.717,0.505,1.48,0.948,2.283,1.321l-0.049,2.951c1.142,0.44,2.34,0.767,3.583,0.961l1.435-2.584
					c0.435,0.038,0.873,0.061,1.318,0.061c0.445,0,0.883-0.023,1.318-0.061l1.435,2.584c1.242-0.195,2.441-0.522,3.583-0.961
					l-0.049-2.951c0.803-0.374,1.565-0.817,2.283-1.321l2.531,1.518c0.964-0.781,1.844-1.66,2.624-2.624l-1.518-2.531
					c0.504-0.717,0.948-1.48,1.321-2.283l2.951,0.049c0.439-1.142,0.767-2.34,0.961-3.583l-2.584-1.435
					c0.038-0.435,0.061-0.874,0.061-1.318c0-0.444-0.023-0.883-0.061-1.318l2.584-1.435
					C138.089,347.472,137.762,346.274,137.323,345.131z"/>
			</g>
			
				<ellipse transform="matrix(0.9925 -0.1219 0.1219 0.9925 -41.9398 17.3505)" style="fill:none;stroke:#263238;stroke-linecap:round;stroke-linejoin:round;" cx="120.843" cy="351.467" rx="9.878" ry="9.878"/>
		</g>
		<g>
			<g>
				
					<line style="fill:none;stroke:#263238;stroke-linecap:round;stroke-linejoin:round;stroke-miterlimit:10;" x1="190.849" y1="41.515" x2="200.115" y2="41.515"/>
				
					<line style="fill:none;stroke:#263238;stroke-linecap:round;stroke-linejoin:round;stroke-miterlimit:10;" x1="143.233" y1="41.515" x2="183.583" y2="41.515"/>
				
					<rect x="34.032" y="35.151" style="fill:none;stroke:#263238;stroke-linecap:round;stroke-linejoin:round;stroke-miterlimit:10;" width="177.626" height="284.742"/>
			</g>
			<g>
				<g>
					<g>
						
							<ellipse transform="matrix(0.7071 -0.7071 0.7071 0.7071 -77.2821 184.52)" style="fill:#263238;stroke:#FFFFFF;stroke-linecap:round;stroke-linejoin:round;stroke-miterlimit:10;" cx="184.094" cy="185.548" rx="16.021" ry="16.021"/>
					</g>
				</g>
				<g>
					<g>
						
							<circle style="fill:#92E3A9;stroke:#263238;stroke-linecap:round;stroke-linejoin:round;" cx="184.092" cy="80.3" r="16.021"/>
					</g>
				</g>
				<g>
					<g>
						<g>
							
								<ellipse transform="matrix(0.2282 -0.9736 0.9736 0.2282 13.4243 281.2272)" style="fill:none;stroke:#263238;stroke-linecap:round;stroke-linejoin:round;" cx="184.092" cy="132.146" rx="16.021" ry="16.021"/>
						</g>
					</g>
					<g>
						<g>
							<circle style="fill:#92E3A9;" cx="184.092" cy="132.642" r="9.361"/>
						</g>
					</g>
				</g>
				<g>
					<g>
						<defs>
							<path id="XMLID_12_" d="M172.296,280.99v21.936c0,3.434-2.782,6.216-6.216,6.216H81.851c-3.434,0-6.216-2.782-6.216-6.216
								V280.99c0-3.434,2.782-6.216,6.216-6.216h84.228C169.514,274.774,172.296,277.556,172.296,280.99z"/>
						</defs>
						<clipPath id="XMLID_00000057846260332067095410000016696384340697881991_">
							<use xlink:href="#XMLID_12_"  style="overflow:visible;"/>
						</clipPath>
						
							<use xlink:href="#XMLID_12_"  style="overflow:visible;fill:none;stroke:#263238;stroke-linecap:round;stroke-linejoin:round;"/>
					</g>
					<g>
						<defs>
							<path id="XMLID_13_" d="M167.515,283.172v17.06c0,2.671-2.324,4.835-5.192,4.835H84.97c-2.868,0-5.192-2.164-5.192-4.835
								v-17.06c0-2.671,2.324-4.835,5.192-4.835h77.352C165.191,278.338,167.515,280.502,167.515,283.172z"/>
						</defs>
						<use xlink:href="#XMLID_13_"  style="overflow:visible;fill:#92E3A9;"/>
						<clipPath id="XMLID_00000072270337278983839940000008501419381149816989_">
							<use xlink:href="#XMLID_13_"  style="overflow:visible;"/>
						</clipPath>
					</g>
				</g>
				<g>
					<g>
						<defs>
							<path id="XMLID_3_" d="M150.217,184.565L150.217,184.565c0,9.491-7.694,17.184-17.184,17.184H70.74
								c-9.491,0-17.184-7.694-17.184-17.184v0c0-9.49,7.694-17.184,17.184-17.184h62.293
								C142.523,167.381,150.217,175.075,150.217,184.565z"/>
						</defs>
						<use xlink:href="#XMLID_3_"  style="overflow:visible;fill:#FFFFFF;"/>
						<clipPath id="XMLID_00000154425676633371783440000014674994983609565326_">
							<use xlink:href="#XMLID_3_"  style="overflow:visible;"/>
						</clipPath>
						<g style="clip-path:url(#XMLID_00000154425676633371783440000014674994983609565326_);">
							<defs>
								<path id="XMLID_10_" d="M144.001,169.346c3.434,0,6.216,2.782,6.216,6.216v19.971c0,3.434-2.782,6.216-6.216,6.216H59.772
									c-3.434,0-6.216-2.782-6.216-6.216v-19.971c0-3.434,2.782-6.216,6.216-6.216"/>
							</defs>
							<use xlink:href="#XMLID_10_"  style="overflow:visible;fill:#BFBFBF;"/>
							<clipPath id="XMLID_00000098207615516403738450000000284291293320271798_">
								<use xlink:href="#XMLID_10_"  style="overflow:visible;"/>
							</clipPath>
							<path style="clip-path:url(#XMLID_00000098207615516403738450000000284291293320271798_);fill:#999999;" d="M150.217,193.564
								v1.965c0,3.43-2.779,6.22-6.22,6.22H59.765c-3.431,0-6.21-2.79-6.21-6.22v-1.965c0,3.43,2.779,6.221,6.21,6.221h84.231
								C147.438,199.785,150.217,196.995,150.217,193.564z"/>
						</g>
						<path style="opacity:0.2;clip-path:url(#XMLID_00000154425676633371783440000014674994983609565326_);fill:#FFFFFF;" d="
							M134.979,189.564H68.881c-6.688,0-12.109-0.421-12.109-7.109l0,0c0-6.688,5.421-12.109,12.109-12.109h66.098
							c6.688,0,12.109,5.421,12.109,12.109l0,0C147.088,189.143,141.667,189.564,134.979,189.564z"/>
						
							<use xlink:href="#XMLID_3_"  style="overflow:visible;fill:none;stroke:#757575;stroke-linecap:round;stroke-linejoin:round;"/>
					</g>
				</g>
				<g>
					<path style="fill:#263238;stroke:#263238;stroke-linecap:round;stroke-linejoin:round;stroke-miterlimit:10;" d="
						M128.063,99.445H78.742c-11.418,0-20.673-9.256-20.673-20.673l0,0c0-11.418,9.256-20.673,20.673-20.673h49.321
						c11.417,0,20.673,9.256,20.673,20.673l0,0C148.736,90.189,139.481,99.445,128.063,99.445z"/>
					<path style="fill:#BFBFBF;" d="M126.547,97.929H77.226c-11.417,0-20.673-9.256-20.673-20.673v0
						c0-11.418,9.256-20.673,20.673-20.673h49.321c11.418,0,20.673,9.256,20.673,20.673v0
						C147.22,88.673,137.964,97.929,126.547,97.929z"/>
				</g>
				<g>
					<g>
						<path style="fill:#92E3A9;" d="M131.893,152.82H72.236c-11.417,0-20.673-9.256-20.673-20.673v0
							c0-11.417,9.256-20.673,20.673-20.673h59.658c11.418,0,20.673,9.256,20.673,20.673v0
							C152.567,143.564,143.311,152.82,131.893,152.82z"/>
						<path style="fill:#757575;" d="M131.893,152.82H72.236c-11.417,0-20.673-9.256-20.673-20.673v0
							c0-11.417,9.256-20.673,20.673-20.673h59.658c11.418,0,20.673,9.256,20.673,20.673v0
							C152.567,143.564,143.311,152.82,131.893,152.82z"/>
					</g>
					<path style="fill:#999999;stroke:#263238;stroke-linecap:round;stroke-linejoin:round;stroke-miterlimit:10;" d="
						M126.308,117.12H77.465c-9.348,0-16.925,6.95-16.925,15.522s7.578,15.522,16.925,15.522h48.842
						c9.348,0,16.925-6.95,16.925-15.522S135.655,117.12,126.308,117.12z"/>
					<g>
						<path style="fill:#FFFFFF;" d="M126.308,117.12c9.348,0,16.925,6.95,16.925,15.522s-7.578,15.522-16.925,15.522H77.465
							c-9.348,0-16.925-6.95-16.925-15.522s7.578-15.522,16.925-15.522H126.308 M126.308,116.12H77.465
							c-9.884,0-17.925,7.412-17.925,16.522s8.041,16.522,17.925,16.522h48.842c9.884,0,17.925-7.412,17.925-16.522
							S136.192,116.12,126.308,116.12L126.308,116.12z"/>
					</g>
					<path style="fill:none;stroke:#263238;stroke-linecap:round;stroke-linejoin:round;stroke-miterlimit:10;" d="M126.308,117.12
						H77.465c-9.348,0-16.925,6.95-16.925,15.522s7.578,15.522,16.925,15.522h48.842c9.348,0,16.925-6.95,16.925-15.522
						S135.655,117.12,126.308,117.12z"/>
				</g>
				<g>
					<g>
						<defs>
							<path id="XMLID_9_" d="M173.596,237.096v19.971c0,3.434-2.782,6.216-6.216,6.216H83.151c-3.434,0-6.216-2.782-6.216-6.216
								v-19.971c0-3.434,2.782-6.216,6.216-6.216h84.228C170.814,230.88,173.596,233.662,173.596,237.096z"/>
						</defs>
						<use xlink:href="#XMLID_9_"  style="overflow:visible;fill:#263238;"/>
						<clipPath id="XMLID_00000183229795740784262350000005647751998876418226_">
							<use xlink:href="#XMLID_9_"  style="overflow:visible;"/>
						</clipPath>
						<path style="clip-path:url(#XMLID_00000183229795740784262350000005647751998876418226_);fill:#263238;" d="M173.596,255.098
							v1.965c0,3.431-2.779,6.22-6.22,6.22H83.144c-3.431,0-6.21-2.79-6.21-6.22v-1.965c0,3.43,2.779,6.221,6.21,6.221h84.231
							C170.817,261.319,173.596,258.529,173.596,255.098z"/>
					</g>
					<g>
						<defs>
							<path id="XMLID_11_" d="M171.977,235.374v19.971c0,3.434-2.782,6.216-6.216,6.216H81.532c-3.434,0-6.216-2.782-6.216-6.216
								v-19.971c0-3.434,2.782-6.216,6.216-6.216h84.228C169.195,229.158,171.977,231.94,171.977,235.374z"/>
						</defs>
						<use xlink:href="#XMLID_11_"  style="overflow:visible;fill:#BFBFBF;"/>
						<clipPath id="XMLID_00000114784279537000042980000016174420609484661903_">
							<use xlink:href="#XMLID_11_"  style="overflow:visible;"/>
						</clipPath>
						<path style="clip-path:url(#XMLID_00000114784279537000042980000016174420609484661903_);fill:#BFBFBF;" d="M171.977,253.376
							v1.965c0,3.43-2.779,6.221-6.22,6.221H81.525c-3.43,0-6.209-2.79-6.209-6.221v-1.965c0,3.43,2.779,6.221,6.209,6.221h84.231
							C169.198,259.597,171.977,256.807,171.977,253.376z"/>
					</g>
				</g>
			</g>
		</g>
	</g>
</g>
<g id="Plant">
	<g>
		<path style="fill:#FFFFFF;stroke:#263238;stroke-miterlimit:10;" d="M186.748,473.193c-0.339,0.077-11.854,0.077-12.193,0
			c-8.451-1.857-38.462-11.716-11.413-43.65h34.627C224.806,461.464,195.199,471.337,186.748,473.193z"/>
		<path style="fill:#FFFFFF;stroke:#263238;stroke-miterlimit:10;" d="M197.764,429.754c0,0.52-0.78,1.01-2.15,1.43
			c-2.96-0.93-8.68-1.55-15.26-1.55c-6.57,0-12.29,0.62-15.25,1.55c-1.37-0.42-2.15-0.91-2.15-1.43c0-1.64,7.79-2.97,17.4-2.97
			C189.974,426.784,197.764,428.113,197.764,429.754z"/>
		<path style="fill:#263238;stroke:#263238;stroke-miterlimit:10;" d="M195.614,431.184c-2.96,0.92-8.68,1.54-15.26,1.54
			c-6.57,0-12.29-0.62-15.25-1.54c2.96-0.93,8.68-1.55,15.25-1.55C186.934,429.634,192.654,430.254,195.614,431.184z"/>
		<path style="fill:#FFFFFF;stroke:#263238;stroke-miterlimit:10;" d="M193.691,438.789c1.215-0.248,2.413-0.527,3.586-0.836"/>
		<path style="fill:#FFFFFF;stroke:#263238;stroke-miterlimit:10;" d="M163.826,437.447c8.261,2.953,17.953,3.289,26.926,1.873"/>
	</g>
	<g>
		<g>
			<g>
				<g>
					<path style="fill:#263238;" d="M204.683,379.534c-3.914,0.609-9.555-1.464-9.657-5.337c-0.017-0.637,0.113-1.233,0.254-1.824
						c2.896,0.465,5.781-1.33,8.577-0.219c1.522,0.633,4.575,2.184,4.988,3.813C209.379,378.169,206.82,379.2,204.683,379.534z"/>
					<path style="fill:#263238;" d="M192.044,375.09c-3.007-1.349-5.484-3.178-5.833-7.421c-0.15-1.791,0.615-3.752,2.302-3.85
						c1.128-0.072,2.355,0.708,3.097,1.707c0.675,0.907,1.166,2.104,1.441,3.348c0.279,1.301,0.33,2.653,0.136,3.741
						C193.02,373.577,192.51,374.324,192.044,375.09z"/>
				</g>
				<path style="fill:#263238;stroke:#263238;stroke-miterlimit:10;" d="M200.535,365.774c-3.654,4.797-8.014,9.108-12.164,13.716"
					/>
			</g>
			<g>
				<g>
					<path style="fill:#263238;" d="M193.068,392.622c-1.706,0.19-3.975-0.033-5.975-0.701c-1.927-0.683-3.75-1.795-4.056-3.722
						c-0.105-0.625-0.064-1.253,0.03-1.858c2.918,0.079,5.663-1.678,8.39-0.402c1.491,0.686,4.368,2.467,4.885,3.942
						C197.012,391.833,194.955,392.391,193.068,392.622z"/>
					<path style="fill:#263238;" d="M180.241,389.697c-1.651-0.303-3.202-0.635-4.494-1.508c-1.31-0.881-2.275-2.281-2.556-4.858
						c-0.252-2.121,0.615-4.616,2.55-5.134c1.272-0.332,2.547,0.369,3.305,1.375c0.692,0.916,1.183,2.154,1.506,3.439
						c0.342,1.354,0.487,2.738,0.436,3.89C180.918,387.886,180.57,388.822,180.241,389.697z"/>
				</g>
				<path style="fill:#263238;stroke:#263238;stroke-miterlimit:10;" d="M188.371,379.489c-2.068,2.312-4.092,4.7-5.914,7.269
					c-0.904,1.27-1.768,2.657-2.516,4.073c-0.343,0.723-0.73,1.43-1.034,2.168l-0.88,2.226"/>
			</g>
			<g>
				<g>
					<path style="fill:#263238;" d="M187.978,404.763c-1.405,0.908-3.532,1.782-5.62,2.129c-2.051,0.346-4.148,0.112-5.312-1.431
						c-0.382-0.506-0.618-1.077-0.835-1.661c1.297-0.644,2.409-1.662,3.486-2.522c1.133-0.848,2.315-1.507,3.79-1.485
						c1.619-0.006,4.976,0.548,6.085,1.519c0.764,0.659,0.76,1.252,0.348,1.809C189.526,403.69,188.775,404.273,187.978,404.763z"/>
					<path style="fill:#263238;" d="M175.217,408.021c-3.195,0.816-6.307,1.288-9.157-2.411c-1.179-1.566-1.617-4.288-0.088-5.717
						c0.988-0.939,2.442-0.896,3.572-0.327c1.029,0.516,2.037,1.427,2.9,2.434c0.889,1.056,1.728,2.223,2.183,3.26
						C175.02,406.178,175.125,407.106,175.217,408.021z"/>
				</g>
				<path style="fill:#263238;stroke:#263238;stroke-miterlimit:10;" d="M178.027,395.225c-1.058,3.006-1.728,6.111-2.156,9.23
					c-0.425,3.121-0.602,6.264-0.54,9.395"/>
			</g>
			<g>
				<g>
					<path style="fill:#263238;" d="M187.778,420.159c-1.096,1.373-2.922,2.833-4.823,3.718c-1.917,0.879-3.958,1.162-5.52-0.02
						c-0.521-0.385-0.875-0.874-1.236-1.376c2.19-1.936,2.92-5.138,5.795-6.067c1.555-0.526,4.872-1.182,6.258-0.502
						C190.067,416.79,188.98,418.631,187.778,420.159z"/>
					<path style="fill:#263238;" d="M176.311,426.79c-2.846,1.575-5.814,2.73-9.447,0.008c-1.557-1.145-2.615-3.49-1.592-5.142
						c0.703-1.101,2.112-1.475,3.352-1.275c1.132,0.179,2.324,0.733,3.46,1.427c1.186,0.728,2.224,1.625,2.967,2.488
						C175.709,425.058,175.983,425.935,176.311,426.79z"/>
				</g>
				<path style="fill:#263238;stroke:#263238;stroke-miterlimit:10;" d="M175.332,413.85c0.083,6.266,0.975,12.484,2.472,18.55"/>
			</g>
		</g>
		<g>
			<g>
				<g>
					<path style="fill:#263238;" d="M212.637,410.08c-3.861,1.493-9.858,0.549-10.541-3.395c-0.115-0.648-0.073-1.283-0.02-1.917
						c2.979-0.141,5.597-2.604,8.58-2.088c1.631,0.313,4.947,1.225,5.619,2.805C217.158,407.616,214.742,409.305,212.637,410.08z"/>
					<path style="fill:#263238;" d="M199.227,408.219c-3.224-0.766-5.982-2.135-6.986-6.364c-0.424-1.787,0.015-3.921,1.705-4.383
						c1.113-0.306,2.456,0.232,3.366,1.089c0.83,0.777,1.515,1.895,1.974,3.107c0.495,1.266,0.746,2.637,0.719,3.787
						C199.987,406.473,199.582,407.341,199.227,408.219z"/>
				</g>
				<path style="fill:#263238;stroke:#263238;stroke-miterlimit:10;" d="M206.276,396.881c-2.829,5.722-6.583,11.053-10.119,16.563"
					/>
			</g>
			<g>
				<g>
					<path style="fill:#263238;" d="M202.369,426.313c-1.775,0.564-4.101,0.721-6.203,0.329c-2.09-0.401-3.898-1.386-4.397-3.33
						c-0.16-0.634-0.178-1.289-0.145-1.928c2.972-0.337,5.542-2.673,8.469-1.876c1.593,0.427,4.742,1.697,5.427,3.154
						C206.424,424.593,204.286,425.687,202.369,426.313z"/>
					<path style="fill:#263238;" d="M189.053,425.16c-3.295-0.368-6.35-1.096-7.591-5.691c-0.247-0.953-0.236-2.087,0.067-3.092
						c0.311-0.981,0.916-1.814,1.827-2.2c1.215-0.49,2.581,0.032,3.464,0.925c0.803,0.809,1.45,1.986,1.925,3.25
						c0.491,1.314,0.785,2.711,0.842,3.9C189.618,423.291,189.309,424.221,189.053,425.16z"/>
				</g>
				<path style="fill:#263238;stroke:#263238;stroke-miterlimit:10;" d="M196.156,413.444c-3.545,5.501-8.969,13.225-11.302,19.506"
					/>
			</g>
		</g>
		<path style="fill:#263238;" d="M210.902,394.336c-0.359,2.355-1.901,4.988-3.463,5.976c-0.202,0.128-3.184,1.931-3.861,1.618
			c-0.449-0.208-2.15-2.643-2.287-4.925c-0.076-1.264-0.383-3.361,0.844-5.807c0.84-1.674,3.761-4.408,6.168-3.724
			C210.83,388.194,211.166,392.609,210.902,394.336z"/>
		<path style="fill:#263238;" d="M205.955,360.133c-0.335,2.358-1.848,5.008-3.4,6.012c-0.2,0.13-3.164,1.964-3.843,1.658
			c-0.451-0.203-2.178-2.621-2.339-4.9c-0.089-1.263-0.419-3.356,0.783-5.815c0.822-1.683,3.714-4.448,6.128-3.788
			C205.818,353.992,206.201,358.403,205.955,360.133z"/>
	</g>
</g>
</svg>
