<?xml version="1.0" encoding="utf-8"?>
<!-- Generator: Adobe Illustrator 25.0.0, SVG Export Plug-In . SVG Version: 6.00 Build 0)  -->
<svg version="1.1" id="Camada_1" xmlns="http://www.w3.org/2000/svg" xmlns:xlink="http://www.w3.org/1999/xlink" x="0px" y="0px"
	 viewBox="0 0 383 378" style="enable-background:new 0 0 383 378;" xml:space="preserve">
<style type="text/css">
	.st0{fill:#F5F5F5;}
	.st1{fill:#EBEBEB;}
	.st2{fill:#27DEBF;}
	.st3{opacity:0.2;enable-background:new    ;}
	.st4{fill:#FFFFFF;}
	.st5{fill:#E0E0E0;}
	.st6{fill:#F0F0F0;}
	.st7{fill:#455A64;}
	.st8{fill:#37474F;}
	.st9{fill:#263238;}
	.st10{fill:#FFFFFF;stroke:#27DEBF;stroke-miterlimit:10;}
	.st11{fill:#27DEBF;stroke:#27DEBF;stroke-miterlimit:10;}
	.st12{opacity:0.7;fill:#FFFFFF;enable-background:new    ;}
	.st13{opacity:0.1;enable-background:new    ;}
	.st14{opacity:0.2;fill:#FFFFFF;enable-background:new    ;}
	.st15{fill:#FFA8A7;}
	.st16{fill:#F28F8F;}
	.st17{opacity:0.3;enable-background:new    ;}
</style>
<g id="Floor">
	<path id="XMLID_413_" class="st0" d="M68.2,341.2c68.9,32.8,180.6,32.8,249.5,0s68.9-86.1,0-118.9s-180.6-32.8-249.5,0
		C-0.7,255.2-0.7,308.4,68.2,341.2z"/>
</g>
<g id="Shadow">
	<path id="XMLID_418_" class="st1" d="M301.3,313.8c9,4.3,23.5,4.3,32.5,0s9-11.2,0-15.5s-23.5-4.3-32.5,0
		C292.3,302.6,292.3,309.5,301.3,313.8z"/>
</g>
<g id="Plants">
	<g>
		<g id="XMLID_292_">
			<g id="XMLID_378_">
				<g>
					<path id="XMLID_372_" class="st2" d="M63,307.6l8.1-4.7c0,0,6.7-4.9,10-14.1c2.5-6.9,2.2-12.2,0.4-14.8
						c-2.2-3.2-7.9-2.7-8.2,4.2C72.8,291.7,68.9,301,63,307.6z"/>
					<path id="XMLID_1_" class="st3" d="M63,307.6l8.1-4.7c0,0,6.7-4.9,10-14.1c2.5-6.9,2.2-12.2,0.4-14.8c-2.2-3.2-7.9-2.7-8.2,4.2
						C72.8,291.7,68.9,301,63,307.6z"/>
				</g>
				<path class="st4" d="M63,308.1c-0.2,0-0.3-0.1-0.4-0.2c-0.2-0.2-0.1-0.5,0.1-0.7c18.8-13,15.2-31.1,15.1-31.3
					c-0.1-0.3,0.1-0.5,0.4-0.6s0.5,0.1,0.6,0.4c0,0.2,3.8,18.9-15.5,32.3C63.2,308.1,63.1,308.1,63,308.1z"/>
			</g>
			<g id="XMLID_379_">
				<path id="XMLID_364_" class="st2" d="M46.7,317c0,0-2.8-2.3-2.1-5.4s2.5-5.4-0.6-9.4s-3.9-9.4-0.3-12.3c2.9-2.2,7.3,0.9,8.9-5
					c1.2-4.3,0.8-13.9,6.3-17.1s9,1.6,8.1,8.1c-0.8,5.8-1.8,11.4-1,13c1.6,3,4.4,2.6,4.3,8.1c-0.1,5.1-4.9,9.3-4.9,9.3L46.7,317z"/>
				<path class="st4" d="M56,312.1c-0.2,0-0.5-0.2-0.5-0.4c-1.4-11.8,2-32.3,4.8-38.4c0.1-0.3,0.4-0.4,0.7-0.2
					c0.3,0.1,0.4,0.4,0.2,0.7c-2.8,6-6.1,26.5-4.7,37.8C56.5,311.8,56.3,312.1,56,312.1L56,312.1z"/>
				<path class="st4" d="M55.7,302.9c-0.1,0-0.1,0-0.2-0.1c-3.5-1.7-5.7-7.7-5.8-8s0-0.5,0.3-0.6s0.5,0,0.6,0.3
					c0,0.1,2.2,5.9,5.3,7.4c0.2,0.1,0.4,0.4,0.2,0.7C56.1,302.8,55.9,302.9,55.7,302.9z"/>
				<path class="st4" d="M55.7,306.9c-0.2,0-0.4-0.1-0.5-0.3c-0.1-0.3,0-0.5,0.3-0.6c5.8-2.3,9.5-9.3,9.5-9.4
					c0.1-0.2,0.4-0.3,0.7-0.2c0.2,0.1,0.3,0.4,0.2,0.7c-0.2,0.3-3.8,7.4-10,9.8C55.8,306.9,55.7,306.9,55.7,306.9z"/>
			</g>
		</g>
		<g>
			<g id="XMLID_366_">
				<path id="XMLID_374_" class="st2" d="M259.8,253.1c0,0-4.4-7.1-4.8-14.8c-0.4-7.7,1.3-10.9,3.6-11.8c2.3-0.9,2.5,1.9,3.7,3.6
					c1.2,1.7,3.6,0.7,4.5-4.5s4.2-14,11-15.7c7.5-1.9,3.5,6.9,1.6,10.4c-1.9,3.4-3.4,8.1-2.1,9.4c1.2,1.3,3.2-1.1,5,1.1
					c2.2,2.6-4.7,12.1-8.7,14.4L259.8,253.1z"/>
				<path class="st4" d="M265.8,250.1L265.8,250.1c-0.3,0-0.5-0.3-0.5-0.5c1.1-20.5,11.1-34.7,11.2-34.8c0.2-0.2,0.5-0.3,0.7-0.1
					s0.3,0.5,0.1,0.7c-0.1,0.1-9.9,14.1-11,34.3C266.3,249.9,266.1,250.1,265.8,250.1z"/>
				<path class="st4" d="M266.4,244.2c-0.1,0-0.2,0-0.2-0.1c-2.8-1.5-4.4-6.1-4.4-6.3c-0.1-0.3,0.1-0.5,0.3-0.6
					c0.3-0.1,0.5,0.1,0.6,0.3c0,0,1.5,4.4,4,5.8c0.2,0.1,0.3,0.4,0.2,0.7C266.7,244.1,266.5,244.2,266.4,244.2z"/>
				<path class="st4" d="M266.9,241.2c-0.2,0-0.4-0.1-0.5-0.4c-0.1-0.3,0.1-0.5,0.4-0.6c7.2-1.8,9.7-5.6,9.7-5.6
					c0.1-0.2,0.5-0.3,0.7-0.2s0.3,0.5,0.2,0.7c-0.1,0.2-2.7,4.1-10.3,6.1C266.9,241.2,266.9,241.2,266.9,241.2z"/>
			</g>
			<g>
				<g>
					<path id="XMLID_363_" class="st2" d="M151,237.5c0,0-9.6-2.3-10.1-20.3c-0.5-19.4,2.4-42-9-43.8c-11.3-1.8-17.7,12-17.5,28.1
						c0.1,14.1,5.8,44.8,36.6,50.9V237.5z"/>
					<path id="XMLID_3_" class="st3" d="M151,237.5c0,0-9.6-2.3-10.1-20.3c-0.5-19.4,2.4-42-9-43.8c-11.3-1.8-17.7,12-17.5,28.1
						c0.1,14.1,5.8,44.8,36.6,50.9V237.5z"/>
				</g>
				<path class="st4" d="M151,250.6L151,250.6c-7-1.3-12.6-5.1-16.8-11.3c-12.4-18.5-8.5-53.1-7.2-59.2c0.1-0.3,0.3-0.4,0.6-0.4
					c0.3,0.1,0.4,0.3,0.4,0.6c-1.3,6-5.2,40.2,7.1,58.4c4,6,9.4,9.7,16.1,10.9c0.3,0,0.5,0.3,0.4,0.6
					C151.5,250.4,151.3,250.6,151,250.6z"/>
				<g id="XMLID_380_">
					<path id="XMLID_361_" class="st2" d="M151,296.7c-9.9,1.3-26,1.3-35.3-6s-7.3-13.6-3.8-16.3c3.6-2.6,6.7-5.6,0.5-11.5
						c-6.1-5.8-16-15.2-19.2-29.3s-1.6-22.9,4.7-25.8c6.1-2.8,7.7,1.7,11.4,11c3.7,9.3,12.1,1.3,19.3,4.2s6.9,8.7,7.3,13.6
						c0.5,5,2.8,6.3,6.9,6.3c4.1,0,8.1,2.3,8.1,7L151,296.7z"/>
					<path class="st4" d="M151,280.3h-0.1c-0.4-0.1-10.7-3.1-25.6-16.8c-15.9-14.6-23.4-36.5-23.5-36.7c-0.1-0.3,0.1-0.5,0.3-0.6
						c0.3-0.1,0.5,0.1,0.6,0.3s7.5,21.9,23.2,36.3c14.7,13.5,25.1,16.6,25.2,16.6c0.3,0.1,0.4,0.4,0.3,0.6
						C151.4,280.2,151.2,280.3,151,280.3z"/>
					<path class="st4" d="M129.4,267c-0.2,0-0.4-0.1-0.5-0.3c-3.2-8.2-3.9-25.9-4-26.6c0-0.3,0.2-0.5,0.5-0.5s0.5,0.2,0.5,0.5
						c0,0.2,0.8,18.2,3.9,26.3C129.9,266.7,129.8,266.9,129.4,267C129.6,267,129.5,267,129.4,267z"/>
					<path class="st4" d="M129.4,278.9c-1.6,0-2.6-0.1-2.8-0.1c-0.3,0-0.5-0.3-0.4-0.6c0-0.3,0.3-0.5,0.6-0.4
						c0.1,0,9.4,1.1,13.7-3.3c0.2-0.2,0.5-0.2,0.7,0s0.2,0.5,0,0.7C138,278.3,132.6,278.9,129.4,278.9z"/>
				</g>
			</g>
		</g>
	</g>
</g>
<g id="Gear">
	<g id="XMLID_272_">
		<g id="XMLID_561_">
			<path id="XMLID_562_" class="st5" d="M122.1,89.5l-1.1-6.2l-5.6,3.7c-0.6-1.1-1.3-1.9-2.1-2.6l2.7-7.2l-5-1.1l-3.7,7
				c-1.2,0.2-2.5,0.6-3.8,1.2L102,79l-5.9,4.7l0.4,6.2c-1.2,1.3-2.3,2.8-3.3,4.3L88.3,94l-3.4,7.7l4.2,1.8c-0.4,1.7-0.7,3.3-0.8,4.9
				l-5.3,4.9l1.1,6.2l5.6-3.7c0.6,1.1,1.3,1.9,2.1,2.6l-2.7,7.2l5,1.1l5.2-5.1c1.2-0.2,0.9-2.5,2.2-3.1l1.6,5.3l5.9-4.7l-0.2-2.4
				c1.2-1.3,5.7-4.3,6.7-5.8l1.2-2l3.4-7.7l-1.6-2.9l-1.8-3.8L122.1,89.5z M104,110c-4.6,3.6-5.9,4.4-6.8-0.4s1.8-12.1,6.4-15.7
				s6.3-3.8,7.1,0.9S108.6,106.5,104,110z"/>
			<polygon id="XMLID_271_" class="st0" points="111.1,76 117.6,79.8 113.9,86.8 107.4,83 			"/>
			<polygon id="XMLID_144_" class="st0" points="127.6,87 122,90.7 115.5,86.9 121.1,83.3 			"/>
			<polygon id="XMLID_143_" class="st5" points="126.7,104.8 122.5,103 116,99.3 120.2,101.1 			"/>
			<polygon id="XMLID_621_" class="st5" points="89,125.6 95.5,129.4 98.1,122.2 91.7,118.4 			"/>
			<polygon id="XMLID_142_" class="st5" points="109.5,127.5 103,123.8 101.4,118.5 107.9,122.2 			"/>
			<path id="XMLID_516_" class="st1" d="M128.6,93.2l-1.1-6.2l-5.6,3.7c-0.6-1.1-1.3-1.9-2.1-2.6l2.7-7.2l-5-1.1l-3.7,7
				c-1.2,0.2-2.5,0.6-3.8,1.2l-1.6-5.3l-5.9,4.7l0.4,6.2c-1.2,1.3-2.3,2.8-3.3,4.3l-4.9-0.2l-3.4,7.7l4.2,1.8
				c-0.4,1.7-0.7,3.3-0.8,4.9l-5.3,4.9l1.1,6.2l5.6-3.7c0.6,1.1,1.3,1.9,2.1,2.6l-2.7,7.2l5,1.1l3.7-7c1.2-0.2,2.5-0.6,3.8-1.2
				l1.6,5.3l5.9-4.7l-0.4-6.2c1.2-1.3,2.3-2.8,3.3-4.3l4.9,0.2l3.4-7.7l-4.2-1.8c0.4-1.7,0.7-3.3,0.8-4.9L128.6,93.2z M110.5,113.8
				c-4.6,3.6-8.9,2.6-9.7-2.2s2.2-11.6,6.8-15.1c4.6-3.6,8.9-2.6,9.7,2.2C118.1,103.4,115.1,110.2,110.5,113.8z"/>
			<polygon id="XMLID_603_" class="st0" points="108.5,82.7 102,79 96.1,83.7 102.6,87.4 			"/>
			<polygon id="XMLID_614_" class="st5" points="96.1,83.7 96.5,89.9 103,93.6 102.6,87.4 			"/>
			<polygon id="XMLID_615_" class="st0" points="99.7,97.9 93.2,94.2 88.3,94 94.8,97.7 			"/>
			<polygon id="XMLID_616_" class="st5" points="88.3,94 84.9,101.7 91.4,105.4 94.8,97.7 			"/>
			<polygon id="XMLID_617_" class="st0" points="94.7,112.1 88.2,108.4 82.9,113.3 89.4,117 			"/>
			<polygon id="XMLID_619_" class="st5" points="90.5,123.2 84,119.5 82.9,113.3 89.4,117 			"/>
			<polygon id="XMLID_145_" class="st0" points="117.6,79.8 111.1,76 116.1,77.2 122.5,80.9 			"/>
		</g>
		<g id="XMLID_558_">
			<path id="XMLID_579_" class="st5" d="M93.1,61.2v-9.3l-7.4,3.3c-0.4-1.7-1.1-3.2-2-4.4l4.7-9.4l-5.7-3.3l-5.8,8.8
				c-1.5-0.1-3.1,0-4.8,0.5l-0.8-8.1L63.2,44l-0.8,9c-1.7,1.5-3.3,3.2-4.8,5.1l-5.8-2L46,65.9l4.7,4c-0.9,2.2-1.6,4.5-2,6.7
				l-7.4,5.2v9.3l7.4-3.3c0.4,1.7,1.1,3.2,2,4.4l-4.7,9.4l5.7,3.3l5.8-8.8c1.5,0.1,3.1,0,4.8-0.5l0.8,8.1l8.1-4.7l0.8-9
				c2.4-0.8,5-2.7,6.5-4.5l4.2,1.5l5.7-9.9l-3.5-3c0.9-2.2,1-5.8,0.8-7.7L93.1,61.2z M67.2,84.5c-6.2,3.6-10,1-10-6.1
				s5.1-15.9,11.3-19.5c6.2-3.6,9.9-1,9.9,6.2C78.4,72.2,73.3,80.9,67.2,84.5z"/>
			<polygon id="XMLID_582_" class="st0" points="89.1,41.9 82.6,38.1 76.8,46.9 83.3,50.6 			"/>
			<polygon id="XMLID_581_" class="st0" points="99.6,55.6 93.1,51.9 85.7,55.2 92.2,59 			"/>
			<polygon id="XMLID_580_" class="st5" points="69.6,107.5 63.1,103.8 62.3,95.7 68.8,99.5 			"/>
			<polygon id="XMLID_576_" class="st5" points="46,101.6 52.5,105.4 57.1,96 50.6,92.2 			"/>
			<path id="XMLID_524_" class="st1" d="M99.6,65v-9.3L92.2,59c-0.4-1.7-1.1-3.2-2-4.4l4.7-9.4l-5.7-3.3l-5.8,8.8
				c-1.5-0.1-3.1,0-4.8,0.5L77.7,43l-8.1,4.7l-0.8,9c-1.7,1.5-3.3,3.2-4.8,5.1l-5.8-2l-5.7,9.9l4.7,4c-0.9,2.2-1.6,4.5-2,6.7
				l-7.4,5.2v9.3l7.4-3.3c0.4,1.7,1.1,3.2,2,4.4l-4.7,9.4l5.7,3.3l5.8-8.8c1.5,0.1,3.1,0,4.8-0.5l0.8,8.1l8.1-4.7l0.8-9
				c1.7-1.5,3.3-3.2,4.8-5.1l5.8,2l5.7-9.9l-4.7-4c0.9-2.2,1.6-4.5,2-6.7L99.6,65z M73.6,88.2c-6.2,3.6-11.2,0.7-11.2-6.5
				s5-15.8,11.2-19.4c6.2-3.6,11.2-0.7,11.2,6.5C84.9,75.9,79.8,84.6,73.6,88.2z"/>
			<polygon id="XMLID_559_" class="st6" points="57.5,58 64,61.8 58.2,59.7 51.7,56 			"/>
			
				<rect id="XMLID_563_" x="46.4" y="59.1" transform="matrix(0.4996 -0.8662 0.8662 0.4996 -28.3271 76.5603)" class="st0" width="11.4" height="7.5"/>
			<polygon id="XMLID_564_" class="st5" points="46,65.9 52.5,69.6 57.1,73.6 50.6,69.9 			"/>
			<polygon id="XMLID_574_" class="st0" points="48.6,76.6 55.1,80.4 47.7,85.6 41.2,81.8 			"/>
			<polygon id="XMLID_575_" class="st5" points="41.2,81.8 47.7,85.6 47.7,94.9 41.2,91.2 			"/>
			<polygon id="XMLID_602_" class="st0" points="77.7,43 71.2,39.3 63.1,43.9 69.6,47.7 			"/>
		</g>
	</g>
</g>
<g id="Device">
	<g>
		<path id="XMLID_362_" class="st5" d="M160.9,310.1l94-54.3c1-0.6,1-1.4,0-2l-8.7-5c-1-0.6-2.5-0.6-3.5,0l-94,54.2
			c-1,0.6-1,1.4,0,2l8.7,5C158.4,310.6,159.9,310.6,160.9,310.1z"/>
		<path id="XMLID_55_" class="st7" d="M252.3,46.2l-84.8,48.9c-2.4,1.4-4.3,4.7-4.3,7.5v201.1c0,2.8,1.9,3.9,4.3,2.5l84.8-48.9
			c2.4-1.4,4.3-4.7,4.3-7.5V48.7C256.6,45.9,254.7,44.8,252.3,46.2z"/>
		<path id="XMLID_54_" class="st8" d="M167.5,95.1l84.8-48.9c2.1-1.2,3.9-0.5,4.3,1.7c-0.3-2.6-2.1-5.4-4.3-6.7l-3.5-2
			c-2.4-1.4-6.3-1.4-8.7,0l-84.8,48.9c-1.2,0.7-2.3,1.9-3.1,3.2l12.2,7C165.3,97,166.3,95.8,167.5,95.1z"/>
		<path id="XMLID_53_" class="st9" d="M151,296.7c0,2.8,1.9,6.1,4.3,7.5l3.5,2c2.2,1.2,5.5,1.4,7.9,0.3c-2,0.8-3.6-0.4-3.6-2.8
			V102.6c0-1.4,0.5-2.9,1.3-4.3l-12.2-7c-0.8,1.4-1.3,2.9-1.3,4.3L151,296.7z"/>
		<path id="XMLID_52_" class="st4" d="M169.9,121.9L250,75.7c1.4-0.8,2.6-0.2,2.6,1.5V226c0,1.7-1.2,3.7-2.6,4.5l-80.1,46.2
			c-1.4,0.8-2.6,0.2-2.6-1.5V126.4C167.3,124.8,168.4,122.8,169.9,121.9z"/>
		<path id="XMLID_51_" class="st8" d="M209.9,78.3c-0.8,0.5-1.5,1.7-1.5,2.6c0,1,0.7,1.4,1.5,0.9s1.5-1.7,1.5-2.6
			C211.4,78.2,210.8,77.8,209.9,78.3z"/>
		<path id="XMLID_50_" class="st8" d="M209.9,260.7c-3.3,1.9-6,6.6-6,10.4s2.7,5.4,6,3.5s6-6.6,6-10.4
			C215.9,260.4,213.2,258.8,209.9,260.7z"/>
		<g id="XMLID_47_">
			<path id="XMLID_49_" class="st8" d="M195.5,93.8c-1.7,1-3,3.3-3,5.3s1.4,2.7,3,1.8s3-3.3,3-5.3C198.6,93.6,197.2,92.8,195.5,93.8
				z"/>
			<path id="XMLID_48_" class="st8" d="M203,93.1c0,1.3,1,1.8,2.2,1.1l20-11.6c1.2-0.7,2.2-2.3,2.2-3.6c0-1.3-1-1.8-2.2-1.1
				l-20,11.6C204,90.2,203,91.8,203,93.1z"/>
		</g>
		<path id="XMLID_46_" class="st8" d="M157.8,128.4c1.3,0.8,2.4,2.7,2.4,4.2c0,1.6-1.1,2.2-2.4,1.4c-1.3-0.8-2.4-2.7-2.4-4.2
			S156.4,127.6,157.8,128.4z"/>
		<path id="XMLID_45_" class="st8" d="M157.8,147.1c1.3,0.8,2.4,2.7,2.4,4.2s-1.1,2.2-2.4,1.4c-1.3-0.8-2.4-2.7-2.4-4.2
			C155.3,147,156.4,146.4,157.8,147.1z"/>
		<path id="XMLID_267_" class="st7" d="M157,128.7c1.3,0.8,2.4,2.7,2.4,4.2s-1.1,2.2-2.4,1.4c-1.3-0.8-2.4-2.7-2.4-4.2
			C154.6,128.6,155.7,128,157,128.7z"/>
		<path id="XMLID_44_" class="st7" d="M157,147.5c1.3,0.8,2.4,2.7,2.4,4.2c0,1.6-1.1,2.2-2.4,1.4c-1.3-0.8-2.4-2.7-2.4-4.2
			S155.7,146.7,157,147.5z"/>
		<g id="XMLID_294_">
			<path id="XMLID_43_" class="st10" d="M268.8,81.9c0-1.7-1.2-2.3-2.6-1.5l-9.6,5.5l-70.5,40.7c-1.4,0.8-2.6,2.8-2.6,4.5v148.8
				c0,1.7,1.2,2.3,2.6,1.5l70.5-40.7l9.6-5.5c1.4-0.8,2.6-2.8,2.6-4.5V81.9z"/>
			<path class="st11" d="M185,282.3c-0.3,0-0.6-0.1-0.9-0.2c-0.7-0.4-1-1.1-1-2.1V131.2c0-1.8,1.3-4,2.8-4.9l70.5-40.7l0.5,0.9
				l-70.5,40.7c-1.3,0.7-2.3,2.6-2.3,4.1v148.8c0,0.6,0.2,1.1,0.5,1.2s0.8,0.1,1.3-0.2l70.5-40.7l0.5,0.9L186.4,282
				C185.9,282.1,185.4,282.3,185,282.3z"/>
			<path class="st11" d="M256.9,241.1l-0.5-0.9l9.6-5.5c1.3-0.7,2.3-2.6,2.3-4.1V81.8c0-0.6-0.2-1.1-0.5-1.2
				c-0.3-0.2-0.8-0.1-1.3,0.2l-9.6,5.5l-0.5-0.9L266,80c0.9-0.5,1.7-0.6,2.3-0.2c0.7,0.4,1,1.1,1,2.1v148.8c0,1.8-1.3,4-2.8,4.9
				L256.9,241.1z"/>
		</g>
		<g>
			<path id="XMLID_42_" class="st2" d="M226.2,116.5c9-5.2,16.2-1,16.2,9.4s-7.3,23-16.2,28.1c-9,5.2-16.2,1-16.2-9.4
				C209.9,134.2,217.2,121.6,226.2,116.5z"/>
			<path id="XMLID_41_" class="st2" d="M226.2,124.6c2.9-1.7,5.3-0.3,5.3,3c0,3.4-2.4,7.4-5.3,9.1c-2.9,1.7-5.3,0.3-5.3-3
				S223.3,126.3,226.2,124.6z"/>
		</g>
		<path id="XMLID_274_" class="st2" d="M236.4,142.5c0-5.5-3.9-7.8-8.7-5l-3,1.7c-4.8,2.8-8.7,9.5-8.7,15v1.5
			c2.8,0.9,6.2,0.4,10-1.8c3.9-2.3,7.5-5.9,10.3-10.2L236.4,142.5L236.4,142.5z"/>
		<g>
			<path id="XMLID_5_" class="st12" d="M226.2,124.6c2.9-1.7,5.3-0.3,5.3,3c0,3.4-2.4,7.4-5.3,9.1c-2.9,1.7-5.3,0.3-5.3-3
				S223.3,126.3,226.2,124.6z"/>
			<path id="XMLID_4_" class="st12" d="M236.4,142.5c0-5.5-3.9-7.8-8.7-5l-3,1.7c-4.8,2.8-8.7,9.5-8.7,15v1.5
				c2.8,0.9,6.2,0.4,10-1.8c3.9-2.3,7.5-5.9,10.3-10.2L236.4,142.5L236.4,142.5z"/>
		</g>
		<g>
			<path id="XMLID_482_" class="st2" d="M194.7,176.8l20.9-12.1c1-0.6,1.7-0.1,1.7,1v0.7c0,1.1-0.8,2.4-1.7,3l-20.9,12.1
				c-1,0.6-1.7,0.1-1.7-1v-0.7C193,178.7,193.8,177.4,194.7,176.8z"/>
			<path id="XMLID_7_" class="st13" d="M194.7,176.8l20.9-12.1c1-0.6,1.7-0.1,1.7,1v0.7c0,1.1-0.8,2.4-1.7,3l-20.9,12.1
				c-1,0.6-1.7,0.1-1.7-1v-0.7C193,178.7,193.8,177.4,194.7,176.8z"/>
		</g>
		<g>
			<path id="XMLID_483_" class="st2" d="M193.9,191.4l63.3-36.5c0.5-0.3,0.9-0.1,0.9,0.5v7.4c0,0.6-0.4,1.2-0.9,1.5l-63.3,36.5
				c-0.5,0.3-0.9,0.1-0.9-0.5v-7.4C193,192.4,193.4,191.7,193.9,191.4z"/>
			<path id="XMLID_10_" class="st14" d="M193.9,191.4l63.3-36.5c0.5-0.3,0.9-0.1,0.9,0.5v7.4c0,0.6-0.4,1.2-0.9,1.5l-63.3,36.5
				c-0.5,0.3-0.9,0.1-0.9-0.5v-7.4C193,192.4,193.4,191.7,193.9,191.4z"/>
		</g>
		<g>
			<path id="XMLID_512_" class="st2" d="M194.7,209.7l20.9-12.1c1-0.6,1.7-0.1,1.7,1v0.7c0,1.1-0.8,2.4-1.7,3l-20.9,12.1
				c-1,0.6-1.7,0.1-1.7-1v-0.7C193,211.6,193.8,210.2,194.7,209.7z"/>
			<path id="XMLID_8_" class="st13" d="M194.7,209.7l20.9-12.1c1-0.6,1.7-0.1,1.7,1v0.7c0,1.1-0.8,2.4-1.7,3l-20.9,12.1
				c-1,0.6-1.7,0.1-1.7-1v-0.7C193,211.6,193.8,210.2,194.7,209.7z"/>
		</g>
		<g>
			<path id="XMLID_511_" class="st2" d="M193.9,224.2l63.3-36.5c0.5-0.3,0.9-0.1,0.9,0.5v7.4c0,0.6-0.4,1.2-0.9,1.5l-63.3,36.5
				c-0.5,0.3-0.9,0.1-0.9-0.5v-7.4C193,225.2,193.4,224.5,193.9,224.2z"/>
			<path id="XMLID_11_" class="st14" d="M193.9,224.2l63.3-36.5c0.5-0.3,0.9-0.1,0.9,0.5v7.4c0,0.6-0.4,1.2-0.9,1.5l-63.3,36.5
				c-0.5,0.3-0.9,0.1-0.9-0.5v-7.4C193,225.2,193.4,224.5,193.9,224.2z"/>
		</g>
		<g>
			<path id="XMLID_510_" class="st2" d="M219.1,228.4l25-14.4c1-0.6,1.7-0.1,1.7,1v7.7c0,1.1-0.8,2.4-1.7,3l-25,14.4
				c-1,0.6-1.7,0.1-1.7-1v-7.7C217.4,230.3,218.1,229,219.1,228.4z"/>
			<path id="XMLID_9_" class="st13" d="M219.1,228.4l25-14.4c1-0.6,1.7-0.1,1.7,1v7.7c0,1.1-0.8,2.4-1.7,3l-25,14.4
				c-1,0.6-1.7,0.1-1.7-1v-7.7C217.4,230.3,218.1,229,219.1,228.4z"/>
		</g>
	</g>
</g>
<g id="Character">
	<g>
		<path id="XMLID_276_" class="st15" d="M278.3,195.9c0,0-12.3-16.9-13-19c-0.6-1.5,0-3.8,0.2-4.8c0.1-1.1,0.3-3.4,0.5-4
			c0.3-1.1-1.2-0.9-2,0.1c-0.8,1.1-1.1,3.1-1.5,3.5c-0.4,0.3-3.7-4.4-5.4-6.6c-1.7-2.2-2.8-3.5-3.8-2.7c-0.8,0.6-0.2,1.9,1,3.8
			s1.8,2.8,2,3.2c0.2,0.4-0.8,0.4-1.4,1.3c-0.4,0.7,0,1.7-0.6,2.2s-1.1,1.4-0.5,2.5c0.8,1.3,2.4,3.2,4.2,4.5
			c1.8,1.3,2.6,1.7,3.7,3.5c1.1,1.7,10.9,19.4,11.5,20.5c0.7,1.1,1.9,3.2,3.9,3.3c1.9,0.1,17.7-13.5,18.5-14.2
			c2.6-2.2,3.4-2.5,3.9-0.5c0.1,0.6,0.2,1.3,0.3,2.1c0.3,2.5,2,11.3,2,11.3s8,3.9,14.6,2s8.8-4.7,8.8-4.7l-3.3-5.4
			c0.9-2.2,5-11.2,6.3-17.4l-20.6-3.3c-0.4-0.1-1.1-0.3-2-0.5c-1.1-0.3-4-1.3-6.2,0.6C292.4,183,278.3,195.9,278.3,195.9"/>
		<path id="XMLID_287_" class="st8" d="M319.1,299.8l-3.7,5.1c0,0,1.7,1,5.4,1.1c3.3,0.1,4.2-1,4.3-1.2c0.6-1.2-0.3-3.4-0.6-5.2
			L319.1,299.8z"/>
		<path id="XMLID_284_" class="st8" d="M315.7,302.5c0,0-4.5-0.3-7.6-0.7c-3.1-0.4-5.5,1.1-4.8,2.4s2.4,2.3,5.1,3.2
			c2.3,0.8,5,1.3,7.4,2s4,1.6,5.4,1.1c1.5-0.5,2.2-1.1,2.1-2.3c-0.1-1.1-1.2-4.7-1.2-4.7L315.7,302.5z"/>
		<path id="XMLID_288_" class="st16" d="M325.1,294.6c0,0-0.6,4.7-0.6,5.7s-4.5,1.3-5.4-0.5l-0.1-5.7L325.1,294.6z"/>
		<path id="XMLID_285_" class="st15" d="M320.6,297.5l1.6,7.1c0,0,0.2,0.9-3.5,1.4s-9.5-1.9-10.4-2.4c-1-0.5-1.1-1.5,2.5-1.3
			s4.9,0.2,4.9,0.2l-1.2-3.1L320.6,297.5z"/>
		<path id="XMLID_282_" class="st16" d="M328.2,180l2.5-0.7c0,0,5.3,16.9,5.9,18.5s1.3,3.4,0.1,5.4c-1.4,2.4-8.6,12-8.6,12l-4.6-4.5
			l5.2-9.5l-4.6-9.3L328.2,180z"/>
		<path id="XMLID_280_" class="st8" d="M302,158.1c0,0-2-3.3,0.1-7.3c2.5-4.7,8.2-7,14.9-6.1c3.1,0.4,6.8,3,8.8,6.9
			c2.2,4.3,2.4,12.9,3,16.2L302,158.1z"/>
		<path id="XMLID_14181_" class="st15" d="M301.8,159.9c0,0-1.6,3.1-1.3,3.3c0.3,0.3,1.3,0.5,1.3,0.5V159.9z"/>
		<path id="XMLID_270_" class="st15" d="M306.7,150.3c-1.7,1.1-4.7,3.2-4.9,10.1c-0.1,7,0.9,9.3,1.9,10.1c0.7,0.6,4.8,0.3,6.6-0.1
			c1.8-0.4,6.8-2.9,8.7-6.7c2.1-4.5,1.7-11-1.5-12.9C313,148,308.2,149.3,306.7,150.3z"/>
		<g>
			<path id="XMLID_283_" class="st2" d="M325.1,202.8c3.1,4.8,6,9,6.6,14.4c1.3,11.4-3,24.4-3.9,32.8c0,0,2.9,3.8,2.9,8.2
				c0,3.5-5.6,36.3-5.6,36.3s-4.1,1.2-6.1-0.5l-3.9-60.4l2-7.4L325.1,202.8z"/>
			<path id="XMLID_12_" class="st3" d="M325.1,202.8c3.1,4.8,6,9,6.6,14.4c1.3,11.4-3,24.4-3.9,32.8c0,0,2.9,3.8,2.9,8.2
				c0,3.5-5.6,36.3-5.6,36.3s-4.1,1.2-6.1-0.5l-3.9-60.4l2-7.4L325.1,202.8z"/>
		</g>
		<g>
			<path id="XMLID_40_" class="st2" d="M315.1,233.7l2-7.4c0,0,5.6-1.4,11-4.4c0,0-2.1,3.8-8.1,5.9l-3.1,9.5l-0.3,21.6L315.1,233.7z
				"/>
			<path id="XMLID_14_" class="st17" d="M315.1,233.7l2-7.4c0,0,5.6-1.4,11-4.4c0,0-2.1,3.8-8.1,5.9l-3.1,9.5l-0.3,21.6L315.1,233.7
				z"/>
		</g>
		<g>
			<path id="XMLID_281_" class="st2" d="M325.1,202.8c1.6,2.7,5.6,7.3,4.8,11.7c-1,5.4-3.9,9.1-12.7,11.8l-8.3,30c0,0,4.3,4,5.6,7.9
				c1.3,3.8,6.1,33.4,6.1,33.4s-1.5,2.4-6.1,1.8c0,0-16.2-37-17.4-39.4c-1.1-2.4-1.9-4.2-1.4-8c0.5-3.9,6-46.4,6-46.4L325.1,202.8z"
				/>
			<path id="XMLID_13_" class="st3" d="M325.1,202.8c1.6,2.7,5.6,7.3,4.8,11.7c-1,5.4-3.9,9.1-12.7,11.8l-8.3,30c0,0,4.3,4,5.6,7.9
				c1.3,3.8,6.1,33.4,6.1,33.4s-1.5,2.4-6.1,1.8c0,0-16.2-37-17.4-39.4c-1.1-2.4-1.9-4.2-1.4-8c0.5-3.9,6-46.4,6-46.4L325.1,202.8z"
				/>
		</g>
		<g>
			<path id="XMLID_286_" class="st2" d="M328.2,180l-20.6-3.3c-0.4-0.1-1.1-0.3-2-0.5l0,0c0,0-0.9,12.9-6.2,15.9l0,0
				c0.1,0.6,0.2,1.3,0.3,2.1c0.3,2.5,2,11.3,2,11.3s8,3.9,14.6,2s8.8-4.7,8.8-4.7l-3.3-5.4C322.8,195.2,326.9,186.3,328.2,180z"/>
			<path id="XMLID_15_" class="st12" d="M328.2,180l-20.6-3.3c-0.4-0.1-1.1-0.3-2-0.5l0,0c0,0-0.9,12.9-6.2,15.9l0,0
				c0.1,0.6,0.2,1.3,0.3,2.1c0.3,2.5,2,11.3,2,11.3s8,3.9,14.6,2s8.8-4.7,8.8-4.7l-3.3-5.4C322.8,195.2,326.9,186.3,328.2,180z"/>
		</g>
		<path id="XMLID_543_" class="st2" d="M322.8,195.4c-0.1,0.2-6.6,3.7-8.6,4.2c3.1-0.2,5.6-0.9,7.7-2.1L322.8,195.4z"/>
		<path id="XMLID_277_" class="st8" d="M306.2,150.6c0,0-1,6.5,1.4,10.3c0,0,0.9-2.6,3.1-2.1s2.3,3.4,0.8,5s-3.2,1-3.2,1
			s-0.3,4.7-0.5,8.6c-0.2,3.8-1.2,12.5,3.2,16c4.4,3.5,15.5,4.7,20.8-2.6c2.9-4.1-1-11.2-2.7-19.2c-1.6-7.4-2.6-18.3-10.4-20.1
			C310.6,145.9,306.2,150.6,306.2,150.6z"/>
	</g>
</g>
<g id="Cloud">
	<path id="XMLID_295_" class="st1" d="M334.9,61.8l-1.7,1c0.1-0.6,0.2-1.2,0.2-1.8c0-3.3-2.3-4.7-5.2-3c-0.8,0.5-1.6,1.2-2.3,2l0,0
		c0-4.5-3.2-6.3-7.1-4.1s-7.1,7.7-7.1,12.2c0,0.2,0,0.4,0,0.7c-0.8-0.1-1.8,0.1-2.9,0.7c-2.9,1.7-5.2,5.7-5.2,9.1
		c0,0.5,0,0.9,0.1,1.3l-0.9,0.5c-2.4,1.4-4.3,4.1-4.3,6s1.9,2.4,4.3,1l32-18.5c2.4-1.4,4.3-4.1,4.3-6
		C339.2,60.9,337.3,60.4,334.9,61.8z"/>
</g>
</svg>
