<?xml version="1.0" encoding="UTF-8"?>
<!DOCTYPE svg PUBLIC "-//W3C//DTD SVG 1.1//EN" "http://www.w3.org/Graphics/SVG/1.1/DTD/svg11.dtd">
<!-- Creator: CorelDRAW -->
<svg xmlns="http://www.w3.org/2000/svg" xml:space="preserve" width="500px" height="166px" version="1.1" style="shape-rendering:geometricPrecision; text-rendering:geometricPrecision; image-rendering:optimizeQuality; fill-rule:evenodd; clip-rule:evenodd"
viewBox="0 0 500 166.38"
 xmlns:xlink="http://www.w3.org/1999/xlink"
 xmlns:xodm="http://www.corel.com/coreldraw/odm/2003">
 <defs>
  <style type="text/css">
   <![CDATA[
    .fil4 {fill:#28B451}
    .fil2 {fill:#587EFD}
    .fil3 {fill:#7DDA58}
    .fil0 {fill:#587EFD;fill-rule:nonzero}
    .fil1 {fill:#7DDA58;fill-rule:nonzero}
   ]]>
  </style>
 </defs>
 <g id="Camada_x0020_1">
  <metadata id="CorelCorpID_0Corel-Layer"/>
  <g id="_1311777198368">
   <path class="fil0" d="M-0.5 165.62l0 -82.04 9.3 0 0 82.04 -9.3 0zm29.37 0l0 -82.04 10.78 0 29.37 38.91 28.88 -38.91 10.78 0 0 82.04 -9.29 0 0 -67.91 -30.37 39.03 -30.85 -39.03 0 67.91 -9.3 0zm133.72 0.99c-6.78,0 -12.79,-1.5 -18.03,-4.52 -5.25,-3.02 -9.36,-7.25 -12.33,-12.7 -2.98,-5.46 -4.47,-11.82 -4.47,-19.09l0 -46.72 9.3 0 0 46.97c0,6.36 1.22,11.52 3.66,15.49 2.43,3.97 5.61,6.88 9.54,8.74 3.92,1.85 8.03,2.79 12.33,2.79 4.38,0 8.51,-0.94 12.39,-2.79 3.88,-1.86 7.07,-4.77 9.54,-8.74 2.48,-3.97 3.72,-9.13 3.72,-15.49l0 -46.97 9.3 0 0 46.72c0,7.19 -1.49,13.51 -4.46,18.96 -2.98,5.46 -7.09,9.71 -12.34,12.77 -5.24,3.06 -11.29,4.58 -18.15,4.58zm54.03 -0.99l0 -82.04 10.78 0 50.69 69.03 0 -69.03 9.3 0 0 82.04 -10.79 0 -50.68 -69.28 0 69.28 -9.3 0zm90.84 0l0 -82.04 9.3 0 0 82.04 -9.3 0z"/>
   <path class="fil1" d="M357.15 165.62l0 -73.24 -28.62 0 0 -8.8 66.55 0 0 8.8 -28.63 0 0 73.24 -9.3 0zm49.7 0l0 -82.04 9.3 0 0 82.04 -9.3 0z"/>
   <g>
    <path class="fil2" d="M442.38 114.47c-8.92,0 -16.23,-7.3 -16.23,-16.22l0 -24.67 -24.67 0c-8.92,0 -16.22,-7.3 -16.22,-16.23 0,-8.92 7.3,-16.22 16.22,-16.22l40.9 0c8.92,0 16.22,7.3 16.22,16.22l0 40.9c0,8.92 -7.3,16.22 -16.22,16.22z"/>
    <path class="fil3" d="M499.5 57.35c0,8.93 -7.3,16.23 -16.22,16.23l-40.9 0c-8.92,0 -16.23,-7.3 -16.23,-16.23l0 -40.89c0,-8.93 7.31,-16.23 16.23,-16.23 8.92,0 16.22,7.3 16.22,16.23l0 24.67 24.68 0c8.92,0 16.22,7.3 16.22,16.22z"/>
    <path class="fil4" d="M426.15 41.13l16.23 0c8.92,0 16.22,7.3 16.22,16.22l0 16.23 -16.22 0c-8.92,0 -16.23,-7.3 -16.23,-16.23l0 -16.22z"/>
   </g>
  </g>
 </g>
</svg>
