<?xml version="1.0" encoding="utf-8"?>
<!-- Generator: Adobe Illustrator 25.0.0, SVG Export Plug-In . SVG Version: 6.00 Build 0)  -->
<svg version="1.1" id="Camada_1" xmlns="http://www.w3.org/2000/svg" xmlns:xlink="http://www.w3.org/1999/xlink" x="0px" y="0px"
	 viewBox="0 0 382 357" style="enable-background:new 0 0 382 357;" xml:space="preserve">
<style type="text/css">
	.st0{fill:#F5F5F5;}
	.st1{fill:#E0E0E0;}
	.st2{fill:#37474F;}
	.st3{fill:#FFFFFF;}
	.st4{fill:#455A64;}
	.st5{fill:#27DEBF;}
	.st6{opacity:0.75;fill:#FFFFFF;enable-background:new    ;}
	.st7{opacity:0.6;fill:#FFFFFF;enable-background:new    ;}
	.st8{opacity:0.9;fill:#FFFFFF;enable-background:new    ;}
	.st9{fill:#FAFAFA;}
	.st10{opacity:0.5;fill:#FFFFFF;enable-background:new    ;}
	.st11{opacity:0.1;enable-background:new    ;}
	.st12{opacity:0.7;fill:#27DEBF;enable-background:new    ;}
	.st13{opacity:0.3;fill:#27DEBF;enable-background:new    ;}
	.st14{opacity:0.5;fill:#27DEBF;enable-background:new    ;}
	.st15{opacity:0.7;fill:#FFFFFF;enable-background:new    ;}
	.st16{opacity:0.2;enable-background:new    ;}
	.st17{opacity:0.3;enable-background:new    ;}
	.st18{opacity:0.5;enable-background:new    ;}
	.st19{opacity:0.15;enable-background:new    ;}
	.st20{opacity:0.95;fill:#FAFAFA;enable-background:new    ;}
	.st21{fill:#F0F0F0;}
	.st22{opacity:0.2;clip-path:url(#SVGID_2_);enable-background:new    ;}
	.st23{clip-path:url(#SVGID_4_);}
	.st24{clip-path:url(#SVGID_6_);}
	.st25{clip-path:url(#SVGID_8_);}
	.st26{clip-path:url(#SVGID_10_);}
	.st27{opacity:0.15;}
	.st28{fill:#EBEBEB;}
	.st29{opacity:0.3;fill:none;stroke:#000000;stroke-width:1.3741;stroke-miterlimit:10;enable-background:new    ;}
</style>
<g id="Floor">
	<ellipse id="Floor_1_" class="st0" cx="192.9" cy="246.4" rx="176.4" ry="97.4"/>
</g>
<g id="Shadows">
	<path id="Shadow_8_" class="st1" d="M142.5,305.5l-6.7-3.7c-0.5-0.3-0.5-0.8,0-1.1l48.1-26.6c0.5-0.3,0.7-0.9,0.4-1.4
		c-1.5-2.4-2.1-5-1.7-7.6c0.6-4.2,3.8-8,9-10.9c5.6-3.1,13-4.8,20.8-4.8c7.8,0,15.2,1.7,20.8,4.8c5.9,3.3,9.1,7.7,9.1,12.5
		c0,4.8-3.2,9.2-9.1,12.5c-5.6,3.1-12.9,4.8-20.8,4.8c-3.2,0-6.4-0.3-9.4-0.9c-0.6-0.1-1.5,0-2.1,0.3l-7.5,4.1
		c-0.5,0.3-1.5,0.4-2.1,0.3l-5.1-1.1c-0.6-0.1-1.5,0-2.1,0.3l-1.5,0.8c-0.5,0.3-1,1-1,1.6l-0.2,3.6c0,0.6-0.5,1.3-1,1.6l-1.9,1.1
		c-0.5,0.3-1.5,0.6-2.1,0.6l-4.5,0.4c-0.6,0.1-1.6,0.3-2.1,0.6l-1.8,1c-0.5,0.3-0.9,1-0.8,1.6l0.1,0.8c0.1,0.6-0.3,1.3-0.8,1.6
		l-5.6,3.1c-0.5,0.3-1.5,0.5-2.1,0.5h-14.1C144,306.1,143.1,305.8,142.5,305.5z M219.8,259.8c-1.8,0-3.5,0.4-4.7,1.1
		c-0.9,0.5-1.4,1.1-1.4,1.6c0,0.5,0.5,1.1,1.4,1.6c1.2,0.7,2.9,1.1,4.7,1.1c1.8,0,3.5-0.4,4.7-1.1c0.9-0.5,1.4-1.1,1.4-1.6
		c0-0.5-0.5-1.1-1.4-1.6C223.3,260.2,221.6,259.8,219.8,259.8z"/>
	<path id="Shadow_1_" class="st1" d="M75.7,287.2l-48.4-26.7c-1.7-0.9-1.7-2.4,0-3.4l94.3-52.1c1.7-0.9,4.4-0.9,6.1,0l48.4,26.7
		c1.7,0.9,1.7,2.4,0,3.4l-94.3,52.1C80.1,288.1,77.4,288.1,75.7,287.2z"/>
</g>
<g id="Plants">
	<g id="Plants_1_">
		<g id="XMLID_3102_">
			<g id="XMLID_3108_">
				<path id="XMLID_3109_" class="st2" d="M67.2,250.1v-15.7c0,0-0.8-8.8-7.3-15.5s-12.3-4.4-14.2-1.2c-1.9,3.2,2.4,9.2,5.1,12.6
					c3.3,4.1,16.3,23.1,16.3,31.6C67.2,261.9,67.2,250.1,67.2,250.1z"/>
			</g>
			<g id="XMLID_3103_">
				<path id="XMLID_3105_" class="st3" d="M67.2,247.6c-0.2,0-0.4-0.1-0.4-0.3c-3-17.1-16.5-28.8-16.7-28.9c-0.2-0.1-0.2-0.4,0-0.5
					c0.1-0.2,0.4-0.2,0.6,0c0.1,0.1,13.9,12,16.9,29.3C67.6,247.4,67.5,247.6,67.2,247.6C67.2,247.6,67.2,247.6,67.2,247.6z"/>
			</g>
		</g>
		<g id="XMLID_1424_">
			<g id="XMLID_3097_">
				<path id="XMLID_3100_" class="st4" d="M67.2,252.2c0,0,0.5-1.6-1.9-1.9c-2.4-0.4-3.3-2.3-3.5-5.5c-0.2-3.2-1.2-5.5-4.2-5.9
					c-3-0.5-5.4,1-7.4-0.5s-7-4.9-11.2-3.3c-4.2,1.6-2.8,5-0.6,7.2c2.2,2.2,2.8,3,1.1,6.6c-1.7,3.6-0.5,7,3.4,7.8
					c3.9,0.8,6,0.4,6.1,4.5c0.1,4,0.6,5.8,2.8,7.4s8.8,0.9,11.5,1.5c2.8,0.6,3.9,3,3.9,3L67.2,252.2L67.2,252.2z"/>
			</g>
			<g id="XMLID_3095_">
				<path id="XMLID_3096_" class="st3" d="M67.2,268.8c-0.1,0-0.3-0.1-0.3-0.2c-7-19.9-22.9-28-23.1-28.1c-0.2-0.1-0.2-0.3-0.1-0.4
					c0.1-0.2,0.3-0.2,0.4-0.1c0.2,0.1,16.3,8.2,23.4,28.4c0.1,0.2,0,0.3-0.2,0.4C67.3,268.8,67.3,268.8,67.2,268.8z"/>
			</g>
			<g id="XMLID_3092_">
				<path id="XMLID_3093_" class="st3" d="M57.2,251.5C57.1,251.5,57.1,251.5,57.2,251.5c-4.7-1-12-0.5-12.1-0.5
					c-0.2,0-0.3-0.1-0.4-0.3c0-0.2,0.1-0.3,0.3-0.3c0.3,0,7.5-0.6,12.2,0.5c0.2,0,0.3,0.2,0.2,0.4C57.5,251.4,57.3,251.5,57.2,251.5
					z"/>
			</g>
			<g id="XMLID_1427_">
				<path id="XMLID_1447_" class="st3" d="M60.9,261c-2.1,0-4.3-0.1-4.5-0.1c-0.2,0-0.3-0.2-0.3-0.3c0-0.2,0.2-0.3,0.4-0.3
					c0.1,0,5.2,0.3,7.2,0c0.2,0,0.4,0.1,0.4,0.3c0,0.2-0.1,0.3-0.3,0.4C63.1,261,62,261,60.9,261z"/>
			</g>
			<g id="XMLID_1425_">
				<path id="XMLID_1426_" class="st3" d="M55,249.1C55,249.1,55,249.1,55,249.1c-0.2,0-0.3-0.2-0.3-0.3c0.2-3.5,1.4-6.5,1.5-6.7
					c0.1-0.2,0.3-0.2,0.4-0.2c0.2,0.1,0.3,0.2,0.2,0.4c0,0-1.2,3.1-1.4,6.5C55.3,249,55.2,249.1,55,249.1z"/>
			</g>
		</g>
	</g>
	<g id="Plants_6_">
		<path id="XMLID_1422_" class="st2" d="M333.6,264.5l-8.4-4.7c0,0-5.2-14.7-3.9-28.3c1.6-16.9,10-22.8,14.9-20.9
			c4.9,1.9,3.9,8.6-1.3,17.6C330.7,235.4,330.7,251.8,333.6,264.5z"/>
		<g id="XMLID_1418_">
			<g id="XMLID_1419_">
				<path id="XMLID_1420_" class="st3" d="M329.6,262.6c-0.2,0-0.3-0.1-0.4-0.3c-5.4-15.9-5.7-38.3,4.6-48.4c0.1-0.1,0.4-0.1,0.5,0
					c0.2,0.1,0.2,0.4,0,0.5c-9.7,9.5-9.9,31.7-4.4,47.6c0.1,0.2,0,0.4-0.2,0.5C329.7,262.6,329.6,262.6,329.6,262.6z"/>
			</g>
		</g>
		<g id="XMLID_1374_">
			<path id="XMLID_1417_" class="st4" d="M348.8,272.9c0.9,0.5,2.7-0.6,3.4-1c1.2-0.8,2.1-1.8,2.8-3c0.7-1.4,0.9-2.9,0.7-4.5
				c-0.1-0.8-0.4-1.6-0.6-2.4c-0.2-0.8-0.5-1.5-0.7-2.3c-0.2-0.8-0.5-1.6-0.4-2.3c0.2-1.6,1.7-2.7,3-3.7c1.5-1.1,3-2.5,3-4.4
				c0-1.5-0.8-2.8-1.8-4c-1-1.2-2.1-2.2-2.9-3.4c-0.6-0.9-1.1-1.9-1-3c0.1-0.7,0.3-1.3,0.7-1.9c0.7-1.2,1.6-2.4,2.1-3.7
				c0.5-1.3,0.4-3-0.7-4c-0.9-0.8-2.2-0.9-3.4-0.8c-1.1,0.1-2.2,0.6-3.2,1.1c-3.2,1.7-5,5.3-8.3,6.6c-1.3,0.5-2.7,0.6-4.1,1
				c-1.4,0.3-2.7,1-3.4,2.2c-1.2,2.4,1.1,5.3,0.2,7.8c-0.8,2.2-3,3.1-4.3,5.1c-0.6,0.9-0.7,1.9-0.6,2.9c0.2,1.7,0.4,3,1.3,4.9
				c0.7,1.6,2.8,4.4,2.8,4.4C333.5,264.4,348.7,272.8,348.8,272.9z"/>
			<g id="XMLID_1413_">
				<path id="XMLID_1414_" class="st3" d="M339.8,268.2c-0.2,0-0.3-0.1-0.3-0.3c-1.6-12.4,4.5-29.1,13.8-37.2c0.1-0.1,0.4-0.1,0.5,0
					c0.1,0.1,0.1,0.3,0,0.5c-9.1,8-15.2,24.4-13.5,36.6C340.1,268,340,268.2,339.8,268.2C339.8,268.2,339.8,268.2,339.8,268.2z"/>
			</g>
			<g id="XMLID_1411_">
				<path id="XMLID_1412_" class="st3" d="M341.3,252.3c-0.1,0-0.2,0-0.3-0.1c-0.1-0.1-0.1-0.3,0.1-0.5c5.1-3.7,12.9-3,13.2-3
					c0.2,0,0.3,0.2,0.3,0.4c0,0.2-0.2,0.3-0.4,0.3c-0.1,0-7.8-0.6-12.7,2.9C341.5,252.3,341.4,252.3,341.3,252.3z"/>
			</g>
			<g id="XMLID_1381_">
				<path id="XMLID_1410_" class="st3" d="M342.1,249.3c-0.2,0-0.3-0.1-0.3-0.3c-0.2-5.7-4.7-9.1-4.8-9.1c-0.1-0.1-0.2-0.3-0.1-0.5
					c0.1-0.1,0.3-0.2,0.5-0.1c0.2,0.1,4.8,3.6,5,9.6C342.4,249.2,342.3,249.3,342.1,249.3C342.1,249.3,342.1,249.3,342.1,249.3z"/>
			</g>
		</g>
	</g>
</g>
<g id="Device">
	<g id="Device_3_">
		<g id="XMLID_645_">
			<path id="XMLID_1612_" class="st5" d="M174,22.8L80.2,74.6c-1.9,1-3.4,3.6-3.4,5.7v202.2c0,2.1,1.5,2.9,3.4,1.9l93.8-51.8
				c1.9-1,3.4-3.6,3.4-5.7V24.7C177.4,22.6,175.9,21.8,174,22.8z M172.5,208.3c0,1.8-1.3,2.9-2.9,3.8l-85.3,47.1
				c-1.6,0.9-2.9,0.2-2.9-1.6V99.1c0-1.8,1.3-4,2.9-4.8l85.3-47.1c1.6-0.9,2.9-0.2,2.9,1.6V208.3z"/>
			<path id="XMLID_646_" class="st6" d="M174,22.8L80.2,74.6c-1.9,1-3.4,3.6-3.4,5.7v202.2c0,2.1,1.5,2.9,3.4,1.9l93.8-51.8
				c1.9-1,3.4-3.6,3.4-5.7V24.7C177.4,22.6,175.9,21.8,174,22.8z M172.5,208.3c0,1.8-1.3,2.9-2.9,3.8l-85.3,47.1
				c-1.6,0.9-2.9,0.2-2.9-1.6V99.1c0-1.8,1.3-4,2.9-4.8l85.3-47.1c1.6-0.9,2.9-0.2,2.9,1.6V208.3z"/>
		</g>
		<g id="XMLID_1416_">
			<path id="XMLID_643_" class="st5" d="M79.8,284.5c-1.9,0.8-4.6,0.8-6.4-0.2l-3.9-2.2c-1.9-1-3.4-3.6-3.4-5.7V74.3
				c0-0.8,0.2-1.6,0.6-2.4c0.1-0.3,0.3-0.5,0.4-0.8c0,0,0,0,0,0L77.8,77h0c-0.2,0.4-0.4,0.8-0.6,1.2c-0.3,0.7-0.4,1.4-0.4,2v202.2
				C76.8,284.4,78.1,285.2,79.8,284.5z"/>
			<path id="XMLID_642_" class="st7" d="M79.8,284.5c-1.9,0.8-4.6,0.8-6.4-0.2l-3.9-2.2c-1.9-1-3.4-3.6-3.4-5.7V74.3
				c0-0.8,0.2-1.6,0.6-2.4c0.1-0.3,0.3-0.5,0.4-0.8c0,0,0,0,0,0L77.8,77h0c-0.2,0.4-0.4,0.8-0.6,1.2c-0.3,0.7-0.4,1.4-0.4,2v202.2
				C76.8,284.4,78.1,285.2,79.8,284.5z"/>
		</g>
		<g id="XMLID_641_">
			<path class="st4" d="M125.5,253.6c-0.6,0-1.1-0.1-1.6-0.4c-1.1-0.6-1.7-1.9-1.7-3.6c0-3.4,2.5-7.5,5.6-9.2c1.5-0.9,3-1,4.1-0.4
				c1.1,0.6,1.7,1.9,1.7,3.6c0,3.4-2.5,7.5-5.6,9.2C127.2,253.3,126.3,253.6,125.5,253.6z M130.3,240.3c-0.7,0-1.4,0.2-2.2,0.7l0,0
				c-2.9,1.6-5.2,5.5-5.2,8.6c0,1.5,0.5,2.5,1.4,3.1c0.9,0.5,2.1,0.4,3.5-0.4c2.9-1.6,5.2-5.5,5.2-8.6c0-1.5-0.5-2.5-1.4-3.1
				C131.2,240.4,130.8,240.3,130.3,240.3z"/>
		</g>
		<g id="XMLID_1415_">
			<path id="XMLID_639_" class="st4" d="M127.1,53c1.3-0.7,2.3-0.1,2.3,1.3c0,1.4-1,3.1-2.3,3.8c-1.3,0.7-2.3,0.1-2.3-1.3
				C124.8,55.4,125.8,53.7,127.1,53z"/>
			<path id="XMLID_629_" class="st4" d="M118.3,66.3l17.7-9.7c1.1-0.6,1.9-0.2,1.9,0.9c0,1.1-0.9,2.4-1.9,3l-17.7,9.7
				c-1.1,0.6-1.9,0.2-1.9-0.9C116.4,68.3,117.2,66.9,118.3,66.3z"/>
		</g>
		<path id="XMLID_628_" class="st4" d="M172.5,208.3c0,1.8-1.3,2.9-2.9,3.8l-85.3,47.1c-1.6,0.9-2.9,0.2-2.9-1.6V99.1
			c0-1.8,1.3-4,2.9-4.8l85.3-47.1c1.6-0.9,2.9-0.2,2.9,1.6V208.3z"/>
		<g id="XMLID_297_">
			<path id="XMLID_621_" class="st5" d="M177.4,24.2c-0.2-1.7-1.7-2.3-3.4-1.4L80.2,74.6c-0.9,0.5-1.8,1.4-2.4,2.4l-10.7-5.9
				c0.6-1,1.5-1.9,2.4-2.4l93.8-51.8c1.9-1,4.9-1,6.8,0L174,19C175.7,20,177.2,22.2,177.4,24.2z"/>
			<path id="XMLID_328_" class="st8" d="M177.4,24.2c-0.2-1.7-1.7-2.3-3.4-1.4L80.2,74.6c-0.9,0.5-1.8,1.4-2.4,2.4l-10.7-5.9
				c0.6-1,1.5-1.9,2.4-2.4l93.8-51.8c1.9-1,4.9-1,6.8,0L174,19C175.7,20,177.2,22.2,177.4,24.2z"/>
		</g>
		<g id="XMLID_624_">
			<g id="XMLID_1359_">
				<path id="XMLID_1362_" class="st9" d="M98.9,98c0,0,0-0.1,0-0.1v-0.7l-1.1,0.6c-0.1,0-0.1,0-0.1-0.1v-0.2c0-0.1,0-0.1,0-0.1
					c0,0,0-0.1,0-0.1l1.2-3.1c0-0.1,0-0.1,0.1-0.1c0,0,0,0,0.1-0.1l0.2-0.1c0,0,0.1,0,0.1,0c0,0,0,0.1,0,0.1v2.4l0.2-0.1
					c0,0,0.1,0,0.1,0c0,0,0,0.1,0,0.1v0.2c0,0.1,0,0.1,0,0.2c0,0-0.1,0.1-0.1,0.1L99.3,97v0.7c0,0.1,0,0.1,0,0.2
					c0,0-0.1,0.1-0.1,0.1L98.9,98C98.9,98,98.9,98,98.9,98z M98.9,96.6v-1.7L98.1,97L98.9,96.6z"/>
				<path id="XMLID_1360_" class="st9" d="M100.2,96.9c-0.2-0.2-0.3-0.7-0.3-1.4c0-0.7,0.1-1.2,0.3-1.7c0.2-0.5,0.5-0.8,0.9-1
					c0.2-0.1,0.3-0.1,0.4-0.2c0.1,0,0.2,0,0.3,0c0,0,0,0,0,0.1c0,0,0,0,0,0.1l-0.1,0.4c0,0,0,0.1,0,0.1c0,0,0,0,0,0
					c-0.2-0.1-0.3,0-0.6,0.1c-0.3,0.1-0.5,0.4-0.6,0.7c-0.2,0.3-0.2,0.8-0.2,1.3c0,0.5,0.1,0.9,0.2,1c0.1,0.2,0.3,0.2,0.6,0
					c0.1-0.1,0.2-0.1,0.3-0.2c0.1-0.1,0.2-0.2,0.2-0.2v-1.1l-0.5,0.3c0,0-0.1,0-0.1,0c0,0,0-0.1,0-0.1v-0.2c0-0.1,0-0.1,0-0.2
					c0,0,0.1-0.1,0.1-0.1l0.7-0.4c0.1,0,0.1,0,0.1,0c0,0,0,0.1,0,0.2v1.6c0,0.1,0,0.1,0,0.1c0,0,0,0.1,0,0.1
					c-0.2,0.3-0.5,0.6-0.9,0.8C100.7,97.1,100.4,97.1,100.2,96.9z"/>
			</g>
			<g id="XMLID_1306_">
				<path id="XMLID_1356_" class="st9" d="M164.2,57c-0.1-0.2-0.3-0.2-0.4-0.1l-4.4,2.4c-0.3,0.2-0.5,0.7-0.5,1.3V63
					c0,0.3,0.1,0.6,0.2,0.8c0.1,0.1,0.1,0.1,0.2,0.2c0.1,0,0.2,0,0.3,0l4.4-2.4c0.3-0.2,0.5-0.7,0.5-1.3v-2.4
					C164.4,57.5,164.4,57.2,164.2,57z M159.2,63.4c0-0.1-0.1-0.2-0.1-0.3v-2.4c0-0.4,0.2-0.9,0.4-1l4.4-2.4c0.1,0,0.1,0,0.1,0
					c0,0,0,0,0.1,0c0,0.1,0.1,0.2,0.1,0.3v2.4c0,0.4-0.2,0.9-0.4,1l-4.4,2.4C159.3,63.5,159.3,63.5,159.2,63.4z"/>
				<g id="XMLID_1353_">
					<path id="XMLID_1355_" class="st9" d="M163.7,58v2c0,0.4-0.2,0.7-0.5,0.9l-3.6,2c-0.1,0-0.1,0-0.1-0.1v-2.1
						c0-0.3,0.1-0.6,0.3-0.7l3.8-2.1C163.6,57.9,163.7,58,163.7,58z"/>
				</g>
				<g id="XMLID_1312_">
					<path id="XMLID_1313_" class="st9" d="M164.6,57.7c0.1-0.1,0.2,0.3,0.2,0.8v0.4c0,0.5-0.1,0.9-0.2,1l-0.2,0.1l0-2.2
						C164.4,57.8,164.5,57.8,164.6,57.7z"/>
				</g>
			</g>
			<g id="XMLID_626_">
				<g id="XMLID_1301_">
					<path id="XMLID_1302_" class="st9" d="M106.5,92.9c0,0.5-0.3,1.1-0.6,1.3c-0.4,0.2-0.6-0.1-0.6-0.6c0-0.5,0.3-1.1,0.6-1.3
						C106.2,92.1,106.5,92.4,106.5,92.9z"/>
				</g>
				<g id="XMLID_673_">
					<g id="XMLID_676_">
						<path id="XMLID_1277_" class="st9" d="M105.8,90.8c-0.6,0.4-1.2,1.2-1.5,2.1c-0.1,0.2,0,0.4,0.1,0.4l0,0
							c0.1,0.1,0.3-0.1,0.4-0.3c0.2-0.7,0.6-1.3,1-1.5c0.5-0.3,0.8-0.1,1,0.4c0.1,0.2,0.3,0.1,0.4-0.1l0,0c0.1-0.2,0.1-0.4,0.1-0.5
							C107,90.7,106.5,90.4,105.8,90.8z"/>
					</g>
				</g>
				<g id="XMLID_661_">
					<g id="XMLID_664_">
						<path id="XMLID_671_" class="st9" d="M105.8,89.3c-1,0.5-1.8,1.7-2.3,3.1c-0.1,0.2-0.1,0.4,0.1,0.5l0,0
							c0.1,0.1,0.3-0.1,0.4-0.3c0.4-1.1,1.1-2.1,1.9-2.5c0.8-0.4,1.5-0.2,1.9,0.5c0.1,0.1,0.2,0.1,0.4-0.1l0,0
							c0.1-0.2,0.1-0.4,0.1-0.5C107.6,89,106.8,88.7,105.8,89.3z"/>
					</g>
				</g>
			</g>
			<g>
				<path class="st9" d="M122.9,81.3c0,0,0-0.1,0-0.1c0,0,0-0.1,0-0.1l0.9-1.6c0,0,0-0.1,0.1-0.1c0,0,0-0.1,0.1-0.1l0.3-0.2
					c0,0,0.1,0,0.1,0c0,0,0,0.1,0,0.1v4c0,0,0,0.1,0,0.1c0,0,0,0.1-0.1,0.1l-0.3,0.2c0,0-0.1,0-0.1,0c0,0,0-0.1,0-0.1v-3.1l-0.6,1
					c0,0-0.1,0.1-0.1,0.1c0,0-0.1,0-0.1,0L122.9,81.3z"/>
				<path class="st9" d="M125,80.1c0,0,0-0.1,0-0.1c0,0,0-0.1,0-0.1l0.9-1.6c0,0,0-0.1,0.1-0.1c0,0,0-0.1,0.1-0.1l0.3-0.2
					c0,0,0.1,0,0.1,0c0,0,0,0.1,0,0.1v4c0,0,0,0.1,0,0.1c0,0,0,0.1-0.1,0.1l-0.3,0.2c0,0-0.1,0-0.1,0c0,0,0-0.1,0-0.1v-3.1l-0.6,1
					c0,0-0.1,0.1-0.1,0.1c0,0-0.1,0-0.1,0L125,80.1z"/>
				<path class="st9" d="M127.8,78.4C127.9,78.4,127.9,78.4,127.8,78.4c0.1,0,0.1,0.1,0.1,0.1v0.6c0,0,0,0.1,0,0.1
					c0,0,0,0.1-0.1,0.1l-0.4,0.2c0,0-0.1,0-0.1,0c0,0,0-0.1,0-0.1v-0.6c0,0,0-0.1,0-0.1c0,0,0-0.1,0.1-0.1L127.8,78.4z M127.8,80.6
					C127.9,80.6,127.9,80.6,127.8,80.6c0.1,0,0.1,0.1,0.1,0.1v0.6c0,0,0,0.1,0,0.1c0,0,0,0.1-0.1,0.1l-0.4,0.2c0,0-0.1,0-0.1,0
					c0,0,0-0.1,0-0.1V81c0,0,0-0.1,0-0.1c0,0,0-0.1,0.1-0.1L127.8,80.6z"/>
				<path class="st9" d="M130.1,80.3C130.1,80.3,130,80.3,130.1,80.3c-0.1,0-0.1-0.1-0.1-0.1v-0.8l-1.3,0.7c0,0-0.1,0-0.1,0
					c0,0,0-0.1,0-0.1v-0.4c0-0.1,0-0.1,0-0.2c0-0.1,0-0.1,0.1-0.2l1.3-3.1c0.1-0.1,0.1-0.2,0.2-0.3l0.3-0.2c0,0,0.1,0,0.1,0
					c0,0,0,0.1,0,0.1v2.5l0.4-0.2c0,0,0.1,0,0.1,0c0,0,0,0.1,0,0.1v0.4c0,0,0,0.1,0,0.1c0,0,0,0.1-0.1,0.1l-0.4,0.2v0.8
					c0,0,0,0.1,0,0.1c0,0,0,0.1-0.1,0.1L130.1,80.3z M130,78.6v-1.3l-0.7,1.7L130,78.6z"/>
				<path class="st9" d="M131.8,75.2c0,0,0-0.1,0-0.1c0,0,0-0.1,0.1-0.1l1.6-0.9c0,0,0.1,0,0.1,0c0,0,0,0.1,0,0.1v0.4
					c0,0,0,0.1,0,0.1c0,0,0,0.1-0.1,0.1l-1.2,0.7l0,0.8c0.1-0.1,0.2-0.2,0.2-0.2c0.1,0,0.1-0.1,0.2-0.1c0.2-0.1,0.3-0.1,0.4-0.1
					c0.1,0,0.3,0,0.4,0.1c0.1,0.1,0.2,0.2,0.2,0.3c0.1,0.1,0.1,0.3,0.1,0.6c0,0.3,0,0.5-0.1,0.7c-0.1,0.2-0.1,0.4-0.2,0.6
					c-0.1,0.2-0.2,0.3-0.4,0.5c-0.1,0.1-0.3,0.2-0.4,0.3c-0.2,0.1-0.4,0.2-0.5,0.2c-0.1,0-0.3,0-0.3-0.1c-0.1-0.1-0.2-0.2-0.2-0.3
					c0-0.1-0.1-0.3-0.1-0.4c0,0,0-0.1,0-0.1c0,0,0.1-0.1,0.1-0.1l0.3-0.2c0,0,0.1,0,0.1,0c0,0,0,0,0,0.1c0,0.1,0,0.2,0.1,0.2
					c0,0,0.1,0.1,0.1,0.1c0,0,0.1,0,0.2,0c0.1,0,0.1,0,0.2-0.1c0.2-0.1,0.3-0.2,0.4-0.4s0.1-0.4,0.1-0.6c0-0.2,0-0.3-0.1-0.4
					c-0.1-0.1-0.2-0.1-0.4,0c-0.1,0-0.2,0.1-0.2,0.1c0,0-0.1,0.1-0.1,0.1s-0.1,0.1-0.1,0.1c0,0-0.1,0.1-0.1,0.1l-0.4,0.2
					c0,0-0.1,0-0.1,0c0,0,0-0.1,0-0.1L131.8,75.2z"/>
			</g>
			<g>
				<polygon class="st9" points="88.3,103.9 88.3,102.6 89.5,101.9 89.5,103.2 				"/>
				<polygon class="st9" points="90.1,102.9 90.1,100.3 91.3,99.7 91.3,102.3 				"/>
				<polygon class="st9" points="91.9,101.9 91.9,98 93.1,97.4 93.1,101.3 				"/>
				<polygon class="st9" points="93.6,101 93.6,95.8 94.8,95.1 94.8,100.3 				"/>
			</g>
		</g>
	</g>
</g>
<g id="Stars_1_">
	<g id="Stars">
		<g id="XMLID_291_">
			<path class="st5" d="M282.5,67.5c0.3-0.6,0.3-1.2,0-1.4c-0.1-0.1-2.3-1.7-2.4-1.8c-0.1-0.1-0.2-0.1-0.4,0l-2.5,0.9l-0.9-2.1
				c0-0.1-0.1-0.1-0.1-0.2v0c0,0,0,0,0,0c0,0,0,0,0,0c-0.2-0.2-2.3-1.7-2.4-1.8c-0.3-0.3-0.9,0.2-1.1,0.9l-1.6,5.7
				c-0.1,0.4-0.3,0.7-0.5,0.8l-3.6,2.8c-0.6,0.4-0.8,1.6-0.4,2l2.6,2.3c0.2,0.1,0.2,0.4,0.2,0.8l-0.6,5.6c0,0.4,0.1,0.7,0.2,0.8
				c0.2,0.1,1.9,1.4,2.3,1.7c0,0,0.1,0,0.1,0.1l0,0l0,0c0.2,0.1,0.5,0,0.7-0.3l3.2-4.3c0.2-0.3,0.4-0.4,0.6-0.4l3.2,0.7
				c0.5,0.1,1.1-0.9,1-1.6l-0.6-4.9c0-0.3,0-0.7,0.2-1L282.5,67.5z"/>
			<path class="st10" d="M282.5,67.5c0.3-0.6,0.3-1.2,0-1.4c-0.1-0.1-2.3-1.7-2.4-1.8c-0.1-0.1-0.2-0.1-0.4,0l-2.5,0.9l-0.9-2.1
				c0-0.1-0.1-0.1-0.1-0.2v0c0,0,0,0,0,0c0,0,0,0,0,0c-0.2-0.2-2.3-1.7-2.4-1.8c-0.3-0.3-0.9,0.2-1.1,0.9l-1.6,5.7
				c-0.1,0.4-0.3,0.7-0.5,0.8l-3.6,2.8c-0.6,0.4-0.8,1.6-0.4,2l2.6,2.3c0.2,0.1,0.2,0.4,0.2,0.8l-0.6,5.6c0,0.4,0.1,0.7,0.2,0.8
				c0.2,0.1,1.9,1.4,2.3,1.7c0,0,0.1,0,0.1,0.1l0,0l0,0c0.2,0.1,0.5,0,0.7-0.3l3.2-4.3c0.2-0.3,0.4-0.4,0.6-0.4l3.2,0.7
				c0.5,0.1,1.1-0.9,1-1.6l-0.6-4.9c0-0.3,0-0.7,0.2-1L282.5,67.5z"/>
			<path class="st5" d="M276.2,62.7c-0.3-0.2-0.8,0.2-1.1,0.9l-1.6,5.7c-0.1,0.2-0.2,0.4-0.3,0.6l-2.4-1.7c0.1-0.2,0.2-0.4,0.3-0.6
				l1.6-5.7c0.2-0.8,0.8-1.2,1.1-0.9C274,61.1,275.8,62.4,276.2,62.7z"/>
			<path class="st11" d="M276.2,62.7c-0.3-0.2-0.8,0.2-1.1,0.9l-1.6,5.7c-0.1,0.2-0.2,0.4-0.3,0.6l-2.4-1.7c0.1-0.2,0.2-0.4,0.3-0.6
				l1.6-5.7c0.2-0.8,0.8-1.2,1.1-0.9C274,61.1,275.8,62.4,276.2,62.7z"/>
			<path id="XMLID_363_" class="st5" d="M276.4,63l1.6,3.9c0.1,0.2,0.3,0.3,0.5,0.3l3.6-1.2c0.6-0.2,0.8,0.7,0.4,1.5l-2.6,5.2
				c-0.2,0.3-0.2,0.7-0.2,1l0.6,4.9c0.1,0.8-0.5,1.8-1,1.6l-3.2-0.7c-0.2,0-0.4,0.1-0.6,0.4l-3.2,4.3c-0.5,0.7-1.1,0.4-1-0.5
				l0.6-5.6c0-0.4,0-0.7-0.2-0.8l-2.6-2.3c-0.4-0.4-0.2-1.5,0.4-2l3.6-2.8c0.2-0.2,0.4-0.5,0.5-0.8l1.6-5.7
				C275.4,62.8,276.2,62.3,276.4,63z"/>
			<path class="st5" d="M271.9,77.7L271.9,77.7c0-0.2-0.1-0.4-0.2-0.5l-2.6-2.3c-0.2-0.2-0.2-0.5-0.2-0.9l-2.4-1.7
				c-0.1,0.4,0,0.7,0.2,0.9l2.6,2.3c0.1,0.1,0.1,0.2,0.2,0.3l0,0c0,0.1,0,0.2,0,0.3c0,0.1,0,0.1,0,0.2l-0.6,5.6
				c0,0.4,0.1,0.7,0.2,0.8c0.2,0.1,1.9,1.4,2.3,1.7c-0.2-0.1-0.2-0.4-0.2-0.8l0.6-5.6c0,0,0-0.1,0-0.1v0
				C271.9,77.7,271.9,77.7,271.9,77.7z"/>
			<path class="st11" d="M271.9,77.7L271.9,77.7c0-0.2-0.1-0.4-0.2-0.5l-2.6-2.3c-0.2-0.2-0.2-0.5-0.2-0.9l-2.4-1.7
				c-0.1,0.4,0,0.7,0.2,0.9l2.6,2.3c0.1,0.1,0.1,0.2,0.2,0.3l0,0c0,0.1,0,0.2,0,0.3c0,0.1,0,0.1,0,0.2l-0.6,5.6
				c0,0.4,0.1,0.7,0.2,0.8c0.2,0.1,1.9,1.4,2.3,1.7c-0.2-0.1-0.2-0.4-0.2-0.8l0.6-5.6c0,0,0-0.1,0-0.1v0
				C271.9,77.7,271.9,77.7,271.9,77.7z"/>
		</g>
		<g id="XMLID_369_">
			<path class="st5" d="M255,93c0.3-0.6,0.3-1.2,0-1.4c-0.1-0.1-2.3-1.7-2.4-1.8c-0.1-0.1-0.2-0.1-0.4,0l-2.5,0.9l-0.9-2.1
				c0-0.1-0.1-0.1-0.1-0.2v0c0,0,0,0,0,0c0,0,0,0,0,0c-0.2-0.2-2.3-1.7-2.4-1.8c-0.3-0.3-0.9,0.2-1.1,0.9l-1.6,5.7
				c-0.1,0.4-0.3,0.7-0.5,0.8l-3.6,2.8c-0.6,0.4-0.8,1.6-0.4,2l2.6,2.3c0.2,0.1,0.2,0.4,0.2,0.8l-0.6,5.6c0,0.4,0.1,0.7,0.2,0.8
				c0.2,0.1,1.9,1.4,2.3,1.7c0,0,0.1,0,0.1,0.1h0l0,0c0.2,0.1,0.5,0,0.7-0.3l3.2-4.3c0.2-0.3,0.4-0.4,0.6-0.4l3.2,0.7
				c0.5,0.1,1.1-0.9,1-1.6l-0.6-4.9c0-0.3,0-0.7,0.2-1L255,93z"/>
			<path class="st10" d="M255,93c0.3-0.6,0.3-1.2,0-1.4c-0.1-0.1-2.3-1.7-2.4-1.8c-0.1-0.1-0.2-0.1-0.4,0l-2.5,0.9l-0.9-2.1
				c0-0.1-0.1-0.1-0.1-0.2v0c0,0,0,0,0,0c0,0,0,0,0,0c-0.2-0.2-2.3-1.7-2.4-1.8c-0.3-0.3-0.9,0.2-1.1,0.9l-1.6,5.7
				c-0.1,0.4-0.3,0.7-0.5,0.8l-3.6,2.8c-0.6,0.4-0.8,1.6-0.4,2l2.6,2.3c0.2,0.1,0.2,0.4,0.2,0.8l-0.6,5.6c0,0.4,0.1,0.7,0.2,0.8
				c0.2,0.1,1.9,1.4,2.3,1.7c0,0,0.1,0,0.1,0.1h0l0,0c0.2,0.1,0.5,0,0.7-0.3l3.2-4.3c0.2-0.3,0.4-0.4,0.6-0.4l3.2,0.7
				c0.5,0.1,1.1-0.9,1-1.6l-0.6-4.9c0-0.3,0-0.7,0.2-1L255,93z"/>
			<path class="st5" d="M248.7,88.2c-0.3-0.2-0.8,0.2-1.1,0.9l-1.6,5.7c-0.1,0.2-0.2,0.4-0.3,0.6l-2.4-1.7c0.1-0.2,0.2-0.4,0.3-0.6
				l1.6-5.7c0.2-0.8,0.8-1.2,1.1-0.9C246.5,86.6,248.3,87.9,248.7,88.2z"/>
			<path class="st11" d="M248.7,88.2c-0.3-0.2-0.8,0.2-1.1,0.9l-1.6,5.7c-0.1,0.2-0.2,0.4-0.3,0.6l-2.4-1.7c0.1-0.2,0.2-0.4,0.3-0.6
				l1.6-5.7c0.2-0.8,0.8-1.2,1.1-0.9C246.5,86.6,248.3,87.9,248.7,88.2z"/>
			<path id="XMLID_371_" class="st5" d="M248.9,88.5l1.6,3.9c0.1,0.2,0.3,0.3,0.5,0.3l3.6-1.2c0.6-0.2,0.8,0.7,0.4,1.5l-2.6,5.2
				c-0.2,0.3-0.2,0.7-0.2,1l0.6,4.9c0.1,0.8-0.5,1.8-1,1.6l-3.2-0.7c-0.2,0-0.4,0.1-0.6,0.4l-3.2,4.3c-0.5,0.7-1.1,0.4-1-0.5
				l0.6-5.6c0-0.4,0-0.7-0.2-0.8l-2.6-2.3c-0.4-0.4-0.2-1.5,0.4-2l3.6-2.8c0.2-0.2,0.4-0.5,0.5-0.8l1.6-5.7
				C247.9,88.2,248.7,87.8,248.9,88.5z"/>
			<path class="st5" d="M244.4,103.2L244.4,103.2c0-0.2-0.1-0.4-0.2-0.5l-2.6-2.3c-0.2-0.2-0.2-0.5-0.2-0.9l-2.4-1.7
				c-0.1,0.4,0,0.7,0.2,0.9l2.6,2.3c0.1,0.1,0.1,0.2,0.2,0.3l0,0c0,0.1,0,0.2,0,0.3c0,0.1,0,0.1,0,0.2l-0.6,5.6
				c0,0.4,0.1,0.7,0.2,0.8c0.2,0.1,1.9,1.4,2.3,1.7c-0.2-0.1-0.2-0.4-0.2-0.8l0.6-5.6c0,0,0-0.1,0-0.1v0
				C244.4,103.2,244.4,103.2,244.4,103.2z"/>
			<path class="st11" d="M244.4,103.2L244.4,103.2c0-0.2-0.1-0.4-0.2-0.5l-2.6-2.3c-0.2-0.2-0.2-0.5-0.2-0.9l-2.4-1.7
				c-0.1,0.4,0,0.7,0.2,0.9l2.6,2.3c0.1,0.1,0.1,0.2,0.2,0.3l0,0c0,0.1,0,0.2,0,0.3c0,0.1,0,0.1,0,0.2l-0.6,5.6
				c0,0.4,0.1,0.7,0.2,0.8c0.2,0.1,1.9,1.4,2.3,1.7c-0.2-0.1-0.2-0.4-0.2-0.8l0.6-5.6c0,0,0-0.1,0-0.1v0
				C244.4,103.2,244.4,103.2,244.4,103.2z"/>
		</g>
		<g id="XMLID_373_">
			<path class="st5" d="M235.1,130.2c0.3-0.6,0.3-1.2,0-1.4c-0.1-0.1-2.3-1.7-2.4-1.8c-0.1-0.1-0.2-0.1-0.4,0l-2.5,0.9l-0.9-2.1
				c0-0.1-0.1-0.1-0.1-0.2v0c0,0,0,0,0,0c0,0,0,0,0,0c-0.2-0.2-2.3-1.7-2.4-1.8c-0.3-0.3-0.9,0.2-1.1,0.9l-1.6,5.7
				c-0.1,0.4-0.3,0.7-0.5,0.8l-3.6,2.8c-0.6,0.4-0.8,1.6-0.4,2l2.6,2.3c0.2,0.1,0.2,0.4,0.2,0.8l-0.6,5.6c0,0.4,0.1,0.7,0.2,0.8
				c0.2,0.1,1.9,1.4,2.3,1.7c0,0,0.1,0,0.1,0.1l0,0l0,0c0.2,0.1,0.5,0,0.7-0.3l3.2-4.3c0.2-0.3,0.4-0.4,0.6-0.4l3.2,0.7
				c0.5,0.1,1.1-0.9,1-1.6l-0.6-4.9c0-0.3,0-0.7,0.2-1L235.1,130.2z"/>
			<path class="st10" d="M235.1,130.2c0.3-0.6,0.3-1.2,0-1.4c-0.1-0.1-2.3-1.7-2.4-1.8c-0.1-0.1-0.2-0.1-0.4,0l-2.5,0.9l-0.9-2.1
				c0-0.1-0.1-0.1-0.1-0.2v0c0,0,0,0,0,0c0,0,0,0,0,0c-0.2-0.2-2.3-1.7-2.4-1.8c-0.3-0.3-0.9,0.2-1.1,0.9l-1.6,5.7
				c-0.1,0.4-0.3,0.7-0.5,0.8l-3.6,2.8c-0.6,0.4-0.8,1.6-0.4,2l2.6,2.3c0.2,0.1,0.2,0.4,0.2,0.8l-0.6,5.6c0,0.4,0.1,0.7,0.2,0.8
				c0.2,0.1,1.9,1.4,2.3,1.7c0,0,0.1,0,0.1,0.1l0,0l0,0c0.2,0.1,0.5,0,0.7-0.3l3.2-4.3c0.2-0.3,0.4-0.4,0.6-0.4l3.2,0.7
				c0.5,0.1,1.1-0.9,1-1.6l-0.6-4.9c0-0.3,0-0.7,0.2-1L235.1,130.2z"/>
			<path class="st5" d="M228.8,125.5c-0.3-0.2-0.8,0.2-1.1,0.9l-1.6,5.7c-0.1,0.2-0.2,0.4-0.3,0.6l-2.4-1.7c0.1-0.2,0.2-0.4,0.3-0.6
				l1.6-5.7c0.2-0.8,0.8-1.2,1.1-0.9C226.5,123.8,228.4,125.1,228.8,125.5z"/>
			<path class="st11" d="M228.8,125.5c-0.3-0.2-0.8,0.2-1.1,0.9l-1.6,5.7c-0.1,0.2-0.2,0.4-0.3,0.6l-2.4-1.7
				c0.1-0.2,0.2-0.4,0.3-0.6l1.6-5.7c0.2-0.8,0.8-1.2,1.1-0.9C226.5,123.8,228.4,125.1,228.8,125.5z"/>
			<path id="XMLID_374_" class="st5" d="M229,125.7l1.6,3.9c0.1,0.2,0.3,0.3,0.5,0.3l3.6-1.2c0.6-0.2,0.8,0.7,0.4,1.5l-2.6,5.2
				c-0.2,0.3-0.2,0.7-0.2,1l0.6,4.9c0.1,0.8-0.5,1.8-1,1.6l-3.2-0.7c-0.2,0-0.4,0.1-0.6,0.4l-3.2,4.3c-0.5,0.7-1.1,0.4-1-0.5
				l0.6-5.6c0-0.4,0-0.7-0.2-0.8l-2.6-2.3c-0.4-0.4-0.2-1.5,0.4-2l3.6-2.8c0.2-0.2,0.4-0.5,0.5-0.8l1.6-5.7
				C228,125.5,228.7,125.1,229,125.7z"/>
			<path class="st5" d="M224.4,140.4L224.4,140.4c0-0.2-0.1-0.4-0.2-0.5l-2.6-2.3c-0.2-0.2-0.2-0.5-0.2-0.9l-2.4-1.7
				c-0.1,0.4,0,0.7,0.2,0.9l2.6,2.3c0.1,0.1,0.1,0.2,0.2,0.3l0,0c0,0.1,0,0.2,0,0.3c0,0.1,0,0.1,0,0.2l-0.6,5.6
				c0,0.4,0.1,0.7,0.2,0.8c0.2,0.1,1.9,1.4,2.3,1.7c-0.2-0.1-0.2-0.4-0.2-0.8l0.6-5.6c0,0,0-0.1,0-0.1v0
				C224.4,140.5,224.4,140.4,224.4,140.4z"/>
			<path class="st11" d="M224.4,140.4L224.4,140.4c0-0.2-0.1-0.4-0.2-0.5l-2.6-2.3c-0.2-0.2-0.2-0.5-0.2-0.9l-2.4-1.7
				c-0.1,0.4,0,0.7,0.2,0.9l2.6,2.3c0.1,0.1,0.1,0.2,0.2,0.3l0,0c0,0.1,0,0.2,0,0.3c0,0.1,0,0.1,0,0.2l-0.6,5.6
				c0,0.4,0.1,0.7,0.2,0.8c0.2,0.1,1.9,1.4,2.3,1.7c-0.2-0.1-0.2-0.4-0.2-0.8l0.6-5.6c0,0,0-0.1,0-0.1v0
				C224.4,140.5,224.4,140.4,224.4,140.4z"/>
		</g>
		<g id="XMLID_376_">
			<path class="st5" d="M228.1,170.2c0.3-0.6,0.3-1.2,0-1.4c-0.1-0.1-2.3-1.7-2.4-1.8c-0.1-0.1-0.2-0.1-0.4,0l-2.5,0.9l-0.9-2.1
				c0-0.1-0.1-0.1-0.1-0.2v0c0,0,0,0,0,0c0,0,0,0,0,0c-0.2-0.2-2.3-1.7-2.4-1.8c-0.3-0.3-0.9,0.2-1.1,0.9l-1.6,5.7
				c-0.1,0.4-0.3,0.7-0.5,0.8l-3.6,2.8c-0.6,0.4-0.8,1.6-0.4,2l2.6,2.3c0.2,0.1,0.2,0.4,0.2,0.8l-0.6,5.6c0,0.4,0.1,0.7,0.2,0.8
				c0.2,0.1,1.9,1.4,2.3,1.7c0,0,0.1,0,0.1,0.1l0,0l0,0c0.2,0.1,0.5,0,0.7-0.3l3.2-4.3c0.2-0.3,0.4-0.4,0.6-0.4l3.2,0.7
				c0.5,0.1,1.1-0.9,1-1.6l-0.6-4.9c0-0.3,0-0.7,0.2-1L228.1,170.2z"/>
			<path class="st10" d="M228.1,170.2c0.3-0.6,0.3-1.2,0-1.4c-0.1-0.1-2.3-1.7-2.4-1.8c-0.1-0.1-0.2-0.1-0.4,0l-2.5,0.9l-0.9-2.1
				c0-0.1-0.1-0.1-0.1-0.2v0c0,0,0,0,0,0c0,0,0,0,0,0c-0.2-0.2-2.3-1.7-2.4-1.8c-0.3-0.3-0.9,0.2-1.1,0.9l-1.6,5.7
				c-0.1,0.4-0.3,0.7-0.5,0.8l-3.6,2.8c-0.6,0.4-0.8,1.6-0.4,2l2.6,2.3c0.2,0.1,0.2,0.4,0.2,0.8l-0.6,5.6c0,0.4,0.1,0.7,0.2,0.8
				c0.2,0.1,1.9,1.4,2.3,1.7c0,0,0.1,0,0.1,0.1l0,0l0,0c0.2,0.1,0.5,0,0.7-0.3l3.2-4.3c0.2-0.3,0.4-0.4,0.6-0.4l3.2,0.7
				c0.5,0.1,1.1-0.9,1-1.6l-0.6-4.9c0-0.3,0-0.7,0.2-1L228.1,170.2z"/>
			<path class="st5" d="M221.8,165.4c-0.3-0.2-0.8,0.2-1.1,0.9l-1.6,5.7c-0.1,0.2-0.2,0.4-0.3,0.6l-2.4-1.7c0.1-0.2,0.2-0.4,0.3-0.6
				l1.6-5.7c0.2-0.8,0.8-1.2,1.1-0.9C219.5,163.8,221.4,165.1,221.8,165.4z"/>
			<path class="st11" d="M221.8,165.4c-0.3-0.2-0.8,0.2-1.1,0.9l-1.6,5.7c-0.1,0.2-0.2,0.4-0.3,0.6l-2.4-1.7
				c0.1-0.2,0.2-0.4,0.3-0.6l1.6-5.7c0.2-0.8,0.8-1.2,1.1-0.9C219.5,163.8,221.4,165.1,221.8,165.4z"/>
			<path id="XMLID_420_" class="st5" d="M222,165.7l1.6,3.9c0.1,0.2,0.3,0.3,0.5,0.3l3.6-1.2c0.6-0.2,0.8,0.7,0.4,1.5l-2.6,5.2
				c-0.2,0.3-0.2,0.7-0.2,1l0.6,4.9c0.1,0.8-0.5,1.8-1,1.6l-3.2-0.7c-0.2,0-0.4,0.1-0.6,0.4l-3.2,4.3c-0.5,0.7-1.1,0.4-1-0.5
				l0.6-5.6c0-0.4,0-0.7-0.2-0.8l-2.6-2.3c-0.4-0.4-0.2-1.5,0.4-2l3.6-2.8c0.2-0.2,0.4-0.5,0.5-0.8l1.6-5.7
				C221,165.5,221.7,165,222,165.7z"/>
			<path class="st5" d="M217.4,180.4L217.4,180.4c0-0.2-0.1-0.4-0.2-0.5l-2.6-2.3c-0.2-0.2-0.2-0.5-0.2-0.9l-2.4-1.7
				c-0.1,0.4,0,0.7,0.2,0.9l2.6,2.3c0.1,0.1,0.1,0.2,0.2,0.3l0,0c0,0.1,0,0.2,0,0.3c0,0.1,0,0.1,0,0.2l-0.6,5.6
				c0,0.4,0.1,0.7,0.2,0.8c0.2,0.1,1.9,1.4,2.3,1.7c-0.2-0.1-0.2-0.4-0.2-0.8l0.6-5.6c0,0,0-0.1,0-0.1v0
				C217.4,180.4,217.4,180.4,217.4,180.4z"/>
			<path class="st11" d="M217.4,180.4L217.4,180.4c0-0.2-0.1-0.4-0.2-0.5l-2.6-2.3c-0.2-0.2-0.2-0.5-0.2-0.9l-2.4-1.7
				c-0.1,0.4,0,0.7,0.2,0.9l2.6,2.3c0.1,0.1,0.1,0.2,0.2,0.3l0,0c0,0.1,0,0.2,0,0.3c0,0.1,0,0.1,0,0.2l-0.6,5.6
				c0,0.4,0.1,0.7,0.2,0.8c0.2,0.1,1.9,1.4,2.3,1.7c-0.2-0.1-0.2-0.4-0.2-0.8l0.6-5.6c0,0,0-0.1,0-0.1v0
				C217.4,180.4,217.4,180.4,217.4,180.4z"/>
		</g>
		<g id="XMLID_560_">
			<path class="st5" d="M236.2,200.8c0.3-0.6,0.3-1.2,0-1.4c-0.1-0.1-2.3-1.7-2.4-1.8c-0.1-0.1-0.2-0.1-0.4,0l-2.5,0.9l-0.9-2.1
				c0-0.1-0.1-0.1-0.1-0.2v0c0,0,0,0,0,0c0,0,0,0,0,0c-0.2-0.2-2.3-1.7-2.4-1.8c-0.3-0.3-0.9,0.2-1.1,0.9l-1.6,5.7
				c-0.1,0.4-0.3,0.7-0.5,0.8l-3.6,2.8c-0.6,0.4-0.8,1.6-0.4,2l2.6,2.3c0.2,0.1,0.2,0.4,0.2,0.8l-0.6,5.6c0,0.4,0.1,0.7,0.2,0.8
				c0.2,0.1,1.9,1.4,2.3,1.7c0,0,0.1,0,0.1,0.1l0,0l0,0c0.2,0.1,0.5,0,0.7-0.3l3.2-4.3c0.2-0.3,0.4-0.4,0.6-0.4l3.2,0.7
				c0.5,0.1,1.1-0.9,1-1.6l-0.6-4.9c0-0.3,0-0.7,0.2-1L236.2,200.8z"/>
			<path class="st10" d="M236.2,200.8c0.3-0.6,0.3-1.2,0-1.4c-0.1-0.1-2.3-1.7-2.4-1.8c-0.1-0.1-0.2-0.1-0.4,0l-2.5,0.9l-0.9-2.1
				c0-0.1-0.1-0.1-0.1-0.2v0c0,0,0,0,0,0c0,0,0,0,0,0c-0.2-0.2-2.3-1.7-2.4-1.8c-0.3-0.3-0.9,0.2-1.1,0.9l-1.6,5.7
				c-0.1,0.4-0.3,0.7-0.5,0.8l-3.6,2.8c-0.6,0.4-0.8,1.6-0.4,2l2.6,2.3c0.2,0.1,0.2,0.4,0.2,0.8l-0.6,5.6c0,0.4,0.1,0.7,0.2,0.8
				c0.2,0.1,1.9,1.4,2.3,1.7c0,0,0.1,0,0.1,0.1l0,0l0,0c0.2,0.1,0.5,0,0.7-0.3l3.2-4.3c0.2-0.3,0.4-0.4,0.6-0.4l3.2,0.7
				c0.5,0.1,1.1-0.9,1-1.6l-0.6-4.9c0-0.3,0-0.7,0.2-1L236.2,200.8z"/>
			<path class="st5" d="M229.9,196c-0.3-0.2-0.8,0.2-1.1,0.9l-1.6,5.7c-0.1,0.2-0.2,0.4-0.3,0.6l-2.4-1.7c0.1-0.2,0.2-0.4,0.3-0.6
				l1.6-5.7c0.2-0.8,0.8-1.2,1.1-0.9C227.6,194.4,229.4,195.7,229.9,196z"/>
			<path class="st11" d="M229.9,196c-0.3-0.2-0.8,0.2-1.1,0.9l-1.6,5.7c-0.1,0.2-0.2,0.4-0.3,0.6l-2.4-1.7c0.1-0.2,0.2-0.4,0.3-0.6
				l1.6-5.7c0.2-0.8,0.8-1.2,1.1-0.9C227.6,194.4,229.4,195.7,229.9,196z"/>
			<path id="XMLID_563_" class="st5" d="M230.1,196.3l1.6,3.9c0.1,0.2,0.3,0.3,0.5,0.3l3.6-1.2c0.6-0.2,0.8,0.7,0.4,1.5l-2.6,5.2
				c-0.2,0.3-0.2,0.7-0.2,1l0.6,4.9c0.1,0.8-0.5,1.8-1,1.6l-3.2-0.7c-0.2,0-0.4,0.1-0.6,0.4l-3.2,4.3c-0.5,0.7-1.1,0.4-1-0.5
				l0.6-5.6c0-0.4,0-0.7-0.2-0.8l-2.6-2.3c-0.4-0.4-0.2-1.5,0.4-2l3.6-2.8c0.2-0.2,0.4-0.5,0.5-0.8l1.6-5.7
				C229.1,196.1,229.8,195.7,230.1,196.3z"/>
			<path class="st5" d="M225.5,211L225.5,211c0-0.2-0.1-0.4-0.2-0.5l-2.6-2.3c-0.2-0.2-0.2-0.5-0.2-0.9l-2.4-1.7
				c-0.1,0.4,0,0.7,0.2,0.9l2.6,2.3c0.1,0.1,0.1,0.2,0.2,0.3l0,0c0,0.1,0,0.2,0,0.3c0,0.1,0,0.1,0,0.2l-0.6,5.6
				c0,0.4,0.1,0.7,0.2,0.8c0.2,0.1,1.9,1.4,2.3,1.7c-0.2-0.1-0.2-0.4-0.2-0.8l0.6-5.6c0,0,0-0.1,0-0.1v0
				C225.5,211,225.5,211,225.5,211z"/>
			<path class="st11" d="M225.5,211L225.5,211c0-0.2-0.1-0.4-0.2-0.5l-2.6-2.3c-0.2-0.2-0.2-0.5-0.2-0.9l-2.4-1.7
				c-0.1,0.4,0,0.7,0.2,0.9l2.6,2.3c0.1,0.1,0.1,0.2,0.2,0.3l0,0c0,0.1,0,0.2,0,0.3c0,0.1,0,0.1,0,0.2l-0.6,5.6
				c0,0.4,0.1,0.7,0.2,0.8c0.2,0.1,1.9,1.4,2.3,1.7c-0.2-0.1-0.2-0.4-0.2-0.8l0.6-5.6c0,0,0-0.1,0-0.1v0
				C225.5,211,225.5,211,225.5,211z"/>
		</g>
		<g id="XMLID_564_">
			<path class="st5" d="M256.7,214.9c0.3-0.6,0.3-1.2,0-1.4c-0.1-0.1-2.3-1.7-2.4-1.8c-0.1-0.1-0.2-0.1-0.4,0l-2.5,0.9l-0.9-2.1
				c0-0.1-0.1-0.1-0.1-0.2v0c0,0,0,0,0,0c0,0,0,0,0,0c-0.2-0.2-2.3-1.7-2.4-1.8c-0.3-0.3-0.9,0.2-1.1,0.9l-1.6,5.7
				c-0.1,0.4-0.3,0.7-0.5,0.8l-3.6,2.8c-0.6,0.4-0.8,1.6-0.4,2l2.6,2.3c0.2,0.1,0.2,0.4,0.2,0.8l-0.6,5.6c0,0.4,0.1,0.7,0.2,0.8
				c0.2,0.1,1.9,1.4,2.3,1.7c0,0,0.1,0,0.1,0.1l0,0l0,0c0.2,0.1,0.5,0,0.7-0.3l3.2-4.3c0.2-0.3,0.4-0.4,0.6-0.4l3.2,0.7
				c0.5,0.1,1.1-0.9,1-1.6l-0.6-4.9c0-0.3,0-0.7,0.2-1L256.7,214.9z"/>
			<path class="st10" d="M256.7,214.9c0.3-0.6,0.3-1.2,0-1.4c-0.1-0.1-2.3-1.7-2.4-1.8c-0.1-0.1-0.2-0.1-0.4,0l-2.5,0.9l-0.9-2.1
				c0-0.1-0.1-0.1-0.1-0.2v0c0,0,0,0,0,0c0,0,0,0,0,0c-0.2-0.2-2.3-1.7-2.4-1.8c-0.3-0.3-0.9,0.2-1.1,0.9l-1.6,5.7
				c-0.1,0.4-0.3,0.7-0.5,0.8l-3.6,2.8c-0.6,0.4-0.8,1.6-0.4,2l2.6,2.3c0.2,0.1,0.2,0.4,0.2,0.8l-0.6,5.6c0,0.4,0.1,0.7,0.2,0.8
				c0.2,0.1,1.9,1.4,2.3,1.7c0,0,0.1,0,0.1,0.1l0,0l0,0c0.2,0.1,0.5,0,0.7-0.3l3.2-4.3c0.2-0.3,0.4-0.4,0.6-0.4l3.2,0.7
				c0.5,0.1,1.1-0.9,1-1.6l-0.6-4.9c0-0.3,0-0.7,0.2-1L256.7,214.9z"/>
			<path class="st5" d="M250.4,210.1c-0.3-0.2-0.8,0.2-1.1,0.9l-1.6,5.7c-0.1,0.2-0.2,0.4-0.3,0.6l-2.4-1.7c0.1-0.2,0.2-0.4,0.3-0.6
				l1.6-5.7c0.2-0.8,0.8-1.2,1.1-0.9C248.2,208.5,250,209.8,250.4,210.1z"/>
			<path class="st11" d="M250.4,210.1c-0.3-0.2-0.8,0.2-1.1,0.9l-1.6,5.7c-0.1,0.2-0.2,0.4-0.3,0.6l-2.4-1.7
				c0.1-0.2,0.2-0.4,0.3-0.6l1.6-5.7c0.2-0.8,0.8-1.2,1.1-0.9C248.2,208.5,250,209.8,250.4,210.1z"/>
			<path id="XMLID_565_" class="st5" d="M250.6,210.4l1.6,3.9c0.1,0.2,0.3,0.3,0.5,0.3l3.6-1.2c0.6-0.2,0.8,0.7,0.4,1.5l-2.6,5.2
				c-0.2,0.3-0.2,0.7-0.2,1l0.6,4.9c0.1,0.8-0.5,1.8-1,1.6l-3.2-0.7c-0.2,0-0.4,0.1-0.6,0.4l-3.2,4.3c-0.5,0.7-1.1,0.4-1-0.5
				l0.6-5.6c0-0.4,0-0.7-0.2-0.8l-2.6-2.3c-0.4-0.4-0.2-1.5,0.4-2l3.6-2.8c0.2-0.2,0.4-0.5,0.5-0.8l1.6-5.7
				C249.6,210.1,250.4,209.7,250.6,210.4z"/>
			<path class="st5" d="M246.1,225.1L246.1,225.1c0-0.2-0.1-0.4-0.2-0.5l-2.6-2.3c-0.2-0.2-0.2-0.5-0.2-0.9l-2.4-1.7
				c-0.1,0.4,0,0.7,0.2,0.9l2.6,2.3c0.1,0.1,0.1,0.2,0.2,0.3l0,0c0,0.1,0,0.2,0,0.3c0,0.1,0,0.1,0,0.2l-0.6,5.6
				c0,0.4,0.1,0.7,0.2,0.8c0.2,0.1,1.9,1.4,2.3,1.7c-0.2-0.1-0.2-0.4-0.2-0.8l0.6-5.6c0,0,0-0.1,0-0.1v0
				C246.1,225.1,246.1,225.1,246.1,225.1z"/>
			<path class="st11" d="M246.1,225.1L246.1,225.1c0-0.2-0.1-0.4-0.2-0.5l-2.6-2.3c-0.2-0.2-0.2-0.5-0.2-0.9l-2.4-1.7
				c-0.1,0.4,0,0.7,0.2,0.9l2.6,2.3c0.1,0.1,0.1,0.2,0.2,0.3l0,0c0,0.1,0,0.2,0,0.3c0,0.1,0,0.1,0,0.2l-0.6,5.6
				c0,0.4,0.1,0.7,0.2,0.8c0.2,0.1,1.9,1.4,2.3,1.7c-0.2-0.1-0.2-0.4-0.2-0.8l0.6-5.6c0,0,0-0.1,0-0.1v0
				C246.1,225.1,246.1,225.1,246.1,225.1z"/>
		</g>
		<g id="XMLID_594_">
			<path class="st5" d="M285,208.2c0.3-0.6,0.3-1.2,0-1.4c-0.1-0.1-2.3-1.7-2.4-1.8c-0.1-0.1-0.2-0.1-0.4,0l-2.5,0.9l-0.9-2.1
				c0-0.1-0.1-0.1-0.1-0.2v0c0,0,0,0,0,0c0,0,0,0,0,0c-0.2-0.2-2.3-1.7-2.4-1.8c-0.3-0.3-0.9,0.2-1.1,0.9l-1.6,5.7
				c-0.1,0.4-0.3,0.7-0.5,0.8l-3.6,2.8c-0.6,0.4-0.8,1.6-0.4,2l2.6,2.3c0.2,0.1,0.2,0.4,0.2,0.8l-0.6,5.6c0,0.4,0.1,0.7,0.2,0.8
				c0.2,0.1,1.9,1.4,2.3,1.7c0,0,0.1,0,0.1,0.1l0,0l0,0c0.2,0.1,0.5,0,0.7-0.3l3.2-4.3c0.2-0.3,0.4-0.4,0.6-0.4l3.2,0.7
				c0.5,0.1,1.1-0.9,1-1.6l-0.6-4.9c0-0.3,0-0.7,0.2-1L285,208.2z"/>
			<path class="st10" d="M285,208.2c0.3-0.6,0.3-1.2,0-1.4c-0.1-0.1-2.3-1.7-2.4-1.8c-0.1-0.1-0.2-0.1-0.4,0l-2.5,0.9l-0.9-2.1
				c0-0.1-0.1-0.1-0.1-0.2v0c0,0,0,0,0,0c0,0,0,0,0,0c-0.2-0.2-2.3-1.7-2.4-1.8c-0.3-0.3-0.9,0.2-1.1,0.9l-1.6,5.7
				c-0.1,0.4-0.3,0.7-0.5,0.8l-3.6,2.8c-0.6,0.4-0.8,1.6-0.4,2l2.6,2.3c0.2,0.1,0.2,0.4,0.2,0.8l-0.6,5.6c0,0.4,0.1,0.7,0.2,0.8
				c0.2,0.1,1.9,1.4,2.3,1.7c0,0,0.1,0,0.1,0.1l0,0l0,0c0.2,0.1,0.5,0,0.7-0.3l3.2-4.3c0.2-0.3,0.4-0.4,0.6-0.4l3.2,0.7
				c0.5,0.1,1.1-0.9,1-1.6l-0.6-4.9c0-0.3,0-0.7,0.2-1L285,208.2z"/>
			<path class="st5" d="M278.7,203.4c-0.3-0.2-0.8,0.2-1.1,0.9l-1.6,5.7c-0.1,0.2-0.2,0.4-0.3,0.6l-2.4-1.7c0.1-0.2,0.2-0.4,0.3-0.6
				l1.6-5.7c0.2-0.8,0.8-1.2,1.1-0.9C276.5,201.8,278.3,203.1,278.7,203.4z"/>
			<path class="st11" d="M278.7,203.4c-0.3-0.2-0.8,0.2-1.1,0.9l-1.6,5.7c-0.1,0.2-0.2,0.4-0.3,0.6l-2.4-1.7
				c0.1-0.2,0.2-0.4,0.3-0.6l1.6-5.7c0.2-0.8,0.8-1.2,1.1-0.9C276.5,201.8,278.3,203.1,278.7,203.4z"/>
			<path id="XMLID_595_" class="st5" d="M278.9,203.7l1.6,3.9c0.1,0.2,0.3,0.3,0.5,0.3l3.6-1.2c0.6-0.2,0.8,0.7,0.4,1.5l-2.6,5.2
				c-0.2,0.3-0.2,0.7-0.2,1l0.6,4.9c0.1,0.8-0.5,1.8-1,1.6l-3.2-0.7c-0.2,0-0.4,0.1-0.6,0.4l-3.2,4.3c-0.5,0.7-1.1,0.4-1-0.5
				l0.6-5.6c0-0.4,0-0.7-0.2-0.8l-2.6-2.3c-0.4-0.4-0.2-1.5,0.4-2l3.6-2.8c0.2-0.2,0.4-0.5,0.5-0.8l1.6-5.7
				C277.9,203.4,278.7,203,278.9,203.7z"/>
			<path class="st5" d="M274.4,218.4L274.4,218.4c0-0.2-0.1-0.4-0.2-0.5l-2.6-2.3c-0.2-0.2-0.2-0.5-0.2-0.9L269,213
				c-0.1,0.4,0,0.7,0.2,0.9l2.6,2.3c0.1,0.1,0.1,0.2,0.2,0.3l0,0c0,0.1,0,0.2,0,0.3c0,0.1,0,0.1,0,0.2l-0.6,5.6
				c0,0.4,0.1,0.7,0.2,0.8c0.2,0.1,1.9,1.4,2.3,1.7c-0.2-0.1-0.2-0.4-0.2-0.8l0.6-5.6c0,0,0-0.1,0-0.1v0
				C274.4,218.4,274.4,218.4,274.4,218.4z"/>
			<path class="st11" d="M274.4,218.4L274.4,218.4c0-0.2-0.1-0.4-0.2-0.5l-2.6-2.3c-0.2-0.2-0.2-0.5-0.2-0.9L269,213
				c-0.1,0.4,0,0.7,0.2,0.9l2.6,2.3c0.1,0.1,0.1,0.2,0.2,0.3l0,0c0,0.1,0,0.2,0,0.3c0,0.1,0,0.1,0,0.2l-0.6,5.6
				c0,0.4,0.1,0.7,0.2,0.8c0.2,0.1,1.9,1.4,2.3,1.7c-0.2-0.1-0.2-0.4-0.2-0.8l0.6-5.6c0,0,0-0.1,0-0.1v0
				C274.4,218.4,274.4,218.4,274.4,218.4z"/>
		</g>
		<g id="XMLID_596_">
			<path class="st5" d="M312.6,182.7c0.3-0.6,0.3-1.2,0-1.4c-0.1-0.1-2.3-1.7-2.4-1.8c-0.1-0.1-0.2-0.1-0.4,0l-2.5,0.9l-0.9-2.1
				c0-0.1-0.1-0.1-0.1-0.2v0c0,0,0,0,0,0c0,0,0,0,0,0c-0.2-0.2-2.3-1.7-2.4-1.8c-0.3-0.3-0.9,0.2-1.1,0.9l-1.6,5.7
				c-0.1,0.4-0.3,0.7-0.5,0.8l-3.6,2.8c-0.6,0.4-0.8,1.6-0.4,2l2.6,2.3c0.2,0.1,0.2,0.4,0.2,0.8l-0.6,5.6c0,0.4,0.1,0.7,0.2,0.8
				c0.2,0.1,1.9,1.4,2.3,1.7c0,0,0.1,0,0.1,0.1h0l0,0c0.2,0.1,0.5,0,0.7-0.3l3.2-4.3c0.2-0.3,0.4-0.4,0.6-0.4l3.2,0.7
				c0.5,0.1,1.1-0.9,1-1.6l-0.6-4.9c0-0.3,0-0.7,0.2-1L312.6,182.7z"/>
			<path class="st10" d="M312.6,182.7c0.3-0.6,0.3-1.2,0-1.4c-0.1-0.1-2.3-1.7-2.4-1.8c-0.1-0.1-0.2-0.1-0.4,0l-2.5,0.9l-0.9-2.1
				c0-0.1-0.1-0.1-0.1-0.2v0c0,0,0,0,0,0c0,0,0,0,0,0c-0.2-0.2-2.3-1.7-2.4-1.8c-0.3-0.3-0.9,0.2-1.1,0.9l-1.6,5.7
				c-0.1,0.4-0.3,0.7-0.5,0.8l-3.6,2.8c-0.6,0.4-0.8,1.6-0.4,2l2.6,2.3c0.2,0.1,0.2,0.4,0.2,0.8l-0.6,5.6c0,0.4,0.1,0.7,0.2,0.8
				c0.2,0.1,1.9,1.4,2.3,1.7c0,0,0.1,0,0.1,0.1h0l0,0c0.2,0.1,0.5,0,0.7-0.3l3.2-4.3c0.2-0.3,0.4-0.4,0.6-0.4l3.2,0.7
				c0.5,0.1,1.1-0.9,1-1.6l-0.6-4.9c0-0.3,0-0.7,0.2-1L312.6,182.7z"/>
			<path class="st5" d="M306.3,177.9c-0.3-0.2-0.8,0.2-1.1,0.9l-1.6,5.7c-0.1,0.2-0.2,0.4-0.3,0.6l-2.4-1.7c0.1-0.2,0.2-0.4,0.3-0.6
				l1.6-5.7c0.2-0.8,0.8-1.2,1.1-0.9C304,176.3,305.8,177.6,306.3,177.9z"/>
			<path class="st11" d="M306.3,177.9c-0.3-0.2-0.8,0.2-1.1,0.9l-1.6,5.7c-0.1,0.2-0.2,0.4-0.3,0.6l-2.4-1.7
				c0.1-0.2,0.2-0.4,0.3-0.6l1.6-5.7c0.2-0.8,0.8-1.2,1.1-0.9C304,176.3,305.8,177.6,306.3,177.9z"/>
			<path id="XMLID_597_" class="st5" d="M306.4,178.2l1.6,3.9c0.1,0.2,0.3,0.3,0.5,0.3l3.6-1.2c0.6-0.2,0.8,0.7,0.4,1.5l-2.6,5.2
				c-0.2,0.3-0.2,0.7-0.2,1l0.6,4.9c0.1,0.8-0.5,1.8-1,1.6l-3.2-0.7c-0.2,0-0.4,0.1-0.6,0.4l-3.2,4.3c-0.5,0.7-1.1,0.4-1-0.5
				l0.6-5.6c0-0.4,0-0.7-0.2-0.8l-2.6-2.3c-0.4-0.4-0.2-1.5,0.4-2l3.6-2.8c0.2-0.2,0.4-0.5,0.5-0.8l1.6-5.7
				C305.4,178,306.2,177.5,306.4,178.2z"/>
			<path class="st5" d="M301.9,192.9L301.9,192.9c0-0.2-0.1-0.4-0.2-0.5l-2.6-2.3c-0.2-0.2-0.2-0.5-0.2-0.9l-2.4-1.7
				c-0.1,0.4,0,0.7,0.2,0.9l2.6,2.3c0.1,0.1,0.1,0.2,0.2,0.3l0,0c0,0.1,0,0.2,0,0.3c0,0.1,0,0.1,0,0.2l-0.6,5.6
				c0,0.4,0.1,0.7,0.2,0.8c0.2,0.1,1.9,1.4,2.3,1.7c-0.2-0.1-0.2-0.4-0.2-0.8l0.6-5.6c0,0,0-0.1,0-0.1v0
				C301.9,192.9,301.9,192.9,301.9,192.9z"/>
			<path class="st11" d="M301.9,192.9L301.9,192.9c0-0.2-0.1-0.4-0.2-0.5l-2.6-2.3c-0.2-0.2-0.2-0.5-0.2-0.9l-2.4-1.7
				c-0.1,0.4,0,0.7,0.2,0.9l2.6,2.3c0.1,0.1,0.1,0.2,0.2,0.3l0,0c0,0.1,0,0.2,0,0.3c0,0.1,0,0.1,0,0.2l-0.6,5.6
				c0,0.4,0.1,0.7,0.2,0.8c0.2,0.1,1.9,1.4,2.3,1.7c-0.2-0.1-0.2-0.4-0.2-0.8l0.6-5.6c0,0,0-0.1,0-0.1v0
				C301.9,192.9,301.9,192.9,301.9,192.9z"/>
		</g>
		<g id="XMLID_598_">
			<path class="st5" d="M332.5,145.4c0.3-0.6,0.3-1.2,0-1.4c-0.1-0.1-2.3-1.7-2.4-1.8c-0.1-0.1-0.2-0.1-0.4,0l-2.5,0.9l-0.9-2.1
				c0-0.1-0.1-0.1-0.1-0.2v0c0,0,0,0,0,0c0,0,0,0,0,0c-0.2-0.2-2.3-1.7-2.4-1.8c-0.3-0.3-0.9,0.2-1.1,0.9l-1.6,5.7
				c-0.1,0.4-0.3,0.7-0.5,0.8l-3.6,2.8c-0.6,0.4-0.8,1.6-0.4,2l2.6,2.3c0.2,0.1,0.2,0.4,0.2,0.8l-0.6,5.6c0,0.4,0.1,0.7,0.2,0.8
				c0.2,0.1,1.9,1.4,2.3,1.7c0,0,0.1,0,0.1,0.1l0,0l0,0c0.2,0.1,0.5,0,0.7-0.3l3.2-4.3c0.2-0.3,0.4-0.4,0.6-0.4l3.2,0.7
				c0.5,0.1,1.1-0.9,1-1.6l-0.6-4.9c0-0.3,0-0.7,0.2-1L332.5,145.4z"/>
			<path class="st10" d="M332.5,145.4c0.3-0.6,0.3-1.2,0-1.4c-0.1-0.1-2.3-1.7-2.4-1.8c-0.1-0.1-0.2-0.1-0.4,0l-2.5,0.9l-0.9-2.1
				c0-0.1-0.1-0.1-0.1-0.2v0c0,0,0,0,0,0c0,0,0,0,0,0c-0.2-0.2-2.3-1.7-2.4-1.8c-0.3-0.3-0.9,0.2-1.1,0.9l-1.6,5.7
				c-0.1,0.4-0.3,0.7-0.5,0.8l-3.6,2.8c-0.6,0.4-0.8,1.6-0.4,2l2.6,2.3c0.2,0.1,0.2,0.4,0.2,0.8l-0.6,5.6c0,0.4,0.1,0.7,0.2,0.8
				c0.2,0.1,1.9,1.4,2.3,1.7c0,0,0.1,0,0.1,0.1l0,0l0,0c0.2,0.1,0.5,0,0.7-0.3l3.2-4.3c0.2-0.3,0.4-0.4,0.6-0.4l3.2,0.7
				c0.5,0.1,1.1-0.9,1-1.6l-0.6-4.9c0-0.3,0-0.7,0.2-1L332.5,145.4z"/>
			<path class="st5" d="M326.2,140.7c-0.3-0.2-0.8,0.2-1.1,0.9l-1.6,5.7c-0.1,0.2-0.2,0.4-0.3,0.6l-2.4-1.7c0.1-0.2,0.2-0.4,0.3-0.6
				l1.6-5.7c0.2-0.8,0.8-1.2,1.1-0.9C323.9,139,325.8,140.3,326.2,140.7z"/>
			<path class="st11" d="M326.2,140.7c-0.3-0.2-0.8,0.2-1.1,0.9l-1.6,5.7c-0.1,0.2-0.2,0.4-0.3,0.6l-2.4-1.7
				c0.1-0.2,0.2-0.4,0.3-0.6l1.6-5.7c0.2-0.8,0.8-1.2,1.1-0.9C323.9,139,325.8,140.3,326.2,140.7z"/>
			<path id="XMLID_600_" class="st5" d="M326.4,140.9l1.6,3.9c0.1,0.2,0.3,0.3,0.5,0.3l3.6-1.2c0.6-0.2,0.8,0.7,0.4,1.5l-2.6,5.2
				c-0.2,0.3-0.2,0.7-0.2,1l0.6,4.9c0.1,0.8-0.5,1.8-1,1.6l-3.2-0.7c-0.2,0-0.4,0.1-0.6,0.4l-3.2,4.3c-0.5,0.7-1.1,0.4-1-0.5
				l0.6-5.6c0-0.4,0-0.7-0.2-0.8l-2.6-2.3c-0.4-0.4-0.2-1.5,0.4-2l3.6-2.8c0.2-0.2,0.4-0.5,0.5-0.8l1.6-5.7
				C325.4,140.7,326.1,140.3,326.4,140.9z"/>
			<path class="st5" d="M321.8,155.6L321.8,155.6c0-0.2-0.1-0.4-0.2-0.5l-2.6-2.3c-0.2-0.2-0.2-0.5-0.2-0.9l-2.4-1.7
				c-0.1,0.4,0,0.7,0.2,0.9l2.6,2.3c0.1,0.1,0.1,0.2,0.2,0.3l0,0c0,0.1,0,0.2,0,0.3c0,0.1,0,0.1,0,0.2l-0.6,5.6
				c0,0.4,0.1,0.7,0.2,0.8c0.2,0.1,1.9,1.4,2.3,1.7c-0.2-0.1-0.2-0.4-0.2-0.8l0.6-5.6c0,0,0-0.1,0-0.1v0
				C321.8,155.7,321.8,155.6,321.8,155.6z"/>
			<path class="st11" d="M321.8,155.6L321.8,155.6c0-0.2-0.1-0.4-0.2-0.5l-2.6-2.3c-0.2-0.2-0.2-0.5-0.2-0.9l-2.4-1.7
				c-0.1,0.4,0,0.7,0.2,0.9l2.6,2.3c0.1,0.1,0.1,0.2,0.2,0.3l0,0c0,0.1,0,0.2,0,0.3c0,0.1,0,0.1,0,0.2l-0.6,5.6
				c0,0.4,0.1,0.7,0.2,0.8c0.2,0.1,1.9,1.4,2.3,1.7c-0.2-0.1-0.2-0.4-0.2-0.8l0.6-5.6c0,0,0-0.1,0-0.1v0
				C321.8,155.7,321.8,155.6,321.8,155.6z"/>
		</g>
		<g id="XMLID_604_">
			<path class="st5" d="M339.5,105.5c0.3-0.6,0.3-1.2,0-1.4c-0.1-0.1-2.3-1.7-2.4-1.8c-0.1-0.1-0.2-0.1-0.4,0l-2.5,0.9l-0.9-2.1
				c0-0.1-0.1-0.1-0.1-0.2v0c0,0,0,0,0,0c0,0,0,0,0,0c-0.2-0.2-2.3-1.7-2.4-1.8c-0.3-0.3-0.9,0.2-1.1,0.9l-1.6,5.7
				c-0.1,0.4-0.3,0.7-0.5,0.8l-3.6,2.8c-0.6,0.4-0.8,1.6-0.4,2l2.6,2.3c0.2,0.1,0.2,0.4,0.2,0.8l-0.6,5.6c0,0.4,0.1,0.7,0.2,0.8
				c0.2,0.1,1.9,1.4,2.3,1.7c0,0,0.1,0,0.1,0.1l0,0l0,0c0.2,0.1,0.5,0,0.7-0.3l3.2-4.3c0.2-0.3,0.4-0.4,0.6-0.4l3.2,0.7
				c0.5,0.1,1.1-0.9,1-1.6l-0.6-4.9c0-0.3,0-0.7,0.2-1L339.5,105.5z"/>
			<path class="st10" d="M339.5,105.5c0.3-0.6,0.3-1.2,0-1.4c-0.1-0.1-2.3-1.7-2.4-1.8c-0.1-0.1-0.2-0.1-0.4,0l-2.5,0.9l-0.9-2.1
				c0-0.1-0.1-0.1-0.1-0.2v0c0,0,0,0,0,0c0,0,0,0,0,0c-0.2-0.2-2.3-1.7-2.4-1.8c-0.3-0.3-0.9,0.2-1.1,0.9l-1.6,5.7
				c-0.1,0.4-0.3,0.7-0.5,0.8l-3.6,2.8c-0.6,0.4-0.8,1.6-0.4,2l2.6,2.3c0.2,0.1,0.2,0.4,0.2,0.8l-0.6,5.6c0,0.4,0.1,0.7,0.2,0.8
				c0.2,0.1,1.9,1.4,2.3,1.7c0,0,0.1,0,0.1,0.1l0,0l0,0c0.2,0.1,0.5,0,0.7-0.3l3.2-4.3c0.2-0.3,0.4-0.4,0.6-0.4l3.2,0.7
				c0.5,0.1,1.1-0.9,1-1.6l-0.6-4.9c0-0.3,0-0.7,0.2-1L339.5,105.5z"/>
			<path class="st5" d="M333.2,100.7c-0.3-0.2-0.8,0.2-1.1,0.9l-1.6,5.7c-0.1,0.2-0.2,0.4-0.3,0.6l-2.4-1.7c0.1-0.2,0.2-0.4,0.3-0.6
				l1.6-5.7c0.2-0.8,0.8-1.2,1.1-0.9C331,99.1,332.8,100.4,333.2,100.7z"/>
			<path class="st11" d="M333.2,100.7c-0.3-0.2-0.8,0.2-1.1,0.9l-1.6,5.7c-0.1,0.2-0.2,0.4-0.3,0.6l-2.4-1.7
				c0.1-0.2,0.2-0.4,0.3-0.6l1.6-5.7c0.2-0.8,0.8-1.2,1.1-0.9C331,99.1,332.8,100.4,333.2,100.7z"/>
			<path id="XMLID_610_" class="st5" d="M333.4,101l1.6,3.9c0.1,0.2,0.3,0.3,0.5,0.3l3.6-1.2c0.6-0.2,0.8,0.7,0.4,1.5l-2.6,5.2
				c-0.2,0.3-0.2,0.7-0.2,1l0.6,4.9c0.1,0.8-0.5,1.8-1,1.6l-3.2-0.7c-0.2,0-0.4,0.1-0.6,0.4l-3.2,4.3c-0.5,0.7-1.1,0.4-1-0.5
				l0.6-5.6c0-0.4,0-0.7-0.2-0.8l-2.6-2.3c-0.4-0.4-0.2-1.5,0.4-2l3.6-2.8c0.2-0.2,0.4-0.5,0.5-0.8l1.6-5.7
				C332.4,100.7,333.1,100.3,333.4,101z"/>
			<path class="st5" d="M328.8,115.7L328.8,115.7c0-0.2-0.1-0.4-0.2-0.5l-2.6-2.3c-0.2-0.2-0.2-0.5-0.2-0.9l-2.4-1.7
				c-0.1,0.4,0,0.7,0.2,0.9l2.6,2.3c0.1,0.1,0.1,0.2,0.2,0.3l0,0c0,0.1,0,0.2,0,0.3c0,0.1,0,0.1,0,0.2l-0.6,5.6
				c0,0.4,0.1,0.7,0.2,0.8c0.2,0.1,1.9,1.4,2.3,1.7c-0.2-0.1-0.2-0.4-0.2-0.8l0.6-5.6c0,0,0-0.1,0-0.1v0
				C328.8,115.7,328.8,115.7,328.8,115.7z"/>
			<path class="st11" d="M328.8,115.7L328.8,115.7c0-0.2-0.1-0.4-0.2-0.5l-2.6-2.3c-0.2-0.2-0.2-0.5-0.2-0.9l-2.4-1.7
				c-0.1,0.4,0,0.7,0.2,0.9l2.6,2.3c0.1,0.1,0.1,0.2,0.2,0.3l0,0c0,0.1,0,0.2,0,0.3c0,0.1,0,0.1,0,0.2l-0.6,5.6
				c0,0.4,0.1,0.7,0.2,0.8c0.2,0.1,1.9,1.4,2.3,1.7c-0.2-0.1-0.2-0.4-0.2-0.8l0.6-5.6c0,0,0-0.1,0-0.1v0
				C328.8,115.7,328.8,115.7,328.8,115.7z"/>
		</g>
		<g id="XMLID_614_">
			<path class="st5" d="M331.4,74.8c0.3-0.6,0.3-1.2,0-1.4c-0.1-0.1-2.3-1.7-2.4-1.8c-0.1-0.1-0.2-0.1-0.4,0l-2.5,0.9l-0.9-2.1
				c0-0.1-0.1-0.1-0.1-0.2v0c0,0,0,0,0,0c0,0,0,0,0,0c-0.2-0.2-2.3-1.7-2.4-1.8c-0.3-0.3-0.9,0.2-1.1,0.9l-1.6,5.7
				c-0.1,0.4-0.3,0.7-0.5,0.8l-3.6,2.8c-0.6,0.4-0.8,1.6-0.4,2l2.6,2.3c0.2,0.1,0.2,0.4,0.2,0.8l-0.6,5.6c0,0.4,0.1,0.7,0.2,0.8
				c0.2,0.1,1.9,1.4,2.3,1.7c0,0,0.1,0,0.1,0.1l0,0l0,0c0.2,0.1,0.5,0,0.7-0.3l3.2-4.3c0.2-0.3,0.4-0.4,0.6-0.4l3.2,0.7
				c0.5,0.1,1.1-0.9,1-1.6l-0.6-4.9c0-0.3,0-0.7,0.2-1L331.4,74.8z"/>
			<path class="st10" d="M331.4,74.8c0.3-0.6,0.3-1.2,0-1.4c-0.1-0.1-2.3-1.7-2.4-1.8c-0.1-0.1-0.2-0.1-0.4,0l-2.5,0.9l-0.9-2.1
				c0-0.1-0.1-0.1-0.1-0.2v0c0,0,0,0,0,0c0,0,0,0,0,0c-0.2-0.2-2.3-1.7-2.4-1.8c-0.3-0.3-0.9,0.2-1.1,0.9l-1.6,5.7
				c-0.1,0.4-0.3,0.7-0.5,0.8l-3.6,2.8c-0.6,0.4-0.8,1.6-0.4,2l2.6,2.3c0.2,0.1,0.2,0.4,0.2,0.8l-0.6,5.6c0,0.4,0.1,0.7,0.2,0.8
				c0.2,0.1,1.9,1.4,2.3,1.7c0,0,0.1,0,0.1,0.1l0,0l0,0c0.2,0.1,0.5,0,0.7-0.3l3.2-4.3c0.2-0.3,0.4-0.4,0.6-0.4l3.2,0.7
				c0.5,0.1,1.1-0.9,1-1.6l-0.6-4.9c0-0.3,0-0.7,0.2-1L331.4,74.8z"/>
			<path class="st5" d="M325.1,70.1c-0.3-0.2-0.8,0.2-1.1,0.9l-1.6,5.7c-0.1,0.2-0.2,0.4-0.3,0.6l-2.4-1.7c0.1-0.2,0.2-0.4,0.3-0.6
				l1.6-5.7c0.2-0.8,0.8-1.2,1.1-0.9C322.9,68.5,324.7,69.7,325.1,70.1z"/>
			<path class="st11" d="M325.1,70.1c-0.3-0.2-0.8,0.2-1.1,0.9l-1.6,5.7c-0.1,0.2-0.2,0.4-0.3,0.6l-2.4-1.7c0.1-0.2,0.2-0.4,0.3-0.6
				l1.6-5.7c0.2-0.8,0.8-1.2,1.1-0.9C322.9,68.5,324.7,69.7,325.1,70.1z"/>
			<path id="XMLID_615_" class="st5" d="M325.3,70.4l1.6,3.9c0.1,0.2,0.3,0.3,0.5,0.3l3.6-1.2c0.6-0.2,0.8,0.7,0.4,1.5l-2.6,5.2
				c-0.2,0.3-0.2,0.7-0.2,1l0.6,4.9c0.1,0.8-0.5,1.8-1,1.6l-3.2-0.7c-0.2,0-0.4,0.1-0.6,0.4l-3.2,4.3c-0.5,0.7-1.1,0.4-1-0.5
				l0.6-5.6c0-0.4,0-0.7-0.2-0.8l-2.6-2.3c-0.4-0.4-0.2-1.5,0.4-2l3.6-2.8c0.2-0.2,0.4-0.5,0.5-0.8l1.6-5.7
				C324.3,70.1,325.1,69.7,325.3,70.4z"/>
			<path class="st5" d="M320.8,85.1L320.8,85.1c0-0.2-0.1-0.4-0.2-0.5l-2.6-2.3c-0.2-0.2-0.2-0.5-0.2-0.9l-2.4-1.7
				c-0.1,0.4,0,0.7,0.2,0.9l2.6,2.3c0.1,0.1,0.1,0.2,0.2,0.3l0,0c0,0.1,0,0.2,0,0.3c0,0.1,0,0.1,0,0.2l-0.6,5.6
				c0,0.4,0.1,0.7,0.2,0.8c0.2,0.1,1.9,1.4,2.3,1.7c-0.2-0.1-0.2-0.4-0.2-0.8l0.6-5.6c0,0,0-0.1,0-0.1v0
				C320.8,85.1,320.8,85.1,320.8,85.1z"/>
			<path class="st11" d="M320.8,85.1L320.8,85.1c0-0.2-0.1-0.4-0.2-0.5l-2.6-2.3c-0.2-0.2-0.2-0.5-0.2-0.9l-2.4-1.7
				c-0.1,0.4,0,0.7,0.2,0.9l2.6,2.3c0.1,0.1,0.1,0.2,0.2,0.3l0,0c0,0.1,0,0.2,0,0.3c0,0.1,0,0.1,0,0.2l-0.6,5.6
				c0,0.4,0.1,0.7,0.2,0.8c0.2,0.1,1.9,1.4,2.3,1.7c-0.2-0.1-0.2-0.4-0.2-0.8l0.6-5.6c0,0,0-0.1,0-0.1v0
				C320.8,85.1,320.8,85.1,320.8,85.1z"/>
		</g>
		<g id="XMLID_616_">
			<path class="st5" d="M310.9,60.8c0.3-0.6,0.3-1.2,0-1.4c-0.1-0.1-2.3-1.7-2.4-1.8c-0.1-0.1-0.2-0.1-0.4,0l-2.5,0.9l-0.9-2.1
				c0-0.1-0.1-0.1-0.1-0.2v0c0,0,0,0,0,0c0,0,0,0,0,0c-0.2-0.2-2.3-1.7-2.4-1.8c-0.3-0.3-0.9,0.2-1.1,0.9l-1.6,5.7
				c-0.1,0.4-0.3,0.7-0.5,0.8l-3.6,2.8c-0.6,0.4-0.8,1.6-0.4,2l2.6,2.3c0.2,0.1,0.2,0.4,0.2,0.8l-0.6,5.6c0,0.4,0.1,0.7,0.2,0.8
				c0.2,0.1,1.9,1.4,2.3,1.7c0,0,0.1,0,0.1,0.1l0,0l0,0c0.2,0.1,0.5,0,0.7-0.3l3.2-4.3c0.2-0.3,0.4-0.4,0.6-0.4l3.2,0.7
				c0.5,0.1,1.1-0.9,1-1.6l-0.6-4.9c0-0.3,0-0.7,0.2-1L310.9,60.8z"/>
			<path class="st10" d="M310.9,60.8c0.3-0.6,0.3-1.2,0-1.4c-0.1-0.1-2.3-1.7-2.4-1.8c-0.1-0.1-0.2-0.1-0.4,0l-2.5,0.9l-0.9-2.1
				c0-0.1-0.1-0.1-0.1-0.2v0c0,0,0,0,0,0c0,0,0,0,0,0c-0.2-0.2-2.3-1.7-2.4-1.8c-0.3-0.3-0.9,0.2-1.1,0.9l-1.6,5.7
				c-0.1,0.4-0.3,0.7-0.5,0.8l-3.6,2.8c-0.6,0.4-0.8,1.6-0.4,2l2.6,2.3c0.2,0.1,0.2,0.4,0.2,0.8l-0.6,5.6c0,0.4,0.1,0.7,0.2,0.8
				c0.2,0.1,1.9,1.4,2.3,1.7c0,0,0.1,0,0.1,0.1l0,0l0,0c0.2,0.1,0.5,0,0.7-0.3l3.2-4.3c0.2-0.3,0.4-0.4,0.6-0.4l3.2,0.7
				c0.5,0.1,1.1-0.9,1-1.6l-0.6-4.9c0-0.3,0-0.7,0.2-1L310.9,60.8z"/>
			<path class="st5" d="M304.6,56c-0.3-0.2-0.8,0.2-1.1,0.9l-1.6,5.7c-0.1,0.2-0.2,0.4-0.3,0.6l-2.4-1.7c0.1-0.2,0.2-0.4,0.3-0.6
				l1.6-5.7c0.2-0.8,0.8-1.2,1.1-0.9C302.3,54.4,304.1,55.7,304.6,56z"/>
			<path class="st11" d="M304.6,56c-0.3-0.2-0.8,0.2-1.1,0.9l-1.6,5.7c-0.1,0.2-0.2,0.4-0.3,0.6l-2.4-1.7c0.1-0.2,0.2-0.4,0.3-0.6
				l1.6-5.7c0.2-0.8,0.8-1.2,1.1-0.9C302.3,54.4,304.1,55.7,304.6,56z"/>
			<path id="XMLID_620_" class="st5" d="M304.7,56.3l1.6,3.9c0.1,0.2,0.3,0.3,0.5,0.3l3.6-1.2c0.6-0.2,0.8,0.7,0.4,1.5l-2.6,5.2
				c-0.2,0.3-0.2,0.7-0.2,1l0.6,4.9c0.1,0.8-0.5,1.8-1,1.6l-3.2-0.7c-0.2,0-0.4,0.1-0.6,0.4l-3.2,4.3c-0.5,0.7-1.1,0.4-1-0.5
				l0.6-5.6c0-0.4,0-0.7-0.2-0.8l-2.6-2.3c-0.4-0.4-0.2-1.5,0.4-2l3.6-2.8c0.2-0.2,0.4-0.5,0.5-0.8l1.6-5.7
				C303.8,56.1,304.5,55.6,304.7,56.3z"/>
			<path class="st5" d="M300.2,71L300.2,71c0-0.2-0.1-0.4-0.2-0.5l-2.6-2.3c-0.2-0.2-0.2-0.5-0.2-0.9l-2.4-1.7
				c-0.1,0.4,0,0.7,0.2,0.9l2.6,2.3c0.1,0.1,0.1,0.2,0.2,0.3l0,0c0,0.1,0,0.2,0,0.3c0,0.1,0,0.1,0,0.2l-0.6,5.6
				c0,0.4,0.1,0.7,0.2,0.8c0.2,0.1,1.9,1.4,2.3,1.7c-0.2-0.1-0.2-0.4-0.2-0.8l0.6-5.6c0,0,0-0.1,0-0.1v0C300.2,71,300.2,71,300.2,71
				z"/>
			<path class="st11" d="M300.2,71L300.2,71c0-0.2-0.1-0.4-0.2-0.5l-2.6-2.3c-0.2-0.2-0.2-0.5-0.2-0.9l-2.4-1.7
				c-0.1,0.4,0,0.7,0.2,0.9l2.6,2.3c0.1,0.1,0.1,0.2,0.2,0.3l0,0c0,0.1,0,0.2,0,0.3c0,0.1,0,0.1,0,0.2l-0.6,5.6
				c0,0.4,0.1,0.7,0.2,0.8c0.2,0.1,1.9,1.4,2.3,1.7c-0.2-0.1-0.2-0.4-0.2-0.8l0.6-5.6c0,0,0-0.1,0-0.1v0C300.2,71,300.2,71,300.2,71
				z"/>
		</g>
	</g>
</g>
<g id="Padlock_1_">
	<g id="Padlock">
		<g>
			<path class="st5" d="M300.7,132l-13.2-7.3l0,0c-1.1-0.6-2.4-0.6-3.4,0l-0.4,0.2l-28.8,15.9l0,0c-3.2,1.8-5.2,5.1-5.2,8.7v0v20.9
				c0,1.5,0.5,2.6,1.4,3.2c1,0.6,12.2,6.7,13.1,7.2c1,0.6,2.3,0.5,3.8-0.3l28.8-15.9c2.9-1.6,5.2-5.5,5.2-8.7v-20.9
				C301.9,133.7,301.5,132.7,300.7,132z"/>
			<path class="st11" d="M264.1,180.9C264.1,180.9,264.1,180.9,264.1,180.9c-0.9-0.6-12.2-6.6-13.1-7.2c-0.9-0.5-1.4-1.6-1.4-3.2
				v-20.9c0-1.8,0.5-3.5,1.4-5l13.2,7.3c-0.9,1.6-1.5,3.3-1.5,4.9v20.9C262.7,179.3,263.2,180.4,264.1,180.9z"/>
			<path class="st5" d="M301.9,135.1v20.9c0,3.2-2.3,7.1-5.2,8.7l-28.8,15.9c-2.9,1.6-5.2,0.3-5.2-2.9v-20.9c0-3.2,2.3-7.1,5.2-8.7
				l28.8-15.9C299.5,130.6,301.9,131.9,301.9,135.1z"/>
			<path class="st10" d="M287.5,124.8l12.8,7.1c-0.9-0.5-2.2-0.4-3.6,0.4l-28.8,15.9c-1.4,0.8-2.8,2.2-3.7,3.7l-13.2-7.3
				c0,0,0,0,0,0c0.9-1.5,2.2-2.8,3.8-3.7l28.8-15.9l0.5-0.2c0.5-0.3,1.1-0.4,1.7-0.4C286.3,124.3,286.9,124.5,287.5,124.8z"/>
		</g>
		<g id="XMLID_347_">
			<path id="XMLID_357_" class="st4" d="M285.1,163.2l-5.6,3.1l0.9-9.7c-0.7-0.3-1.1-1.2-1.1-2.4c0-2.1,1.4-4.6,3-5.5
				c1.7-0.9,3,0.1,3,2.2c0,1.2-0.4,2.5-1.1,3.6L285.1,163.2z"/>
			<polygon id="XMLID_356_" class="st2" points="285.1,163.2 280,160.4 279.5,166.3 			"/>
			<path id="XMLID_355_" class="st2" d="M282.3,148.7c-1.1,0.6-2.1,1.9-2.6,3.3l4.5,2.5v0c0.7-1.1,1.1-2.4,1.1-3.6
				C285.3,148.7,283.9,147.8,282.3,148.7z"/>
		</g>
		<path class="st2" d="M288,131.8C288,131.8,288,131.8,288,131.8L288,131.8v-21.2c0-4.3-1.7-7.6-4.6-9.2c-2.8-1.5-6.3-1.3-9.7,0.6
			c-6.4,3.5-11.4,12.2-11.4,19.6v21.3h0c0,0.4,0.3,0.8,0.9,1.1c1.1,0.6,3,0.6,4.2,0c0.6-0.3,0.9-0.7,0.9-1.1l0,0v-21.3
			c0-5.5,3.9-12.2,8.5-14.8c1.6-0.9,3-1.1,3.9-0.6c1,0.6,1.7,2.2,1.7,4.4v21.2l0,0c0,0,0,0,0,0v0h0c0,0.4,0.3,0.8,0.9,1.1
			c1.1,0.6,3,0.6,4.2,0C287.7,132.6,288,132.2,288,131.8L288,131.8L288,131.8z"/>
	</g>
</g>
<g id="Account_1_">
	<g id="Account">
		<g id="Code_1_">
			<path id="XMLID_1366_" class="st12" d="M131.8,93.2l75.5-41.7c0.9-0.5,1.6-0.1,1.6,0.9v28.8c0,1-0.7,2.1-1.6,2.6l-75.5,41.7
				c-0.9,0.5-1.6,0.1-1.6-0.9V95.8C130.2,94.9,130.9,93.7,131.8,93.2z"/>
			<path id="XMLID_1365_" class="st13" d="M130.7,94.3l-4-2.2c-0.3,0.5-0.5,1-0.5,1.5v28.8c0,0.5,0.2,0.8,0.5,1c0.3,0.2,3.7,2,4,2.2
				c-0.3-0.2-0.4-0.5-0.4-1V95.8C130.2,95.3,130.4,94.8,130.7,94.3z"/>
			<path id="XMLID_627_" class="st14" d="M208.3,51.4c-0.6-0.3-3.7-2-3.9-2.2c-0.3-0.2-0.7-0.1-1.1,0.1L127.8,91
				c-0.4,0.2-0.8,0.6-1.1,1.1l4,2.2c0.3-0.5,0.7-0.9,1.1-1.1l75.5-41.7C207.6,51.3,208,51.3,208.3,51.4z"/>
		</g>
		<g id="XMLID_1367_">
			<g id="XMLID_1371_">
				<path id="XMLID_1372_" class="st3" d="M142.4,101.3c-0.4,0-0.9-0.1-1.2-0.3c-0.9-0.5-1.3-1.4-1.3-2.6c0-2.2,1.6-4.9,3.6-6v0
					c1.1-0.6,2.2-0.7,3.1-0.2c0.9,0.5,1.3,1.4,1.3,2.6c0,2.2-1.6,4.9-3.6,6C143.6,101.1,143,101.3,142.4,101.3z"/>
			</g>
			<g id="XMLID_1368_">
				<path id="XMLID_1369_" class="st3" d="M149.5,102.2c-1.4-0.8-3.1-0.6-4.9,0.4l-2,1.1c-3.5,1.9-6.2,6.4-6.2,10.3v3.3l15.2-8.4
					v-2.3C151.6,104.5,150.8,103,149.5,102.2z"/>
			</g>
		</g>
		<g>
			<path class="st15" d="M157,88.8c0,2.2,1.7,3,3.8,1.8c7.7-4.2,27.9-15.4,35.6-19.6c2.1-1.2,3.8-3.8,3.8-6c0-2.2-1.7-3-3.8-1.8
				l-35.6,19.6C158.7,84,157,86.7,157,88.8z"/>
			<path class="st4" d="M160.7,85.5l35.9-19.8c0.7-0.4,1.3-0.1,1.3,0.6c0,0.7-0.6,1.6-1.3,2l-35.9,19.8c-0.7,0.4-1.3,0.1-1.3-0.6
				C159.4,86.8,160,85.9,160.7,85.5z"/>
		</g>
		<g>
			<path class="st15" d="M157,101.9c0,2.2,1.7,3,3.8,1.8c7.7-4.2,27.9-15.4,35.6-19.6c2.1-1.2,3.8-3.8,3.8-6s-1.7-3-3.8-1.8
				l-35.6,19.6C158.7,97.1,157,99.8,157,101.9z"/>
			<g>
				<path class="st4" d="M163,97.3c0.7-0.4,1.2-0.1,1.2,0.7c0,0.7-0.5,1.6-1.2,2c-0.7,0.4-1.2,0.1-1.2-0.7
					C161.8,98.6,162.3,97.7,163,97.3z"/>
				<path class="st4" d="M166.7,95.3c0.7-0.4,1.2-0.1,1.2,0.7c0,0.7-0.5,1.6-1.2,2c-0.7,0.4-1.2,0.1-1.2-0.7
					C165.5,96.5,166,95.6,166.7,95.3z"/>
				<path class="st4" d="M170.4,93.2c0.7-0.4,1.2-0.1,1.2,0.7c0,0.7-0.5,1.6-1.2,2s-1.2,0.1-1.2-0.7
					C169.2,94.5,169.8,93.6,170.4,93.2z"/>
				<path class="st4" d="M174.2,91.2c0.7-0.4,1.2-0.1,1.2,0.7c0,0.7-0.5,1.6-1.2,2c-0.7,0.4-1.2,0.1-1.2-0.7
					C173,92.4,173.5,91.5,174.2,91.2z"/>
				<path class="st4" d="M177.9,89.1c0.7-0.4,1.2-0.1,1.2,0.7c0,0.7-0.5,1.6-1.2,2c-0.7,0.4-1.2,0.1-1.2-0.7
					C176.7,90.3,177.3,89.4,177.9,89.1z"/>
				<path class="st4" d="M181.6,87c0.7-0.4,1.2-0.1,1.2,0.7c0,0.7-0.5,1.6-1.2,2c-0.7,0.4-1.2,0.1-1.2-0.7
					C180.5,88.3,181,87.4,181.6,87z"/>
				<path class="st4" d="M185.4,85c0.7-0.4,1.2-0.1,1.2,0.7c0,0.7-0.5,1.6-1.2,2c-0.7,0.4-1.2,0.1-1.2-0.7
					C184.2,86.2,184.7,85.3,185.4,85z"/>
				<path class="st4" d="M189.1,82.9c0.7-0.4,1.2-0.1,1.2,0.7c0,0.7-0.5,1.6-1.2,2c-0.7,0.4-1.2,0.1-1.2-0.7
					C187.9,84.1,188.5,83.3,189.1,82.9z"/>
				<path class="st4" d="M192.9,80.8c0.7-0.4,1.2-0.1,1.2,0.7c0,0.7-0.5,1.6-1.2,2c-0.7,0.4-1.2,0.1-1.2-0.7
					C191.7,82.1,192.2,81.2,192.9,80.8z"/>
				<path class="st4" d="M196.6,78.8c0.7-0.4,1.2-0.1,1.2,0.7c0,0.7-0.5,1.6-1.2,2c-0.7,0.4-1.2,0.1-1.2-0.7
					C195.4,80,195.9,79.1,196.6,78.8z"/>
			</g>
		</g>
	</g>
</g>
<g id="Folder_1_">
	<g id="Folder">
		<path id="XMLID_1379_" class="st5" d="M201.1,103.8c0-0.3-0.1-0.5-0.3-0.6c0,0,0,0-0.1,0l-1.5-0.8c0,0,0,0,0,0l0,0v0
			c-0.2-0.1-0.4-0.1-0.7,0.1l-30.2,16.7l-0.9-3.4c-0.1-0.3-0.2-0.4-0.4-0.6l0,0l-1.6-0.9l0,0c-0.3-0.2-0.6-0.2-1,0l-12.9,7.1
			c-0.6,0.3-1,1.1-1,1.7l0,41c0,0.3,0.1,0.5,0.3,0.6l0,0l1.6,0.9l0,0c0.2,0.1,0.4,0.1,0.7-0.1l46.9-25.9c0.6-0.3,1-1.1,1-1.7
			L201.1,103.8z"/>
		<path id="XMLID_1378_" class="st16" d="M166.9,115.1c-0.3-0.1-0.6-0.1-0.9,0l-12.9,7.1c-0.3,0.2-0.5,0.4-0.7,0.7l-1.6-0.9
			c0.2-0.3,0.4-0.6,0.7-0.7l12.9-7.1c0.3-0.2,0.7-0.2,1,0v0L166.9,115.1z"/>
		<path id="XMLID_1377_" class="st16" d="M200.7,103.2c-0.2-0.1-0.4,0-0.7,0.1l-30.2,16.7c-0.6,0.3-1.2,0.1-1.4-0.5l-0.1-0.4
			l30.2-16.7c0.2-0.1,0.3-0.1,0.5-0.1c0.1,0,0.2,0,0.3,0.1h0L200.7,103.2z"/>
		<path id="XMLID_1376_" class="st5" d="M201.1,103.8l0,34c0,0.6-0.5,1.4-1,1.7l-47,26c-0.4,0.2-0.9-0.1-0.9-0.5V124
			c0-0.3,0.1-0.7,0.3-1c0.2-0.3,0.5-0.6,0.7-0.7l12.9-7.1c0.3-0.2,0.7-0.2,0.9,0l0,0h0c0.2,0.1,0.4,0.3,0.4,0.6l0.9,3.4l0.1,0.4
			c0.2,0.6,0.8,0.8,1.4,0.5l30.2-16.7c0.3-0.1,0.5-0.2,0.7-0.1l0,0c0,0,0,0,0,0l0,0C201,103.3,201.1,103.5,201.1,103.8z"/>
		<path id="XMLID_1380_" class="st17" d="M201.1,103.8l0,34c0,0.6-0.5,1.4-1,1.7l-47,26c-0.4,0.2-0.9-0.1-0.9-0.5V124
			c0-0.3,0.1-0.7,0.3-1c0.2-0.3,0.5-0.6,0.7-0.7l12.9-7.1c0.3-0.2,0.7-0.2,0.9,0l0,0h0c0.2,0.1,0.4,0.3,0.4,0.6l0.9,3.4l0.1,0.4
			c0.2,0.6,0.8,0.8,1.4,0.5l30.2-16.7c0.3-0.1,0.5-0.2,0.7-0.1l0,0c0,0,0,0,0,0l0,0C201,103.3,201.1,103.5,201.1,103.8z"/>
		<path id="XMLID_1375_" class="st18" d="M152.5,165.6C152.5,165.6,152.4,165.6,152.5,165.6l-1.7-0.9c-0.2-0.1-0.3-0.3-0.3-0.6v-41
			c0-0.3,0.1-0.7,0.3-1l1.6,0.9v0c-0.2,0.3-0.3,0.7-0.3,1v41.1C152.1,165.3,152.2,165.5,152.5,165.6z"/>
	</g>
</g>
<g id="Image_1_">
	<g id="Image">
		<g id="XMLID_1387_">
			<path id="XMLID_1391_" class="st12" d="M143.3,127c-0.2-0.1-0.5-0.1-0.8,0.1l-49.4,27.3c-0.6,0.3-1.1,1.2-1.1,1.9v42.6
				c0,0.3,0.1,0.6,0.3,0.7c-0.2-0.1-1.9-1.1-2.1-1.2c-0.2-0.1-0.3-0.4-0.3-0.7V155c0-0.7,0.5-1.6,1.2-1.9l49.4-27.3
				c0.3-0.2,0.6-0.2,0.8-0.1C141.4,125.9,142.9,126.7,143.3,127z"/>
			<path id="XMLID_1390_" class="st12" d="M93.2,154.3l49.4-27.3c0.6-0.3,1.1-0.1,1.1,0.6v42.6c0,0.7-0.5,1.6-1.1,1.9l-49.4,27.3
				c-0.6,0.3-1.1,0.1-1.1-0.6v-42.6C92,155.5,92.6,154.7,93.2,154.3z"/>
			<path id="XMLID_1389_" class="st19" d="M92.4,155.2l-2.2-1.2c-0.2,0.3-0.3,0.7-0.3,1.1v42.6c0,0.3,0.1,0.6,0.3,0.7
				c0.2,0.1,1.9,1.1,2.1,1.2c-0.2-0.1-0.3-0.4-0.3-0.7v-42.6C92,155.9,92.2,155.5,92.4,155.2z"/>
			<path id="XMLID_1388_" class="st10" d="M143.3,127c-0.4-0.2-1.9-1.1-2.1-1.2c-0.2-0.1-0.5-0.1-0.8,0.1L91,153.1
				c-0.3,0.2-0.6,0.5-0.8,0.8l2.2,1.2c0.2-0.3,0.5-0.6,0.8-0.8l49.4-27.3C142.9,126.9,143.1,126.9,143.3,127z"/>
		</g>
		<path id="XMLID_1386_" class="st20" d="M124.4,168.5l3.9,5.2l-17.6-15.4L92,188.5v10.4c0,0.7,0.5,1,1.1,0.6l49.4-27.3
			c0.6-0.3,1.1-1.2,1.1-1.9v-5.7l-13.2-9.1L124.4,168.5z"/>
		<path id="XMLID_1385_" class="st20" d="M126.5,143.2c2.3-1.3,4.2-0.2,4.2,2.3c0,2.5-1.9,5.6-4.2,6.9c-2.3,1.3-4.2,0.2-4.2-2.3
			C122.3,147.6,124.2,144.5,126.5,143.2z"/>
	</g>
</g>
<g id="Envelope">
	<g id="Letter_3_">
		<g>
			<g>
				<path class="st5" d="M157.5,172.3L196,151c0.4-0.2,0.7-0.2,1,0c0.2,0.2,1.6,0.9,1.9,1c0.3,0.2,0.4,0.5,0.4,1v33.2
					c0,0.9-0.6,2-1.3,2.4l-6.8,3.7l-34.6-19.1C156.8,172.9,157.1,172.5,157.5,172.3z"/>
				<path class="st10" d="M157.5,172.3L196,151c0.4-0.2,0.7-0.2,1,0c0.2,0.2,1.6,0.9,1.9,1c0.3,0.2,0.4,0.5,0.4,1v33.2
					c0,0.9-0.6,2-1.3,2.4l-6.8,3.7l-34.6-19.1C156.8,172.9,157.1,172.5,157.5,172.3z"/>
				<path class="st5" d="M158.5,210c-0.3-0.2-1.7-0.9-1.9-1.1c-0.3-0.2-0.4-0.5-0.4-1v-33.2c0-0.5,0.2-1,0.4-1.5l34.6,19.1
					L159.4,210C159,210.1,158.7,210.1,158.5,210z"/>
				<path class="st16" d="M158.5,210c-0.3-0.2-1.7-0.9-1.9-1.1c-0.3-0.2-0.4-0.5-0.4-1v-33.2c0-0.5,0.2-1,0.4-1.5l34.6,19.1
					L159.4,210C159,210.1,158.7,210.1,158.5,210z"/>
			</g>
			<path class="st5" d="M159.4,210l38.6-21.3c0.7-0.4,1.3-1.5,1.3-2.4v-33.2c0-0.9-0.6-1.4-1.3-1l-38.6,21.3
				c-0.7,0.4-1.3,1.5-1.3,2.4V209C158,209.9,158.6,210.4,159.4,210z"/>
			<path class="st16" d="M158,209v-0.7l15.9-25.3l-15.7-8.3c0-0.1,0.1-0.2,0.1-0.3l19.6,7.8c0.4,0.2,0.9-0.1,1.4-0.8l19.6-29.4
				c0,0,0.1,0.1,0.1,0.1l-15.7,25.7l15.9,7.7v0.7c0,0.5-0.2,1.1-0.4,1.5l-16.3-8.5l-2.3,3.8c-0.9,1.5-2.2,2.2-3.1,1.7l-2.3-1.2
				L158.5,210C158.2,209.8,158,209.5,158,209z"/>
		</g>
	</g>
</g>
<g id="Card">
	<g id="Card_1_">
		<g>
			<path class="st0" d="M91.3,249.4l-1-0.6c-0.3-0.2-0.6-0.6-0.6-1v-40.6c0-0.4,0.3-0.8,0.6-1l55-30.4c0.3-0.2,0.9-0.2,1.2,0l1,0.6
				c0.3,0.2,0.6,0.6,0.6,1l0,40.6c0,0.4-0.3,0.8-0.6,1l-55,30.4C92.1,249.5,91.6,249.5,91.3,249.4z"/>
			<path class="st21" d="M92.4,207.4l55-30.4c0.3-0.2,0.6,0,0.6,0.3l0,40.6c0,0.4-0.3,0.8-0.6,1l-55,30.4c-0.3,0.2-0.6,0-0.6-0.3
				v-40.6C91.8,208.1,92.1,207.6,92.4,207.4z"/>
			<path class="st1" d="M147.5,177.1c-4.5,2.6-9.1,5.2-13.6,7.8l-13.7,7.7l-13.8,7.5l-6.9,3.7l-7,3.7l6.8-3.9l6.8-3.9l13.7-7.7
				l13.8-7.5C138.2,182,142.8,179.5,147.5,177.1z"/>
			<path class="st1" d="M92,207.9l-2.2-1.2c-0.1,0.2-0.2,0.4-0.2,0.6l0,40.6c0,0.4,0.3,0.8,0.6,1l1,0.6c0.3,0.2,0.7,0.2,1.1,0.1
				c-0.3,0.1-0.5-0.1-0.5-0.4l0-40.6C91.8,208.3,91.9,208.1,92,207.9z"/>
		</g>
		<polygon class="st5" points="91.8,213.1 148.1,182 148.1,192.6 91.9,223.7 		"/>
		<g id="Cards">
			<g id="XMLID_1488_">
				<g>
					<path id="XMLID_1489_" class="st5" d="M144.6,209.1v6.9c0,0.5-0.4,1.2-0.9,1.4l-7.6,4.3c-0.5,0.3-0.9,0-0.9-0.5l0-6.9
						c0-0.5,0.4-1.2,0.9-1.4c2.1-1.1,5.5-3.1,7.6-4.3C144.2,208.3,144.6,208.5,144.6,209.1z"/>
				</g>
				<g>
					<defs>
						<path id="SVGID_1_" d="M144.6,209.1v6.9c0,0.5-0.4,1.2-0.9,1.4l-7.6,4.3c-0.5,0.3-0.9,0-0.9-0.5l0-6.9c0-0.5,0.4-1.2,0.9-1.4
							c2.1-1.1,5.5-3.1,7.6-4.3C144.2,208.3,144.6,208.5,144.6,209.1z"/>
					</defs>
					<clipPath id="SVGID_2_">
						<use xlink:href="#SVGID_1_"  style="overflow:visible;"/>
					</clipPath>
					<path id="XMLID_1400_" class="st22" d="M144.6,209.1v6.9c0,0.5-0.4,1.2-0.9,1.4l-7.6,4.3c-0.5,0.3-0.9,0-0.9-0.5l0-6.9
						c0-0.5,0.4-1.2,0.9-1.4c2.1-1.1,5.5-3.1,7.6-4.3C144.2,208.3,144.6,208.5,144.6,209.1z"/>
				</g>
				<g>
					<defs>
						<path id="SVGID_3_" d="M144.6,209.1v6.9c0,0.5-0.4,1.2-0.9,1.4l-7.6,4.3c-0.5,0.3-0.9,0-0.9-0.5l0-6.9c0-0.5,0.4-1.2,0.9-1.4
							c2.1-1.1,5.5-3.1,7.6-4.3C144.2,208.3,144.6,208.5,144.6,209.1z"/>
					</defs>
					<clipPath id="SVGID_4_">
						<use xlink:href="#SVGID_3_"  style="overflow:visible;"/>
					</clipPath>
					<g id="XMLID_1825_" class="st23">
						<polygon id="XMLID_1826_" class="st3" points="146.1,210.2 146.3,209.6 133.8,216.6 133.6,217.1 						"/>
					</g>
				</g>
				<g>
					<defs>
						<path id="SVGID_5_" d="M144.6,209.1v6.9c0,0.5-0.4,1.2-0.9,1.4l-7.6,4.3c-0.5,0.3-0.9,0-0.9-0.5l0-6.9c0-0.5,0.4-1.2,0.9-1.4
							c2.1-1.1,5.5-3.1,7.6-4.3C144.2,208.3,144.6,208.5,144.6,209.1z"/>
					</defs>
					<clipPath id="SVGID_6_">
						<use xlink:href="#SVGID_5_"  style="overflow:visible;"/>
					</clipPath>
					<g id="XMLID_1823_" class="st24">
						<polygon id="XMLID_1824_" class="st3" points="141.2,216.3 141.6,215.9 141.6,212.3 141.2,212.7 						"/>
					</g>
				</g>
				<g>
					<defs>
						<path id="SVGID_7_" d="M144.6,209.1v6.9c0,0.5-0.4,1.2-0.9,1.4l-7.6,4.3c-0.5,0.3-0.9,0-0.9-0.5l0-6.9c0-0.5,0.4-1.2,0.9-1.4
							c2.1-1.1,5.5-3.1,7.6-4.3C144.2,208.3,144.6,208.5,144.6,209.1z"/>
					</defs>
					<clipPath id="SVGID_8_">
						<use xlink:href="#SVGID_7_"  style="overflow:visible;"/>
					</clipPath>
					<g id="XMLID_1821_" class="st25">
						<polygon id="XMLID_1822_" class="st3" points="138.3,218 138.7,217.5 138.7,214 138.3,214.4 						"/>
					</g>
				</g>
				<g>
					<defs>
						<path id="SVGID_9_" d="M144.6,209.1v6.9c0,0.5-0.4,1.2-0.9,1.4l-7.6,4.3c-0.5,0.3-0.9,0-0.9-0.5l0-6.9c0-0.5,0.4-1.2,0.9-1.4
							c2.1-1.1,5.5-3.1,7.6-4.3C144.2,208.3,144.6,208.5,144.6,209.1z"/>
					</defs>
					<clipPath id="SVGID_10_">
						<use xlink:href="#SVGID_9_"  style="overflow:visible;"/>
					</clipPath>
					<g id="XMLID_1490_" class="st26">
						<polygon id="XMLID_1820_" class="st3" points="146.1,213.7 146.3,213.2 133.8,220.1 133.6,220.7 						"/>
					</g>
				</g>
			</g>
			<g>
				<g id="XMLID_1446_">
					<g>
						<path id="XMLID_200_" class="st4" d="M95.4,217.5c-0.3-0.2-0.5-0.7-0.5-1.4c0-0.7,0.2-1.4,0.5-1.9c0.3-0.5,0.7-1,1.3-1.3
							c0.2-0.1,0.5-0.2,0.6-0.3c0.2,0,0.4-0.1,0.5,0c0,0,0,0,0,0.1c0,0,0,0.1,0,0.1l-0.2,0.5c0,0.1,0,0.1-0.1,0.1c0,0,0,0-0.1,0
							c-0.2,0-0.5,0-0.7,0.2c-0.3,0.2-0.6,0.5-0.8,0.8c-0.2,0.3-0.3,0.8-0.3,1.3c0,0.5,0.1,0.8,0.3,0.9c0.2,0.1,0.5,0.1,0.8-0.1
							c0.3-0.2,0.6-0.4,0.8-0.7c0,0,0.1-0.1,0.1-0.1c0,0,0,0,0.1,0l0.2,0.3c0,0,0,0,0,0.1c0,0,0,0.1-0.1,0.1c-0.3,0.4-0.6,0.7-1.2,1
							C96.2,217.7,95.7,217.7,95.4,217.5z"/>
						<path id="XMLID_197_" class="st4" d="M98.4,216.3c0,0-0.1-0.1-0.1-0.2v-3.7c0-0.1,0-0.2,0.1-0.2c0-0.1,0.1-0.1,0.2-0.2
							l1.2-0.7c0.8-0.5,1.2-0.2,1.2,0.7c0,0.3,0,0.6-0.1,0.8c-0.1,0.3-0.2,0.5-0.4,0.7l0.5,1.1c0,0,0,0,0,0.1c0,0.1,0,0.1-0.1,0.2
							l-0.5,0.3c0,0-0.1,0-0.1,0c0,0,0,0-0.1-0.1l-0.4-1.1l-0.6,0.3v1.2c0,0.1,0,0.2,0,0.2c0,0.1-0.1,0.1-0.2,0.2l-0.4,0.2
							C98.5,216.3,98.4,216.3,98.4,216.3z M99.7,213.4c0.2-0.1,0.3-0.2,0.4-0.4c0.1-0.2,0.1-0.3,0.1-0.5c0-0.2,0-0.4-0.1-0.4
							c-0.1-0.1-0.2,0-0.4,0.1l-0.6,0.3v1.2L99.7,213.4z"/>
						<path id="XMLID_195_" class="st4" d="M101.5,214.6c0,0-0.1-0.1-0.1-0.2v-3.7c0-0.1,0-0.2,0.1-0.2c0-0.1,0.1-0.1,0.2-0.2l2-1.1
							c0.1,0,0.1-0.1,0.2,0c0,0,0,0.1,0,0.2v0.2c0,0.1,0,0.2,0,0.2c0,0.1-0.1,0.1-0.2,0.2l-1.4,0.8v1l1-0.6c0.1,0,0.1-0.1,0.2,0
							c0,0,0,0.1,0,0.2v0.2c0,0.1,0,0.2,0,0.2c0,0.1-0.1,0.1-0.2,0.2l-1,0.6v1l1.4-0.8c0.1,0,0.1-0.1,0.2,0c0,0,0,0.1,0,0.2v0.2
							c0,0.1,0,0.2,0,0.2c0,0.1-0.1,0.1-0.2,0.1l-2,1.1C101.6,214.6,101.5,214.6,101.5,214.6z"/>
						<path id="XMLID_192_" class="st4" d="M104.3,213c0,0-0.1-0.1-0.1-0.2v-3.7c0-0.1,0-0.2,0.1-0.2c0-0.1,0.1-0.1,0.2-0.2l1-0.6
							c0.6-0.3,1-0.4,1.3-0.2c0.3,0.2,0.4,0.6,0.4,1.4c0,0.7-0.1,1.3-0.4,1.8c-0.3,0.5-0.7,0.9-1.3,1.2l-1,0.6
							C104.4,213,104.3,213,104.3,213z M105.5,211.6c0.3-0.2,0.5-0.4,0.7-0.7c0.1-0.3,0.2-0.7,0.2-1.2c0-0.5-0.1-0.8-0.2-0.9
							c-0.1-0.1-0.4-0.1-0.6,0.1l-0.5,0.3v2.7L105.5,211.6z"/>
						<path id="XMLID_190_" class="st4" d="M107.7,211.2c0,0-0.1-0.1-0.1-0.2v-3.7c0-0.1,0-0.2,0.1-0.2c0-0.1,0.1-0.1,0.2-0.2
							l0.4-0.2c0.1,0,0.1-0.1,0.2,0c0,0,0,0.1,0,0.2v3.7c0,0.1,0,0.2,0,0.2c0,0.1-0.1,0.1-0.2,0.2l-0.4,0.2
							C107.7,211.2,107.7,211.2,107.7,211.2z"/>
						<path id="XMLID_188_" class="st4" d="M109.8,210c0,0-0.1-0.1-0.1-0.2v-3.2l-0.8,0.4c-0.1,0-0.1,0.1-0.2,0c0,0,0-0.1,0-0.2
							v-0.2c0-0.1,0-0.2,0-0.2c0-0.1,0.1-0.1,0.2-0.2l2.4-1.3c0.1,0,0.1-0.1,0.2,0c0,0,0,0.1,0,0.2v0.2c0,0.1,0,0.2,0,0.2
							c0,0.1-0.1,0.1-0.2,0.2l-0.8,0.4v3.2c0,0.1,0,0.2-0.1,0.2c0,0.1-0.1,0.1-0.2,0.2l-0.4,0.2C109.9,210,109.8,210,109.8,210z"/>
						<path id="XMLID_186_" class="st4" d="M114,207.3c-0.3-0.2-0.5-0.7-0.5-1.4c0-0.7,0.2-1.4,0.5-1.9c0.3-0.5,0.7-1,1.3-1.3
							c0.2-0.1,0.5-0.2,0.6-0.3c0.2,0,0.4-0.1,0.5,0c0,0,0,0,0,0.1c0,0,0,0.1,0,0.1l-0.2,0.5c0,0.1,0,0.1-0.1,0.1c0,0,0,0-0.1,0
							c-0.2,0-0.5,0-0.7,0.2c-0.3,0.2-0.6,0.5-0.8,0.8c-0.2,0.3-0.3,0.8-0.3,1.3c0,0.5,0.1,0.8,0.3,0.9c0.2,0.1,0.5,0.1,0.8-0.1
							c0.3-0.2,0.6-0.4,0.8-0.7c0,0,0.1-0.1,0.1-0.1c0,0,0,0,0.1,0l0.2,0.3c0,0,0,0,0,0.1c0,0,0,0.1-0.1,0.1c-0.3,0.4-0.6,0.7-1.2,1
							C114.7,207.4,114.3,207.5,114,207.3z"/>
						<path id="XMLID_183_" class="st4" d="M116.7,206.1c0,0,0-0.1,0-0.1l1.3-4.5c0-0.1,0-0.1,0.1-0.2c0,0,0.1-0.1,0.1-0.1l0.4-0.2
							c0.1,0,0.1,0,0.1,0c0,0,0.1,0,0.1,0.1l1.3,3.1c0,0,0,0.1,0,0.1c0,0.1,0,0.1-0.1,0.2l-0.6,0.3c0,0-0.1,0-0.1,0c0,0,0,0-0.1-0.1
							l-0.2-0.6l-1.2,0.7l-0.2,0.9c0,0.1,0,0.1-0.1,0.1c0,0-0.1,0.1-0.1,0.1L116.7,206.1C116.7,206.2,116.7,206.2,116.7,206.1z
							 M118.8,203.5l-0.4-1.1l-0.4,1.6L118.8,203.5z"/>
						<path id="XMLID_180_" class="st4" d="M120.5,204.1c0,0-0.1-0.1-0.1-0.2v-3.7c0-0.1,0-0.2,0.1-0.2c0-0.1,0.1-0.1,0.2-0.2
							l1.2-0.7c0.8-0.5,1.2-0.2,1.2,0.7c0,0.3,0,0.6-0.1,0.8c-0.1,0.3-0.2,0.5-0.4,0.7l0.5,1.1c0,0,0,0,0,0.1c0,0.1,0,0.1-0.1,0.2
							l-0.5,0.3c0,0-0.1,0-0.1,0c0,0,0,0-0.1-0.1l-0.4-1.1l-0.6,0.3v1.2c0,0.1,0,0.2,0,0.2c0,0.1-0.1,0.1-0.2,0.2l-0.4,0.2
							C120.6,204.1,120.5,204.1,120.5,204.1z M121.8,201.2c0.2-0.1,0.3-0.2,0.4-0.4c0.1-0.2,0.1-0.3,0.1-0.5c0-0.2,0-0.4-0.1-0.4
							c-0.1-0.1-0.2,0-0.4,0.1l-0.6,0.3v1.2L121.8,201.2z"/>
						<path id="XMLID_177_" class="st4" d="M123.6,202.4c0,0-0.1-0.1-0.1-0.2v-3.7c0-0.1,0-0.2,0.1-0.2c0-0.1,0.1-0.1,0.2-0.2l1-0.6
							c0.6-0.3,1-0.4,1.3-0.2c0.3,0.2,0.4,0.6,0.4,1.4c0,0.7-0.1,1.3-0.4,1.8c-0.3,0.5-0.7,0.9-1.3,1.2l-1,0.6
							C123.7,202.4,123.6,202.4,123.6,202.4z M124.8,201c0.3-0.2,0.5-0.4,0.7-0.7c0.1-0.3,0.2-0.7,0.2-1.2c0-0.5-0.1-0.8-0.2-0.9
							c-0.1-0.1-0.4-0.1-0.7,0.1l-0.5,0.3v2.7L124.8,201z"/>
					</g>
				</g>
				<g id="XMLID_1430_" class="st27">
					<path id="XMLID_1444_" class="st4" d="M95.4,217.5c-0.3-0.2-0.5-0.7-0.5-1.4c0-0.7,0.2-1.4,0.5-1.9c0.3-0.5,0.7-1,1.3-1.3
						c0.2-0.1,0.5-0.2,0.6-0.3c0.2,0,0.4-0.1,0.5,0c0,0,0,0,0,0.1c0,0,0,0.1,0,0.1l-0.2,0.5c0,0.1,0,0.1-0.1,0.1c0,0,0,0-0.1,0
						c-0.2,0-0.5,0-0.7,0.2c-0.3,0.2-0.6,0.5-0.8,0.8c-0.2,0.3-0.3,0.8-0.3,1.3c0,0.5,0.1,0.8,0.3,0.9c0.2,0.1,0.5,0.1,0.8-0.1
						c0.3-0.2,0.6-0.4,0.8-0.7c0,0,0.1-0.1,0.1-0.1c0,0,0,0,0.1,0l0.2,0.3c0,0,0,0,0,0.1c0,0,0,0.1-0.1,0.1c-0.3,0.4-0.6,0.7-1.2,1
						C96.2,217.7,95.7,217.7,95.4,217.5z"/>
					<path id="XMLID_1852_" class="st4" d="M98.4,216.3c0,0-0.1-0.1-0.1-0.2v-3.7c0-0.1,0-0.2,0.1-0.2c0-0.1,0.1-0.1,0.2-0.2
						l1.2-0.7c0.8-0.5,1.2-0.2,1.2,0.7c0,0.3,0,0.6-0.1,0.8c-0.1,0.3-0.2,0.5-0.4,0.7l0.5,1.1c0,0,0,0,0,0.1c0,0.1,0,0.1-0.1,0.2
						l-0.5,0.3c0,0-0.1,0-0.1,0c0,0,0,0-0.1-0.1l-0.4-1.1l-0.6,0.3v1.2c0,0.1,0,0.2,0,0.2c0,0.1-0.1,0.1-0.2,0.2l-0.4,0.2
						C98.5,216.3,98.4,216.3,98.4,216.3z M99.7,213.4c0.2-0.1,0.3-0.2,0.4-0.4c0.1-0.2,0.1-0.3,0.1-0.5c0-0.2,0-0.4-0.1-0.4
						c-0.1-0.1-0.2,0-0.4,0.1l-0.6,0.3v1.2L99.7,213.4z"/>
					<path id="XMLID_1850_" class="st4" d="M101.5,214.6c0,0-0.1-0.1-0.1-0.2v-3.7c0-0.1,0-0.2,0.1-0.2c0-0.1,0.1-0.1,0.2-0.2l2-1.1
						c0.1,0,0.1-0.1,0.2,0c0,0,0,0.1,0,0.2v0.2c0,0.1,0,0.2,0,0.2c0,0.1-0.1,0.1-0.2,0.2l-1.4,0.8v1l1-0.6c0.1,0,0.1-0.1,0.2,0
						c0,0,0,0.1,0,0.2v0.2c0,0.1,0,0.2,0,0.2c0,0.1-0.1,0.1-0.2,0.2l-1,0.6v1l1.4-0.8c0.1,0,0.1-0.1,0.2,0c0,0,0,0.1,0,0.2v0.2
						c0,0.1,0,0.2,0,0.2c0,0.1-0.1,0.1-0.2,0.1l-2,1.1C101.6,214.6,101.5,214.6,101.5,214.6z"/>
					<path id="XMLID_1440_" class="st4" d="M104.3,213c0,0-0.1-0.1-0.1-0.2v-3.7c0-0.1,0-0.2,0.1-0.2c0-0.1,0.1-0.1,0.2-0.2l1-0.6
						c0.6-0.3,1-0.4,1.3-0.2c0.3,0.2,0.4,0.6,0.4,1.4c0,0.7-0.1,1.3-0.4,1.8c-0.3,0.5-0.7,0.9-1.3,1.2l-1,0.6
						C104.4,213,104.3,213,104.3,213z M105.5,211.6c0.3-0.2,0.5-0.4,0.7-0.7c0.1-0.3,0.2-0.7,0.2-1.2c0-0.5-0.1-0.8-0.2-0.9
						c-0.1-0.1-0.4-0.1-0.6,0.1l-0.5,0.3v2.7L105.5,211.6z"/>
					<path id="XMLID_1845_" class="st4" d="M107.7,211.2c0,0-0.1-0.1-0.1-0.2v-3.7c0-0.1,0-0.2,0.1-0.2c0-0.1,0.1-0.1,0.2-0.2
						l0.4-0.2c0.1,0,0.1-0.1,0.2,0c0,0,0,0.1,0,0.2v3.7c0,0.1,0,0.2,0,0.2c0,0.1-0.1,0.1-0.2,0.2l-0.4,0.2
						C107.7,211.2,107.7,211.2,107.7,211.2z"/>
					<path id="XMLID_1843_" class="st4" d="M109.8,210c0,0-0.1-0.1-0.1-0.2v-3.2l-0.8,0.4c-0.1,0-0.1,0.1-0.2,0c0,0,0-0.1,0-0.2
						v-0.2c0-0.1,0-0.2,0-0.2c0-0.1,0.1-0.1,0.2-0.2l2.4-1.3c0.1,0,0.1-0.1,0.2,0c0,0,0,0.1,0,0.2v0.2c0,0.1,0,0.2,0,0.2
						c0,0.1-0.1,0.1-0.2,0.2l-0.8,0.4v3.2c0,0.1,0,0.2-0.1,0.2c0,0.1-0.1,0.1-0.2,0.2l-0.4,0.2C109.9,210,109.8,210,109.8,210z"/>
					<path id="XMLID_1841_" class="st4" d="M114,207.3c-0.3-0.2-0.5-0.7-0.5-1.4c0-0.7,0.2-1.4,0.5-1.9c0.3-0.5,0.7-1,1.3-1.3
						c0.2-0.1,0.5-0.2,0.6-0.3c0.2,0,0.4-0.1,0.5,0c0,0,0,0,0,0.1c0,0,0,0.1,0,0.1l-0.2,0.5c0,0.1,0,0.1-0.1,0.1c0,0,0,0-0.1,0
						c-0.2,0-0.5,0-0.7,0.2c-0.3,0.2-0.6,0.5-0.8,0.8c-0.2,0.3-0.3,0.8-0.3,1.3c0,0.5,0.1,0.8,0.3,0.9c0.2,0.1,0.5,0.1,0.8-0.1
						c0.3-0.2,0.6-0.4,0.8-0.7c0,0,0.1-0.1,0.1-0.1c0,0,0,0,0.1,0l0.2,0.3c0,0,0,0,0,0.1c0,0,0,0.1-0.1,0.1c-0.3,0.4-0.6,0.7-1.2,1
						C114.7,207.4,114.3,207.5,114,207.3z"/>
					<path id="XMLID_1434_" class="st4" d="M116.7,206.1c0,0,0-0.1,0-0.1l1.3-4.5c0-0.1,0-0.1,0.1-0.2c0,0,0.1-0.1,0.1-0.1l0.4-0.2
						c0.1,0,0.1,0,0.1,0c0,0,0.1,0,0.1,0.1l1.3,3.1c0,0,0,0.1,0,0.1c0,0.1,0,0.1-0.1,0.2l-0.6,0.3c0,0-0.1,0-0.1,0c0,0,0,0-0.1-0.1
						l-0.2-0.6l-1.2,0.7l-0.2,0.9c0,0.1,0,0.1-0.1,0.1c0,0-0.1,0.1-0.1,0.1L116.7,206.1C116.7,206.2,116.7,206.2,116.7,206.1z
						 M118.8,203.5l-0.4-1.1l-0.4,1.6L118.8,203.5z"/>
					<path id="XMLID_1835_" class="st4" d="M120.5,204.1c0,0-0.1-0.1-0.1-0.2v-3.7c0-0.1,0-0.2,0.1-0.2c0-0.1,0.1-0.1,0.2-0.2
						l1.2-0.7c0.8-0.5,1.2-0.2,1.2,0.7c0,0.3,0,0.6-0.1,0.8c-0.1,0.3-0.2,0.5-0.4,0.7l0.5,1.1c0,0,0,0,0,0.1c0,0.1,0,0.1-0.1,0.2
						l-0.5,0.3c0,0-0.1,0-0.1,0c0,0,0,0-0.1-0.1l-0.4-1.1l-0.6,0.3v1.2c0,0.1,0,0.2,0,0.2c0,0.1-0.1,0.1-0.2,0.2l-0.4,0.2
						C120.6,204.1,120.5,204.1,120.5,204.1z M121.8,201.2c0.2-0.1,0.3-0.2,0.4-0.4c0.1-0.2,0.1-0.3,0.1-0.5c0-0.2,0-0.4-0.1-0.4
						c-0.1-0.1-0.2,0-0.4,0.1l-0.6,0.3v1.2L121.8,201.2z"/>
					<path id="XMLID_1807_" class="st4" d="M123.6,202.4c0,0-0.1-0.1-0.1-0.2v-3.7c0-0.1,0-0.2,0.1-0.2c0-0.1,0.1-0.1,0.2-0.2l1-0.6
						c0.6-0.3,1-0.4,1.3-0.2c0.3,0.2,0.4,0.6,0.4,1.4c0,0.7-0.1,1.3-0.4,1.8c-0.3,0.5-0.7,0.9-1.3,1.2l-1,0.6
						C123.7,202.4,123.6,202.4,123.6,202.4z M124.8,201c0.3-0.2,0.5-0.4,0.7-0.7c0.1-0.3,0.2-0.7,0.2-1.2c0-0.5-0.1-0.8-0.2-0.9
						c-0.1-0.1-0.4-0.1-0.7,0.1l-0.5,0.3v2.7L124.8,201z"/>
				</g>
			</g>
			<g>
				<g>
					<path id="XMLID_1811_" class="st5" d="M100,231.8l2.2-1.2c0.3-0.2,0.5,0,0.5,0.3v0.6c0,0.3-0.2,0.7-0.5,0.8l-2.2,1.2
						c-0.3,0.2-0.5,0-0.5-0.3v-0.6C99.5,232.3,99.8,231.9,100,231.8z"/>
					<path id="XMLID_1810_" class="st5" d="M95.2,234.4l2.2-1.2c0.3-0.2,0.5,0,0.5,0.3v0.6c0,0.3-0.2,0.7-0.5,0.8l-2.2,1.2
						c-0.3,0.2-0.5,0-0.5-0.3v-0.6C94.7,235,95,234.6,95.2,234.4z"/>
					<path id="XMLID_1808_" class="st5" d="M122.7,223.7l-27.1,14.9c-0.5,0.3-0.9,0.9-0.9,1.4v0.8c0,0.5,0.4,0.7,0.9,0.5l27.1-14.9
						c0.5-0.3,0.9-0.9,0.9-1.4v-0.8C123.5,223.6,123.1,223.4,122.7,223.7z"/>
				</g>
				<g>
					<path id="XMLID_1429_" class="st4" d="M100,231.8l2.2-1.2c0.3-0.2,0.5,0,0.5,0.3v0.6c0,0.3-0.2,0.7-0.5,0.8l-2.2,1.2
						c-0.3,0.2-0.5,0-0.5-0.3v-0.6C99.5,232.3,99.8,231.9,100,231.8z"/>
					<path id="XMLID_1428_" class="st4" d="M95.2,234.4l2.2-1.2c0.3-0.2,0.5,0,0.5,0.3v0.6c0,0.3-0.2,0.7-0.5,0.8l-2.2,1.2
						c-0.3,0.2-0.5,0-0.5-0.3v-0.6C94.7,235,95,234.6,95.2,234.4z"/>
					<path id="XMLID_1399_" class="st4" d="M122.7,223.7l-27.1,14.9c-0.5,0.3-0.9,0.9-0.9,1.4v0.8c0,0.5,0.4,0.7,0.9,0.5l27.1-14.9
						c0.5-0.3,0.9-0.9,0.9-1.4v-0.8C123.5,223.6,123.1,223.4,122.7,223.7z"/>
				</g>
			</g>
			<g>
				<g>
					<path class="st5" d="M95.3,227.2l0.1-0.1c0.3-0.2,0.6,0,0.6,0.4v2c0,0.4-0.3,0.9-0.6,1l-0.1,0c-0.3,0.2-0.6,0-0.6-0.4v-2.1
						C94.7,227.8,95,227.3,95.3,227.2z"/>
					<path class="st5" d="M98.1,225.6l0.1-0.1c0.3-0.2,0.6,0,0.6,0.4v2c0,0.4-0.3,0.9-0.6,1l-0.1,0.1c-0.3,0.2-0.6,0-0.6-0.4v-2.1
						C97.6,226.2,97.8,225.8,98.1,225.6z"/>
					<path class="st5" d="M101,224l0.1-0.1c0.3-0.2,0.6,0,0.6,0.4v2c0,0.4-0.3,0.9-0.6,1l-0.1,0.1c-0.3,0.2-0.6,0-0.6-0.4V225
						C100.4,224.7,100.7,224.2,101,224z"/>
					<path class="st5" d="M103.9,222.5l0.1-0.1c0.3-0.2,0.6,0,0.6,0.4v2c0,0.4-0.3,0.9-0.6,1l-0.1,0c-0.3,0.2-0.6,0-0.6-0.4v-2.1
						C103.3,223.1,103.6,222.6,103.9,222.5z"/>
				</g>
				<g>
					<path class="st5" d="M108.7,219.8l0.1-0.1c0.3-0.2,0.6,0,0.6,0.4v2c0,0.4-0.3,0.9-0.6,1l-0.1,0.1c-0.3,0.2-0.6,0-0.6-0.4v-2.1
						C108.1,220.4,108.3,220,108.7,219.8z"/>
					<path class="st5" d="M111.5,218.2l0.1-0.1c0.3-0.2,0.6,0,0.6,0.4v2c0,0.4-0.3,0.9-0.6,1l-0.1,0.1c-0.3,0.2-0.6,0-0.6-0.4v-2.1
						C111,218.8,111.2,218.4,111.5,218.2z"/>
					<path class="st5" d="M114.4,216.7l0.1-0.1c0.3-0.2,0.6,0,0.6,0.4v2c0,0.4-0.3,0.9-0.6,1l-0.1,0.1c-0.3,0.2-0.6,0-0.6-0.4v-2.1
						C113.8,217.3,114.1,216.8,114.4,216.7z"/>
					<path class="st5" d="M117.2,215.1l0.1-0.1c0.3-0.2,0.6,0,0.6,0.4v2c0,0.4-0.3,0.9-0.6,1l-0.1,0.1c-0.3,0.2-0.6,0-0.6-0.4v-2.1
						C116.7,215.7,116.9,215.3,117.2,215.1z"/>
				</g>
				<g>
					<path class="st5" d="M122,212.4l0.1-0.1c0.3-0.2,0.6,0,0.6,0.4v2c0,0.4-0.3,0.9-0.6,1l-0.1,0.1c-0.3,0.2-0.6,0-0.6-0.4v-2.1
						C121.5,213,121.7,212.6,122,212.4z"/>
					<path class="st5" d="M124.9,210.8l0.1-0.1c0.3-0.2,0.6,0,0.6,0.4v2c0,0.4-0.3,0.9-0.6,1l-0.1,0c-0.3,0.2-0.6,0-0.6-0.4v-2.1
						C124.3,211.5,124.6,211,124.9,210.8z"/>
					<path class="st5" d="M127.7,209.3l0.1-0.1c0.3-0.2,0.6,0,0.6,0.4v2c0,0.4-0.3,0.9-0.6,1l-0.1,0c-0.3,0.2-0.6,0-0.6-0.4v-2.1
						C127.2,209.9,127.4,209.4,127.7,209.3z"/>
					<path class="st5" d="M130.6,207.7l0.1-0.1c0.3-0.2,0.6,0,0.6,0.4v2c0,0.4-0.3,0.9-0.6,1l-0.1,0.1c-0.3,0.2-0.6,0-0.6-0.4v-2.1
						C130,208.3,130.3,207.9,130.6,207.7z"/>
				</g>
				<g>
					<path class="st5" d="M135.4,205l0.1-0.1c0.3-0.2,0.6,0,0.6,0.4v2c0,0.4-0.3,0.9-0.6,1l-0.1,0.1c-0.3,0.2-0.6,0-0.6-0.4V206
						C134.8,205.7,135.1,205.2,135.4,205z"/>
					<path class="st5" d="M138.2,203.5l0.1-0.1c0.3-0.2,0.6,0,0.6,0.4v2c0,0.4-0.3,0.9-0.6,1l-0.1,0.1c-0.3,0.2-0.6,0-0.6-0.4v-2.1
						C137.7,204.1,137.9,203.6,138.2,203.5z"/>
					<path class="st5" d="M141.1,201.9l0.1-0.1c0.3-0.2,0.6,0,0.6,0.4v2c0,0.4-0.3,0.9-0.6,1l-0.1,0.1c-0.3,0.2-0.6,0-0.6-0.4v-2.1
						C140.5,202.5,140.8,202.1,141.1,201.9z"/>
					<path class="st5" d="M144,200.3l0.1-0.1c0.3-0.2,0.6,0,0.6,0.4v2c0,0.4-0.3,0.9-0.6,1l-0.1,0.1c-0.3,0.2-0.6,0-0.6-0.4v-2.1
						C143.4,201,143.6,200.5,144,200.3z"/>
				</g>
			</g>
		</g>
		<polygon class="st5" points="91.8,213.1 89.6,211.8 89.6,222.4 91.9,223.7 		"/>
		<polygon class="st16" points="91.8,213.1 89.6,211.8 89.6,222.4 91.9,223.7 		"/>
	</g>
</g>
<g id="Fingerprint_1_">
	<g id="Fingerprint">
		<g id="XMLID_1470_">
			<path id="XMLID_1471_" class="st28" d="M89.8,111.1v33.7c0,0.5,0.3,1,0.7,1.2l1.3,0.7c0.4,0.2,1.1,0.2,1.5,0l25-13.7
				c0.4-0.2,0.7-0.8,0.7-1.2V98.1c0-0.5-0.3-1-0.7-1.2l-1.3-0.7c-0.4-0.2-1.1-0.2-1.5,0l-25,13.7C90.2,110.1,89.8,110.7,89.8,111.1z
				"/>
			<path id="XMLID_2877_" class="st0" d="M119.1,98c-0.1-0.4-0.4-0.5-0.7-0.3l-25,13.7c-0.2,0.1-0.4,0.3-0.5,0.5l-2.8-1.5
				c0.1-0.2,0.3-0.4,0.5-0.5l25-13.7c0.4-0.2,1.1-0.2,1.5,0l1.3,0.7C118.7,97.1,119,97.5,119.1,98z"/>
			<path id="XMLID_2882_" class="st1" d="M93.2,146.8C93.2,146.9,93.2,146.9,93.2,146.8c-0.1,0-0.1,0-0.1,0c0,0,0,0,0,0
				c0,0-0.1,0-0.2,0c-0.3,0.1-0.6,0-0.9-0.1c-0.1,0-0.1,0-0.2-0.1l-1.3-0.7c-0.4-0.2-0.7-0.8-0.7-1.2v-33.7c0-0.2,0.1-0.5,0.2-0.7
				l2.8,1.5c-0.1,0.2-0.2,0.5-0.2,0.7v33.7c0,0.2,0,0.3,0.1,0.4c0.1,0.1,0.2,0.2,0.4,0.1C93.2,146.9,93.2,146.9,93.2,146.8z"/>
		</g>
		<g id="XMLID_1448_">
			<g id="XMLID_2542_">
				<path class="st4" d="M111.8,124.8c-0.9,0-1.7-0.2-2.3-0.6c-0.1-0.1-0.1-0.2-0.1-0.3c0.1-0.1,0.2-0.1,0.3-0.1
					c0.8,0.5,1.9,0.6,3.3,0.4c0.1,0,0.3,0.1,0.3,0.2c0,0.1-0.1,0.2-0.2,0.3C112.6,124.8,112.2,124.8,111.8,124.8z"/>
			</g>
			<g id="XMLID_2589_">
				<path class="st4" d="M109.2,123.7c-0.1,0-0.1,0-0.2-0.1c-0.8-0.9-0.9-2.3-1-3.7c0-0.2,0-0.5-0.1-0.7c-0.1-0.7-0.2-1.1-0.5-1.3
					c-0.2-0.1-0.5-0.2-0.9-0.1c-0.1,0-0.3,0-0.3-0.2c0-0.1,0-0.2,0.2-0.3c0.5-0.1,1-0.1,1.3,0.1c0.4,0.3,0.7,0.8,0.7,1.7
					c0,0.3,0,0.5,0.1,0.7c0.1,1.4,0.2,2.6,0.9,3.4c0.1,0.1,0.1,0.2,0,0.3C109.3,123.7,109.3,123.7,109.2,123.7z"/>
			</g>
			<g id="XMLID_1469_">
				<path class="st4" d="M104.7,127c-0.1,0-0.2-0.1-0.2-0.1c-0.8-1.9-1.2-7.6,1.1-9.1c0.1-0.1,0.3,0,0.3,0.1c0.1,0.1,0,0.2-0.1,0.3
					c-2.1,1.4-1.7,6.8-1,8.6C105,126.8,105,126.9,104.7,127C104.8,127,104.8,127,104.7,127z"/>
			</g>
			<g id="XMLID_1468_">
				<path class="st4" d="M110.4,130.5c-2.4,0-4.3-1-5.4-2.9c-0.1-0.1,0-0.2,0.1-0.3c0.1-0.1,0.3,0,0.3,0.1c1.2,2,3.3,2.9,6,2.6
					c0.1,0,0.2,0.1,0.3,0.2c0,0.1-0.1,0.2-0.2,0.3C111.1,130.5,110.7,130.5,110.4,130.5z"/>
			</g>
			<g id="XMLID_1467_">
				<path class="st4" d="M110.9,129.2c-1.6,0-2.9-0.4-3.9-1.3c-1.5-1.4-2.1-3.8-1.9-7.2c0-0.6,0.4-1.5,1-1.8c0.3-0.2,0.6-0.2,0.9,0
					c0.3,0.2,0.5,0.5,0.5,0.9c0,2.7,0.5,4.5,1.6,5.4c0.9,0.7,2.1,0.9,3.7,0.6c0.1,0,0.3,0.1,0.3,0.2c0,0.1-0.1,0.2-0.2,0.3
					c-1.8,0.3-3.1,0.1-4.1-0.7c-1.2-1-1.8-2.9-1.8-5.8c0-0.2-0.1-0.4-0.2-0.5c-0.1-0.1-0.3-0.1-0.4,0c-0.4,0.2-0.7,0.8-0.8,1.4
					c-0.2,3.3,0.3,5.5,1.7,6.8c1,1,2.6,1.3,4.5,1.1c0.1,0,0.2,0.1,0.3,0.2c0,0.1-0.1,0.2-0.2,0.3
					C111.6,129.1,111.2,129.2,110.9,129.2z"/>
			</g>
			<g id="XMLID_1463_">
				<g id="XMLID_1466_">
					<path class="st4" d="M109.8,132c-2,0-3.5-0.6-4.7-1.7c-1.7-1.6-2.5-4.4-2.3-8.3c0.1-2.1,1-4.8,2.9-5.9l0.1,0
						c0.9-0.5,1.7-0.5,2.3-0.2c0.8,0.4,1.3,1.4,1.4,2.7l0,0.2c0.1,1.3,0.2,2.7,1.1,3.4c0.6,0.4,1.5,0.6,2.7,0.4
						c0.1,0,0.3,0.1,0.3,0.2c0,0.1-0.1,0.2-0.2,0.3c-1.3,0.2-2.3,0.1-3-0.5c-1.1-0.8-1.2-2.4-1.3-3.7l0-0.2c-0.1-1.2-0.5-2-1.2-2.3
						c-0.5-0.3-1.2-0.2-1.9,0.2l-0.1,0c-1.8,1-2.6,3.6-2.7,5.5c-0.2,3.7,0.5,6.4,2.1,8c1.2,1.1,2.9,1.6,5,1.5c0.1,0,0.2,0.1,0.3,0.2
						c0,0.1-0.1,0.2-0.2,0.2C110.2,132,110,132,109.8,132z"/>
				</g>
				<g id="XMLID_2518_">
					<path class="st4" d="M109.4,133.7L109.4,133.7c-0.8,0-1.6-0.1-2.5-0.4c-0.1,0-0.2-0.2-0.1-0.3c0-0.1,0.2-0.2,0.3-0.1
						c0.8,0.3,1.6,0.4,2.3,0.4c0.1,0,0.2,0.1,0.2,0.2C109.6,133.6,109.5,133.7,109.4,133.7z"/>
				</g>
				<g id="XMLID_2511_">
					<path class="st4" d="M106.1,133C106.1,133,106.1,133,106.1,133c-1.6-0.7-2.7-1.6-3.3-2.9c-0.1-0.1,0-0.3,0.1-0.3
						c0.1-0.1,0.3,0,0.3,0.1c0.6,1.1,1.6,2,3,2.6c0.1,0.1,0.2,0.2,0.1,0.3C106.3,132.9,106.2,133,106.1,133z"/>
				</g>
				<g id="XMLID_1465_">
					<path class="st4" d="M102.6,129.3c-0.1,0-0.2-0.1-0.2-0.2c-0.9-2.6-1.5-7.8,0.7-11.8c0.1-0.1,0.2-0.2,0.3-0.1
						c0.1,0.1,0.2,0.2,0.1,0.3c-2.2,3.8-1.6,8.9-0.7,11.4C102.9,129.1,102.8,129.2,102.6,129.3C102.7,129.3,102.6,129.3,102.6,129.3
						z"/>
				</g>
				<g id="XMLID_2524_">
					<path class="st4" d="M110.4,118.6c-0.1,0-0.2-0.1-0.2-0.2c-0.2-2.3-0.9-3.4-2.2-3.7c-1.2-0.3-2.8,0.6-4,2.1
						c-0.1,0.1-0.2,0.1-0.3,0.1c-0.1-0.1-0.1-0.2-0.1-0.3c1.3-1.7,3-2.6,4.4-2.3c1.9,0.4,2.4,2.3,2.5,4.1
						C110.7,118.5,110.6,118.6,110.4,118.6C110.4,118.6,110.4,118.6,110.4,118.6z"/>
				</g>
				<g id="XMLID_2514_">
					<path class="st4" d="M112.5,121.8c-0.4,0-0.8-0.1-1.1-0.3c-0.6-0.3-0.9-1-1-1.8c0-0.1,0.1-0.2,0.2-0.3c0.1,0,0.2,0.1,0.3,0.2
						c0.1,0.7,0.4,1.2,0.8,1.5c0.5,0.3,1.1,0.3,1.8,0c0.1,0,0.3,0,0.3,0.1c0,0.1,0,0.2-0.1,0.3C113.2,121.8,112.8,121.8,112.5,121.8
						z"/>
				</g>
				<g id="XMLID_1464_">
					<path class="st4" d="M108.4,134.9C108.4,134.9,108.4,134.9,108.4,134.9c-0.4,0-1.1-0.1-2.5-0.6c-4.2-1.6-5.8-4.9-5.6-11
						c0.1-3.5,2-8,5.3-9.9c1.4-0.8,2.6-0.9,3.6-0.4c1.2,0.6,2,2,2.3,4.1c0.3,2.3,0.9,2.7,2.1,2.7c0,0,0,0,0,0c0.1,0,0.2,0.1,0.2,0.2
						c0,0.1-0.1,0.2-0.2,0.2c-1.6,0-2.3-0.7-2.6-3.1c-0.3-2-1-3.3-2-3.7c-0.8-0.4-1.9-0.3-3.1,0.4c-3.2,1.8-5,6.1-5.1,9.5
						c-0.3,7.4,2.5,9.5,5.3,10.6c1.3,0.4,2,0.5,2.4,0.6c0.1,0,0.2,0.1,0.2,0.2C108.6,134.8,108.5,134.9,108.4,134.9z"/>
				</g>
			</g>
			<g id="XMLID_1462_">
				<path class="st4" d="M113.6,118.6c-1.3,0-1.6-1.7-1.8-3c0-0.2-0.1-0.4-0.1-0.6c0-0.1,0.1-0.2,0.2-0.3c0.1,0,0.3,0.1,0.3,0.2
					c0,0.2,0.1,0.4,0.1,0.6c0.2,1.2,0.5,2.6,1.4,2.6c0.1,0,0.2,0.1,0.2,0.2C113.9,118.5,113.8,118.6,113.6,118.6
					C113.6,118.6,113.6,118.6,113.6,118.6z"/>
			</g>
			<g id="XMLID_1461_">
				<path class="st4" d="M111.7,114.4c-0.1,0-0.2-0.1-0.2-0.2c-0.5-1.5-1.4-2.4-2.6-2.6c-0.1,0-0.2-0.1-0.2-0.3
					c0-0.1,0.1-0.2,0.3-0.2c1.3,0.2,2.4,1.3,3,2.9C111.9,114.3,111.9,114.4,111.7,114.4C111.7,114.4,111.7,114.4,111.7,114.4z"/>
			</g>
			<g id="XMLID_1460_">
				<path class="st4" d="M103.9,113.8c-0.1,0-0.1,0-0.2-0.1c-0.1-0.1-0.1-0.2,0-0.3c1.4-1.4,3-2.2,4.5-2.2c0.1,0,0.2,0.1,0.2,0.2
					c0,0.1-0.1,0.2-0.2,0.2c-1.4,0.1-2.9,0.8-4.2,2.1C104,113.7,103.9,113.8,103.9,113.8z"/>
			</g>
			<g id="XMLID_1459_">
				<path class="st4" d="M99.9,120.2C99.9,120.2,99.9,120.2,99.9,120.2c-0.2,0-0.3-0.2-0.2-0.3c0.5-2,1.7-4.2,3.2-5.9
					c0.1-0.1,0.2-0.1,0.3,0c0.1,0.1,0.1,0.2,0,0.3c-1.5,1.6-2.6,3.7-3.1,5.7C100.1,120.2,100,120.2,99.9,120.2z"/>
			</g>
			<g id="XMLID_1458_">
				<path class="st4" d="M99.4,127c-0.1,0-0.2-0.1-0.2-0.2c-0.2-1.9-0.2-3.9,0.2-5.9c0-0.1,0.1-0.2,0.3-0.2c0.1,0,0.2,0.1,0.2,0.3
					c-0.4,1.9-0.4,3.9-0.2,5.7C99.6,126.8,99.6,127,99.4,127C99.4,127,99.4,127,99.4,127z"/>
			</g>
			<g id="XMLID_1457_">
				<path class="st4" d="M101.1,132.5c-0.1,0-0.2,0-0.2-0.1c-0.7-1.2-1.3-2.8-1.6-4.5c0-0.1,0.1-0.2,0.2-0.3c0.1,0,0.3,0.1,0.3,0.2
					c0.3,1.7,0.9,3.2,1.6,4.3c0.1,0.1,0,0.2-0.1,0.3C101.2,132.5,101.2,132.5,101.1,132.5z"/>
			</g>
			<g id="XMLID_1456_">
				<path class="st4" d="M106.4,136.3C106.3,136.3,106.3,136.3,106.4,136.3c-2.3-0.9-3.8-1.9-4.7-3.1c-0.1-0.1-0.1-0.2,0-0.3
					c0.1-0.1,0.3-0.1,0.3,0c0.9,1.2,2.4,2.1,4.5,2.9c0.1,0,0.2,0.2,0.1,0.3C106.5,136.3,106.5,136.3,106.4,136.3z"/>
			</g>
			<g id="XMLID_2523_">
				<path class="st4" d="M104.6,137.3C104.5,137.3,104.5,137.3,104.6,137.3c-4.4-1.7-6.7-6.1-6.7-12.6c0-5.1,2.4-11.5,7.8-14.3
					c1.7-0.9,3.7-0.9,5.3,0c1.9,1.1,2.9,3.2,2.9,5.9c0,0.1-0.1,0.2-0.2,0.2c-0.1,0-0.2-0.1-0.2-0.2c0-2.5-1-4.5-2.7-5.5
					c-1.5-0.8-3.3-0.8-4.8,0c-5.2,2.7-7.6,9-7.6,13.9c0,4.4,1.1,10.2,6.4,12.2c0.1,0,0.2,0.2,0.1,0.3
					C104.7,137.3,104.6,137.3,104.6,137.3z"/>
			</g>
			<g id="XMLID_1455_">
				<path class="st4" d="M111.2,127.8c-0.2,0-0.3,0-0.5,0c-0.1,0-0.2-0.1-0.2-0.2c0-0.1,0.1-0.2,0.3-0.2c0.5,0,1.1,0,1.8-0.1
					c0.1,0,0.2,0.1,0.3,0.2c0,0.1-0.1,0.2-0.2,0.3C112.1,127.7,111.6,127.8,111.2,127.8z"/>
			</g>
			<g id="XMLID_1454_">
				<path class="st4" d="M109.9,127.7C109.8,127.7,109.8,127.7,109.9,127.7c-1.2-0.2-2.2-0.9-2.7-1.8c-0.1-0.1,0-0.3,0.1-0.3
					c0.1-0.1,0.3,0,0.3,0.1c0.4,0.8,1.2,1.4,2.3,1.6c0.1,0,0.2,0.1,0.2,0.3C110.1,127.6,110,127.7,109.9,127.7z"/>
			</g>
			<g id="XMLID_1453_">
				<path class="st4" d="M107,125.3c-0.1,0-0.2-0.1-0.2-0.1c-0.6-1.3-0.8-3.1-0.7-5c0-0.1,0.1-0.2,0.3-0.2c0.1,0,0.2,0.1,0.2,0.2
					c-0.2,1.8,0.1,3.6,0.6,4.8C107.3,125.1,107.3,125.2,107,125.3C107.1,125.3,107.1,125.3,107,125.3z"/>
			</g>
			<g id="XMLID_1452_">
				<path class="st4" d="M111.9,109.1c0,0-0.1,0-0.1,0c-0.9-0.6-2.7-1-3.8-0.7c-0.1,0-0.3,0-0.3-0.2c0-0.1,0-0.2,0.2-0.3
					c1.3-0.3,3.2,0,4.2,0.7c0.1,0.1,0.1,0.2,0.1,0.3C112,109,112,109.1,111.9,109.1z"/>
			</g>
			<g id="XMLID_1451_">
				<path class="st4" d="M101.8,111.9c-0.1,0-0.1,0-0.2-0.1c-0.1-0.1-0.1-0.2,0-0.3c1.2-1.4,3.1-2.6,5-3.3c0.1,0,0.3,0,0.3,0.1
					c0,0.1,0,0.3-0.1,0.3c-1.8,0.7-3.7,1.8-4.8,3.1C101.9,111.9,101.9,111.9,101.8,111.9z"/>
			</g>
			<g id="XMLID_1450_">
				<path class="st4" d="M102,137.9c0,0-0.1,0-0.1,0c-0.7-0.3-1.4-0.8-1.9-1.5c-0.1-0.1-0.1-0.2,0-0.3c0.1-0.1,0.3-0.1,0.3,0
					c0.5,0.6,1.1,1.1,1.8,1.4c0.1,0.1,0.2,0.2,0.1,0.3C102.1,137.8,102.1,137.9,102,137.9z"/>
			</g>
			<g id="XMLID_1449_">
				<path class="st4" d="M99.5,135.6c-0.1,0-0.1,0-0.2-0.1c-0.7-0.9-1.3-1.9-1.7-2.9c0-0.1,0-0.2,0.1-0.3c0.1,0,0.3,0,0.3,0.1
					c0.3,0.9,0.9,1.9,1.6,2.7c0.1,0.1,0.1,0.2,0,0.3C99.6,135.6,99.6,135.6,99.5,135.6z"/>
			</g>
		</g>
	</g>
</g>
<g id="Key">
	<g id="Key_1_">
		<path id="XMLID_1507_" class="st5" d="M234,255.9c-11-6.1-28.8-6.1-39.7,0c-4.6,2.5-7.5,4.2-8.2,7.5v3.4c0,2.5,1.1,5.1,3.4,7.4
			L140.2,298v3.4l5.5,3h15.4l6.1-3.3v-3.2l4.8-2.6l6.7-0.6l2.7-1.5l0.3-5.7l5-2.7l7.3,1.6l9.5-5.2c10.2,2.3,22.3,1.2,30.6-3.4
			c5.5-3,8.2-7,8.2-11v-3.4C241.7,259.9,238.9,258.6,234,255.9z M227.1,265.7c-3.1,1.7-8.1,1.7-11.3,0c-3.1-1.7-3.1-4.5,0-6.2
			s8.1-1.7,11.3,0C230.2,261.2,230.2,264,227.1,265.7z"/>
		<path id="XMLID_1504_" class="st11" d="M234,255.9c-11-6.1-28.8-6.1-39.7,0c-4.6,2.5-7.5,4.2-8.2,7.5v3.4c0,2.5,1.1,5.1,3.4,7.4
			L140.2,298v3.4l5.5,3h15.4l6.1-3.3v-3.2l4.8-2.6l6.7-0.6l2.7-1.5l0.3-5.7l5-2.7l7.3,1.6l9.5-5.2c10.2,2.3,22.3,1.2,30.6-3.4
			c5.5-3,8.2-7,8.2-11v-3.4C241.7,259.9,238.9,258.6,234,255.9z M227.1,265.7c-3.1,1.7-8.1,1.7-11.3,0c-3.1-1.7-3.1-4.5,0-6.2
			s8.1-1.7,11.3,0C230.2,261.2,230.2,264,227.1,265.7z"/>
		<path id="XMLID_1501_" class="st5" d="M234,252.5c-11-6.1-28.8-6.1-39.7,0c-9,5-10.6,12.5-4.8,18.4L140.2,298l5.5,3h15.4l6.1-3.3
			l-0.4-3l5.2-2.8l6.7-0.6l2.7-1.5l0.3-5.7l5-2.7l7.3,1.6l9.5-5.2c10.2,2.3,22.3,1.2,30.6-3.4C244.9,268.4,244.9,258.5,234,252.5z
			 M227.1,262.3c-3.1,1.7-8.1,1.7-11.3,0c-3.1-1.7-3.1-4.5,0-6.2s8.1-1.7,11.3,0C230.2,257.8,230.2,260.6,227.1,262.3z"/>
		<path id="XMLID_1500_" class="st29" d="M214.1,275.4c-6.9,0-13.2-1.4-18-4.1c-4-2.2-6.4-5.1-6.4-7.9s2.3-5.6,6.4-7.9
			c4.7-2.6,11.1-4.1,18-4.1c6.9,0,13.2,1.4,18,4.1c4,2.2,6.4,5.1,6.4,7.9s-2.3,5.6-6.4,7.9C227.3,273.9,221,275.4,214.1,275.4z"/>
		<path id="XMLID_1499_" class="st11" d="M224.2,277.9v3.4c-6.7,1.4-14.2,1.4-20.9-0.1v-3.4C210,279.3,217.5,279.3,224.2,277.9z"/>
		<polygon id="XMLID_1498_" class="st11" points="193.9,283 193.9,286.4 186.6,284.8 186.6,281.4 		"/>
		<polygon id="XMLID_1497_" class="st11" points="181.6,284.2 181.6,287.6 181.4,293.3 181.4,289.9 		"/>
		<polygon id="XMLID_1496_" class="st11" points="178.7,291.4 178.7,294.8 172,295.3 172,291.9 		"/>
		<rect id="XMLID_1495_" x="145.7" y="301.1" class="st11" width="15.4" height="3.4"/>
		<polygon id="XMLID_1494_" class="st19" points="140.2,298 140.2,301.4 145.7,304.5 145.7,301.1 143.3,299.7 143.3,301.2 
			142,300.5 142,299 		"/>
		<polygon id="XMLID_1492_" class="st5" points="142,299 143.3,299.7 143.3,301.2 142,300.5 		"/>
		<polygon id="XMLID_1491_" class="st19" points="142,299 142,300.5 192.5,272.6 191.1,271.8 		"/>
		<polygon id="XMLID_1409_" class="st19" points="191.1,271.8 191.1,273.3 192.5,272.6 		"/>
	</g>
</g>
</svg>
